<svg width="18" height="18" viewBox="0 0 18 18" fill="none" xmlns="http://www.w3.org/2000/svg">
<g clip-path="url(#clip0_252_7)">
<path d="M16 0H2C1.46957 0 0.960859 0.210714 0.585786 0.585786C0.210714 0.960859 0 1.46957 0 2V16C0 16.5304 0.210714 17.0391 0.585786 17.4142C0.960859 17.7893 1.46957 18 2 18H16C16.5304 18 17.0391 17.7893 17.4142 17.4142C17.7893 17.0391 18 16.5304 18 16V2C18 1.46957 17.7893 0.960859 17.4142 0.585786C17.0391 0.210714 16.5304 0 16 0Z" fill="#00582E"/>
<path d="M9.35613 7.85512C8.81736 8.51365 8.30854 9.18709 7.82958 9.87557C7.5901 10.2198 7.35062 10.579 7.12618 10.9382L5.21065 8.57359C4.9862 8.30426 4.59702 8.24434 4.29772 8.43892C3.98339 8.64844 3.90864 9.06749 4.11817 9.3818L6.52768 12.9587C6.5875 13.0484 6.67738 13.1382 6.78209 13.1981C6.91676 13.2879 7.06647 13.3328 7.21605 13.3328C7.50043 13.3328 7.81463 13.1831 7.94941 12.9287C8.08408 12.6892 8.75751 11.447 9.20652 10.7736C9.64048 10.1001 10.0895 9.44161 10.5834 8.79802C11.0623 8.15454 11.5712 7.52587 12.1099 6.92728C12.6338 6.3287 13.2024 5.71507 13.7712 5.19121L13.7861 5.17628C14.0554 4.92187 14.0705 4.50284 13.831 4.2334C13.5766 3.94902 13.1575 3.91906 12.8732 4.17358C12.2146 4.75725 11.631 5.34092 11.0473 5.95455C10.4487 6.56808 9.87997 7.19664 9.35613 7.85515L9.35613 7.85512Z" fill="white" stroke="white" stroke-width="0.25"/>
</g>
<defs>
<clipPath id="clip0_252_7">
<rect width="18" height="18" fill="white"/>
</clipPath>
</defs>
</svg>
