<svg xmlns="http://www.w3.org/2000/svg" xmlns:xlink="http://www.w3.org/1999/xlink" width="54" height="54" viewBox="0 0 54 54">
  <defs>
    <linearGradient id="linear-gradient" x1="0.145" y1="0.112" x2="0.922" y2="0.876" gradientUnits="objectBoundingBox">
      <stop offset="0" stop-color="#fde159"/>
      <stop offset="1" stop-color="#fe0817"/>
    </linearGradient>
  </defs>
  <g id="Group_651" data-name="Group 651" transform="translate(-745 -4810)">
    <circle id="Ellipse_8702" data-name="Ellipse 8702" cx="27" cy="27" r="27" transform="translate(745 4810)" fill="url(#linear-gradient)"/>
    <path id="noun-analytics-4767045" d="M138.945,62.82a2.642,2.642,0,0,0-2.556,2.629,2.615,2.615,0,0,0,.44,1.45l-4.189,5.961a2.592,2.592,0,0,0-2.14.412l-3.295-2.166a2.607,2.607,0,0,0,.06-.55,2.627,2.627,0,0,0-5.254,0,2.586,2.586,0,0,0,.19.972l-3.616,3.379,0,0a2.6,2.6,0,0,0-1.134-.259,2.627,2.627,0,1,0,2.629,2.623,2.58,2.58,0,0,0-.187-.966l3.616-3.379a2.584,2.584,0,0,0,2.646-.224l3.291,2.17a2.588,2.588,0,0,0-.058.545,2.627,2.627,0,0,0,5.254,0,2.61,2.61,0,0,0-.438-1.448L138.389,68a2.572,2.572,0,0,0,.623.076,2.63,2.63,0,1,0,0-5.26h-.067Zm.03,1.911h.037a.719.719,0,1,1-.711.718A.7.7,0,0,1,138.975,64.73Zm-14.332,5.112a.716.716,0,0,1,0,1.431.716.716,0,1,1,0-1.431ZM137.462,73a.955.955,0,0,0-.952.952v16.6h-2.172V81.591a.955.955,0,0,0-.959-.959h-3.1a.956.956,0,0,0-.959.959v8.956h-2.174V77.768a.955.955,0,0,0-.952-.951h-3.1a.956.956,0,0,0-.959.951V90.547h-2.172V85.412a.955.955,0,0,0-.959-.959h-3.1a.956.956,0,0,0-.952.959v5.135h-2a.955.955,0,1,0,0,1.911h30.57a.955.955,0,0,0,0-1.911h-2v-16.6a.956.956,0,0,0-.952-.951Zm-5.444,1.7a.716.716,0,1,1-.718.72A.7.7,0,0,1,132.018,74.693Zm6.4.213h1.192v15.64h-1.192ZM117.45,76.555a.715.715,0,1,1-.713.713A.7.7,0,0,1,117.45,76.555Zm6.592,2.172h1.192V90.546h-1.192Zm7.187,3.815h1.2v8h-1.2Zm-14.372,3.823h1.192v4.181h-1.192Z" transform="translate(644.009 4759.182)" fill="#fff"/>
  </g>
</svg>
