<svg width="64" height="70" viewBox="0 0 64 70" fill="none" xmlns="http://www.w3.org/2000/svg">
<path fill-rule="evenodd" clip-rule="evenodd" d="M32.0563 0.233897C32.3165 0.35487 32.5581 0.52174 32.768 0.732104C32.8894 0.853166 32.9963 0.984793 33.0882 1.12445C36.2374 5.66888 39.0653 8.57743 42.4219 10.8112C45.8291 13.0787 49.9185 14.7448 55.7636 16.6197C56.4149 16.8286 56.9522 17.2953 57.2502 17.911C57.5483 18.5267 57.581 19.2376 57.3408 19.878L51.3408 35.8778C50.856 37.1706 49.415 37.8256 48.1222 37.3408C46.8294 36.856 46.1744 35.415 46.6592 34.1222L51.7458 20.5581C46.9577 18.9239 43.0749 17.2518 39.6517 14.9737C36.4301 12.8297 33.7029 10.2089 31 6.73316C28.2971 10.2089 25.5699 12.8297 22.3483 14.9737C18.9251 17.2518 15.0423 18.9239 10.2542 20.5581L15.3408 34.1222C15.8256 35.415 15.1706 36.856 13.8778 37.3408C12.585 37.8256 11.144 37.1706 10.6592 35.8778L4.65918 19.878C4.419 19.2376 4.45174 18.5267 4.74977 17.911C5.04779 17.2953 5.58508 16.8286 6.23641 16.6197C12.0815 14.7448 16.1709 13.0787 19.5782 10.8112C22.9347 8.57743 25.7626 5.66887 28.9118 1.12443C29.0037 0.984816 29.1106 0.853228 29.2319 0.732199C29.4418 0.52179 29.6835 0.354886 29.9437 0.233895C30.2813 0.0760746 30.642 -0.000315613 31 9.79967e-07C31.358 -0.000315613 31.7187 0.0760767 32.0563 0.233897ZM31.7999 47.3C36.5601 47.3 40.1999 43.6602 40.1999 38.9C40.1999 34.1398 36.5601 30.5 31.7999 30.5C27.0396 30.5 23.3998 34.1398 23.3998 38.9C23.3998 43.6602 27.0396 47.3 31.7999 47.3ZM31.7999 36.1C33.48 36.1 34.5999 37.2199 34.5999 38.9C34.5999 40.5801 33.48 41.7 31.7999 41.7C30.1198 41.7 28.9999 40.5801 28.9999 38.9C28.9999 37.2199 30.1198 36.1 31.7999 36.1ZM52.5958 48.0957C52.8097 47.8818 53 47.534 53 47C53 46.4659 52.8097 46.1181 52.5958 45.9042C52.3818 45.6902 52.0341 45.5 51.5 45.5C50.9659 45.5 50.6182 45.6902 50.4042 45.9042C50.1903 46.1181 50 46.4659 50 47C50 47.534 50.1903 47.8818 50.4042 48.0957C50.6182 48.3097 50.9659 48.5 51.5 48.5C52.0341 48.5 52.3818 48.3097 52.5958 48.0957ZM58 47C58 50.6834 55.1835 53.5 51.5 53.5C47.8165 53.5 45 50.6834 45 47C45 43.3165 47.8165 40.5 51.5 40.5C55.1835 40.5 58 43.3165 58 47ZM59 64.4999H48.6001V61.0198C48.6001 60.9623 48.5993 60.9048 48.5979 60.8472C51.9268 60.063 55.5874 60.607 58.4561 62.479C58.6424 62.6567 58.7925 62.8554 58.8912 63.0393C58.9805 63.2057 58.9974 63.3005 59 63.3158V64.4999ZM46.9043 56.1184C51.8066 54.798 57.259 55.5918 61.4999 58.4999C62.9583 59.7 64 61.4999 64 63.2999V69.4999H48.6001V69.7H15V69.4999H0V63.2999C0 61.4999 1.04167 59.7 2.70818 58.4999C6.82514 55.6769 12.0836 54.8463 16.8723 56.008C17.3766 55.3786 17.9707 54.8018 18.6398 54.2999C26.4798 48.6999 37.4 48.6999 45.2399 54.2999C45.8595 54.831 46.4231 55.446 46.9043 56.1184ZM15.0066 60.7202C11.7814 60.1216 8.31344 60.7432 5.59223 62.5852C5.33335 62.7793 5.16695 62.9857 5.07645 63.145C5.0213 63.242 5.00445 63.3019 5 63.3214V64.4999H15V61.0198C15 60.9199 15.0022 60.8201 15.0066 60.7202ZM13.5958 48.0957C13.8097 47.8818 14 47.534 14 47C14 46.4659 13.8097 46.1181 13.5958 45.9042C13.3818 45.6902 13.0341 45.5 12.5 45.5C11.9659 45.5 11.6182 45.6902 11.4042 45.9042C11.1903 46.1181 11 46.4659 11 47C11 47.534 11.1903 47.8818 11.4042 48.0957C11.6182 48.3097 11.9659 48.5 12.5 48.5C13.0341 48.5 13.3818 48.3097 13.5958 48.0957ZM19 47C19 50.6834 16.1835 53.5 12.5 53.5C8.81651 53.5 6 50.6834 6 47C6 43.3165 8.81651 40.5 12.5 40.5C16.1835 40.5 19 43.3165 19 47ZM20.6 64.0999H43L42.9998 61.0198C42.9998 60.18 42.7198 59.3402 41.88 58.78C35.9999 54.58 27.6 54.58 21.7199 58.78C21.1602 59.3397 20.6 60.18 20.6 61.0198V64.0999ZM44.4099 24.4351C39.7406 21.2465 35.6427 19.3078 31.2276 19.2826C26.8199 19.2574 22.5794 21.142 17.623 24.4131C16.4706 25.1736 16.1529 26.7243 16.9135 27.8767C17.674 29.029 19.2247 29.3467 20.3771 28.5862C25.0772 25.4843 28.2929 24.2659 31.1991 24.2825C34.0979 24.299 37.1717 25.5468 41.5902 28.5642C42.7304 29.3428 44.2859 29.0497 45.0646 27.9095C45.8432 26.7693 45.5501 25.2137 44.4099 24.4351Z" fill="#00582E"/>
</svg>
