<svg xmlns="http://www.w3.org/2000/svg" width="54" height="54" viewBox="0 0 54 54">
  <g id="Group_307" data-name="Group 307" transform="translate(-703 -6159)">
    <g id="Group_216" data-name="Group 216" transform="translate(-33 1764)">
      <g id="Group_144" data-name="Group 144" transform="translate(465 1053)">
        <ellipse id="Ellipse_27" data-name="Ellipse 27" cx="27" cy="27" rx="27" ry="27" transform="translate(271 3342)" fill="#606060"/>
      </g>
    </g>
    <g id="Group_221" data-name="Group 221" transform="translate(590.705 -187.48)">
      <path id="Path_445" data-name="Path 445" d="M127.913,23.719l.719,1.422,3.4,5.9a.566.566,0,0,0,.77.21l7.681-4.39-3.875,6.854.986.566,4.633-8.231,4.668,8.231,1-.566L144,26.863l7.709,4.39h0a.566.566,0,0,0,.77-.21l3.4-5.925.708-1.4a.566.566,0,0,0-.227-.748L146.5,17.363a.544.544,0,0,0-.776.193l-3.5,6.191-3.472-6.169a.572.572,0,0,0-.776-.215l-9.839,5.591a.566.566,0,0,0-.227.765Zm18.029-4.22,8.921,5.1-1.133,1.971-8.91-5.1Zm-2.226,3.965,8.9,5.1-.844,1.473-8.865-5.092V24.9Zm-2.124,1.461v.04L132.7,29.989l-.844-1.473,8.9-5.1ZM138.54,19.5l1.133,1.971-8.916,5.1-1.133-1.943V24.6Z" transform="translate(-2.941 6339.205)" fill="#fdfcfc"/>
      <path id="Path_446" data-name="Path 446" d="M218.812,297.5h-2.266a1.7,1.7,0,0,0-1.6,1.133h-1.337a1.7,1.7,0,0,0-1.6-1.133h-2.266a1.7,1.7,0,0,0-1.6,1.133h-1.337a1.7,1.7,0,0,0-1.6-1.133h-2.266a1.7,1.7,0,1,0,0,3.4h2.266a1.7,1.7,0,0,0,1.6-1.133h1.337a1.7,1.7,0,0,0,1.6,1.133h2.266a1.7,1.7,0,0,0,1.6-1.133h1.337a1.7,1.7,0,0,0,1.6,1.133h2.266a1.7,1.7,0,1,0,0-3.4Z" transform="translate(-71.596 6077.12)" fill="#fdfcfc"/>
      <path id="Path_447" data-name="Path 447" d="M144.252,197.988a.568.568,0,0,0-.674-.669,3.854,3.854,0,0,0-.368-2.073l-1.223-2.43a.569.569,0,0,0-1-.034l-1.382,2.373a3.965,3.965,0,0,0-.113,3.631l.283.566a3.831,3.831,0,0,0-1,2.016l-.26,1.671a3.677,3.677,0,0,0-.606.686l-1.229,1.886-.221.034h0a3.605,3.605,0,0,0-1.207.47l-.266.164h0a2.266,2.266,0,0,0-4.328.906,1.477,1.477,0,0,0-.334.232l-.091.113a1.211,1.211,0,0,0,0-.142,1.3,1.3,0,1,0-2.594,0,1.2,1.2,0,0,0,0,.142l-.091-.113h0a1.475,1.475,0,0,0-.334-.232,2.266,2.266,0,0,0-4.316-.9l-.266-.164a3.6,3.6,0,0,0-1.206-.47,1.456,1.456,0,0,0-.221,0l-1.2-1.926a3.6,3.6,0,0,0-.6-.68l-.26-1.665h0a3.83,3.83,0,0,0-1-2.022l.283-.566a3.965,3.965,0,0,0-.113-3.631l-1.382-2.379a.567.567,0,0,0-1,.028l-1.218,2.458a3.836,3.836,0,0,0-.374,2.079.569.569,0,0,0-.674.669l.425,2.713h0a3.839,3.839,0,0,0,.566,1.416l-.43-.017a.584.584,0,0,0-.493.867l1.49,2.266a3.817,3.817,0,0,0,2.068,1.518l-.7.345h0a.567.567,0,0,0-.045.991l2.317,1.433a3.648,3.648,0,0,0,1.133.442l-.425.328a.567.567,0,0,0,.159.98l2.566.918h0a3.527,3.527,0,0,0,1.206.2,2.965,2.965,0,0,0,.385,0,3.9,3.9,0,0,0,1.6-.516,1.415,1.415,0,0,0,.227,0h.142l-.113.09h0a1.3,1.3,0,1,0,1.835,1.835l.091-.113a1.2,1.2,0,0,0,0,.142,1.3,1.3,0,1,0,2.594,0,1.2,1.2,0,0,0,0-.142l.091.113h0A1.3,1.3,0,1,0,132.192,212l-.113-.09h.142a1.415,1.415,0,0,0,.227,0,3.93,3.93,0,0,0,1.592.516,3.062,3.062,0,0,0,.391,0,3.529,3.529,0,0,0,1.207-.2l2.566-.918h0a.567.567,0,0,0,.159-.98l-.425-.328a3.65,3.65,0,0,0,1.133-.442l2.317-1.433a.566.566,0,0,0-.046-.991l-.7-.345h0a3.818,3.818,0,0,0,2.068-1.518l1.49-2.266a.583.583,0,0,0-.515-.867h-.419a3.835,3.835,0,0,0,.566-1.416Zm-28.52-2.209.765-1.518.855,1.467a2.832,2.832,0,0,1,.079,2.555l-.181.357c-.1-.051-.193-.108-.289-.153l-1.32-.566h0a2.78,2.78,0,0,1,.091-2.141Zm3.7,10.015-1.076.028a2.622,2.622,0,0,1-2.164-1.161l-.935-1.4,1.631-.04a2.55,2.55,0,0,1,1.631.566,2.612,2.612,0,0,1,.538.566l.833,1.3a3.292,3.292,0,0,0-.459.136Zm4.99,4.832a1.3,1.3,0,0,0,.1.493,2.655,2.655,0,0,1-.731.17,2.542,2.542,0,0,1-1.1-.1l-1.6-.566.8-.623h0a3.205,3.205,0,0,0,.606-.227l1.258-.618h0a2.266,2.266,0,0,0,1.241.334,1.024,1.024,0,0,0,.13,0,1.3,1.3,0,0,0-.7,1.133Zm1.326-3.206a1.307,1.307,0,0,0-.374.872,1.076,1.076,0,0,1-.385.068,1.133,1.133,0,1,1,1.133-1.2,1.4,1.4,0,0,0-.374.255Zm3.206,4.339a1.133,1.133,0,1,1,.8-.332A1.133,1.133,0,0,1,128.958,211.758Zm3.206-4.339a1.406,1.406,0,0,0-.374-.249,1.133,1.133,0,1,1,1.133,1.19,1.079,1.079,0,0,1-.385-.074,1.308,1.308,0,0,0-.374-.867Zm3.065,3.772a2.542,2.542,0,0,1-1.133.119,2.636,2.636,0,0,1-.731-.17,1.291,1.291,0,0,0-.572-1.648,1.013,1.013,0,0,0,.13,0,2.268,2.268,0,0,0,1.241-.374l1.252.618h0a3.387,3.387,0,0,0,.612.227l.8.623Zm5.347-15.464.844-1.467.759,1.524a2.793,2.793,0,0,1,.1,2.119l-1.308.566c-.1.04-.2.1-.3.153l-.181-.357h0a2.832,2.832,0,0,1,.091-2.538Zm1.133,8.933a2.623,2.623,0,0,1-2.169,1.161l-1.065-.028a3.425,3.425,0,0,0-.487-.136l.85-1.3a2.674,2.674,0,0,1,.566-.566,2.566,2.566,0,0,1,1.625-.566l1.637.04Z" transform="translate(10.328 6175.323)" fill="#fdfcfc"/>
    </g>
  </g>
</svg>
