<svg width="47" height="47" viewBox="0 0 47 47" fill="none" xmlns="http://www.w3.org/2000/svg">
<g clip-path="url(#clip0_1575_1494)">
<path d="M15.9517 45.5843C15.05 45.5843 14.814 45.3568 14.814 44.4636V33.4495C14.814 31.1068 14.814 28.7725 14.814 26.4298C14.814 26.2529 14.7972 26.1602 14.7551 26.1181C14.7213 26.0843 14.6624 26.0675 14.5612 26.0675C14.2663 26.0843 14.0556 26.0928 13.8365 26.0928C13.6174 26.0928 13.3899 26.0928 13.1708 26.0843H13.0275C12.3871 26.0675 12.1006 25.781 12.1006 25.1658C12.0921 23.7416 12.0921 22.3175 12.1006 20.8849C12.1006 20.2276 12.3871 19.9411 13.0528 19.9411C13.0528 19.9411 14.4264 19.9327 14.8393 19.9327C15.3281 19.9327 15.8169 19.9327 16.3056 19.9495H16.314C16.491 19.9495 16.5753 19.9242 16.6258 19.8821C16.6764 19.8315 16.6933 19.7304 16.6933 19.5366C16.6764 18.7023 16.6764 17.8681 16.6848 17.0338V16.2922C16.6933 13.8315 18.4039 12.1124 20.8477 12.1124C21.0921 12.1124 21.2101 12.0872 21.2775 12.0197C21.3281 11.9607 21.3534 11.8596 21.3449 11.6995C21.3449 11.5647 21.3702 11.4383 21.4039 11.3119L21.4292 11.2107C21.4966 10.9327 21.4292 10.7557 21.1595 10.545C19.5584 9.25569 18.977 7.10681 19.7017 5.18547C20.4011 3.34839 22.2045 2.1012 24.1764 2.1012H24.3449C26.2831 2.17704 28.0191 3.46636 28.6595 5.32872C29.3253 7.24165 28.7438 9.25569 27.1511 10.5872C27.0669 10.6546 26.9657 10.9579 26.9489 11.3877C26.932 11.7669 26.9994 12.0029 27.0584 12.0703C27.0921 12.104 27.1427 12.1209 27.2101 12.1209C27.2522 12.1209 27.2944 12.1209 27.3281 12.1124C27.3787 12.1124 27.4208 12.104 27.4713 12.104C29.4264 12.1209 30.9601 13.2332 31.4742 15.0113C31.609 15.4832 31.6343 15.9551 31.6343 16.5197C31.6343 16.9664 31.6343 17.413 31.6343 17.8596C31.6343 18.4748 31.6343 19.0984 31.6343 19.7136C31.6343 19.8231 31.6427 19.8821 31.668 19.9158C31.6933 19.9411 31.7522 19.9495 31.8449 19.9495C32.3506 19.9495 32.8393 19.9411 33.3281 19.9411H34.8534C35.6202 19.9411 35.8983 20.2107 35.8983 20.9607C35.8983 22.3343 35.8983 23.7079 35.8983 25.0815C35.8983 25.7978 35.6118 26.0759 34.8955 26.0843C34.8955 26.0843 34.3056 26.0928 34.0949 26.0928C33.8758 26.0928 33.6567 26.0928 33.4461 26.0759H33.4292C33.3028 26.0759 33.2522 26.0928 33.227 26.1181C33.1933 26.1518 33.1764 26.2276 33.1848 26.3456C33.1933 27.4664 33.1933 28.5956 33.1848 29.7164V44.4298C33.1848 45.3568 32.9573 45.5843 32.0303 45.5843H15.9517ZM16.7607 26.1012C16.5837 26.1012 16.4826 26.1181 16.4404 26.1686C16.3983 26.2192 16.373 26.3203 16.373 26.4888C16.3899 32.1855 16.3899 37.8905 16.373 43.5872C16.373 43.781 16.3899 43.8737 16.4404 43.9242C16.491 43.9748 16.5921 43.9917 16.7522 43.9917C19.2045 43.9832 21.6483 43.9832 24.0921 43.9832C26.536 43.9832 28.8534 43.9832 31.2298 43.9917C31.4152 43.9917 31.5163 43.9748 31.5669 43.9242C31.6174 43.8737 31.6343 43.7725 31.6343 43.604C31.6174 41.4636 31.6174 39.3315 31.6258 37.1911V32.9776C31.6258 30.8203 31.6258 28.663 31.6343 26.5057C31.6343 26.3203 31.6174 26.2192 31.5669 26.1686C31.5163 26.1181 31.4236 26.1012 31.2551 26.1012C28.8028 26.1096 26.359 26.1096 23.9152 26.1096C21.4713 26.1096 19.1539 26.1096 16.7775 26.1012V26.0001L16.7691 26.1012H16.7607ZM19.3899 24.4664C24.2438 24.4664 29.0978 24.4664 33.9433 24.4832C34.1287 24.4832 34.2213 24.4664 34.2635 24.4158C34.3056 24.3737 34.3225 24.281 34.314 24.1209C34.2803 23.3793 34.2803 22.6293 34.314 21.8961C34.314 21.7445 34.3056 21.6433 34.2635 21.6012C34.2213 21.5591 34.1286 21.5338 33.9517 21.5338C32.1483 21.5338 30.3618 21.5422 28.5669 21.5422H19.5837C17.7213 21.5422 15.859 21.5422 14.0051 21.5338C13.8534 21.5338 13.7691 21.5506 13.727 21.5928C13.6933 21.6265 13.6764 21.7107 13.6764 21.8456C13.7017 22.5534 13.7017 23.3287 13.6764 24.222C13.6764 24.3315 13.6848 24.4074 13.7185 24.4327C13.7438 24.4664 13.8112 24.4748 13.9208 24.4748C14.8477 24.4579 15.741 24.4579 16.6427 24.4579H19.3815L19.3899 24.4664ZM26.3758 19.9327C26.3758 19.9327 26.4517 19.9327 26.4854 19.9327C26.5191 19.9327 26.5444 19.9327 26.5781 19.9327C26.6286 19.9327 26.6539 19.9242 26.6792 19.8989C26.7129 19.8568 26.7298 19.6293 26.6792 19.2585C26.6286 18.8793 26.5275 18.6265 26.477 18.5928C25.7101 18.0366 25.4236 17.2276 25.7101 16.4102C25.9798 15.6349 26.6624 15.1546 27.4882 15.1546C28.3309 15.1546 28.9882 15.6433 29.2579 16.4439C29.5191 17.2107 29.2494 18.045 28.5921 18.5254C28.3899 18.6686 28.2803 18.7529 28.2803 18.9888C28.2803 19.486 28.2803 19.7388 28.373 19.8315C28.4657 19.9242 28.7354 19.9327 29.2073 19.9327H29.5528C29.6286 19.9327 29.7045 19.9327 29.7803 19.9327C29.7972 19.9327 29.814 19.9327 29.8225 19.9327C29.932 19.9327 29.9657 19.9242 29.9826 19.8989C30.0163 19.8652 30.0247 19.8063 30.0247 19.7051C30.0247 19.0815 30.0247 18.4579 30.0247 17.8343C30.0247 17.2613 30.0247 16.6798 30.0247 16.1068C30.0163 15.3063 29.6876 14.6489 29.0472 14.1518C28.5416 13.7641 27.9854 13.6883 27.2944 13.6883C27.1511 13.6883 27.0163 13.6883 26.873 13.6883C26.7213 13.6883 26.6876 13.7388 26.6202 13.8315L26.5697 13.8989L24.8843 15.9804C24.6399 16.2838 24.3955 16.427 24.1511 16.427C23.9067 16.427 23.6624 16.2838 23.418 15.9804C23.064 15.5506 21.7663 13.9411 21.7663 13.9411L21.7073 13.8568C21.6399 13.7557 21.5893 13.6967 21.4966 13.6883C21.3197 13.6714 21.1511 13.6546 20.9826 13.6546C19.3393 13.6546 18.3112 14.59 18.286 16.0984C18.286 16.6209 18.286 17.1518 18.286 17.6742C18.286 18.3147 18.286 18.9636 18.2775 19.604C18.2775 19.7473 18.2944 19.84 18.3281 19.8821C18.3702 19.9242 18.4461 19.9411 18.5893 19.9411C19.2045 19.9327 19.786 19.9327 20.359 19.9327H24.1764H26.359H26.3758ZM27.4545 16.7304C27.227 16.8063 27.2017 16.9411 27.2017 17.0254C27.2017 17.2023 27.3112 17.3034 27.4882 17.3034C27.6146 17.3034 27.682 17.2613 27.7326 17.2023C27.7747 17.1518 27.8 17.0759 27.7916 17.0001C27.7663 16.7894 27.6062 16.7304 27.4629 16.722L27.4545 16.7304ZM22.9713 11.4804C22.9629 11.6405 22.9376 11.7669 22.9124 11.8933C22.8197 12.3905 22.7438 12.8203 23.2073 13.2248C23.477 13.4607 23.6876 13.7473 23.9152 14.0506C23.991 14.1602 24.0753 14.2697 24.1595 14.3709L25.3056 12.9636C25.4657 12.7613 25.5079 11.6995 25.3646 11.4973H25.2719C24.859 11.59 24.5051 11.6237 24.168 11.6237C23.8309 11.6237 23.4685 11.5815 23.1315 11.5057L22.9882 11.472L22.9713 11.4804ZM24.1595 3.71075C23.3084 3.71075 22.5079 4.0394 21.918 4.62929C21.3281 5.21917 20.9994 6.01974 20.9994 6.87929C20.9994 8.64895 22.3815 10.031 24.1343 10.0394C25.0107 10.0394 25.8112 9.71075 26.4011 9.12086C26.991 8.53097 27.3197 7.73041 27.3197 6.87086C27.3197 5.10962 25.9376 3.71917 24.1764 3.71075L24.1511 3.60962V3.71075H24.1595Z" fill="#AEBAA9"/>
<path d="M24.1769 2.21067C24.2275 2.21067 24.2865 2.21067 24.3371 2.21067C26.2415 2.27809 27.9269 3.53371 28.559 5.36236C29.2078 7.22472 28.6348 9.21348 27.0842 10.5028C26.823 10.7219 26.7472 11.9017 26.9831 12.1376C27.0505 12.2051 27.1264 12.2219 27.2106 12.2219C27.2949 12.2219 27.3876 12.2051 27.4719 12.2051C29.3764 12.2219 30.868 13.3006 31.3736 15.0365C31.5168 15.5169 31.5337 16.014 31.5253 16.5112C31.5253 17.573 31.5253 18.6433 31.5168 19.7051C31.5168 19.9663 31.5842 20.0506 31.8371 20.0506C31.8371 20.0506 31.8539 20.0506 31.8623 20.0506C32.3342 20.0506 32.8146 20.0421 33.2865 20.0421C33.809 20.0421 34.3314 20.0421 34.8455 20.0421C35.5449 20.0421 35.7809 20.2612 35.7893 20.9522C35.7893 22.3258 35.7893 23.6994 35.7893 25.073C35.7893 25.7388 35.5533 25.9663 34.8876 25.9747C34.618 25.9747 34.3567 25.9831 34.0871 25.9831C33.8764 25.9831 33.6573 25.9831 33.4466 25.9663C33.4298 25.9663 33.4129 25.9663 33.396 25.9663C33.1432 25.9663 33.0758 26.0674 33.0758 26.3455C33.0927 27.8539 33.0758 29.3708 33.0758 30.8792C33.0758 35.3961 33.0758 39.9129 33.0758 44.4298C33.0758 45.2978 32.8989 45.4831 32.0224 45.4831C29.3427 45.4831 26.6629 45.4831 23.9831 45.4831C21.3033 45.4831 18.6236 45.4831 15.9438 45.4831C15.1011 45.4831 14.9157 45.2978 14.9157 44.4635C14.9157 41.4719 14.9157 38.4888 14.9157 35.4972C14.9157 32.5056 14.9157 29.4551 14.9157 26.4298C14.9157 26.1095 14.8651 25.9663 14.5618 25.9663C14.5365 25.9663 14.5112 25.9663 14.4775 25.9663C14.2668 25.9831 14.0562 25.9831 13.8455 25.9831C13.5758 25.9831 13.3062 25.9831 13.0365 25.9663C12.4635 25.9494 12.2106 25.7219 12.2106 25.1489C12.2022 23.7247 12.2022 22.3006 12.2106 20.8764C12.2106 20.2781 12.455 20.0421 13.0618 20.0337C13.6517 20.0337 14.25 20.0253 14.8399 20.0253C15.3286 20.0253 15.8174 20.0253 16.3062 20.0421C16.323 20.0421 16.3399 20.0421 16.3567 20.0421C16.7359 20.0421 16.8033 19.8904 16.7949 19.5281C16.7696 18.4494 16.7865 17.3624 16.7949 16.2837C16.7949 13.882 18.455 12.2051 20.8483 12.2051C20.8483 12.2051 20.8567 12.2051 20.8651 12.2051H20.8736C21.2696 12.2051 21.4719 12.1124 21.4466 11.6826C21.4382 11.5309 21.4887 11.3792 21.5309 11.2275C21.6067 10.8989 21.514 10.6882 21.2275 10.4607C19.6601 9.19663 19.1039 7.08146 19.8033 5.2191C20.4859 3.41573 22.2556 2.20225 24.1769 2.20225M24.1517 10.1489C25.9887 10.1489 27.4298 8.70787 27.4298 6.87921C27.4298 5.05899 26.0056 3.6264 24.1854 3.60955C24.1854 3.60955 24.1685 3.60955 24.1601 3.60955C22.3314 3.60955 20.8904 5.05056 20.8989 6.87921C20.8989 8.69101 22.3399 10.1404 24.1432 10.1489C24.1432 10.1489 24.1517 10.1489 24.1601 10.1489M24.1601 14.5393C24.5899 14.0084 24.9859 13.5197 25.382 13.0309C25.5758 12.7949 25.618 11.6742 25.441 11.4382C25.4073 11.3876 25.3651 11.3792 25.3314 11.3792C25.2809 11.3792 25.2219 11.4045 25.1713 11.4213C24.8342 11.4972 24.4972 11.5309 24.1601 11.5309C23.823 11.5309 23.4775 11.4972 23.1404 11.4213C23.0899 11.4129 23.0224 11.3876 22.9803 11.3876C22.9297 11.3876 22.8876 11.4129 22.8708 11.5225C22.8033 12.1376 22.5084 12.7697 23.1404 13.3174C23.5196 13.6461 23.7977 14.1011 24.1601 14.5562M18.6067 20.0506C18.6067 20.0506 18.632 20.0506 18.6489 20.0506C19.2219 20.0421 19.8033 20.0421 20.3764 20.0421C21.0674 20.0421 21.7668 20.0421 22.4578 20.0421C23.0309 20.0421 23.6039 20.0421 24.1685 20.0421C24.9017 20.0421 25.6348 20.0421 26.368 20.0421C26.4354 20.0421 26.5028 20.059 26.5786 20.059C26.6545 20.059 26.705 20.0421 26.764 19.9916C26.9157 19.823 26.7472 18.6685 26.5533 18.5253C25.8286 18.0028 25.5505 17.236 25.8286 16.4607C26.0899 15.7275 26.7219 15.2725 27.5056 15.2725C27.5056 15.2725 27.514 15.2725 27.5224 15.2725C28.3062 15.2725 28.9298 15.736 29.1826 16.486C29.4269 17.2107 29.1826 17.986 28.5505 18.4494C28.3483 18.5927 28.1966 18.7022 28.1966 18.9972C28.1966 20.0421 28.1798 20.0421 29.2331 20.0421C29.3511 20.0421 29.4691 20.0421 29.5871 20.0421C29.6629 20.0421 29.7303 20.0421 29.8062 20.0421C29.8314 20.0421 29.8651 20.0421 29.8904 20.0421C30.0842 20.0421 30.1769 19.9663 30.1769 19.7051C30.1601 18.5 30.1769 17.3034 30.1685 16.0983C30.1601 15.264 29.8146 14.573 29.1489 14.059C28.6011 13.6376 27.9775 13.5702 27.3371 13.5702C27.1685 13.5702 27 13.5702 26.8399 13.5702C26.6798 13.5702 26.6208 13.7135 26.5365 13.823C25.9719 14.514 25.4157 15.2135 24.8511 15.9045C24.632 16.1742 24.4129 16.3174 24.2022 16.3174C23.9915 16.3174 23.7724 16.1826 23.5533 15.9045C22.9972 15.2303 22.4494 14.5478 21.9017 13.8652C21.809 13.7472 21.7415 13.5955 21.5646 13.5702C21.3876 13.5534 21.2106 13.5365 21.0421 13.5365C19.3988 13.5365 18.2612 14.4803 18.2444 16.0815C18.2275 17.2528 18.2612 18.4157 18.2275 19.5871C18.2191 19.9579 18.3371 20.0253 18.6573 20.0253M27.4887 17.4129C27.4887 17.4129 27.5224 17.4129 27.5393 17.4129C27.7668 17.3961 27.9185 17.2275 27.8932 17C27.868 16.7809 27.7247 16.6376 27.4466 16.6292C27.2696 16.6882 27.0927 16.7978 27.1011 17.0337C27.1011 17.2781 27.2612 17.4213 27.4887 17.4213M28.559 21.4494C27.059 21.4494 25.5505 21.4494 24.0505 21.4494C22.5505 21.4494 21.1264 21.4494 19.6601 21.4494C17.7724 21.4494 15.8932 21.4494 14.0056 21.4494C13.6854 21.4494 13.5674 21.5169 13.5842 21.8624C13.6095 22.6545 13.6095 23.4382 13.5842 24.2303C13.5842 24.5169 13.6685 24.5927 13.9297 24.5927C13.9382 24.5927 13.9466 24.5927 13.955 24.5927C14.7977 24.5758 15.632 24.5758 16.4747 24.5758C16.6854 24.5758 16.8876 24.5758 17.0983 24.5758C22.7106 24.5758 28.3314 24.5758 33.9438 24.5927C34.3146 24.5927 34.4326 24.5169 34.4157 24.1208C34.382 23.3876 34.382 22.6461 34.4157 21.9045C34.4326 21.5084 34.3062 21.4326 33.9438 21.4326C33.9438 21.4326 33.9354 21.4326 33.9269 21.4326C32.132 21.4326 30.3371 21.441 28.5505 21.441M23.9326 26C21.5477 26 19.1545 26 16.7696 25.9916C16.3904 25.9916 16.264 26.0758 16.2724 26.4888C16.2893 32.1854 16.2893 37.8904 16.2724 43.5871C16.2724 43.9663 16.3399 44.1011 16.7612 44.1011C19.1966 44.0927 21.6236 44.0927 24.059 44.0927C26.4944 44.0927 28.8455 44.0927 31.2303 44.1011C31.618 44.1011 31.7359 44.0169 31.7359 43.6039C31.7191 40.7556 31.7275 37.9073 31.7275 35.059C31.7275 32.2107 31.7275 29.3624 31.7359 26.514C31.7359 26.1264 31.6601 26 31.2472 26C28.8118 26.0084 26.3764 26.0084 23.941 26.0084M24.1769 2C22.1629 2 20.3258 3.26404 19.6095 5.15169C18.8595 7.11517 19.4578 9.31461 21.0927 10.6292C21.3286 10.8146 21.3792 10.9494 21.3286 11.1854L21.3033 11.2781C21.2696 11.4045 21.2359 11.5478 21.2444 11.6994C21.2444 11.8174 21.2444 11.9017 21.2022 11.9354C21.1601 11.9775 21.0505 11.9944 20.8736 11.9944C18.3455 11.9944 16.5927 13.7556 16.5842 16.2837V16.9916C16.5842 17.8258 16.5758 18.6854 16.5842 19.5365C16.5842 19.7303 16.5674 19.7893 16.5505 19.8062C16.5505 19.8062 16.5084 19.8399 16.3567 19.8399H16.3146C15.8258 19.823 15.3286 19.8146 14.8399 19.8146C14.4269 19.8146 14.014 19.8146 13.5927 19.8146H13.0618C12.3455 19.823 12.0084 20.1601 12 20.868C11.9915 22.3848 11.9915 23.7837 12 25.1489C12 25.823 12.3455 26.1601 13.0365 26.177H13.1882C13.4073 26.1854 13.6264 26.1938 13.8455 26.1938C14.0646 26.1938 14.2837 26.1938 14.4944 26.1685C14.5196 26.1685 14.5449 26.1685 14.5618 26.1685C14.6545 26.1685 14.6797 26.1854 14.6797 26.1854C14.6797 26.1854 14.7135 26.2275 14.7135 26.4213C14.705 28.7556 14.705 31.0815 14.7135 33.4157V35.4888V37.9494V44.4466C14.7135 45.3989 14.9915 45.677 15.9606 45.677H24H32.0393C33.0253 45.677 33.3033 45.4073 33.3033 44.4129V34.6882V30.8624V29.691C33.3033 28.5702 33.3033 27.4494 33.3033 26.3287C33.3033 26.2107 33.3202 26.177 33.3202 26.177C33.3202 26.177 33.3539 26.177 33.4129 26.177H33.455C33.6741 26.1854 33.8848 26.1938 34.1039 26.1938C34.3062 26.1938 34.5 26.1938 34.7022 26.1938H34.9129C35.6966 26.177 36.0168 25.8567 36.0168 25.0815C36.0168 23.7079 36.0168 22.3343 36.0168 20.9607C36.0168 20.1601 35.6882 19.8399 34.8708 19.8399H34.4241C34.0533 19.8399 33.6826 19.8399 33.3033 19.8399C32.823 19.8399 32.3511 19.8399 31.8708 19.8483C31.7865 19.8483 31.7528 19.8483 31.7444 19.8399C31.7444 19.8399 31.7444 19.8062 31.7444 19.7219C31.7528 19.1067 31.7444 18.4916 31.7444 17.868C31.7444 17.4213 31.7444 16.9747 31.7444 16.5197C31.7444 15.9466 31.7191 15.4663 31.5842 14.986C31.0533 13.1573 29.4859 12.0197 27.4803 12.0028C27.4213 12.0028 27.3708 12.0028 27.3202 12.0112C27.2865 12.0112 27.2444 12.0197 27.2106 12.0197C27.1517 12.0197 27.1432 12.0112 27.1348 11.9944C27.1011 11.9607 27.0337 11.7416 27.059 11.3455C27.0842 10.9494 27.1769 10.7135 27.2191 10.6713C28.8455 9.31461 29.4354 7.25843 28.7612 5.30337C28.1039 3.39888 26.3258 2.07584 24.3455 2C24.2865 2 24.2359 2 24.1769 2ZM24.1517 9.9382C22.441 9.9382 21.1095 8.58989 21.1095 6.87921C21.1095 6.05337 21.4213 5.27809 21.9944 4.70506C22.5674 4.13202 23.3342 3.82022 24.1601 3.82022C25.8876 3.82865 27.2191 5.17697 27.2191 6.87921C27.2191 7.71348 26.9073 8.48034 26.3342 9.05337C25.7612 9.6264 24.9859 9.9382 24.1517 9.9382ZM24.1601 11.7416C24.5056 11.7416 24.868 11.6994 25.2135 11.6236C25.2387 11.6236 25.264 11.6067 25.2893 11.5983C25.382 11.8427 25.3399 12.7444 25.2219 12.8961L24.3623 13.9494L24.1601 14.1938C24.1011 14.118 24.0505 14.0506 24 13.9747C23.7724 13.6629 23.5533 13.368 23.2753 13.132C22.8623 12.7697 22.9297 12.3904 23.014 11.9017C23.0309 11.8006 23.0477 11.6994 23.0646 11.6067C23.0646 11.6067 23.0814 11.6067 23.0899 11.6067C23.4438 11.6826 23.7977 11.7247 24.1517 11.7247L24.1601 11.7416ZM18.6067 20.0506V19.8399C18.4466 19.8399 18.4213 19.8146 18.4129 19.8146C18.4129 19.8146 18.3876 19.7809 18.3876 19.6124C18.4045 18.9635 18.4045 18.323 18.396 17.6742C18.396 17.1517 18.396 16.6292 18.396 16.1067C18.4129 14.6657 19.4073 13.764 20.9831 13.764C21.1432 13.764 21.3118 13.7725 21.4803 13.7893C21.5224 13.7893 21.5477 13.823 21.6151 13.9157C21.6404 13.9494 21.6573 13.9747 21.6826 14L22.2556 14.6994C22.618 15.1461 22.9803 15.5927 23.3427 16.0393C23.6123 16.368 23.882 16.5281 24.1601 16.5281C24.4382 16.5281 24.7078 16.368 24.9775 16.0393C25.3146 15.6264 25.6432 15.2219 25.9719 14.809L26.6545 13.9579C26.6545 13.9579 26.6966 13.9073 26.7135 13.882C26.764 13.8146 26.7893 13.7893 26.8062 13.7893H26.882C27.0253 13.7893 27.1601 13.7893 27.3033 13.7893C27.9691 13.7893 28.5084 13.8652 28.9887 14.236C29.6039 14.7079 29.9157 15.3399 29.9241 16.1067C29.9241 16.6798 29.9241 17.2528 29.9241 17.8343C29.9241 18.4579 29.9241 19.0899 29.9241 19.7135C29.9241 19.7893 29.9157 19.823 29.9073 19.8315C29.9073 19.8315 29.882 19.8315 29.8483 19.8315C29.8314 19.8315 29.8062 19.8315 29.7809 19.8315C29.705 19.8315 29.6292 19.8315 29.5449 19.8315H29.368H29.1994C28.8118 19.8315 28.5084 19.8315 28.441 19.764C28.3736 19.6966 28.3736 19.4101 28.382 19.0478V18.9972C28.382 18.8202 28.441 18.7697 28.6348 18.6264C29.3427 18.1124 29.6292 17.2275 29.3595 16.4185C29.073 15.5758 28.382 15.0618 27.4972 15.0618C26.6123 15.0618 25.896 15.5674 25.6095 16.3848C25.3062 17.2528 25.6095 18.1124 26.4101 18.6938C26.5196 18.8287 26.646 19.6966 26.5786 19.8652C26.5365 19.8483 26.5112 19.8399 26.4859 19.8399C26.4438 19.8399 26.4017 19.8315 26.3595 19.8315C25.6264 19.8315 24.8932 19.8315 24.1601 19.8315H23.3005H22.441H21.4045H20.3595C19.7781 19.8315 19.205 19.8315 18.6236 19.8399L18.5899 20.0506H18.6067ZM27.4887 17.2022C27.3708 17.2022 27.3118 17.1433 27.3118 17.0253C27.3118 16.9831 27.3118 16.8989 27.4719 16.8399C27.6657 16.8567 27.6826 16.9747 27.6826 17.0169C27.6826 17.0674 27.6826 17.1095 27.6489 17.1433C27.6236 17.177 27.573 17.1938 27.514 17.2022H27.4803H27.4887ZM28.559 21.6601C30.3539 21.6601 32.1489 21.6601 33.9438 21.6517C34.1545 21.6517 34.1882 21.677 34.1966 21.6854C34.1966 21.6854 34.2303 21.7191 34.2219 21.9045C34.1882 22.6376 34.1882 23.3876 34.2219 24.1376C34.2303 24.323 34.205 24.3567 34.1966 24.3567C34.1966 24.3567 34.1545 24.3904 33.9522 24.3904C28.896 24.3736 23.8483 24.3736 18.809 24.3736H17.0983H16.9719H16.4747C15.632 24.3736 14.7893 24.3736 13.955 24.3904C13.8455 24.3904 13.8118 24.382 13.8033 24.3736C13.8033 24.3736 13.7949 24.3399 13.8033 24.2388C13.8286 23.3287 13.8286 22.5702 13.8033 21.8539C13.8033 21.7107 13.8202 21.677 13.8202 21.677C13.8202 21.677 13.8539 21.6517 14.014 21.6517C15.9101 21.6517 17.7893 21.6517 19.6769 21.6517H21.8764H24.0758H26.3342H28.5927L28.559 21.6601ZM23.9326 26.2107C26.368 26.2107 28.8033 26.2107 31.2387 26.2022C31.4326 26.2022 31.4747 26.236 31.4831 26.2444C31.5 26.2612 31.5168 26.3118 31.5168 26.5056C31.5084 28.6713 31.5084 30.8371 31.5084 33.0112V35.059V37.1404C31.5084 39.2978 31.5084 41.4551 31.5168 43.6124C31.5168 43.8062 31.4915 43.8483 31.4747 43.8567C31.4663 43.8652 31.4157 43.8989 31.2219 43.8989C28.8202 43.8989 26.4354 43.8904 24.0421 43.8904C21.6489 43.8904 19.1797 43.8904 16.7444 43.8989C16.5505 43.8989 16.5084 43.8652 16.5 43.8567C16.4831 43.8399 16.4663 43.7893 16.4663 43.5955C16.4831 37.3848 16.4747 31.7893 16.4663 26.4972C16.4663 26.3034 16.4915 26.2612 16.5084 26.2528C16.5253 26.236 16.5758 26.2191 16.7612 26.2191C19.1545 26.2191 21.5477 26.2275 23.9326 26.2275V26.2107Z" fill="#AEBAA9"/>
<path d="M24.0509 21.441C27.3458 21.441 30.6408 21.441 33.9441 21.4326C34.3149 21.4326 34.4498 21.5 34.4245 21.9045C34.3823 22.6377 34.3908 23.3792 34.4245 24.1208C34.4413 24.5169 34.3149 24.5927 33.9441 24.5927C28.3318 24.5759 22.711 24.5759 17.0986 24.5759C16.0537 24.5759 15.0003 24.5759 13.9554 24.5927C13.6689 24.5927 13.5677 24.5253 13.5762 24.2304C13.593 23.4382 13.6014 22.6461 13.5762 21.8624C13.5677 21.5169 13.6773 21.441 14.0059 21.4495C17.3514 21.4579 20.7054 21.4495 24.0509 21.4495V21.441Z" fill="#FDEE0E"/>
<path d="M27.4461 16.6207C27.7242 16.6292 27.8759 16.7808 27.8927 16.9915C27.918 17.219 27.7663 17.3876 27.5388 17.4044C27.286 17.4213 27.109 17.278 27.1006 17.0252C27.1006 16.7893 27.2691 16.6797 27.4461 16.6207Z" fill="#E8E6E6"/>
<path d="M27.4723 19.014C28.5753 19.014 29.4695 18.1199 29.4695 17.0168C29.4695 15.9138 28.5753 15.0197 27.4723 15.0197C26.3693 15.0197 25.4751 15.9138 25.4751 17.0168C25.4751 18.1199 26.3693 19.014 27.4723 19.014Z" fill="#638162"/>
</g>
<defs>
<clipPath id="clip0_1575_1494">
<rect width="24" height="43.6938" fill="white" transform="translate(12 2)"/>
</clipPath>
</defs>
</svg>
