<svg width="64" height="58" viewBox="0 0 64 58" fill="none" xmlns="http://www.w3.org/2000/svg">
<path fill-rule="evenodd" clip-rule="evenodd" d="M55.0397 11.2H55.5999C60.3601 11.2 64 14.8398 64 19.6V42C64 46.6291 60.5578 50.1987 55.9906 50.3918C55.7863 54.6281 52.2869 58 48 58H8C3.58172 58 0 54.4183 0 50V27C0 22.5817 3.58172 19 8 19H8.01947C8.31104 14.5373 11.8419 11.2 16.4 11.2H16.9601C16.1199 9.2398 16.1199 7.2801 16.9601 5.3199C18.08 2.2398 21.4397 0 24.7999 0C27.88 0 32.9198 3.9199 35.9999 8.1199C39.08 3.9199 44.1198 0 47.1999 0C50.56 0 53.9198 2.2398 55.0397 5.3199C55.5999 7.2801 55.5999 9.2398 55.0397 11.2ZM13.6509 19H48C50.7061 19 53.0984 20.3436 54.5461 22.4001H58.3999V19.6001C58.3999 17.92 57.28 16.8001 55.5999 16.8001H16.3999C14.9289 16.8001 13.8873 17.6586 13.6509 19ZM56 28.0001V44.778C57.4554 44.6135 58.3999 43.543 58.3999 42.0001V28.0001H56ZM49.7198 7.2801C49.4397 6.43984 48.3198 5.6 47.1999 5.6C45.7999 5.8801 42.7198 8.6801 40.48 11.2H48.5999C49.7198 9.8 50.28 8.4 49.7198 7.2801ZM24.7998 5.6C23.6799 5.6 22.56 6.43987 22.2799 7.2801C21.7197 8.6801 22.2799 9.8 23.3998 11.2H31.5197C29.56 8.6801 26.1998 5.88008 24.7998 5.6ZM8 24H48C49.6569 24 51 25.3431 51 27V31H5V27C5 25.3431 6.34315 24 8 24ZM51 50V36H5V50C5 51.6569 6.34315 53 8 53H48C49.6569 53 51 51.6569 51 50ZM21.75 41.25H10.25V46.75H21.75V41.25Z" fill="#00582E"/>
</svg>
