<svg id="Group_292" data-name="Group 292" xmlns="http://www.w3.org/2000/svg" xmlns:xlink="http://www.w3.org/1999/xlink" width="53" height="54" viewBox="0 0 53 54">
  <defs>
    <clipPath id="clip-path">
      <rect id="Rectangle_22" data-name="Rectangle 22" width="23.184" height="36.674" fill="none"/>
    </clipPath>
  </defs>
  <g id="Group_176" data-name="Group 176">
    <ellipse id="Ellipse_19" data-name="Ellipse 19" cx="26.5" cy="27" rx="26.5" ry="27" fill="#606060"/>
    <g id="Group_175" data-name="Group 175" transform="translate(13.816 9)">
      <g id="Group_174" data-name="Group 174" clip-path="url(#clip-path)">
        <path id="Path_397" data-name="Path 397" d="M15.238,2.215l-8.2,1.965L7.125.417A.419.419,0,0,1,7.544,0L22.765.375a.419.419,0,0,1,.418.418l-.627,26.345L16.869,3.219A1.315,1.315,0,0,0,15.53,2.174c-.083,0-.167.042-.293.042Zm7.9,30.067a.8.8,0,0,1-.084.544.648.648,0,0,1-.46.335l-14.8,3.513H7.627a.765.765,0,0,1-.711-.544l-6.9-28.9A.8.8,0,0,1,.1,6.69a.647.647,0,0,1,.46-.335L7,4.808,15.363,2.8h.167a.765.765,0,0,1,.711.544l6.231,26.219ZM.727,7.066l6.858,28.9,14.8-3.513L22.054,30.9,15.572,3.553,7,5.6ZM8.338,20.322A2.475,2.475,0,0,1,6.707,19.7a2.615,2.615,0,0,1-.795-1.3,2.443,2.443,0,0,1,.293-1.882,2.1,2.1,0,0,1,.585-.627,2.279,2.279,0,0,1,1-.5,2.511,2.511,0,1,1,1.129,4.893c-.209,0-.419.041-.586.041ZM7.083,18.106a1.519,1.519,0,0,0,.544.795,1.3,1.3,0,0,0,.962.167A1.252,1.252,0,0,0,8.3,16.6.714.714,0,0,0,8,16.642a1.227,1.227,0,0,0-.92,1.464Zm9.074,1.463a2.493,2.493,0,0,1,1.129,1.547A2.443,2.443,0,0,1,16.994,23a2.656,2.656,0,0,1-1.547,1.129,2.829,2.829,0,0,1-.585.084,2.348,2.348,0,0,1-1.3-.376,2.493,2.493,0,0,1-1.129-1.547,2.443,2.443,0,0,1,.293-1.882,2.656,2.656,0,0,1,1.547-1.129A2.5,2.5,0,0,1,16.158,19.569Zm-1.338.878a.713.713,0,0,0-.293.042,1.52,1.52,0,0,0-.795.544,1.3,1.3,0,0,0-.167.962,1.519,1.519,0,0,0,.544.795,1.53,1.53,0,0,0,.962.167,1.247,1.247,0,0,0,.962-1.505,1.519,1.519,0,0,0-.544-.795A1.265,1.265,0,0,0,14.82,20.448ZM8.17,26.469l7.9-12.8A.638.638,0,0,0,14.986,13L7.125,25.842a.669.669,0,0,0,.209.878.451.451,0,0,0,.335.084.773.773,0,0,0,.5-.335Z" transform="translate(0 0.001)" fill="#fff"/>
      </g>
    </g>
  </g>
</svg>
