<svg xmlns="http://www.w3.org/2000/svg" xmlns:xlink="http://www.w3.org/1999/xlink" width="54" height="54" viewBox="0 0 54 54">
  <defs>
    <linearGradient id="linear-gradient" x1="0.145" y1="0.112" x2="0.922" y2="0.876" gradientUnits="objectBoundingBox">
      <stop offset="0" stop-color="#fde159"/>
      <stop offset="1" stop-color="#fe0817"/>
    </linearGradient>
  </defs>
  <g id="Group_668" data-name="Group 668" transform="translate(-743 -1171)">
    <circle id="Ellipse_8698" data-name="Ellipse 8698" cx="27" cy="27" r="27" transform="translate(743 1171)" fill="url(#linear-gradient)"/>
    <g id="Group_102" data-name="Group 102" transform="translate(12.997 83.046)">
      <path id="Path_302" data-name="Path 302" d="M392.676,161.38a26.947,26.947,0,0,1-1.18,2.881,3.48,3.48,0,0,1-.278,2.881,5.461,5.461,0,0,1-.521.833c-.521.694-1.215,1.458-1.978,2.291-.035.069-.1.1-.174.174a.539.539,0,0,1-.729.1.546.546,0,0,1-.1-.833c.069-.069.1-.139.174-.208a17.546,17.546,0,0,0,2.325-2.881c.729-1.458.243-2.395-.451-2.811a1.333,1.333,0,0,0-1.84.312,24.6,24.6,0,0,1-2.36,2.881,27.34,27.34,0,0,0-2.5,3.193,15,15,0,0,0-1.562,6.074c-.069,1.249-.1,2.707-.139,3.575a.785.785,0,0,0,.8.8h5.1a.785.785,0,0,0,.8-.8v-1.458a1.085,1.085,0,0,1,.451-.868,22.179,22.179,0,0,0,4.442-3.783c2.083-2.429,2.846-9.579,2.95-11.731a1.646,1.646,0,0,0-3.228-.625Z" transform="translate(378.074 947.516)" fill="#fff"/>
      <path id="Path_303" data-name="Path 303" d="M96.8,170.753a24.7,24.7,0,0,0-2.5-3.193,33.181,33.181,0,0,1-2.36-2.881,1.333,1.333,0,0,0-1.84-.312c-.694.416-1.215,1.388-.451,2.811a15.556,15.556,0,0,0,2.325,2.881c.069.069.1.139.174.208a.546.546,0,0,1-.1.833.626.626,0,0,1-.729-.1l-.174-.174c-.764-.833-1.458-1.6-1.978-2.291a5.465,5.465,0,0,1-.521-.833,3.354,3.354,0,0,1-.278-2.881,26.948,26.948,0,0,1-1.18-2.881,1.646,1.646,0,0,0-3.228.625c.1,2.117.868,9.267,2.95,11.7a25.105,25.105,0,0,0,4.477,3.853,1.085,1.085,0,0,1,.451.868v1.458a.785.785,0,0,0,.8.8h5.1a.785.785,0,0,0,.8-.8c-.035-.868-.069-2.325-.139-3.575a17.045,17.045,0,0,0-1.6-6.108Z" transform="translate(657.049 946.992)" fill="#fff"/>
      <path id="Path_304" data-name="Path 304" d="M301.917,172.519a1.1,1.1,0,0,0-1.111-1.111h-1.18v-1.18a1.111,1.111,0,1,0-2.221,0v1.18h-1.18a1.111,1.111,0,1,0,0,2.222h1.18v1.18a1.111,1.111,0,1,0,2.221,0v-1.18h1.18A1.1,1.1,0,0,0,301.917,172.519Z" transform="translate(458.976 939.084)" fill="#fff"/>
      <path id="Path_305" data-name="Path 305" d="M206.069,72.827h1.18v1.18a1.111,1.111,0,1,0,2.222,0v-1.18h1.18a1.111,1.111,0,1,0,0-2.222h-1.18v-1.18a1.111,1.111,0,1,0-2.222,0v1.18h-1.18a1.1,1.1,0,0,0-1.111,1.111A1.119,1.119,0,0,0,206.069,72.827Z" transform="translate(543.544 1033.639)" fill="#fff"/>
      <path id="Path_306" data-name="Path 306" d="M386.389,72.827h1.18v1.18a1.111,1.111,0,1,0,2.221,0v-1.18h1.18a1.111,1.111,0,1,0,0-2.222h-1.18v-1.18a1.111,1.111,0,1,0-2.221,0v1.18h-1.18a1.1,1.1,0,0,0-1.111,1.111A1.119,1.119,0,0,0,386.389,72.827Z" transform="translate(374.4 1033.639)" fill="#fff"/>
    </g>
  </g>
</svg>
