<svg xmlns="http://www.w3.org/2000/svg" width="62" height="62" viewBox="0 0 62 62">
  <g id="Group_103" data-name="Group 103" transform="translate(-738 -1181)">
    <circle id="Ellipse_22" data-name="Ellipse 22" cx="31" cy="31" r="31" transform="translate(738 1181)" fill="#606060"/>
    <g id="Group_102" data-name="Group 102" transform="translate(7.997 94.047)">
      <path id="Path_302" data-name="Path 302" d="M395.075,161.645a32.66,32.66,0,0,1-1.43,3.491,4.218,4.218,0,0,1-.337,3.491,6.62,6.62,0,0,1-.631,1.01c-.631.841-1.472,1.767-2.4,2.776-.042.084-.126.126-.21.21a.653.653,0,0,1-.883.126.661.661,0,0,1-.126-1.01c.084-.084.126-.168.21-.252A21.265,21.265,0,0,0,392.088,168c.884-1.767.295-2.9-.547-3.407a1.615,1.615,0,0,0-2.229.378,29.81,29.81,0,0,1-2.86,3.491,33.136,33.136,0,0,0-3.029,3.87,18.18,18.18,0,0,0-1.893,7.361c-.084,1.514-.126,3.281-.168,4.333a.952.952,0,0,0,.967.967h6.183a.952.952,0,0,0,.967-.967v-1.767a1.315,1.315,0,0,1,.547-1.052,26.88,26.88,0,0,0,5.384-4.585c2.524-2.944,3.449-11.61,3.576-14.218a2,2,0,0,0-3.912-.757Z" transform="translate(381.98 948.722)" fill="#fff"/>
      <path id="Path_303" data-name="Path 303" d="M99.521,172.887a29.937,29.937,0,0,0-3.029-3.87,40.216,40.216,0,0,1-2.86-3.491,1.615,1.615,0,0,0-2.229-.379c-.841.5-1.472,1.682-.547,3.407a18.853,18.853,0,0,0,2.818,3.491c.084.084.126.168.21.252a.661.661,0,0,1-.126,1.01.759.759,0,0,1-.883-.126l-.21-.21c-.925-1.01-1.767-1.935-2.4-2.776a6.624,6.624,0,0,1-.631-1.01,4.065,4.065,0,0,1-.337-3.491,32.658,32.658,0,0,1-1.43-3.491,2,2,0,0,0-3.912.757c.126,2.566,1.052,11.231,3.576,14.176a30.426,30.426,0,0,0,5.426,4.669,1.315,1.315,0,0,1,.547,1.052v1.767a.952.952,0,0,0,.967.967h6.183a.952.952,0,0,0,.967-.967c-.042-1.052-.084-2.818-.168-4.333a20.657,20.657,0,0,0-1.935-7.4Z" transform="translate(657.049 948.206)" fill="#fff"/>
      <path id="Path_304" data-name="Path 304" d="M303.359,173.239a1.329,1.329,0,0,0-1.346-1.346h-1.43v-1.43a1.346,1.346,0,1,0-2.692,0v1.43h-1.43a1.346,1.346,0,1,0,0,2.692h1.43v1.43a1.346,1.346,0,1,0,2.692,0v-1.43h1.43A1.329,1.329,0,0,0,303.359,173.239Z" transform="translate(461.75 940.408)" fill="#fff"/>
      <path id="Path_305" data-name="Path 305" d="M206.3,73.784h1.43v1.43a1.346,1.346,0,1,0,2.692,0v-1.43h1.43a1.346,1.346,0,0,0,0-2.692h-1.43v-1.43a1.346,1.346,0,0,0-2.692,0v1.43H206.3a1.329,1.329,0,0,0-1.346,1.346A1.356,1.356,0,0,0,206.3,73.784Z" transform="translate(545.134 1033.639)" fill="#fff"/>
      <path id="Path_306" data-name="Path 306" d="M386.624,73.784h1.43v1.43a1.346,1.346,0,1,0,2.692,0v-1.43h1.43a1.346,1.346,0,0,0,0-2.692h-1.43v-1.43a1.346,1.346,0,1,0-2.692,0v1.43h-1.43a1.329,1.329,0,0,0-1.346,1.346A1.356,1.356,0,0,0,386.624,73.784Z" transform="translate(378.358 1033.639)" fill="#fff"/>
    </g>
  </g>
</svg>
