<svg width="58" height="59" viewBox="0 0 58 59" fill="none" xmlns="http://www.w3.org/2000/svg">
<path fill-rule="evenodd" clip-rule="evenodd" d="M23.7272 17.2707L15.9598 15.609L15.9584 15.6087C15.2402 15.4566 14.6071 15.0346 14.1907 14.4293C13.7731 13.8233 13.6054 13.08 13.7206 12.3544L13.7224 12.3434L13.8984 11.3105C9.68874 14.9013 6.77871 19.9619 5.96791 25.7104L7.48624 25.5194C8.12861 25.4386 8.77917 25.5781 9.33189 25.9137C9.88474 26.2495 10.3067 26.7618 10.5314 27.367L10.5324 27.3699L11.4347 29.7668L12.5494 29.3916C13.4969 29.0809 14.5367 29.2852 15.2966 29.9292L15.3009 29.9328L19.6551 33.6649C20.0386 33.9928 20.3303 34.4168 20.4983 34.894C20.6664 35.3722 20.7044 35.8853 20.6099 36.3817L20.6081 36.3908L20.2247 38.308L25.1343 45.4035L25.135 45.4046C25.4297 45.8281 25.6048 46.3236 25.6415 46.838C25.678 47.3521 25.5758 47.8677 25.3437 48.3295L23.6792 51.6585C25.3866 52.057 27.1641 52.2667 28.9999 52.2667C31.3683 52.2667 33.6529 51.9148 35.8042 51.2603L37.3049 52.7629L36.8998 55.3314C36.8135 55.8785 36.8163 56.4075 36.8946 56.9087C34.3839 57.6195 31.7357 58 29 58C13.0055 58 0 44.9945 0 29C0 13.0055 13.0055 0 29 0C44.9945 0 58 13.0055 58 29C58 33.856 56.8012 38.4365 54.684 42.4611C54.6651 42.4579 54.6461 42.4548 54.6271 42.4518L52.0591 42.0433L50.8771 39.7272C50.6776 39.3363 50.4395 38.9874 50.1711 38.6806C51.517 35.7346 52.2665 32.4567 52.2665 29C52.2665 27.6479 52.149 26.3215 51.926 25.0315L47.1166 34.6505C46.7595 35.3424 46.1357 35.8593 45.3896 36.0821L45.3843 36.0837L29.2191 41.0577L29.2168 41.0584C28.5721 41.2583 27.8773 41.224 27.2557 40.9625C26.6327 40.6999 26.1223 40.2258 25.815 39.6239L25.8112 39.6165L23.3244 34.6436L23.3229 34.6406C23.0081 34.0172 22.9321 33.3012 23.1076 32.6263C23.2832 31.9515 23.6983 31.3639 24.2762 30.9732L31.5224 25.9991L23.7272 17.2707ZM28.8975 5.73356C25.8797 5.74664 23.0071 6.33612 20.3679 7.38989L19.8373 10.5865L25.8588 11.8819L25.8627 11.8827C26.4621 12.008 27.0048 12.3218 27.4125 12.778L37.9936 24.6041C38.5398 25.2217 38.7928 26.0442 38.6903 26.8608C38.5871 27.677 38.1386 28.4101 37.4588 28.8731L37.457 28.8743L29.5671 34.2884L29.8624 34.8735L42.5306 30.9701L47.2889 21.472V14.6225C43.0324 9.20938 36.435 5.73356 29 5.73356H28.8975ZM12.8338 35.3375L10.6058 36.075C9.90039 36.3063 9.13338 36.2549 8.46542 35.9326C7.79736 35.6095 7.28073 35.0401 7.02349 34.3458L7.02283 34.344L5.95923 31.4921L5.87044 31.5034C6.7146 39.421 11.5164 46.1439 18.2643 49.6545L19.4597 47.2633L14.8167 40.5711C14.3799 39.9343 14.2189 39.1486 14.3687 38.3916L14.6635 36.9042L12.8338 35.3375ZM47.505 41.6093C47.0863 40.7969 45.9137 40.7969 45.495 41.6093L43.3785 45.7154C43.2145 46.0335 42.9068 46.2548 42.5506 46.3109L37.9523 47.0349C37.0424 47.1782 36.6801 48.2823 37.3311 48.9276L40.6214 52.1894C40.8763 52.4421 40.9938 52.8002 40.9376 53.1529L40.2122 57.7065C40.0686 58.6075 41.0172 59.2898 41.8384 58.8762L45.9884 56.786C46.3099 56.6241 46.6901 56.6241 47.0116 56.786L51.1616 58.8762C51.9828 59.2898 52.9314 58.6075 52.7878 57.7065L52.0624 53.1529C52.0062 52.8002 52.1237 52.4421 52.3786 52.1894L55.6689 48.9276C56.3199 48.2823 55.9576 47.1782 55.0477 47.0349L50.4494 46.3109C50.0932 46.2548 49.7855 46.0335 49.6215 45.7154L47.505 41.6093Z" fill="#00582E"/>
</svg>
