<svg width="62" height="50" viewBox="0 0 62 50" fill="none" xmlns="http://www.w3.org/2000/svg">
<rect width="62" height="50" fill="white"/>
<path d="M28.3828 22.835C26.619 22.835 24.8949 22.312 23.4285 21.3321C21.962 20.3523 20.819 18.9595 20.1441 17.3301C19.4691 15.7006 19.2925 13.9076 19.6366 12.1778C19.9807 10.448 20.83 8.85901 22.0771 7.61188C23.3243 6.36474 24.9132 5.51543 26.643 5.17135C28.3729 4.82727 30.1659 5.00386 31.7953 5.67881C33.4248 6.35375 34.8175 7.49673 35.7974 8.96321C36.7773 10.4297 37.3003 12.1538 37.3003 13.9175C37.3003 16.2826 36.3607 18.5508 34.6884 20.2231C33.016 21.8955 30.7478 22.835 28.3828 22.835ZM28.3828 7.64977C27.123 7.64977 25.8915 8.02335 24.844 8.72325C23.7965 9.42316 22.9801 10.418 22.498 11.5819C22.0159 12.7458 21.8897 14.0265 22.1355 15.2621C22.3813 16.4977 22.9879 17.6326 23.8787 18.5234C24.7696 19.4142 25.9045 20.0209 27.1401 20.2667C28.3757 20.5124 29.6564 20.3863 30.8203 19.9042C31.9842 19.4221 32.979 18.6057 33.6789 17.5582C34.3788 16.5107 34.7524 15.2792 34.7524 14.0194C34.7524 13.1829 34.5876 12.3547 34.2675 11.5819C33.9474 10.8091 33.4782 10.1069 32.8868 9.5154C32.2953 8.92392 31.5931 8.45474 30.8203 8.13463C30.0475 7.81453 29.2192 7.64977 28.3828 7.64977ZM35.4785 24.3765C28.5846 22.8252 21.3724 23.5723 14.9428 26.5039C14.0586 26.9263 13.3125 27.5912 12.7915 28.4212C12.2705 29.2511 11.9961 30.212 12 31.192V38.7718C12 38.9391 12.033 39.1048 12.097 39.2593C12.161 39.4139 12.2549 39.5543 12.3732 39.6726C12.4915 39.7909 12.6319 39.8848 12.7865 39.9488C12.941 40.0128 13.1067 40.0458 13.274 40.0458C13.4413 40.0458 13.6069 40.0128 13.7615 39.9488C13.916 39.8848 14.0565 39.7909 14.1748 39.6726C14.2931 39.5543 14.3869 39.4139 14.4509 39.2593C14.5149 39.1048 14.5479 38.9391 14.5479 38.7718V31.192C14.5368 30.696 14.6707 30.2076 14.9332 29.7867C15.1957 29.3658 15.5754 29.0307 16.0257 28.8225C19.8987 27.0341 24.1168 26.1166 28.3828 26.1345C30.773 26.1314 33.1552 26.4137 35.4785 26.9753V24.3765Z" fill="#AEBAA8"/>
<path d="M43.4787 36.4915H35.6567V38.275H43.4787V36.4915Z" fill="#618260"/>
<path d="M49.7083 28.9243H43.1221V31.4722H48.4344V42.135H30.3828V31.4722H38.4086V32.0072C38.4086 32.3451 38.5428 32.6691 38.7817 32.9081C39.0206 33.147 39.3446 33.2812 39.6825 33.2812C40.0204 33.2812 40.3444 33.147 40.5833 32.9081C40.8222 32.6691 40.9564 32.3451 40.9564 32.0072V27.0517C40.9564 26.7138 40.8222 26.3898 40.5833 26.1509C40.3444 25.912 40.0204 25.7777 39.6825 25.7777C39.3446 25.7777 39.0206 25.912 38.7817 26.1509C38.5428 26.3898 38.4086 26.7138 38.4086 27.0517V28.9243H29.1089C28.771 28.9243 28.447 29.0586 28.2081 29.2975C27.9692 29.5364 27.835 29.8604 27.835 30.1983V43.4089C27.835 43.7468 27.9692 44.0708 28.2081 44.3097C28.447 44.5486 28.771 44.6828 29.1089 44.6828H49.7083C50.0462 44.6828 50.3702 44.5486 50.6091 44.3097C50.848 44.0708 50.9822 43.7468 50.9822 43.4089V30.1983C50.9822 29.8604 50.848 29.5364 50.6091 29.2975C50.3702 29.0586 50.0462 28.9243 49.7083 28.9243Z" fill="#618260"/>
<path fill-rule="evenodd" clip-rule="evenodd" d="M43.9854 24.9995C43.985 24.9995 43.9847 24.9995 43.9844 24.9995C43.9831 24.9994 43.9819 24.9993 43.9806 24.9992C43.977 24.9991 43.9734 24.9988 43.9699 24.9984C43.9384 24.9946 43.9092 24.9803 43.887 24.9577C43.8648 24.9352 43.8508 24.9058 43.8475 24.8743C43.2275 21.6912 41.4592 19.6814 38.1012 19.1257C38.0717 19.1231 38.0437 19.1112 38.0214 19.0917C37.999 19.0721 37.9835 19.046 37.977 19.0171C37.9769 19.0166 37.9768 19.0161 37.9767 19.0157C37.9759 19.0117 37.9752 19.0077 37.9747 19.0037C37.9746 19.0026 37.9745 19.0015 37.9744 19.0004C37.974 18.9972 37.9738 18.994 37.9737 18.9908C37.9736 18.9886 37.9736 18.9865 37.9737 18.9844C37.9737 18.9821 37.9737 18.9798 37.9739 18.9775C37.9741 18.9743 37.9744 18.9711 37.9749 18.9679C37.975 18.9668 37.9751 18.9657 37.9753 18.9647C37.976 18.9603 37.9768 18.956 37.9779 18.9518C37.9851 18.9234 38.0009 18.8981 38.0233 18.8792C38.0456 18.8604 38.0733 18.849 38.1024 18.8467C41.459 18.2907 43.227 16.2817 43.8472 13.1C43.8502 13.0676 43.8644 13.0373 43.8873 13.0143C43.9103 12.9913 43.9405 12.977 43.9729 12.9739C43.9733 12.9738 43.9737 12.9738 43.9741 12.9739H43.9743C43.977 12.9738 43.9797 12.9738 43.9824 12.9739C43.9846 12.9738 43.9869 12.9738 43.9891 12.9739C43.9901 12.9738 43.991 12.9738 43.992 12.9739C44.0256 12.9751 44.0577 12.9884 44.0823 13.0113C44.1069 13.0343 44.1224 13.0653 44.126 13.0988C44.7473 16.2819 46.5141 18.2915 49.8718 18.8474C49.9015 18.8499 49.9295 18.8618 49.9519 18.8813C49.9744 18.9008 49.99 18.927 49.9965 18.956C49.9966 18.9565 49.9967 18.957 49.9967 18.9574C49.9976 18.9614 49.9983 18.9654 49.9988 18.9694C49.9989 18.9705 49.999 18.9716 49.9991 18.9727C49.9994 18.9759 49.9997 18.9791 49.9998 18.9823C49.9999 18.9845 49.9999 18.9866 49.9998 18.9887C49.9998 18.991 49.9997 18.9933 49.9996 18.9956C49.9994 18.9988 49.9991 19.002 49.9986 19.0052C49.9985 19.0063 49.9984 19.0074 49.9982 19.0085C49.9975 19.0128 49.9966 19.0171 49.9956 19.0213C49.9884 19.0496 49.9726 19.0749 49.9503 19.0938C49.9281 19.1126 49.9005 19.1241 49.8714 19.1264C46.5146 19.6823 44.7479 21.6913 44.1263 24.8732C44.1233 24.9055 44.1091 24.9358 44.0861 24.9588C44.0632 24.9818 44.0329 24.9961 44.0006 24.9993C44.0002 24.9993 43.9998 24.9994 43.9994 24.9994H43.9991C43.9964 24.9996 43.9937 24.9997 43.991 24.9997C43.9891 24.9998 43.9873 24.9999 43.9854 25L43.9854 24.9995Z" fill="#FFF000"/>
</svg>
