<svg width="62" height="50" viewBox="0 0 62 50" fill="none" xmlns="http://www.w3.org/2000/svg">
<rect width="62" height="50" fill="white"/>
<g clip-path="url(#clip0_685_222)">
<path d="M31.5 14.2534C32.0943 14.2534 32.6887 13.8381 32.6887 13.0519V8.18665C32.6887 6.61434 30.3257 6.61434 30.3257 8.18665V13.0667C30.3257 13.8529 30.9201 14.2682 31.5145 14.2682L31.5 14.2534Z" fill="#618260"/>
<path d="M19.0615 14.8616C19.308 15.2917 19.6704 15.4697 20.0474 15.4697C20.2648 15.4697 20.4823 15.4104 20.6707 15.2917C21.1781 14.9951 21.4971 14.3276 21.1056 13.6452L18.7281 9.4178C18.5106 9.03214 18.1482 8.80965 17.7423 8.80965C17.3219 8.80965 16.887 9.06181 16.6695 9.44747C16.4665 9.8183 16.4665 10.2336 16.684 10.6193L19.0615 14.8467V14.8616Z" fill="#618260"/>
<path d="M13.9004 20.9283L9.76866 18.4957C9.39173 18.2732 8.97131 18.2732 8.62338 18.4808C8.24645 18.7033 8 19.1335 8 19.5785C8 19.9938 8.21746 20.3647 8.59439 20.5871L12.7261 23.0198C12.9146 23.1384 13.132 23.1978 13.335 23.1978C13.5234 23.1978 13.7119 23.1533 13.8859 23.0494C14.2628 22.827 14.5093 22.3968 14.5093 21.9518C14.5093 21.5365 14.2918 21.1656 13.9149 20.9431L13.9004 20.9283Z" fill="#618260"/>
<path d="M54.3911 18.466C54.0432 18.2584 53.6228 18.2584 53.2458 18.4808L49.1141 20.9135C48.4472 21.314 48.3893 22.0408 48.6937 22.56C48.8967 22.916 49.2591 23.1829 49.694 23.1829C49.8825 23.1829 50.0854 23.1236 50.2884 23.005L54.4201 20.5723C54.797 20.3498 55.0145 19.979 55.0145 19.5637C55.0145 19.1187 54.768 18.6885 54.3911 18.466Z" fill="#618260"/>
<path d="M36 24.5H27.5L32 39.5L36 24.5Z" fill="#FFEE05"/>
<path d="M41.4594 17.0569C41.2419 16.8047 40.9085 16.6415 40.575 16.6415H22.439C22.0766 16.6415 21.7431 16.8047 21.5257 17.0865L15.9732 23.5389C15.5238 24.0284 15.5383 24.7256 15.9732 25.2151L30.572 42.5253C30.8039 42.822 31.1518 42.9852 31.4998 42.9852C31.8477 42.9852 32.1956 42.8072 32.4276 42.5253L47.0118 25.2151C47.4612 24.7553 47.4612 24.0136 47.0263 23.5389L41.4449 17.0569H41.4594ZM43.5905 25.5859L33.9788 36.9926L36.9652 25.5859H43.5905ZM37.0957 23.1681L36.0229 19.0742H40.0386L43.5615 23.1681H37.0957ZM28.3684 23.1681L29.4412 19.0742H33.5874L34.6602 23.1681H28.3829H28.3684ZM29.0208 36.9926L19.4091 25.5859H26.0343L29.0208 36.9926ZM19.4526 23.1681L22.9754 19.0742H26.9911L25.9183 23.1681H19.4526ZM34.5152 25.5859L31.4998 37.1113L28.4844 25.5859H34.5152Z" fill="#AEBAA8"/>
<path d="M47.0555 9.00247C46.5481 8.70581 45.8377 8.7503 45.4463 9.43263L43.0688 13.6601C42.8513 14.0457 42.8513 14.4759 43.0543 14.8319C43.2717 15.2175 43.6921 15.4697 44.1271 15.4697C44.533 15.4697 44.8954 15.2472 45.1129 14.8616L47.4904 10.6341C47.8673 9.95179 47.5629 9.29913 47.0555 8.98763V9.00247Z" fill="#618260"/>
</g>
<defs>
<clipPath id="clip0_685_222">
<rect width="47" height="36" fill="white" transform="translate(8 7)"/>
</clipPath>
</defs>
</svg>
