<svg width="62" height="50" viewBox="0 0 62 50" fill="none" xmlns="http://www.w3.org/2000/svg">
<rect width="62" height="50" fill="white"/>
<rect x="39.3804" y="17.4696" width="5.5459" height="14.3961" transform="rotate(-32.518 39.3804 17.4696)" fill="#FFEE05"/>
<rect x="18.1758" y="13.9523" width="5.5459" height="14.958" transform="rotate(33.1247 18.1758 13.9523)" fill="#FFEE05"/>
<path d="M52.0996 25.5453L45.0559 14.652C44.5731 13.9093 43.5785 13.695 42.8254 14.1664L39.3687 16.3422C38.7073 16.7612 38.4466 17.5896 38.7507 18.3037C38.5528 18.3085 38.35 18.3037 38.1328 18.299C37.5052 18.2561 36.8968 18.08 36.3513 17.7753C35.7382 17.4229 35.0381 17.2468 34.3284 17.2754C33.247 17.4182 32.2139 17.78 31.2869 18.3466C30.3117 17.023 28.6413 17.4325 27.1543 17.7943C25.9522 18.0895 24.7163 18.3894 23.5769 18.0705C23.9245 17.3468 23.6735 16.4755 22.9879 16.0422L19.5312 13.8712C18.7781 13.3998 17.7787 13.6188 17.3007 14.3568L10.2521 25.2502C9.77419 25.9929 9.99627 26.9784 10.7446 27.4498L14.2013 29.6256C14.9544 30.0969 15.9538 29.8827 16.4317 29.14L16.9483 28.3449C17.0256 28.4258 17.1076 28.502 17.1945 28.5734C16.4559 29.3733 15.7655 30.2921 15.8717 31.4967C15.8814 32.2061 16.2097 32.8726 16.7697 33.3202C17.3539 33.6963 18.0635 33.8344 18.7491 33.7058C18.8119 34.3486 19.0967 34.9485 19.5602 35.4055C20.1492 35.9055 20.912 36.1721 21.6892 36.1483C21.8148 36.7148 22.143 37.2148 22.621 37.5528C23.3548 37.986 24.2335 38.1146 25.0639 37.9051C25.4356 38.9573 26.4736 39.6334 27.5985 39.5524H27.7288C28.4047 39.5334 29.0806 39.0144 29.5779 38.524C31.0117 39.5096 32.2477 40 33.2712 40C33.5705 40 33.8698 39.9571 34.1498 39.8619C34.9561 39.5572 35.5837 38.9049 35.8492 38.0956C36.5782 38.3907 37.3989 38.3812 38.1231 38.0717C38.8811 37.6385 39.4218 36.91 39.6149 36.0673C40.3294 36.1959 41.0633 36.0435 41.6667 35.6388C42.193 35.2103 42.5357 34.5962 42.613 33.9296C43.6848 34.1105 44.7758 33.8011 45.5869 33.0917C45.6159 33.0631 45.6448 33.0298 45.669 32.9964C46.1952 32.3156 46.4173 31.4491 46.2725 30.6016C46.1421 30.0493 45.8524 29.5447 45.4373 29.1495C45.5048 29.1019 45.5676 29.0495 45.6255 28.9924L45.9152 29.4399C46.3932 30.1826 47.3925 30.3969 48.1457 29.9255L51.6072 27.7497C52.3555 27.2736 52.5776 26.2928 52.0996 25.5501V25.5453ZM15.5676 28.5877C15.3938 28.8543 15.0365 28.9305 14.7661 28.7638L11.3094 26.588C11.0391 26.4166 10.957 26.0643 11.1308 25.7929L18.1698 14.9043C18.3387 14.6377 18.696 14.5568 18.9712 14.7282C18.9712 14.7282 18.9712 14.7282 18.976 14.7282L22.4375 16.904C22.7079 17.0754 22.7851 17.4277 22.6162 17.6991L15.5724 28.5877H15.5676ZM17.3828 32.4965C17.069 32.2204 16.8952 31.8204 16.9049 31.4062C16.8228 30.4493 17.5566 29.6827 18.3339 28.8638C18.4836 28.7067 18.6429 28.5448 18.7877 28.383C19.1015 28.0259 19.5988 27.8688 20.0671 27.983C20.6078 28.1116 21.0423 28.5115 21.2113 29.0305C21.0085 29.6637 20.4533 30.8825 18.9519 32.6441C18.4305 32.8012 17.8704 32.7489 17.3877 32.4965H17.3828ZM19.7485 33.2869C21.4092 31.3348 22.003 29.9541 22.2155 29.259C22.8431 28.6115 23.7893 28.3687 24.6583 28.6353C25.2232 28.8733 25.5611 29.4494 25.4887 30.0493L21.8389 35.1246C21.274 35.1722 20.7092 35.0104 20.265 34.6628C19.9174 34.2867 19.734 33.7915 19.7436 33.2869H19.7485ZM23.2052 36.7101C22.901 36.4768 22.7031 36.134 22.6548 35.7531L26.3046 30.6826C27.1833 30.5302 27.8544 30.6635 28.202 31.0634C28.564 31.4824 28.5785 32.2251 28.2502 33.1059L26.126 35.6484C25.6336 36.2387 25.286 36.6577 25.1218 36.8481C24.248 37.0291 23.601 36.9815 23.2003 36.7101H23.2052ZM27.695 38.5336C26.9226 38.6526 26.1888 38.1765 25.986 37.4338C26.1453 37.2433 26.4301 36.9005 26.9322 36.3006C27.4343 35.7007 28.0813 34.9247 28.902 33.9391C29.7227 34.1724 30.2055 34.5152 30.3214 34.9628C30.4179 35.3294 30.1379 36.1959 29.4137 37.1433C28.733 38.0384 28.033 38.5145 27.6902 38.5288L27.695 38.5336ZM44.8483 32.3727C44.1531 32.925 43.2261 33.1012 42.3716 32.8536L35.7092 28.4163C35.4726 28.2592 35.1492 28.3211 34.9899 28.5543C34.8305 28.7876 34.8933 29.1066 35.1299 29.2637L41.6184 33.5916C41.5991 34.0629 41.3915 34.5105 41.0391 34.8295C40.5515 35.1104 39.9722 35.177 39.4363 35.0104L34.2947 31.7014C34.0533 31.5491 33.7346 31.6157 33.5801 31.849C33.4256 32.0823 33.4932 32.4013 33.7298 32.5537L38.6445 35.715C38.5335 36.3101 38.1762 36.8291 37.6645 37.1576C37.2107 37.3814 36.5782 37.3195 35.7913 36.9767L32.7594 34.8533C32.5277 34.6866 32.2042 34.739 32.0401 34.9675C31.8711 35.1961 31.9242 35.515 32.1559 35.6769C32.1559 35.6769 32.1608 35.6769 32.1656 35.6817L34.9319 37.6194C34.7774 38.1908 34.3671 38.6574 33.8215 38.8954C33.0105 39.1716 31.7842 38.7716 30.2634 37.7432C30.6014 37.2957 31.6249 35.8198 31.3304 34.7104C31.1276 33.9344 30.471 33.3678 29.3848 33.0202C29.6841 31.9538 29.5537 31.0396 29.0034 30.4064C28.4675 29.7875 27.5985 29.5208 26.5122 29.6304C26.4398 28.7591 25.8749 28.0068 25.0494 27.6926C23.9921 27.3403 22.8286 27.5164 21.9306 28.1687C21.5685 27.5783 20.9795 27.1546 20.2988 26.9927C19.4636 26.7975 18.5849 27.0689 18.0201 27.7069C17.9863 27.745 17.9477 27.7878 17.9091 27.8259C17.769 27.7164 17.6435 27.5879 17.5373 27.4498L23.0217 18.9703C24.5087 19.4988 26.0439 19.1274 27.4054 18.7894C28.9551 18.4085 29.8675 18.2276 30.4227 18.9084C27.4633 21.1604 25.5901 23.9075 25.8315 25.6882C25.8846 26.269 26.266 26.7689 26.8212 26.9784C28.2406 27.5212 30.809 26.3262 34.0629 23.6266C34.1112 23.5885 34.6036 23.2743 36.9741 24.6074C38.5286 25.4835 40.3149 26.7404 41.7536 27.7497C42.613 28.3544 43.3565 28.8733 43.8682 29.1876C44.6841 29.697 45.1572 30.2398 45.2779 30.8016C45.36 31.3586 45.2055 31.9252 44.8579 32.368L44.8483 32.3727ZM44.602 28.4591C44.5393 28.4163 44.4717 28.3734 44.4041 28.3306C43.9165 28.0306 43.1875 27.5212 42.3426 26.9261C38.0893 23.9361 34.7292 21.7412 33.3919 22.8506C30.0172 25.6596 27.9413 26.3166 27.1929 26.031C26.9902 25.9548 26.855 25.7691 26.855 25.5549C26.7729 24.955 27.135 24.0028 27.8206 22.9982C28.8006 21.627 30.0076 20.4367 31.3931 19.4655C34.1981 17.8705 34.9174 18.2133 35.9071 18.6942C36.5782 19.0608 37.3217 19.275 38.0845 19.3226C38.5093 19.3464 38.9342 19.3369 39.359 19.2845L45.0559 28.0925C44.9496 28.2592 44.7903 28.383 44.6069 28.4591H44.602ZM51.0568 26.888L47.5953 29.0638C47.3249 29.2352 46.9628 29.1542 46.789 28.8876L39.7453 17.9943C39.5715 17.7277 39.6535 17.3706 39.9239 17.1992L43.3854 15.0234C43.6558 14.8567 44.0179 14.9329 44.1917 15.1995L51.2355 26.0929C51.4093 26.3595 51.3272 26.7166 51.0568 26.8832V26.888Z" fill="#AEBAA9" stroke="#AEBAA9" stroke-width="0.479484"/>
<path d="M34.1584 11.7874C34.542 12.171 35.1665 12.1711 35.5501 11.7875L38.6678 8.66983C39.0514 8.28625 39.0513 7.66175 38.6676 7.27808C38.284 6.89441 37.6595 6.89434 37.2759 7.27792L34.1627 10.3911C33.7791 10.7747 33.7792 11.3992 34.1628 11.7829L34.1584 11.7874Z" fill="#638161"/>
<path d="M32.5601 4.53362C32.5601 3.98941 32.1229 3.5522 31.5787 3.55214C31.0345 3.55208 30.5974 3.98918 30.5974 4.53339L30.5979 8.9406C30.598 9.21716 30.7095 9.4536 30.8924 9.63651C31.0753 9.81942 31.3207 9.92205 31.5883 9.931C32.1325 9.93106 32.5697 9.49396 32.5696 8.94975L32.5691 4.54254L32.5601 4.53362Z" fill="#638161"/>
<path d="M28.624 10.3945L25.5055 7.27604C25.1219 6.89237 24.4974 6.89229 24.1138 7.27587C23.7302 7.65945 23.7303 8.28395 24.1139 8.66762L27.2279 11.7816C27.6116 12.1653 28.2361 12.1653 28.6197 11.7818C29.0032 11.3982 29.0032 10.7737 28.6195 10.39L28.624 10.3945Z" fill="#638161"/>
</svg>
