<svg width="62" height="50" viewBox="0 0 62 50" fill="none" xmlns="http://www.w3.org/2000/svg">
<rect width="62" height="50" fill="white"/>
<g clip-path="url(#clip0_788_194)">
<path d="M47.8564 34.1864C45.0133 35.2641 42.1703 36.3419 39.3283 37.4217C38.1216 37.8801 36.8764 38.1061 35.5855 38.1029C33.2094 38.0965 30.8343 38.1029 28.4581 38.0965C28.2652 38.0965 28.0733 38.0283 27.8804 37.992L27.9902 38.2223C27.6426 38.7127 27.3506 39.2574 26.9369 39.6849C25.4584 41.2135 23.9393 42.7049 22.433 44.2069C21.3734 45.2644 20.4129 45.2622 19.3555 44.2069C17.1605 42.013 14.9667 39.8192 12.7728 37.6243C11.7516 36.602 11.7409 35.6415 12.7462 34.632C14.3228 33.05 15.9026 31.4712 17.4846 29.8935C18.3481 29.0322 18.9685 28.9565 20.0526 29.5119C20.171 29.5727 20.4364 29.4757 20.5633 29.3691C21.4395 28.6271 22.2188 27.7391 23.1761 27.1294C25.6076 25.5794 28.1938 25.1103 30.9569 26.3352C32.5708 27.0505 34.2935 27.4513 36.0567 27.527C38.3273 27.6251 39.8357 28.6516 40.5265 30.8945C41.633 30.4543 42.7289 30.0193 43.8237 29.5844C44.2511 29.4149 44.6754 29.2347 45.1071 29.0759C46.3565 28.6154 47.5408 28.9064 48.3905 29.8712C49.1868 30.7773 49.3158 31.9978 48.7369 33.1449C48.69 33.2387 48.6506 33.3368 48.6079 33.4338C48.3574 33.6843 48.1058 33.9359 47.8553 34.1864H47.8564ZM21.5888 30.9883C21.6474 31.0672 21.6815 31.129 21.7305 31.1781C23.3583 32.8091 24.9819 34.4454 26.6267 36.0594C26.777 36.2065 27.0659 36.2736 27.2919 36.2747C30.0923 36.2875 32.8938 36.3152 35.6932 36.2608C36.5662 36.2438 37.4777 36.1191 38.2964 35.8323C41.035 34.874 43.7426 33.825 46.4556 32.7942C46.6902 32.7046 46.9353 32.5351 47.0771 32.3326C47.3554 31.936 47.3415 31.4958 47.0345 31.0992C46.7072 30.6771 46.2595 30.5651 45.6977 30.7858C44.2159 31.3689 42.7331 31.9509 41.261 32.5586C39.7984 33.163 38.2825 33.4476 36.7016 33.437C34.964 33.4252 33.2275 33.4338 31.4899 33.4338C31.3662 33.4338 31.2415 33.438 31.1178 33.4263C30.5944 33.3762 30.2448 33.0202 30.2384 32.5372C30.232 32.0511 30.5752 31.6812 31.0923 31.6269C31.25 31.6098 31.411 31.6173 31.5709 31.6173C33.3437 31.6173 35.1165 31.6279 36.8892 31.6109C37.5001 31.6045 38.1098 31.5288 38.7228 31.4851C38.5597 30.2411 37.7218 29.4714 36.4671 29.3968C34.1453 29.2582 31.9163 28.739 29.7757 27.8319C28.9219 27.4705 28.0381 27.3895 27.1192 27.5206C24.7772 27.8553 23.0865 29.2188 21.5877 30.9873L21.5888 30.9883ZM25.9775 38.0507L18.9632 31.0363L13.8783 36.1212C16.2267 38.4696 18.5506 40.7935 20.8927 43.1355C22.5897 41.4385 24.2645 39.7638 25.9775 38.0507Z" fill="#AEBAA9"/>
<path d="M25.9777 38.0507C24.2646 39.7637 22.5899 41.4384 20.8928 43.1355C18.5497 40.7924 16.2268 38.4696 13.8784 36.1212L18.9633 31.0363L25.9777 38.0507ZM17.9996 36.4143C18.0998 36.5145 18.1958 36.619 18.3002 36.7139C18.7277 37.0987 19.2032 37.1136 19.5763 36.7565C19.9462 36.4037 19.9675 35.8984 19.6104 35.473C19.4291 35.2577 19.2245 35.0594 19.0145 34.8707C18.571 34.471 18.0625 34.4635 17.6894 34.8366C17.311 35.2161 17.327 35.7044 17.7363 36.1521C17.8195 36.2438 17.9111 36.328 17.9986 36.4143H17.9996Z" fill="#FFEE05"/>
<path d="M17.9995 36.4143C17.9121 36.3269 17.8205 36.2427 17.7373 36.1521C17.328 35.7044 17.312 35.2161 17.6904 34.8366C18.0635 34.4635 18.5709 34.471 19.0155 34.8707C19.2255 35.0594 19.4301 35.2577 19.6114 35.473C19.9695 35.8973 19.9472 36.4037 19.5772 36.7565C19.2041 37.1126 18.7287 37.0987 18.3012 36.7139C18.1968 36.619 18.1008 36.5145 18.0006 36.4154L17.9995 36.4143Z" fill="#AEBAA9"/>
<path d="M30.5977 5C30.9726 5 31.3475 5 31.7234 5C31.7744 5.01039 31.8254 5.02267 31.8764 5.03022C32.2815 5.08972 32.6914 5.12466 33.0909 5.2106C38.7354 6.42979 41.7858 12.6693 39.2898 17.8785C37.4803 21.6551 33.3883 23.6647 29.2661 22.8016C25.7086 22.0574 22.9095 19.1487 22.2957 15.5534C22.2399 15.2258 22.2041 14.8943 22.1597 14.5647C22.1597 14.1898 22.1597 13.8148 22.1597 13.439C22.2173 13.0405 22.2598 12.6391 22.3344 12.2434C23.0021 8.65853 25.9957 5.73001 29.591 5.13882C29.9253 5.08311 30.2615 5.04533 30.5977 5ZM31.1606 21.8789C35.4972 21.8789 39.0291 18.3488 39.0367 14.0094C39.0442 9.66902 35.5019 6.12381 31.1587 6.12476C26.8221 6.1257 23.2901 9.65485 23.2825 13.9933C23.2759 18.3328 26.8183 21.8789 31.1606 21.878V21.8789Z" fill="#638161"/>
<path d="M30.5978 9.55756C30.5978 9.35735 30.5949 9.15809 30.5978 8.95977C30.6025 8.62735 30.8386 8.38086 31.1521 8.37709C31.4723 8.37331 31.7169 8.62357 31.7216 8.96355C31.7244 9.1562 31.7216 9.3498 31.7216 9.55473C31.7763 9.57362 31.8292 9.5925 31.8831 9.60856C32.9209 9.91643 33.6642 10.8835 33.6887 11.9544C33.6972 12.3237 33.4706 12.5881 33.14 12.5947C32.8152 12.6013 32.5791 12.3558 32.5649 11.995C32.5319 11.1998 31.8897 10.6002 31.0992 10.6275C30.3305 10.654 29.7261 11.316 29.7544 12.0979C29.7818 12.845 30.3957 13.4144 31.1776 13.4409C32.2495 13.4777 33.0324 13.9858 33.4743 14.9604C34.0976 16.3325 33.3412 17.9512 31.8963 18.3922C31.8415 18.4092 31.7858 18.4262 31.7216 18.4451C31.7216 18.6472 31.7244 18.8465 31.7216 19.0448C31.7159 19.3763 31.4789 19.6237 31.1663 19.6275C30.8471 19.6313 30.6025 19.3801 30.5978 19.0401C30.5949 18.8474 30.5978 18.6538 30.5978 18.4725C30.3447 18.3582 30.0878 18.2732 29.8621 18.1344C29.0877 17.6594 28.6769 16.9568 28.6316 16.0483C28.6136 15.6781 28.8469 15.4156 29.1793 15.4089C29.5051 15.4023 29.7403 15.6469 29.7544 16.0086C29.7875 16.8028 30.4325 17.4044 31.2201 17.3761C31.9898 17.3487 32.5942 16.6867 32.564 15.9047C32.5347 15.1568 31.9237 14.5892 31.1408 14.5618C30.0699 14.5241 29.2851 14.016 28.844 13.0414C28.2123 11.6446 28.9942 10.0194 30.474 9.60006C30.5128 9.58873 30.5496 9.57362 30.5968 9.55662L30.5978 9.55756Z" fill="#638161"/>
</g>
<defs>
<clipPath id="clip0_788_194">
<rect width="37.4789" height="40" fill="white" transform="translate(12 5)"/>
</clipPath>
</defs>
</svg>
