<svg width="62" height="50" viewBox="0 0 62 50" fill="none" xmlns="http://www.w3.org/2000/svg">
<rect width="62" height="50" fill="white"/>
<g clip-path="url(#clip0_789_206)">
<path d="M35.2508 33.8521V37.692C35.3755 37.692 35.5017 37.692 35.6278 37.692C36.6132 37.692 37.5986 37.6891 38.584 37.6927C39.3156 37.6956 39.8418 38.18 39.8433 38.8432C39.8447 39.5078 39.3192 39.998 38.589 39.998C33.5302 40.0001 28.472 40.0001 23.4131 39.998C22.6808 39.998 22.1545 39.5136 22.1509 38.8504C22.1466 38.1829 22.6685 37.6949 23.4002 37.692C24.5038 37.6884 25.6074 37.6913 26.7362 37.6913V33.8513C26.5942 33.8513 26.4551 33.8513 26.316 33.8513C23.8283 33.8513 21.3414 33.8557 18.8538 33.8499C17.3653 33.8463 16.2689 32.9424 16.0339 31.5331C16.0022 31.345 16.0022 31.1503 16.0022 30.9586C16 24.9389 16 18.9177 16 12.8965C16.0007 11.1419 17.1339 10.0008 18.8798 10.0008C26.9546 10.0001 35.0288 10.0001 43.1037 10.0008C44.8553 10.0008 45.9928 11.1369 45.9928 12.8857C45.9942 18.9068 45.9935 24.928 45.9928 30.9492C45.9928 32.7139 44.8531 33.8499 43.0777 33.8513C40.6268 33.8542 38.1753 33.8513 35.7244 33.8513H35.2508V33.8521ZM30.9813 12.3083C26.9683 12.3083 22.9554 12.3083 18.9432 12.3083C18.3968 12.3083 18.3074 12.3948 18.3074 12.926C18.3074 18.9227 18.3074 24.9187 18.3074 30.9154C18.3074 31.4445 18.4062 31.5446 18.9374 31.5446C26.9748 31.5446 35.0129 31.5446 43.0503 31.5446C43.5859 31.5446 43.6861 31.4452 43.6861 30.9211C43.6861 24.9244 43.6861 18.9285 43.6861 12.9318C43.6861 12.3991 43.5946 12.3083 43.0561 12.3083C39.0316 12.3083 35.0064 12.3083 30.982 12.3083H30.9813ZM29.0934 33.8751V37.6747H32.9045V33.8751H29.0934Z" fill="#AEBAA8"/>
<path d="M29.0933 33.875H32.9044V37.6746H29.0933V33.875Z" fill="#FFF000"/>
<path d="M27.6763 27.6453L27.6763 27.6453C27.1822 27.514 26.835 27.0903 26.7728 26.5712L26.7727 26.571C26.7595 26.4604 26.7511 26.346 26.7508 26.2305L26.7508 26.2301L26.7507 25.8687C26.7499 22.9786 26.749 20.0882 26.7531 17.1978C26.7533 17.0139 26.7763 16.8139 26.8378 16.6269L27.6763 27.6453ZM27.6763 27.6453C27.6964 27.6507 27.7137 27.6559 27.7347 27.6622C27.7408 27.6641 27.7472 27.666 27.7541 27.6681L27.6763 27.6453ZM28.7159 15.9309L28.7159 15.9309C29.1392 16.161 29.5583 16.4013 29.9745 16.64C30.1294 16.7288 30.2839 16.8174 30.438 16.9052C30.4381 16.9052 30.4381 16.9052 30.4381 16.9052L30.7531 17.0845C32.6447 18.1608 34.5364 19.2373 36.4267 20.3165L36.4268 20.3166C36.5674 20.3969 36.7169 20.4962 36.8456 20.6212L36.8459 20.6214C37.1091 20.8776 37.2501 21.2003 37.2501 21.5333C37.25 21.8663 37.1089 22.1891 36.8462 22.4457C36.8462 22.4457 36.8462 22.4457 36.8462 22.4457L28.7159 15.9309ZM28.7159 15.9309C27.9686 15.5248 27.1015 15.825 26.8379 16.6269L28.7159 15.9309ZM28.2581 17.4101C28.259 17.4106 28.26 17.4111 28.2609 17.4116C28.4831 17.5323 28.795 17.7049 29.1674 17.9128C29.9119 18.3283 30.8954 18.8833 31.8799 19.4426C32.8644 20.002 33.8494 20.5654 34.5968 20.9979C34.9707 21.2142 35.2844 21.3974 35.5089 21.5308C35.5202 21.5375 35.5313 21.5441 35.5422 21.5506C33.7398 22.6566 31.9383 23.7585 30.1298 24.8647C29.5068 25.2457 28.8831 25.6273 28.2581 26.0097V17.4101Z" fill="#638161" stroke="#638161" stroke-width="0.5"/>
</g>
<defs>
<clipPath id="clip0_789_206">
<rect width="29.9935" height="30" fill="white" transform="translate(16 10)"/>
</clipPath>
</defs>
</svg>
