<svg width="62" height="50" viewBox="0 0 62 50" fill="none" xmlns="http://www.w3.org/2000/svg">
<rect width="62" height="50" fill="white"/>
<g clip-path="url(#clip0_785_165)">
<path d="M30.5799 28.9624C30.6081 28.9662 30.6362 28.968 30.6644 28.9709C30.6701 28.9709 30.6766 28.9709 30.6823 28.9709C30.6485 28.968 30.6137 28.9652 30.5799 28.9615V28.9624ZM30.5799 28.9624C30.6081 28.9662 30.6362 28.968 30.6644 28.9709C30.6701 28.9709 30.6766 28.9709 30.6823 28.9709C30.6485 28.968 30.6137 28.9652 30.5799 28.9615V28.9624ZM31.955 12.8582C31.9447 12.8619 31.9344 12.8638 31.9231 12.8666C31.9447 12.8619 31.9654 12.8563 31.987 12.8506C31.9766 12.8535 31.9654 12.8563 31.955 12.8582ZM31.8921 12.8741C31.9024 12.8713 31.9128 12.8694 31.9231 12.8666C31.9024 12.8722 31.8808 12.876 31.8602 12.8816C31.8705 12.8788 31.8808 12.8769 31.8921 12.8741ZM31.7089 12.9126C31.5765 12.938 31.4422 12.9558 31.305 12.9662C31.2722 12.969 31.2383 12.9709 31.2045 12.9727C31.2008 12.9727 31.197 12.9727 31.1923 12.9727C31.1294 12.9756 31.0655 12.9774 31.0016 12.9774H30.9969C30.9528 12.9774 30.9077 12.9765 30.8636 12.9746C30.8344 12.9746 30.8044 12.9727 30.7762 12.9709C30.7555 12.9699 30.7358 12.969 30.7161 12.9671C30.6785 12.9643 30.6419 12.9615 30.6053 12.9577C30.5667 12.954 30.5301 12.9493 30.4925 12.9455C30.4352 12.938 30.3789 12.9295 30.3235 12.9201C30.8504 13.0197 31.3604 13.0019 31.8602 12.8807C31.8385 12.8854 31.8169 12.891 31.7963 12.8948C31.7672 12.9014 31.738 12.907 31.7089 12.9117V12.9126ZM32.2659 12.7661C32.2415 12.7746 32.2161 12.783 32.1917 12.7915C32.218 12.7839 32.2443 12.7746 32.2706 12.7652C32.2687 12.7652 32.2678 12.7661 32.2659 12.7661ZM32.357 12.7332C32.3307 12.7436 32.3035 12.753 32.2772 12.7623C32.3044 12.753 32.3317 12.7436 32.3589 12.7332C32.358 12.7323 32.358 12.7332 32.357 12.7332ZM30.5799 28.9624C30.6081 28.9662 30.6362 28.968 30.6644 28.9709C30.6701 28.9709 30.6766 28.9709 30.6823 28.9709C30.6485 28.968 30.6137 28.9652 30.5799 28.9615V28.9624ZM32.357 12.7332C32.3307 12.7436 32.3035 12.753 32.2772 12.7623C32.3044 12.753 32.3317 12.7436 32.3589 12.7332C32.358 12.7323 32.358 12.7332 32.357 12.7332ZM32.2659 12.7661C32.2415 12.7746 32.2161 12.783 32.1917 12.7915C32.218 12.7839 32.2443 12.7746 32.2706 12.7652C32.2687 12.7652 32.2678 12.7661 32.2659 12.7661ZM31.955 12.8582C31.9447 12.8619 31.9344 12.8638 31.9231 12.8666C31.9447 12.8619 31.9654 12.8563 31.987 12.8506C31.9766 12.8535 31.9654 12.8563 31.955 12.8582ZM31.7089 12.9126C31.5765 12.938 31.4422 12.9558 31.305 12.9662C31.2722 12.969 31.2383 12.9709 31.2045 12.9727C31.2008 12.9727 31.197 12.9727 31.1923 12.9727C31.1294 12.9756 31.0655 12.9774 31.0016 12.9774H30.9969C30.9528 12.9774 30.9077 12.9765 30.8636 12.9746C30.8344 12.9746 30.8044 12.9727 30.7762 12.9709C30.7555 12.9699 30.7358 12.969 30.7161 12.9671C30.6785 12.9643 30.6419 12.9615 30.6053 12.9577C30.5667 12.954 30.5301 12.9493 30.4925 12.9455C30.4352 12.938 30.3789 12.9295 30.3235 12.9201C30.8504 13.0197 31.3604 13.0019 31.8602 12.8807C31.8385 12.8854 31.8169 12.891 31.7963 12.8948C31.7672 12.9014 31.738 12.907 31.7089 12.9117V12.9126ZM31.8921 12.8741C31.9024 12.8713 31.9128 12.8694 31.9231 12.8666C31.9024 12.8722 31.8808 12.876 31.8602 12.8816C31.8705 12.8788 31.8808 12.8769 31.8921 12.8741ZM30.5799 28.9624C30.6081 28.9662 30.6362 28.968 30.6644 28.9709C30.6701 28.9709 30.6766 28.9709 30.6823 28.9709C30.6485 28.968 30.6137 28.9652 30.5799 28.9615V28.9624ZM32.357 12.7332C32.3307 12.7436 32.3035 12.753 32.2772 12.7623C32.3044 12.753 32.3317 12.7436 32.3589 12.7332C32.358 12.7323 32.358 12.7332 32.357 12.7332ZM32.1542 12.8027C32.1664 12.7999 32.1786 12.7962 32.1917 12.7915C32.218 12.7839 32.2443 12.7746 32.2706 12.7652C32.2687 12.7652 32.2678 12.7661 32.2659 12.7661C32.2284 12.7793 32.1917 12.7915 32.1542 12.8027ZM31.9231 12.8666C31.9447 12.8619 31.9654 12.8563 31.987 12.8506C31.9766 12.8535 31.9654 12.8563 31.955 12.8582C31.9447 12.8619 31.9344 12.8638 31.9231 12.8666ZM31.7089 12.9126C31.5765 12.938 31.4422 12.9558 31.305 12.9662C31.2722 12.969 31.2383 12.9709 31.2045 12.9727C31.2008 12.9727 31.197 12.9727 31.1923 12.9727C31.1294 12.9756 31.0655 12.9774 31.0016 12.9774H30.9969C30.9528 12.9774 30.9077 12.9765 30.8636 12.9746C30.8344 12.9746 30.8044 12.9727 30.7762 12.9709C30.7555 12.9699 30.7358 12.969 30.7161 12.9671C30.6785 12.9652 30.6419 12.9615 30.6053 12.9577C30.5667 12.954 30.5301 12.9493 30.4925 12.9455C30.4352 12.938 30.3789 12.9295 30.3235 12.9201C30.8504 13.0197 31.3604 13.0019 31.8602 12.8807C31.8385 12.8854 31.8169 12.891 31.7963 12.8948C31.7672 12.9014 31.738 12.907 31.7089 12.9117V12.9126ZM31.8921 12.8741C31.9024 12.8713 31.9128 12.8694 31.9231 12.8666C31.9024 12.8722 31.8808 12.876 31.8602 12.8816C31.8705 12.8788 31.8808 12.8769 31.8921 12.8741ZM50.8528 40.0612C50.8452 40.033 50.8387 40.0048 50.8311 39.9766C50.8236 39.9484 50.8152 39.9203 50.8067 39.8921C50.7992 39.8639 50.7908 39.8367 50.7814 39.8085C50.7701 39.7719 50.7569 39.7343 50.7438 39.6976C50.7259 39.646 50.7062 39.5943 50.6865 39.5436C50.6743 39.5135 50.6621 39.4835 50.6489 39.4544C50.6189 39.3839 50.5869 39.3144 50.5531 39.2458C50.4094 38.95 50.2253 38.6691 50.0027 38.4099C49.8975 38.2868 49.7848 38.1722 49.6674 38.068C49.6392 38.0426 49.611 38.0172 49.5828 37.9928C49.5105 37.9299 49.4363 37.8698 49.3602 37.8125C49.3377 37.7946 49.3151 37.7777 49.2916 37.7618C49.2513 37.7317 49.2099 37.7035 49.1686 37.6763C49.1423 37.6584 49.116 37.6415 49.0897 37.6246C49.0643 37.6086 49.039 37.5927 49.0136 37.5786C47.9146 36.9277 46.5367 36.8328 45.3165 37.4048C45.2884 37.418 45.2621 37.4292 45.2367 37.4396C45.2358 37.4396 45.2348 37.4405 45.2339 37.4405C44.9878 37.5344 44.8403 37.4847 44.6421 37.2827C43.3271 35.9461 41.9952 34.6254 40.6708 33.2982C40.5646 33.1921 40.4688 33.0775 40.3589 32.9563C41.8026 31.3586 43.2125 29.7993 44.6139 28.2485C46.8842 29.6462 48.9535 28.8131 49.9886 27.6249C50.1793 27.4051 50.3427 27.1684 50.477 26.9185C50.5127 26.8537 50.5465 26.7879 50.5785 26.7212C50.5963 26.6827 50.6142 26.6442 50.6311 26.6057C50.6424 26.5813 50.6527 26.5569 50.663 26.5315C50.6771 26.4996 50.6893 26.4676 50.7015 26.4348C50.7128 26.4038 50.7241 26.3728 50.7353 26.3427C50.9185 25.8186 50.9918 25.2616 50.9523 24.7102C50.9523 24.7036 50.9523 24.6971 50.9504 24.6914C50.9467 24.6435 50.942 24.5947 50.9364 24.5458C50.9317 24.5017 50.926 24.4575 50.9194 24.4134C50.9119 24.3617 50.9035 24.311 50.8931 24.2612C50.8894 24.2434 50.8866 24.2255 50.8828 24.2077C50.8518 24.0508 50.8114 23.8977 50.7616 23.7493C50.7485 23.708 50.7344 23.6676 50.7194 23.6281C50.7081 23.5953 50.6959 23.5624 50.6827 23.5305C50.6809 23.5248 50.678 23.5192 50.6762 23.5135C50.6705 23.5004 50.6658 23.4882 50.6602 23.476C50.6546 23.4609 50.648 23.445 50.6405 23.429C50.6245 23.3914 50.6076 23.3539 50.5898 23.3163C50.5616 23.2543 50.5315 23.1942 50.4996 23.135C50.4808 23.0993 50.4611 23.0636 50.4413 23.0289C50.4319 23.011 50.4216 22.9941 50.4113 22.9772C50.401 22.9594 50.3916 22.9425 50.3803 22.9255C50.339 22.857 50.2948 22.7893 50.2497 22.7245C50.2394 22.7095 50.2281 22.6945 50.2178 22.6795C50.2122 22.671 50.2056 22.6625 50.199 22.655C50.1624 22.6043 50.1239 22.5545 50.0844 22.5057C50.0609 22.4766 50.0374 22.4493 50.014 22.4211C49.9895 22.393 49.9651 22.3657 49.9407 22.3385C49.9069 22.3 49.8712 22.2624 49.8355 22.2248C49.3658 21.7317 48.7938 21.3804 48.1194 21.186C46.8776 20.83 45.7129 21.0507 44.6243 21.774C43.19 20.1866 41.781 18.6254 40.3758 17.07C40.4247 16.9901 40.4425 16.945 40.4735 16.9131C41.8975 15.4854 43.3186 14.0558 44.7558 12.6421C44.8469 12.5529 45.0949 12.5294 45.2217 12.5858C45.5795 12.7436 45.9402 12.8553 46.3075 12.9164C46.3366 12.922 46.3667 12.9267 46.3958 12.9314C46.4277 12.9361 46.4606 12.9408 46.4935 12.9455C46.5188 12.9493 46.5451 12.9521 46.5705 12.9549C46.5865 12.9568 46.6024 12.9577 46.6184 12.9596C46.6757 12.9652 46.733 12.9699 46.7903 12.9727C46.857 12.9765 46.9237 12.9784 46.9913 12.9784H46.9932C47.0608 12.9784 47.1284 12.9765 47.1961 12.9727C47.2628 12.9699 47.3294 12.9643 47.3961 12.9577C47.5229 12.9464 47.6507 12.9277 47.7803 12.9032C49.8543 12.5059 51.3027 10.3963 50.9129 8.3204C50.8537 8.00762 50.7616 7.70892 50.6377 7.42901C50.6245 7.39895 50.6123 7.36983 50.5982 7.34072C50.5898 7.32099 50.5804 7.30033 50.57 7.2806C50.5606 7.25994 50.5503 7.23927 50.54 7.21955C50.5174 7.17352 50.4939 7.12844 50.4695 7.08429C50.4395 7.02887 50.4075 6.97345 50.3737 6.91897C50.3418 6.86731 50.3089 6.81659 50.2751 6.76587C50.2281 6.6973 50.1802 6.63061 50.1286 6.56486C50.106 6.53574 50.0825 6.50568 50.0581 6.47656C50.0327 6.44557 50.0074 6.41551 49.9801 6.38451C49.9736 6.37606 49.967 6.36854 49.9595 6.36009C49.9454 6.34412 49.9322 6.32909 49.9172 6.31406C49.8937 6.2887 49.8702 6.26334 49.8468 6.23892C49.8242 6.21544 49.8017 6.19289 49.7782 6.16941C48.8849 5.27426 47.5943 4.82058 46.2868 5.07513C43.6831 5.58047 42.2845 8.28095 43.3835 10.694C43.4774 10.9007 43.5582 11.05 43.3431 11.2613C41.9388 12.6412 40.5524 14.0398 39.1576 15.4299C39.1172 15.4713 39.058 15.4938 38.9904 15.5361C37.6312 14.0304 36.2871 12.5285 34.9241 11.0453C34.6818 10.7814 34.6395 10.5728 34.7588 10.2262C35.282 8.70176 34.8171 7.01478 33.5716 5.97967C32.4416 5.04225 31.1951 4.78301 29.8867 5.17939C29.8726 5.18315 29.8576 5.18785 29.8425 5.19254C29.6678 5.24702 29.4912 5.31371 29.3137 5.39167C29.3137 5.39167 29.3109 5.39261 29.309 5.39355C29.2837 5.40482 29.2592 5.4161 29.2339 5.42737C27.8024 6.08581 26.9101 7.61687 27.0153 9.19395C27.0359 9.50392 26.926 9.63354 26.6818 9.77068C24.0987 11.2285 21.5213 12.6957 18.941 14.16C18.6874 14.3037 18.431 14.4427 18.1849 14.5789C16.2556 12.365 13.5842 12.7746 12.1819 14.1628C10.6733 15.6554 10.6029 18.1088 12.0325 19.6775C13.6706 21.4734 15.9372 21.3926 18.1934 19.4426C18.2685 19.4774 18.3549 19.5103 18.4348 19.5553C21.2048 21.1268 23.9747 22.6973 26.7429 24.2725C26.8791 24.3505 26.9692 24.5092 27.0143 24.6952C27.0585 24.8821 27.0575 25.0925 27.0124 25.2832V25.2869C26.9645 25.4917 26.865 25.6692 26.7156 25.7538C23.9879 27.3046 21.2602 28.8544 18.5268 30.3958C18.3981 30.4681 18.2244 30.4597 18.0722 30.4888C18.1051 30.3253 18.0919 30.1328 18.1765 30.0041C19.3534 28.2175 20.5435 26.4385 21.7298 24.6586C21.8228 24.5186 21.913 24.3768 22.0248 24.2039C21.4734 23.8367 20.9568 23.491 20.3998 23.12C20.2824 23.29 20.1922 23.4159 20.1067 23.5445C18.927 25.3123 17.7406 27.0735 16.5778 28.8516C16.3993 29.1259 16.2424 29.2094 15.9419 29.155C15.9193 29.1512 15.8949 29.1456 15.8705 29.1399C15.1143 28.9624 14.3554 29.0131 13.6688 29.2489C13.6415 29.2583 13.6143 29.2677 13.5871 29.278C13.5485 29.2921 13.5091 29.3071 13.4706 29.3231C13.433 29.3381 13.3964 29.3541 13.3597 29.3701C13.3466 29.3757 13.3334 29.3823 13.3203 29.3879C13.278 29.4076 13.2367 29.4264 13.1954 29.4471C13.1728 29.4584 13.1503 29.4696 13.1287 29.4809C13.092 29.4997 13.0554 29.5194 13.0188 29.5401C12.984 29.5598 12.9493 29.5795 12.9155 29.6002C12.8882 29.6171 12.861 29.634 12.8347 29.6509C12.8074 29.6678 12.7811 29.6847 12.7548 29.7026C12.7379 29.7138 12.721 29.7251 12.7051 29.7373C12.6881 29.7486 12.6712 29.7608 12.6543 29.773C12.5952 29.8153 12.536 29.8604 12.4787 29.9073C12.4533 29.928 12.428 29.9496 12.4026 29.9712C12.3923 29.9797 12.3819 29.9881 12.3716 29.9966C12.3378 30.0257 12.304 30.0558 12.2711 30.0868C12.2523 30.1037 12.2335 30.1215 12.2157 30.1394C12.2091 30.145 12.2035 30.1506 12.1978 30.1572C12.1593 30.1948 12.1208 30.2333 12.0842 30.2727C12.0513 30.3075 12.0194 30.3422 11.9884 30.3779C11.9743 30.393 11.9611 30.408 11.9489 30.423C11.8785 30.5057 11.8118 30.5902 11.7498 30.6785C11.7357 30.6973 11.7225 30.717 11.7085 30.7367C11.6859 30.7677 11.6652 30.7987 11.6455 30.8297C11.623 30.8645 11.6004 30.9002 11.5788 30.9368C11.5093 31.0505 11.4455 31.1669 11.3891 31.2872C11.3816 31.3031 11.375 31.3182 11.3675 31.3341C11.3628 31.3445 11.3572 31.3557 11.3525 31.3661C11.3525 31.3661 11.3521 31.3661 11.3515 31.3661C11.3365 31.399 11.3205 31.4318 11.3064 31.4656C10.5691 33.2428 11.1994 35.297 12.7999 36.3387C12.861 36.3782 12.923 36.4157 12.985 36.4505C13.0225 36.473 13.062 36.4946 13.1005 36.5162C13.1296 36.5332 13.1587 36.5482 13.1888 36.5632C13.2874 36.613 13.3879 36.659 13.4884 36.7003C13.5645 36.7313 13.6406 36.7595 13.7176 36.7858C13.8717 36.8375 14.0276 36.8798 14.1835 36.9126C14.2004 36.9173 14.2183 36.9201 14.2361 36.923C14.254 36.9258 14.2718 36.9295 14.2887 36.9324C14.3319 36.9408 14.3751 36.9474 14.4193 36.954C14.4662 36.9605 14.5132 36.9662 14.5602 36.9718C14.6062 36.9765 14.6532 36.9812 14.7001 36.984C14.7452 36.9878 14.7912 36.9897 14.8373 36.9915C14.8391 36.9915 14.842 36.9925 14.8438 36.9915C14.8861 36.9934 14.9293 36.9943 14.9716 36.9943C15.0082 36.9943 15.0448 36.9934 15.0805 36.9934C15.1247 36.9925 15.1688 36.9897 15.212 36.9868C15.2224 36.9868 15.2327 36.9859 15.2421 36.985C15.2797 36.9821 15.3163 36.9793 15.3539 36.9756C15.3586 36.9746 15.3623 36.9746 15.3651 36.9737C15.4074 36.9699 15.4506 36.9643 15.4938 36.9587C15.4966 36.9587 15.4985 36.9577 15.5013 36.9577C15.5455 36.9511 15.5906 36.9436 15.6347 36.9361C15.6714 36.9295 15.707 36.923 15.7427 36.9154C16.5355 36.7623 17.2851 36.3603 17.8881 35.7225C17.9679 35.6389 18.0309 35.5413 18.0966 35.4483C18.1098 35.4295 18.1229 35.4107 18.137 35.3919C18.1379 35.3928 18.1389 35.3928 18.1398 35.3928C21.0723 37.0573 23.9381 38.6794 26.7936 40.3176C26.9119 40.3862 27.0021 40.6125 27.0002 40.7637C26.9814 41.9773 27.3327 42.9786 28.0767 43.7404C28.0795 43.7432 28.0823 43.746 28.0851 43.7488C28.3979 44.0682 28.7802 44.3453 29.2329 44.5782C29.6293 44.7821 30.0492 44.9098 30.4756 44.9662C30.609 44.9831 30.7443 44.9934 30.8823 44.9972C30.9875 45.0009 31.0937 44.999 31.1998 44.9925C31.2505 44.9896 31.3013 44.9859 31.3511 44.9812C31.4177 44.9746 31.4844 44.9662 31.5511 44.9568C31.5868 44.9521 31.6225 44.9464 31.6582 44.9399C32.3711 44.8168 33.0512 44.4975 33.6091 44.0034C33.9933 43.6634 34.2995 43.2679 34.524 42.8368C34.5522 42.7832 34.5785 42.7278 34.6029 42.6733C35.0246 41.7622 35.0848 40.7093 34.7306 39.6948C34.6339 39.4196 34.6677 39.2477 34.8621 39.0354C36.1697 37.6058 37.4649 36.164 38.7584 34.7212C38.8391 34.632 38.8776 34.5052 38.9537 34.3634C40.512 35.9245 41.9604 37.3691 43.3947 38.8279C43.4661 38.9011 43.4464 39.1003 43.4173 39.228C43.4135 39.2458 43.4088 39.2637 43.4041 39.2815C43.2736 39.8235 43.0434 40.3533 43.0171 40.8971C42.9918 41.4166 43.0707 41.9172 43.2369 42.3803C43.251 42.4169 43.2651 42.4535 43.2801 42.4902C43.2895 42.5137 43.2989 42.5362 43.3093 42.5597C43.3346 42.6189 43.3609 42.6771 43.3891 42.7353C43.6634 43.3121 44.0814 43.8155 44.6045 44.1978C44.6299 44.2166 44.6562 44.2354 44.6825 44.2542C44.7088 44.273 44.7351 44.2908 44.7614 44.3087C44.8074 44.3397 44.8544 44.3697 44.9014 44.3988C44.9634 44.4373 45.0263 44.474 45.0911 44.5087C45.1381 44.5341 45.185 44.5585 45.2329 44.582C45.3287 44.628 45.4264 44.6712 45.526 44.7116C45.6256 44.752 45.7279 44.7877 45.8322 44.8196C45.8547 44.8262 45.8764 44.8337 45.8989 44.8403C45.9243 44.8478 45.9496 44.8544 45.975 44.861C46.0229 44.8732 46.0717 44.8854 46.1196 44.8967C46.1628 44.9061 46.207 44.9154 46.2502 44.9239C46.2934 44.9324 46.3375 44.9399 46.3817 44.9464C46.4362 44.9549 46.4916 44.9624 46.547 44.969C46.5912 44.9737 46.6362 44.9774 46.6813 44.9812C46.7818 44.9897 46.8842 44.9934 46.9866 44.9934C47.1303 44.9934 47.2731 44.9859 47.413 44.9709C47.445 44.968 47.4769 44.9643 47.5089 44.9596C47.6056 44.9474 47.7023 44.9314 47.7972 44.9117C47.8282 44.9051 47.8602 44.8985 47.8911 44.891C48.8596 44.6628 49.7369 44.0738 50.3108 43.2003C50.9185 42.276 51.0998 41.1733 50.8715 40.1457C50.865 40.1175 50.8584 40.0893 50.8518 40.0602L50.8528 40.0612ZM46.9875 11.0209C45.8904 11.0209 44.9587 10.0835 44.9652 8.98731C44.9718 7.89678 45.8698 6.99787 46.9612 6.98754C48.0837 6.97815 48.992 7.8686 48.9967 8.98543C49.0023 10.0994 48.0931 11.0209 46.9875 11.0209ZM14.9894 19.0124C13.8886 19.0209 12.9831 18.1342 12.9709 17.0343C12.9577 15.9099 13.8641 14.9781 14.9697 14.981C16.079 14.9838 17.0117 15.9165 17.0023 17.0145C16.992 18.106 16.0875 19.0049 14.9894 19.0124ZM47.0298 23.0007C48.1344 23.0195 49.0042 23.9146 48.9967 25.0249C48.9892 26.1267 48.0959 27.0096 46.9904 27.0096C45.8848 27.0096 44.9521 26.0938 44.9671 24.9845C44.9831 23.8658 45.9027 22.981 47.0298 23.0007ZM30.9744 6.98754C32.0818 6.98378 32.9789 7.86484 32.9864 8.96476C32.9939 10.0985 32.1016 11.0181 30.9922 11.019C29.8773 11.0209 28.9718 10.1041 28.9793 8.98355C28.9868 7.8733 29.8688 6.9913 30.9744 6.98754ZM20.4233 18.4179C20.0156 18.1868 19.5986 17.9717 19.2097 17.7124C19.0866 17.6298 19.0068 17.4363 18.9683 17.2794C18.802 16.606 19.1552 16.28 19.7272 15.9653C22.3103 14.5423 24.8633 13.0629 27.4332 11.6145C27.5647 11.5403 27.7526 11.5676 27.9142 11.5469C27.8775 11.6962 27.8785 11.87 27.7986 11.9902C26.5766 13.8407 25.3442 15.6845 24.1147 17.5302C24.0208 17.6711 23.9334 17.8158 23.8151 18.0008C24.3505 18.3596 24.8643 18.7043 25.4241 19.0791C25.5255 18.941 25.626 18.8124 25.7162 18.6771C26.9467 16.8333 28.18 14.9904 29.3992 13.1381C29.5758 12.8704 29.7289 12.7849 30.0605 12.8657H30.0623C30.1074 12.8769 30.1525 12.8873 30.1985 12.8976C30.206 12.8985 30.2126 12.9004 30.2201 12.9014C30.2493 12.9079 30.2793 12.9136 30.3103 12.9183C30.3141 12.9192 30.3188 12.9201 30.3235 12.9211C30.8504 13.0207 31.3604 13.0028 31.8602 12.8816C31.8705 12.8788 31.8808 12.8769 31.8921 12.8741C31.9024 12.8713 31.9128 12.8694 31.9231 12.8666C31.9447 12.8619 31.9654 12.8563 31.987 12.8506C32.0433 12.8365 32.0987 12.8196 32.1542 12.8027C32.1664 12.7999 32.1786 12.7962 32.1917 12.7915C32.218 12.7839 32.2443 12.7746 32.2706 12.7652C32.2725 12.7642 32.2753 12.7633 32.2772 12.7623C32.3044 12.753 32.3317 12.7436 32.3589 12.7332C32.3599 12.7323 32.3617 12.7323 32.3627 12.7313C32.481 12.6863 32.5966 12.6365 32.7102 12.5811C32.9225 12.4806 33.1338 12.3613 33.3424 12.2241C34.7588 13.7928 36.1762 15.3623 37.6791 17.0268C37.3832 17.2832 37.0996 17.5011 36.8469 17.751C35.6596 18.9279 34.4799 20.1123 33.2992 21.2968C33.1724 21.4236 33.0718 21.5241 32.8934 21.4931C32.8502 21.4856 32.8023 21.4706 32.7487 21.4462C32.1992 21.1972 31.6582 21.0582 31.1341 21.0272C31.1331 21.0263 31.1322 21.0272 31.1322 21.0272C31.1313 21.0263 31.1303 21.0263 31.1294 21.0272C31.1097 21.0263 31.0899 21.0253 31.0702 21.0253H31.0617C30.4991 21.0037 29.9562 21.1033 29.4452 21.3287C29.4349 21.3325 29.4236 21.3372 29.4123 21.3428C28.8863 21.5786 28.3941 21.943 27.948 22.4334C27.9066 22.4794 27.8832 22.5414 27.8353 22.6231C27.8212 22.6146 27.8071 22.6071 27.793 22.5996C25.2813 21.1747 22.8513 19.7967 20.4233 18.4179ZM31.027 23.0007C32.1316 23.0148 32.9967 23.9071 32.9873 25.0239C32.9789 26.137 32.0978 27.0115 30.9894 27.0087C29.8519 27.0049 28.9699 26.1173 28.9793 24.9854C28.9887 23.8564 29.8867 22.9866 31.027 23.0007ZM14.9396 35.0284C13.8454 35.0059 12.9643 34.0929 12.9709 32.9911C12.9774 31.8874 13.8726 30.996 14.9735 30.9969C16.0922 30.9979 17.0164 31.9221 17.0023 33.0249C16.9892 34.1276 16.0386 35.0519 14.9396 35.0284ZM30.9894 43.0218C29.8651 43.0246 28.9709 42.1229 28.9784 40.9939C28.9859 39.893 29.8745 39.0035 30.9772 38.9904C32.0818 38.9781 32.9864 39.8958 32.9864 41.0286C32.9864 42.1614 32.094 43.019 30.9894 43.0218ZM33.3489 37.7787C33.2804 37.7355 33.2109 37.6932 33.1414 37.6537C33.1395 37.6519 33.1367 37.6509 33.1348 37.649C32.281 37.154 31.3867 36.9154 30.3958 37.0732C29.5175 37.2132 28.7858 37.5955 28.1593 38.2089C28.1434 38.2248 28.1274 38.2408 28.1124 38.2568C28.0043 38.3629 27.9001 38.4775 27.7986 38.5996C27.4689 38.4146 27.1458 38.2352 26.8246 38.0539C24.326 36.6374 21.8275 35.221 19.3299 33.8036C19.158 33.7049 18.9476 33.6345 18.9457 33.4072C18.9467 33.4062 18.9467 33.4053 18.9457 33.4044C18.9457 33.379 18.9486 33.3536 18.9542 33.3255C18.9551 33.3151 18.957 33.3048 18.9598 33.2945C19.0481 32.9244 18.7814 32.5007 19.314 32.2049C22.1384 30.6381 24.9394 29.0291 27.7921 27.4107C27.8052 27.4257 27.8174 27.4408 27.8296 27.4558C27.8334 27.4614 27.8371 27.4661 27.8418 27.4708C28.4092 28.1302 29.062 28.5867 29.8303 28.8159C29.8641 28.8253 29.897 28.8347 29.9308 28.8441C29.9637 28.8525 29.9975 28.861 30.0313 28.8694C30.0642 28.8779 30.0971 28.8854 30.1309 28.892C30.1769 28.9023 30.223 28.9117 30.2699 28.9192C30.2849 28.922 30.3 28.9239 30.315 28.9267C30.346 28.9324 30.3779 28.9371 30.4089 28.9417C30.4305 28.9446 30.4512 28.9474 30.4728 28.9502C30.5085 28.9549 30.5442 28.9587 30.5799 28.9624C30.6081 28.9662 30.6362 28.968 30.6644 28.9709C30.6701 28.9709 30.6766 28.9709 30.6823 28.9709C30.7339 28.9746 30.7856 28.9774 30.8382 28.9793C30.8908 28.9821 30.9425 28.9831 30.9951 28.9831H31.0054C31.0561 28.9831 31.1078 28.9821 31.1585 28.9803C31.1848 28.9793 31.2102 28.9784 31.2365 28.9765C31.2646 28.9746 31.2928 28.9737 31.321 28.9709C31.8151 28.9286 32.2913 28.7943 32.7572 28.582C32.76 28.5811 32.7619 28.5792 32.7647 28.5792C32.8849 28.5294 33.1085 28.5435 33.1893 28.6233C34.6461 30.0605 36.0889 31.5126 37.5326 32.9638C37.5514 32.9826 37.5523 33.0192 37.5767 33.0934C36.1828 34.6376 34.7729 36.1997 33.348 37.7777L33.3489 37.7787ZM38.8551 31.5746C38.5198 31.2092 38.1854 30.8213 37.8256 30.4578C36.7821 29.402 35.7329 28.3509 34.6752 27.3102C34.5221 27.1599 34.4714 27.0397 34.5137 26.8725C34.5259 26.8236 34.5456 26.7701 34.5738 26.7109C34.7391 26.3596 34.8518 26.0074 34.9129 25.6542C34.9185 25.6195 34.9241 25.5856 34.9288 25.5509C34.9955 25.1038 34.9796 24.6557 34.8856 24.2067C34.8809 24.1814 34.8753 24.1551 34.8697 24.1307C34.8124 23.8799 34.7316 23.6291 34.6264 23.3783C34.6264 23.3736 34.6236 23.3698 34.6217 23.3661C34.6076 23.3332 34.5935 23.3013 34.5794 23.2693C34.5212 23.1369 34.5221 22.8842 34.6076 22.7969C36.0259 21.3456 37.4631 19.9123 39.0223 18.3474C39.1078 18.5071 39.1529 18.6517 39.244 18.7541C40.528 20.1847 41.8139 21.6133 43.112 23.0307C43.2736 23.2073 43.3224 23.3548 43.2764 23.5577C43.267 23.599 43.2538 23.6422 43.2369 23.6883C43.1571 23.9062 43.097 24.125 43.0575 24.3439C43.0528 24.3721 43.0481 24.3993 43.0444 24.4265C43.0378 24.4707 43.0312 24.5148 43.0265 24.559C43.019 24.6247 43.0124 24.6905 43.0077 24.7572C43.0077 24.7572 43.0077 24.7581 43.0077 24.76C43.004 24.8276 43.0012 24.8953 43.0002 24.9638C42.9993 25.0643 43.0012 25.1639 43.0087 25.2625C43.0106 25.2963 43.0134 25.3301 43.0162 25.363C43.0387 25.5913 43.0791 25.8186 43.1392 26.0459C43.1515 26.0938 43.1655 26.1408 43.1806 26.1868C43.2003 26.2554 43.2228 26.3239 43.2463 26.3934C43.2952 26.5343 43.2689 26.7757 43.1759 26.88C41.8148 28.4092 40.4378 29.9243 39.0627 31.4403C39.0336 31.4722 38.9885 31.4901 38.8551 31.5746ZM46.9847 43.0218C45.8717 43.0209 44.9549 42.1022 44.9652 40.9976C44.9746 39.9137 45.8792 39.0054 46.9641 38.9885C48.0659 38.9716 48.9929 39.8883 48.9976 41.0005C49.0014 42.1201 48.1025 43.0228 46.9847 43.0218ZM31.955 12.8582C31.9447 12.8619 31.9344 12.8638 31.9231 12.8666C31.9447 12.8619 31.9654 12.8563 31.987 12.8506C31.9766 12.8535 31.9654 12.8563 31.955 12.8582ZM31.8921 12.8741C31.9024 12.8713 31.9128 12.8694 31.9231 12.8666C31.9024 12.8722 31.8808 12.876 31.8602 12.8816C31.8705 12.8788 31.8808 12.8769 31.8921 12.8741ZM31.7089 12.9126C31.5765 12.938 31.4422 12.9558 31.305 12.9662C31.2722 12.969 31.2383 12.9709 31.2045 12.9727C31.2008 12.9727 31.197 12.9727 31.1923 12.9727C31.1294 12.9756 31.0655 12.9774 31.0016 12.9774H30.9969C30.9528 12.9774 30.9077 12.9765 30.8636 12.9746C30.8344 12.9746 30.8044 12.9727 30.7762 12.9709C30.7555 12.9699 30.7358 12.969 30.7161 12.9671C30.6785 12.9652 30.6419 12.9615 30.6053 12.9577C30.5667 12.954 30.5301 12.9493 30.4925 12.9455C30.4352 12.938 30.3789 12.9295 30.3235 12.9201C30.8504 13.0197 31.3604 13.0019 31.8602 12.8807C31.8385 12.8854 31.8169 12.891 31.7963 12.8948C31.7672 12.9014 31.738 12.907 31.7089 12.9117V12.9126ZM32.2659 12.7661C32.2284 12.7793 32.1917 12.7915 32.1542 12.8027C32.1664 12.7999 32.1786 12.7962 32.1917 12.7915C32.218 12.7839 32.2443 12.7746 32.2706 12.7652C32.2687 12.7652 32.2678 12.7661 32.2659 12.7661ZM32.357 12.7332C32.3307 12.7436 32.3035 12.753 32.2772 12.7623C32.3044 12.753 32.3317 12.7436 32.3589 12.7332C32.358 12.7323 32.358 12.7332 32.357 12.7332ZM30.5799 28.9624C30.6081 28.9662 30.6362 28.968 30.6644 28.9709C30.6701 28.9709 30.6766 28.9709 30.6823 28.9709C30.6485 28.968 30.6137 28.9652 30.5799 28.9615V28.9624ZM31.955 12.8582C31.9447 12.8619 31.9344 12.8638 31.9231 12.8666C31.9447 12.8619 31.9654 12.8563 31.987 12.8506C31.9766 12.8535 31.9654 12.8563 31.955 12.8582ZM31.7089 12.9126C31.5765 12.938 31.4422 12.9558 31.305 12.9662C31.2722 12.969 31.2383 12.9709 31.2045 12.9727C31.2008 12.9727 31.197 12.9727 31.1923 12.9727C31.1294 12.9756 31.0655 12.9774 31.0016 12.9774H30.9969C30.9528 12.9774 30.9077 12.9765 30.8636 12.9746C30.8344 12.9746 30.8044 12.9727 30.7762 12.9709C30.7555 12.9699 30.7358 12.969 30.7161 12.9671C30.6785 12.9643 30.6419 12.9615 30.6053 12.9577C30.5667 12.954 30.5301 12.9493 30.4925 12.9455C30.4352 12.938 30.3789 12.9295 30.3235 12.9201C30.8504 13.0197 31.3604 13.0019 31.8602 12.8807C31.8385 12.8854 31.8169 12.891 31.7963 12.8948C31.7672 12.9014 31.738 12.907 31.7089 12.9117V12.9126ZM31.8921 12.8741C31.9024 12.8713 31.9128 12.8694 31.9231 12.8666C31.9024 12.8722 31.8808 12.876 31.8602 12.8816C31.8705 12.8788 31.8808 12.8769 31.8921 12.8741ZM32.2659 12.7661C32.2415 12.7746 32.2161 12.783 32.1917 12.7915C32.218 12.7839 32.2443 12.7746 32.2706 12.7652C32.2687 12.7652 32.2678 12.7661 32.2659 12.7661ZM32.357 12.7332C32.3307 12.7436 32.3035 12.753 32.2772 12.7623C32.3044 12.753 32.3317 12.7436 32.3589 12.7332C32.358 12.7323 32.358 12.7332 32.357 12.7332ZM30.5799 28.9624C30.6081 28.9662 30.6362 28.968 30.6644 28.9709C30.6701 28.9709 30.6766 28.9709 30.6823 28.9709C30.6485 28.968 30.6137 28.9652 30.5799 28.9615V28.9624ZM30.5799 28.9624C30.6081 28.9662 30.6362 28.968 30.6644 28.9709C30.6701 28.9709 30.6766 28.9709 30.6823 28.9709C30.6485 28.968 30.6137 28.9652 30.5799 28.9615V28.9624Z" fill="#AEBAA9"/>
<path d="M50.6373 7.42901C50.6242 7.39895 50.612 7.36984 50.5979 7.34072C50.5894 7.32099 50.58 7.30033 50.5697 7.2806C50.5603 7.25994 50.55 7.23927 50.5396 7.21955C50.5171 7.17352 50.4936 7.12844 50.4692 7.08429C50.4391 7.02887 50.4072 6.97345 50.3734 6.91897C50.3414 6.86731 50.3086 6.81659 50.2747 6.76587C50.2278 6.6973 50.1799 6.63061 50.1282 6.56486C50.1057 6.53574 50.0822 6.50568 50.0578 6.47656C50.0324 6.44557 50.007 6.41551 49.9798 6.38451C49.9591 6.36103 49.9385 6.33755 49.9169 6.31407C49.8934 6.2887 49.8699 6.26334 49.8464 6.23892C49.1157 5.48373 48.0852 5.01971 46.9412 5.03005C44.7902 5.04977 43.0205 6.82129 43.0074 8.97134C42.9952 10.9298 44.5037 12.6308 46.3954 12.9314C46.4274 12.9361 46.4603 12.9408 46.4931 12.9455C46.5185 12.9493 46.5448 12.9521 46.5702 12.9549C46.5861 12.9568 46.6021 12.9577 46.6181 12.9596C46.6754 12.9652 46.7327 12.9699 46.7899 12.9727C46.8566 12.9765 46.9233 12.9784 46.991 12.9784H46.9928C47.0605 12.9784 47.1281 12.9765 47.1957 12.9727C47.2624 12.9699 47.3291 12.9643 47.3958 12.9577C49.388 12.7501 50.9632 11.0256 50.9539 8.96664C50.951 8.41997 50.8383 7.90054 50.6373 7.42901ZM46.9872 11.0209C45.8901 11.0209 44.9583 10.0835 44.9649 8.98731C44.9715 7.89678 45.8694 6.99787 46.9609 6.98754C48.0834 6.97815 48.9917 7.8686 48.9964 8.98543C49.002 10.0994 48.0928 11.0209 46.9872 11.0209Z" fill="#638161"/>
<path d="M50.8721 40.1467C50.8656 40.1185 50.859 40.0903 50.8524 40.0612C50.8449 40.033 50.8383 40.0048 50.8308 39.9766C50.8233 39.9485 50.8148 39.9203 50.8064 39.8921C50.7989 39.8639 50.7904 39.8367 50.781 39.8085C50.7698 39.7719 50.7566 39.7343 50.7435 39.6977C50.7256 39.646 50.7059 39.5943 50.6862 39.5436C50.6739 39.5136 50.6617 39.4835 50.6486 39.4544C50.4072 38.8899 50.039 38.3902 49.5825 37.9928C49.5102 37.9299 49.436 37.8698 49.3599 37.8125C49.3373 37.7946 49.3148 37.7777 49.2913 37.7618C49.2509 37.7317 49.2096 37.7035 49.1683 37.6763C49.142 37.6585 49.1157 37.6415 49.0894 37.6246C49.064 37.6087 49.0386 37.5927 49.0133 37.5786C48.4055 37.2113 47.6973 37.0047 46.9477 37.016C46.3372 37.0254 45.7567 37.1775 45.2363 37.4396C45.2354 37.4396 45.2345 37.4405 45.2335 37.4405C44.4445 37.8388 43.7964 38.4907 43.4038 39.2825C43.1464 39.8029 42.998 40.3824 42.9924 40.9901C42.9877 41.4776 43.075 41.9463 43.2366 42.3812C43.2507 42.4179 43.2648 42.4545 43.2798 42.4911C43.2892 42.5146 43.2986 42.5372 43.3089 42.5606C43.3343 42.6198 43.3606 42.6781 43.3888 42.7363C43.6715 43.313 44.0904 43.8155 44.6042 44.1988C44.6296 44.2176 44.6559 44.2364 44.6822 44.2551C44.7085 44.2739 44.7348 44.2918 44.7611 44.3096C44.8071 44.3406 44.8541 44.3707 44.901 44.3998C44.963 44.4383 45.0259 44.4749 45.0908 44.5097C45.1377 44.5351 45.1847 44.5595 45.2326 44.583C45.4242 44.6778 45.6243 44.7567 45.8319 44.8206C45.8319 44.8206 45.8319 44.8206 45.8328 44.8206C45.8553 44.8272 45.8769 44.8347 45.8995 44.8413C45.9249 44.8488 45.9502 44.8554 45.9756 44.8619C46.0235 44.8741 46.0723 44.8863 46.1202 44.8976C46.1634 44.907 46.2076 44.9164 46.2508 44.9249C46.294 44.9333 46.3381 44.9408 46.3823 44.9474C46.4368 44.9559 46.4922 44.9634 46.5476 44.9699C46.5918 44.9746 46.6368 44.9784 46.6819 44.9822C46.7824 44.9906 46.8848 44.9944 46.9872 44.9944C47.1309 44.9944 47.2737 44.9869 47.4136 44.9718C47.4456 44.969 47.4775 44.9652 47.5095 44.9606C47.6062 44.9483 47.7029 44.9324 47.7978 44.9126C49.6182 44.5407 50.9764 42.9317 50.9689 40.9948C50.9679 40.7046 50.9351 40.42 50.8721 40.1467ZM46.9844 43.0218C45.8713 43.0209 44.9546 42.1023 44.9649 40.9977C44.9743 39.9137 45.8788 39.0054 46.9637 38.9885C48.0655 38.9716 48.9926 39.8883 48.9973 41.0005C49.0011 42.1201 48.1021 43.0228 46.9844 43.0218Z" fill="#638161"/>
<path d="M14.9903 19.0124C13.8895 19.02 12.984 18.1333 12.9708 17.0343C12.9577 15.9099 13.8651 14.9782 14.9697 14.98C16.0799 14.9829 17.0126 15.9165 17.0023 17.0136C16.9929 18.1051 16.0874 19.004 14.9903 19.0115V19.0124Z" fill="#FFEE05"/>
<path d="M15.9419 29.155C15.6272 29.0742 15.2985 29.031 14.9603 29.031C14.3902 29.031 13.8501 29.1522 13.3597 29.3701C13.3466 29.3757 13.3334 29.3814 13.3203 29.3879C13.278 29.4077 13.2358 29.4264 13.1944 29.4471C13.1353 29.4762 13.0761 29.5072 13.0178 29.5401C12.9831 29.5598 12.9483 29.5796 12.9145 29.6002C12.8873 29.6171 12.86 29.634 12.8337 29.6509C12.8065 29.6679 12.7802 29.6848 12.7539 29.7026C11.7056 30.4099 11.0124 31.6075 11.004 32.9685C10.9946 34.4949 11.8465 35.8362 13.1005 36.5172C13.1296 36.5341 13.1587 36.5491 13.1888 36.5642C13.5683 36.7586 13.9825 36.8939 14.4193 36.9549C14.4662 36.9615 14.5132 36.9671 14.5602 36.9728C14.6062 36.9775 14.6532 36.9822 14.7001 36.985C14.7452 36.9887 14.7912 36.9906 14.8373 36.9925C14.8391 36.9925 14.842 36.9934 14.8438 36.9925C14.8598 36.9934 14.8767 36.9944 14.8927 36.9944C14.919 36.9953 14.9453 36.9953 14.9716 36.9953C15.0082 36.9953 15.0448 36.9944 15.0805 36.9944C16.2819 36.9587 17.3771 36.3566 18.0966 35.4492C18.1117 35.4314 18.1257 35.4126 18.1398 35.3938C18.5757 34.8255 18.8659 34.1427 18.9457 33.4072C18.9467 33.4063 18.9467 33.4053 18.9457 33.4044C18.9495 33.3781 18.9523 33.3518 18.9542 33.3255C18.9627 33.2297 18.9683 33.1329 18.9692 33.0362C18.9918 31.1905 17.6852 29.5993 15.9419 29.155ZM14.9396 35.0284C13.8454 35.0059 12.9643 34.0929 12.9709 32.9911C12.9774 31.8874 13.8726 30.996 14.9735 30.997C16.0922 30.9979 17.0164 31.9222 17.0023 33.0249C16.9892 34.1276 16.0386 35.0519 14.9396 35.0284Z" fill="#638161"/>
<path d="M34.8852 24.2068C34.8805 24.1814 34.8749 24.1551 34.8692 24.1307C34.8129 23.8686 34.7312 23.6169 34.626 23.3783C34.626 23.3736 34.6231 23.3699 34.6213 23.3661C34.2671 22.563 33.6585 21.9046 32.893 21.4931C32.3698 21.2113 31.7724 21.0451 31.1336 21.0272C31.1327 21.0263 31.1318 21.0272 31.1318 21.0272C31.1308 21.0263 31.1299 21.0263 31.129 21.0272C31.1092 21.0263 31.0895 21.0254 31.0698 21.0254H31.0613C30.4837 21.0188 29.9379 21.1268 29.4448 21.3288C29.4345 21.3325 29.4232 21.3372 29.4119 21.3429C28.7629 21.6143 28.2059 22.0492 27.7926 22.5996C27.3511 23.1858 27.0712 23.9034 27.0139 24.6952C27.0073 24.7844 27.0036 24.8756 27.0026 24.9667C27.0017 25.0737 27.0045 25.1789 27.012 25.2832V25.287C27.0684 26.1079 27.3624 26.8537 27.8292 27.4558C27.833 27.4614 27.8367 27.4661 27.8414 27.4708C28.3374 28.1058 29.0268 28.5801 29.8299 28.8159C29.8637 28.8253 29.8966 28.8347 29.9304 28.8441C29.9633 28.8525 29.9971 28.861 30.0309 28.8694C30.0638 28.8779 30.0967 28.8854 30.1305 28.892C30.1765 28.9023 30.2225 28.9117 30.2695 28.9192C30.2845 28.922 30.2996 28.9239 30.3146 28.9267C30.3456 28.9324 30.3775 28.9371 30.4085 28.9418C30.4301 28.9446 30.4508 28.9474 30.4724 28.9502C30.5081 28.9549 30.5438 28.9587 30.5795 28.9624C30.6133 28.9662 30.648 28.969 30.6818 28.9718C30.7335 28.9756 30.7852 28.9784 30.8378 28.9803C30.8904 28.9831 30.942 28.984 30.9946 28.984H31.005C31.0557 28.984 31.1073 28.9831 31.1581 28.9812C31.1844 28.9803 31.2097 28.9793 31.236 28.9775C31.2642 28.9756 31.2924 28.9746 31.3206 28.9718C31.8372 28.9324 32.3247 28.7962 32.7643 28.5801C33.5148 28.2129 34.1263 27.6145 34.5123 26.8725C34.7067 26.4987 34.8439 26.0891 34.9115 25.6542C34.9171 25.6195 34.9228 25.5857 34.9275 25.5509C34.9491 25.3846 34.9613 25.2156 34.9622 25.0427C34.9641 24.7553 34.9378 24.4763 34.8843 24.2068H34.8852ZM30.989 27.0087C29.8515 27.0049 28.9695 26.1173 28.9789 24.9854C28.9883 23.8564 29.8863 22.9866 31.0266 23.0007C32.1312 23.0148 32.9963 23.9071 32.9869 25.024C32.9784 26.137 32.0974 27.0115 30.989 27.0087Z" fill="#638161"/>
<path d="M50.9523 24.7102C50.9523 24.7036 50.9523 24.6971 50.9504 24.6914C50.9467 24.6435 50.942 24.5947 50.9364 24.5458C50.9317 24.5017 50.926 24.4576 50.9194 24.4134C50.9119 24.3617 50.9035 24.311 50.8931 24.2612C50.8894 24.2434 50.8866 24.2255 50.8828 24.2077C50.8518 24.0508 50.8114 23.8977 50.7616 23.7493C50.7485 23.708 50.7344 23.6676 50.7194 23.6282C50.7081 23.5953 50.6959 23.5624 50.6827 23.5305C50.6809 23.5248 50.678 23.5192 50.6762 23.5136C50.6705 23.5004 50.6658 23.4882 50.6602 23.476C50.6546 23.461 50.648 23.445 50.6405 23.429C50.6245 23.3914 50.6076 23.3539 50.5898 23.3163C50.5616 23.2543 50.5315 23.1942 50.4996 23.135C50.4808 23.0993 50.4611 23.0636 50.4413 23.0289C50.4319 23.011 50.4216 22.9941 50.4113 22.9772C50.401 22.9594 50.3916 22.9425 50.3803 22.9256C50.339 22.857 50.2948 22.7894 50.2497 22.7245C50.2328 22.7011 50.2159 22.6776 50.199 22.655C50.1624 22.6043 50.1239 22.5545 50.0844 22.5057C50.0609 22.4766 50.0374 22.4493 50.014 22.4212C49.9895 22.393 49.9651 22.3657 49.9407 22.3385C49.9069 22.3 49.8712 22.2624 49.8355 22.2248C49.1348 21.51 48.1635 21.062 47.0768 21.0432C45.3494 21.0131 43.8691 22.0567 43.2764 23.5577C43.1778 23.8085 43.1035 24.0715 43.0575 24.3439C43.0528 24.3721 43.0481 24.3993 43.0444 24.4266C43.0378 24.4707 43.0312 24.5148 43.0265 24.559C43.019 24.6247 43.0124 24.6905 43.0077 24.7572C43.0077 24.7572 43.0077 24.7581 43.0077 24.76C43.004 24.8276 43.0012 24.8953 43.0002 24.9638C42.9993 25.0643 43.0012 25.1639 43.0087 25.2625C43.0246 25.5321 43.0697 25.7932 43.1392 26.0459C43.1515 26.0938 43.1655 26.1408 43.1806 26.1868C43.6878 27.7911 45.2085 28.9671 46.9979 28.9671C48.5008 28.9671 49.8045 28.1415 50.477 26.9185C50.5127 26.8537 50.5465 26.788 50.5785 26.7213C50.5963 26.6827 50.6142 26.6442 50.6311 26.6057C50.6424 26.5813 50.6527 26.5569 50.663 26.5315C50.6771 26.4996 50.6893 26.4676 50.7015 26.4348C50.7128 26.4038 50.7241 26.3728 50.7353 26.3427C50.8809 25.9369 50.9608 25.4992 50.9636 25.0437C50.9636 24.931 50.9608 24.8201 50.9523 24.7102ZM46.9904 27.0096C45.867 27.0096 44.9521 26.0938 44.9671 24.9845C44.9831 23.8658 45.9027 22.981 47.0298 23.0007C48.1344 23.0195 49.0042 23.9146 48.9967 25.0249C48.9892 26.1267 48.0959 27.0096 46.9904 27.0096Z" fill="#638161"/>
<path d="M30.9656 5.02817C30.5908 5.02911 30.2292 5.08171 29.8863 5.17939C29.8722 5.18315 29.8572 5.18785 29.8422 5.19254C29.66 5.24608 29.4834 5.31278 29.3134 5.39168C29.3134 5.39168 29.3105 5.39262 29.3087 5.39355C27.9664 6.01631 27.0421 7.37078 27.0309 8.96383C27.0177 10.849 28.3149 12.4392 30.0601 12.8657H30.062C30.1071 12.8769 30.1521 12.8873 30.1982 12.8976C30.2057 12.8985 30.2123 12.9004 30.2198 12.9014C30.2489 12.9079 30.279 12.9136 30.31 12.9183C30.3137 12.9192 30.3184 12.9201 30.3231 12.9211C30.3785 12.9305 30.4349 12.9389 30.4922 12.9464C30.5297 12.9502 30.5664 12.9549 30.6049 12.9587C30.6415 12.9624 30.6782 12.9652 30.7157 12.9681C30.7355 12.9699 30.7552 12.9709 30.7758 12.9718C30.804 12.9737 30.8341 12.9756 30.8632 12.9756C30.9073 12.9774 30.9524 12.9784 30.9966 12.9784H31.0013C31.0651 12.9784 31.129 12.9765 31.192 12.9737C31.1966 12.9737 31.2004 12.9737 31.2042 12.9737C31.238 12.9718 31.2718 12.9699 31.3047 12.9671C31.4418 12.9568 31.5761 12.9389 31.7086 12.9136C31.7377 12.9089 31.7668 12.9032 31.7959 12.8967C31.8279 12.8901 31.8598 12.8826 31.8917 12.8751C31.9124 12.8704 31.934 12.8657 31.9547 12.8591C31.965 12.8572 31.9763 12.8544 31.9866 12.8516C32.043 12.8375 32.0984 12.8206 32.1538 12.8037C32.1914 12.7924 32.228 12.7802 32.2656 12.767C32.2693 12.7661 32.2731 12.7642 32.2768 12.7633C32.3031 12.7539 32.3304 12.7445 32.3567 12.7342C32.3586 12.7332 32.3604 12.7332 32.3623 12.7323C32.4807 12.6872 32.5962 12.6374 32.7099 12.582C34.0361 11.9282 34.9454 10.5381 34.9341 8.92907C34.9191 6.75929 33.1504 5.02159 30.9656 5.02911V5.02817ZM30.9919 11.019C29.8769 11.0209 28.9715 10.1041 28.979 8.98355C28.9865 7.8733 29.8685 6.9913 30.974 6.98754C32.0815 6.98379 32.9785 7.86485 32.986 8.96477C32.9935 10.0985 32.1012 11.0181 30.9919 11.019Z" fill="#638161"/>
<path d="M33.1412 37.6538C33.1412 37.6538 33.1365 37.6509 33.1347 37.6491C32.511 37.2386 31.767 37.0047 30.9715 37.0132C29.8687 37.0254 28.8749 37.4809 28.1592 38.2089C28.1432 38.2249 28.1273 38.2408 28.1122 38.2568C27.4359 38.9678 27.0198 39.925 27.0123 40.9817C27.0048 42.0553 27.4087 43.0247 28.0765 43.7414C28.0794 43.7442 28.0822 43.747 28.085 43.7498C28.6983 44.4054 29.5324 44.8488 30.4755 44.9671C30.6089 44.984 30.7441 44.9944 30.8822 44.9981C30.9198 44.9991 30.9574 44.9991 30.9959 44.9991C31.0644 44.9991 31.1321 44.9972 31.1997 44.9934C31.2504 44.9906 31.3011 44.9869 31.3509 44.9822C31.4176 44.9756 31.4843 44.9671 31.551 44.9577C32.8538 44.7736 33.9509 43.9621 34.5239 42.8377C34.5521 42.7842 34.5784 42.7288 34.6028 42.6743C34.8273 42.1784 34.9522 41.6289 34.9522 41.0503C34.9522 39.6253 34.2289 38.3723 33.1412 37.6538ZM30.9893 43.0218C29.865 43.0247 28.9707 42.1229 28.9783 40.9939C28.9858 39.893 29.8744 39.0035 30.9771 38.9904C32.0817 38.9782 32.9862 39.8959 32.9862 41.0287C32.9862 42.1615 32.0939 43.019 30.9893 43.0218Z" fill="#638161"/>
</g>
<defs>
<clipPath id="clip0_785_165">
<rect width="39.9765" height="40" fill="white" transform="translate(11 5)"/>
</clipPath>
</defs>
</svg>
