<svg width="62" height="50" viewBox="0 0 62 50" fill="none" xmlns="http://www.w3.org/2000/svg">
<rect width="62" height="50" fill="white"/>
<g clip-path="url(#clip0_782_67)">
<path d="M29.5059 26.5418C31.0166 26.148 31.1676 26.148 32.54 26.5418C33.8926 24.279 36.876 24.051 38.5808 25.7259C40.2278 27.3441 40.1635 30.1278 38.0968 31.6517C38.1617 31.6943 38.2205 31.7348 38.2808 31.7728C39.7423 32.6946 40.499 34.0219 40.5507 35.7465C40.5664 36.2614 40.5547 36.7767 40.5527 37.2921C40.5507 37.7756 40.3211 38.0077 39.8396 38.0087C38.556 38.0102 37.2723 38.0092 35.9881 38.0092C35.8974 38.0092 35.8062 38.0092 35.6876 38.0092C35.6876 38.3229 35.6886 38.6158 35.6876 38.9088C35.6851 39.3953 35.458 39.6299 34.9796 39.6299C32.3444 39.6309 29.7096 39.6309 27.0744 39.6299C26.596 39.6299 26.3664 39.3943 26.3633 38.9108C26.3618 38.6407 26.3623 38.3701 26.3618 38.0999C26.3618 38.0832 26.3578 38.0665 26.3497 38.0087C26.2676 38.0087 26.1789 38.0087 26.0907 38.0087C24.807 38.0087 23.5234 38.0092 22.2392 38.0087C21.7238 38.0087 21.4907 37.7837 21.5003 37.2688C21.5145 36.5016 21.4684 35.7226 21.5834 34.9701C21.7983 33.5673 22.5731 32.5005 23.7909 31.7627C23.834 31.7363 23.8766 31.7089 23.9191 31.6816C23.9257 31.677 23.9308 31.6694 23.9506 31.6481C22.8154 30.781 22.2295 29.6388 22.3223 28.201C22.3912 27.1322 22.859 26.2418 23.6749 25.5445C25.4197 24.0525 28.208 24.389 29.5059 26.5428V26.5418ZM34.4713 38.4035C34.4713 38.0422 34.4744 37.7052 34.4713 37.3687C34.4429 34.778 31.6582 33.1188 29.3934 34.3746C27.7175 35.304 27.4484 36.7737 27.61 38.4035H34.4718H34.4713ZM33.66 30.0994C33.6584 28.6556 32.4782 27.4723 31.0348 27.4682C29.5799 27.4636 28.3895 28.6515 28.391 30.106C28.3925 31.5493 29.5728 32.7326 31.0161 32.7372C32.4706 32.7418 33.6615 31.5539 33.66 30.0999V30.0994ZM35.8011 31.1363C36.0246 31.1094 36.1761 31.0963 36.3256 31.0724C37.5024 30.8829 38.4049 29.9099 38.5174 28.7113C38.6289 27.5235 37.8941 26.3933 36.7478 25.9925C35.6283 25.6007 34.3735 26.0214 33.7091 27.003C33.6083 27.152 33.6022 27.2412 33.741 27.3831C34.6274 28.2907 35.0029 29.3788 34.8311 30.6422C34.8068 30.8221 34.8357 30.931 35.0288 30.9696C35.3085 31.0248 35.5862 31.0897 35.8011 31.1368V31.1363ZM26.1454 31.1231C26.2711 31.1115 26.3988 31.1089 26.523 31.0866C26.6801 31.0587 26.8336 31.0096 26.9907 30.9797C27.1965 30.9402 27.2482 30.8363 27.2193 30.6244C27.0505 29.3813 27.419 28.3044 28.2881 27.4079C28.4518 27.2391 28.4376 27.1373 28.318 26.9675C27.6004 25.9504 26.2676 25.5678 25.1212 26.0599C23.9724 26.553 23.3298 27.7926 23.5826 29.0286C23.8264 30.221 24.9124 31.1054 26.1459 31.1231H26.1454ZM39.3369 36.7803C39.3369 36.4534 39.3379 36.1428 39.3369 35.8321C39.3298 33.6246 37.477 32.0404 35.2933 32.387C34.5661 32.5026 33.9463 32.8396 33.4162 33.3879C34.67 34.1932 35.4195 35.3137 35.6521 36.7798H39.3369V36.7803ZM28.6287 33.395C27.5568 32.1919 25.6143 31.9826 24.2374 32.9186C22.859 33.8557 22.5878 35.2336 22.7394 36.7762H26.3998C26.6345 35.3122 27.3784 34.1977 28.6292 33.3945L28.6287 33.395Z" fill="#AEBAA8"/>
</g>
<g clip-path="url(#clip1_782_67)">
<path d="M38.7058 12.7658C38.5742 12.9697 38.473 13.2041 38.3048 13.3715C37.381 14.2915 36.445 15.2001 35.5014 16.1003C35.3233 16.27 35.2807 16.423 35.3249 16.6634C35.5592 17.9563 35.767 19.2545 35.996 20.5481C36.0577 20.8944 35.9899 21.182 35.7053 21.389C35.4177 21.5983 35.1133 21.5602 34.8105 21.4004C33.6918 20.8099 32.5641 20.2346 31.4554 19.6251C31.1373 19.4501 30.8999 19.4623 30.5879 19.6335C29.5119 20.2232 28.4153 20.7764 27.3325 21.3525C26.9984 21.5305 26.6682 21.6279 26.3356 21.3844C26.0198 21.1531 25.9993 20.8305 26.0647 20.4652C26.2938 19.1967 26.4939 17.9236 26.726 16.6558C26.7709 16.41 26.7154 16.2609 26.5411 16.095C25.6082 15.2024 24.6897 14.2938 23.759 13.3989C23.4927 13.1432 23.3238 12.8647 23.4455 12.4911C23.5688 12.1152 23.8815 11.9957 24.2407 11.9455C25.5191 11.7651 26.7968 11.5741 28.0767 11.4037C28.3233 11.371 28.4488 11.2637 28.5531 11.0483C29.1147 9.88861 29.6945 8.73728 30.2599 7.57834C30.4205 7.24808 30.6313 6.99849 31.027 7.00001C31.4234 7.00153 31.6304 7.25569 31.791 7.58366C32.3564 8.74185 32.937 9.89318 33.4978 11.0529C33.6036 11.2713 33.7337 11.3702 33.978 11.4029C35.2708 11.5749 36.5614 11.7636 37.8513 11.9539C38.3649 12.03 38.6343 12.3031 38.7058 12.765V12.7658ZM27.8005 19.3854C28.6969 18.9174 29.5385 18.5072 30.3489 18.0423C30.8207 17.7714 31.2233 17.7676 31.6951 18.0362C32.507 18.4981 33.3471 18.9106 34.2017 19.358C34.2017 19.2317 34.2139 19.1442 34.2002 19.062C34.0487 18.1648 33.9072 17.2646 33.7314 16.372C33.6546 15.9801 33.7489 15.6848 34.0312 15.4155C34.637 14.8387 35.229 14.2489 35.8339 13.6713C35.9572 13.5534 36.1109 13.4682 36.251 13.367C36.219 13.3274 36.1863 13.2878 36.1543 13.2475C35.4063 13.1379 34.6605 12.9743 33.9087 12.9325C33.0214 12.8822 32.3822 12.587 32.109 11.6814C32.0193 11.3831 31.8389 11.1115 31.6981 10.8284C31.4866 10.4038 31.2735 9.97993 31.0338 9.50128C30.941 9.66489 30.8771 9.76762 30.823 9.87644C30.4349 10.6579 30.0392 11.4356 29.6664 12.2248C29.4982 12.5809 29.241 12.7742 28.8552 12.8221C28.4275 12.8754 28.0014 12.9378 27.5752 13.0002C27.0098 13.0831 26.4445 13.1699 25.9673 13.2414C26.602 13.9187 27.2244 14.6203 27.8895 15.2785C28.2464 15.6316 28.4465 15.9801 28.2951 16.4877C28.2236 16.7281 28.2038 16.9846 28.1619 17.2334C28.0448 17.9274 27.9283 18.6214 27.8005 19.3846V19.3854Z" fill="#618260"/>
<path d="M22.1285 21.6789C22.1323 22.3387 21.5608 22.688 20.9825 22.395C20.1469 21.9719 19.3175 21.5374 18.4979 21.0846C18.2187 20.9302 18.001 20.9012 17.7043 21.0694C16.9235 21.513 16.1154 21.908 15.3232 22.3318C15.0013 22.5046 14.684 22.5868 14.3591 22.3623C14.0288 22.134 14.009 21.7999 14.0707 21.4446C14.2305 20.523 14.3804 19.6 14.5569 18.6815C14.6034 18.438 14.5463 18.2858 14.3713 18.1199C13.691 17.4762 13.0274 16.8134 12.3524 16.1635C12.0891 15.9101 11.9126 15.6354 12.0473 15.2564C12.1728 14.9026 12.4491 14.7732 12.8067 14.7268C13.7229 14.6066 14.6361 14.4567 15.5523 14.3387C15.8315 14.3029 15.9929 14.1934 16.1146 13.9308C16.5042 13.0945 16.9288 12.275 17.3314 11.4448C17.4859 11.1267 17.6967 10.8885 18.071 10.8809C18.4645 10.8733 18.6859 11.1168 18.8465 11.4486C19.2604 12.3016 19.6881 13.1478 20.1005 14.0008C20.1903 14.1865 20.2938 14.2832 20.5168 14.3121C21.484 14.4376 22.4458 14.5967 23.4122 14.7314C23.7562 14.7793 24.0119 14.9262 24.1306 15.2618C24.2523 15.6057 24.1176 15.8781 23.8741 16.1148C23.1847 16.786 22.5006 17.4632 21.8005 18.1237C21.6217 18.2919 21.5737 18.4494 21.6194 18.6884C21.7937 19.6068 21.9459 20.5299 22.1049 21.4514C22.1201 21.5382 22.1247 21.6272 22.13 21.6782L22.1285 21.6789ZM20.3623 20.3533C20.2451 19.6571 20.1599 19.0331 20.029 18.4182C19.9392 17.9967 20.0625 17.6915 20.3615 17.3993C20.812 16.9587 21.2328 16.4892 21.6788 16.0182C21.051 15.9253 20.4049 15.8211 19.7551 15.7366C19.3951 15.6894 19.1493 15.519 18.9933 15.1918C18.7544 14.6895 18.5018 14.1941 18.2522 13.6965C18.2065 13.6051 18.1487 13.5199 18.071 13.389C17.8039 13.9263 17.5315 14.3874 17.3405 14.879C17.1107 15.4703 16.7226 15.7807 16.0895 15.7891C16.0134 15.7899 15.9381 15.8013 15.8627 15.8127C15.3993 15.8842 14.9359 15.9573 14.5105 16.0235C14.9618 16.5021 15.3856 16.9709 15.8323 17.4183C16.1161 17.7029 16.2295 18.0035 16.1443 18.4091C16.0142 19.0293 15.9282 19.6586 15.8118 20.3526C16.2744 20.1114 16.6922 19.9455 17.0506 19.6951C17.7499 19.2073 18.4059 19.1936 19.1105 19.6845C19.4773 19.9394 19.9019 20.1114 20.3608 20.3526L20.3623 20.3533Z" fill="#618260"/>
<path d="M39.9229 21.6066C40.0819 20.6821 40.2455 19.6844 40.4304 18.6906C40.4746 18.4532 40.4312 18.2957 40.2516 18.126C39.5607 17.4738 38.8895 16.8019 38.2062 16.1429C37.952 15.8979 37.793 15.627 37.9193 15.2655C38.0425 14.9117 38.315 14.7785 38.6734 14.7306C39.6398 14.6005 40.6047 14.4566 41.5658 14.2961C41.6967 14.274 41.8565 14.1523 41.9181 14.0328C42.3595 13.1797 42.7833 12.3176 43.2026 11.4531C43.3639 11.1213 43.5831 10.8763 43.9758 10.8824C44.3501 10.8885 44.5632 11.1252 44.7177 11.4432C45.1263 12.2849 45.5487 13.1189 45.9543 13.962C46.0547 14.1705 46.1681 14.2877 46.4215 14.3197C47.3765 14.4399 48.3262 14.5982 49.2789 14.7306C49.6388 14.7808 49.9052 14.9376 50.0155 15.2914C50.1228 15.6361 49.9706 15.9032 49.7279 16.1384C49.0536 16.7897 48.3893 17.4503 47.7075 18.094C47.5135 18.2774 47.445 18.4441 47.499 18.7203C47.6809 19.6373 47.827 20.5618 47.9845 21.4833C48.0431 21.8273 48.0058 22.1469 47.6915 22.3638C47.3833 22.5768 47.0759 22.519 46.7624 22.3508C45.9147 21.8973 45.0647 21.4461 44.2048 21.0161C44.0754 20.9514 43.8586 20.9499 43.7292 21.0146C42.8358 21.4628 41.9592 21.9452 41.0674 22.3973C40.4731 22.6986 39.8978 22.3288 39.9229 21.6089V21.6066ZM41.6868 20.3541C42.3283 20.0193 42.9119 19.7225 43.4872 19.4105C43.8061 19.2377 44.1104 19.2309 44.4262 19.4029C44.6599 19.53 44.8965 19.6502 45.1324 19.7735C45.4825 19.9561 45.8325 20.1372 46.2366 20.3472C46.1232 19.6677 46.0501 19.065 45.9147 18.4768C45.8074 18.0111 45.9398 17.6808 46.2746 17.3605C46.7183 16.9366 47.1223 16.4717 47.55 16.0174C46.9679 15.9306 46.3697 15.8157 45.7663 15.7586C45.2785 15.7122 44.9855 15.4824 44.7907 15.0433C44.548 14.4962 44.2634 13.9681 43.9605 13.3593C43.6478 13.9909 43.3632 14.5365 43.1052 15.0951C42.9241 15.4877 42.6562 15.7023 42.2118 15.7495C41.5886 15.8149 40.97 15.9314 40.3589 16.0242C40.814 16.4975 41.2401 16.9625 41.6906 17.4023C41.9904 17.6945 42.1053 18.005 42.0163 18.4243C41.8862 19.0384 41.8017 19.6616 41.6853 20.3533L41.6868 20.3541Z" fill="#618260"/>
<path d="M27.8004 19.3854C27.929 18.6222 28.0455 17.9282 28.1619 17.2342C28.2037 16.9846 28.2235 16.7289 28.2951 16.4884C28.4465 15.9809 28.2464 15.6316 27.8895 15.2793C27.2236 14.621 26.6019 13.9194 25.9673 13.2422C26.4444 13.1706 27.0098 13.0839 27.5752 13.0009C28.0013 12.9385 28.4275 12.8769 28.8551 12.8229C29.2409 12.7749 29.4974 12.5817 29.6663 12.2255C30.0392 11.4372 30.4349 10.6587 30.823 9.8772C30.877 9.76914 30.9409 9.66641 31.0338 9.50204C31.2735 9.98069 31.4865 10.4045 31.6981 10.8292C31.8389 11.1122 32.0192 11.3839 32.109 11.6822C32.3822 12.587 33.0214 12.883 33.9087 12.9332C34.6605 12.9758 35.4062 13.1387 36.1543 13.2483C36.1862 13.2878 36.2189 13.3274 36.2509 13.3677C36.1109 13.4682 35.9572 13.5542 35.8339 13.6721C35.2289 14.2497 34.6369 14.8402 34.0312 15.4162C33.7489 15.6848 33.6545 15.9809 33.7314 16.3728C33.9071 17.2654 34.0479 18.1656 34.2001 19.0627C34.2138 19.1449 34.2016 19.2324 34.2016 19.3588C33.3471 18.9113 32.507 18.4989 31.695 18.037C31.2232 17.7684 30.8207 17.7722 30.3489 18.0431C29.5385 18.508 28.6968 18.9174 27.8004 19.3862V19.3854Z" fill="#FFF000"/>
<path d="M20.362 20.3533C19.9031 20.1121 19.4785 19.9401 19.1117 19.6852C18.4071 19.1944 17.7511 19.2081 17.0518 19.6958C16.6926 19.9462 16.2749 20.1121 15.813 20.3533C15.9294 19.6593 16.0146 19.03 16.1455 18.4098C16.2307 18.0042 16.1173 17.7037 15.8335 17.4191C15.3868 16.9716 14.963 16.5029 14.5117 16.0242C14.9371 15.958 15.4005 15.885 15.8639 15.8134C15.9393 15.802 16.0154 15.7906 16.0907 15.7898C16.7238 15.7815 17.1119 15.471 17.3417 14.8797C17.5335 14.3874 17.8052 13.9262 18.0723 13.3898C18.1499 13.5207 18.2077 13.6059 18.2534 13.6972C18.503 14.1941 18.7556 14.6903 18.9945 15.1925C19.1505 15.5197 19.3963 15.6909 19.7563 15.7373C20.4054 15.8218 21.0522 15.9261 21.68 16.0189C21.234 16.4899 20.8125 16.9594 20.3627 17.4C20.0637 17.6922 19.9404 17.9974 20.0302 18.419C20.1611 19.0331 20.2463 19.657 20.3635 20.3541L20.362 20.3533Z" fill="#FFF000"/>
<path d="M41.6867 20.3541C41.8031 19.6624 41.8876 19.0384 42.0177 18.4251C42.1068 18.005 41.9919 17.6953 41.692 17.4031C41.2408 16.9633 40.8146 16.4975 40.3604 16.025C40.9714 15.9322 41.5901 15.8165 42.2133 15.7503C42.6569 15.7031 42.9255 15.4885 43.1067 15.0959C43.3646 14.5373 43.6492 13.9909 43.962 13.3601C44.2648 13.9689 44.5494 14.497 44.7922 15.0441C44.9862 15.4824 45.2792 15.713 45.7677 15.7594C46.3712 15.8165 46.9693 15.9314 47.5514 16.0181C47.1238 16.4724 46.7197 16.9374 46.2761 17.3612C45.9412 17.6816 45.8088 18.0119 45.9161 18.4776C46.0516 19.0658 46.1246 19.6692 46.238 20.348C45.8339 20.138 45.4839 19.9561 45.1339 19.7742C44.898 19.6517 44.6605 19.5315 44.4277 19.4037C44.1119 19.2309 43.8067 19.2385 43.4887 19.4113C42.9134 19.7233 42.3297 20.0193 41.6882 20.3549L41.6867 20.3541Z" fill="#FFF000"/>
</g>
<defs>
<clipPath id="clip0_782_67">
<rect width="31.4732" height="20" fill="white" transform="translate(15.5 19.6307)"/>
</clipPath>
<clipPath id="clip1_782_67">
<rect width="38.0488" height="15.5" fill="white" transform="translate(12 7)"/>
</clipPath>
</defs>
</svg>
