<svg width="62" height="50" viewBox="0 0 62 50" fill="none" xmlns="http://www.w3.org/2000/svg">
<rect width="62" height="50" fill="white"/>
<g clip-path="url(#clip0_785_116)">
<path d="M52.1507 23.4128C51.1615 25.6099 50.1724 27.8061 49.1849 30.004C48.766 30.9366 48.195 31.7618 47.4694 32.4832C46.1347 33.8102 44.8077 35.1457 43.4722 36.4736C43.3641 36.5809 43.2188 36.651 43.0904 36.7388L43.2805 36.8064C43.3607 37.2761 43.5026 37.7449 43.5102 38.2162C43.5381 39.9014 43.5229 41.5874 43.5212 43.2734C43.5195 44.4594 42.9806 44.9975 41.7963 44.9975C39.3374 44.9975 36.8785 44.9975 34.4196 44.9975C33.275 44.9975 32.7302 44.4645 32.7285 43.3359C32.7259 41.5663 32.7259 39.7958 32.7285 38.0261C32.7293 37.0598 33.0351 36.6696 33.9541 36.3731C34.0546 36.341 34.1492 36.1382 34.1602 36.0065C34.2354 35.0993 34.1746 34.1659 34.3689 33.2874C34.8622 31.0565 36.049 29.3443 38.2832 28.4827C39.5891 27.9793 40.7785 27.2385 41.8082 26.2932C43.1352 25.076 44.556 24.8066 46.1998 25.6758C46.5731 24.8091 46.9431 23.9517 47.3131 23.0944C47.4575 22.7599 47.5944 22.4211 47.7473 22.0909C48.189 21.133 49.016 20.6321 50.0322 20.6971C50.9867 20.7579 51.7419 21.3695 52.0603 22.3367C52.0865 22.4161 52.1203 22.4929 52.1498 22.5706V23.4137L52.1507 23.4128ZM35.641 36.3384C35.7187 36.3503 35.7719 36.3655 35.826 36.3655C37.6522 36.3672 39.4785 36.3739 41.3047 36.357C41.472 36.3553 41.6713 36.2312 41.798 36.1053C43.3742 34.5434 44.9597 32.9892 46.4979 31.3902C46.9777 30.8918 47.4178 30.3115 47.7169 29.6915C48.7144 27.6203 49.6436 25.5153 50.5863 23.4179C50.6682 23.2363 50.7096 23.004 50.6758 22.8114C50.61 22.433 50.3549 22.1948 49.9604 22.1441C49.5406 22.0909 49.2272 22.2792 49.0363 22.7176C48.5328 23.8749 48.0277 25.0313 47.5437 26.1969C47.063 27.3559 46.3729 28.3645 45.4818 29.2438C44.5019 30.2101 43.5339 31.1891 42.5599 32.1622C42.4907 32.2315 42.4231 32.3041 42.3471 32.3666C42.0261 32.6319 41.6308 32.6285 41.3562 32.3607C41.08 32.0913 41.0648 31.6926 41.325 31.3716C41.4044 31.2736 41.4982 31.1874 41.5877 31.0979C42.5802 30.1045 43.5803 29.1171 44.5636 28.1144C44.9023 27.7689 45.2013 27.3846 45.5206 27.0163C44.7325 26.4107 43.8312 26.4495 43.087 27.1101C41.7076 28.3332 40.1686 29.2911 38.4606 29.9829C37.7798 30.2583 37.2392 30.7085 36.7982 31.2973C35.6739 32.7966 35.4906 34.5088 35.6418 36.3393L35.641 36.3384ZM42.0573 37.8369H34.1966V43.5353H42.0573V37.8369Z" fill="#AEBAA8"/>
<path d="M14.9349 25.6859C16.5457 24.8327 17.9521 25.0574 19.2623 26.2502C20.3283 27.2216 21.5489 27.9869 22.892 28.508C25.0983 29.3646 26.2505 31.0683 26.7514 33.2586C26.9491 34.1211 26.9068 35.041 26.9516 35.9355C26.9651 36.1965 26.9693 36.3578 27.3038 36.4178C27.9264 36.5285 28.3766 37.064 28.3834 37.7018C28.402 39.6818 28.4062 41.6626 28.3834 43.6426C28.3749 44.4121 27.7642 44.9873 26.9871 44.9907C24.3322 45.0025 21.6773 45.0042 19.0215 44.9907C18.176 44.9865 17.6117 44.3479 17.6067 43.4297C17.5974 41.8847 17.6041 40.3398 17.6041 38.7948C17.6041 38.5422 17.5746 38.2846 17.6109 38.0371C17.67 37.6325 17.7714 37.2338 17.855 36.8334C17.8981 36.8317 17.9403 36.83 17.9834 36.8283C17.8803 36.7185 17.779 36.6062 17.6726 36.4989C16.3421 35.1668 15.0143 33.8339 13.6796 32.506C12.965 31.7956 12.3906 30.9915 11.975 30.0716C11.0577 28.0392 10.1159 26.0179 9.21455 23.9787C8.49233 22.3451 9.68421 20.605 11.4327 20.7241C12.3889 20.7892 13.0487 21.312 13.4271 22.1854C13.8621 23.189 14.2861 24.1967 14.7161 25.2027C14.782 25.3565 14.8538 25.5077 14.934 25.6867L14.9349 25.6859ZM15.6073 27.0298C15.9299 27.3989 16.2366 27.7807 16.5761 28.1313C17.251 28.8265 17.9445 29.5039 18.6296 30.1898C19.0165 30.5776 19.4169 30.9534 19.7852 31.3581C20.1906 31.8041 19.987 32.4984 19.4169 32.5525C19.1803 32.5753 18.8619 32.4334 18.6828 32.261C17.572 31.1874 16.4866 30.0876 15.3986 28.9904C14.6282 28.2132 14.0505 27.306 13.6222 26.3017C13.1162 25.1149 12.6052 23.9306 12.0992 22.7438C11.9641 22.4262 11.7546 22.1407 11.4023 22.1643C11.1244 22.1829 10.8034 22.3079 10.5999 22.4938C10.3279 22.7421 10.3819 23.1003 10.5348 23.4339C11.4682 25.4739 12.3644 27.5324 13.3435 29.5504C13.6746 30.2321 14.1425 30.8791 14.6671 31.4282C16.18 33.0128 17.757 34.535 19.2994 36.0926C19.5056 36.3004 19.715 36.3773 20.0022 36.3756C21.6739 36.3638 23.3456 36.3697 25.0172 36.3697H25.4894C25.5883 34.8095 25.5401 33.3271 24.7537 31.9603C24.2959 31.1646 23.7502 30.4458 22.8827 30.0876C21.0488 29.3299 19.3848 28.3171 17.8964 27.0002C17.2494 26.4275 16.2974 26.4655 15.6073 27.0307V27.0298ZM26.9381 37.8445H19.0824V43.5294H26.9381V37.8445Z" fill="#AEBAA8"/>
<path d="M42.0576 37.8369V43.5353H34.1968V37.8369H42.0576ZM36.6701 41.3897C36.7824 41.3897 36.8948 41.3948 37.0063 41.3889C37.4615 41.3644 37.7361 41.1068 37.7454 40.6979C37.7547 40.2933 37.4835 39.9977 37.0451 39.9596C36.823 39.9402 36.5966 39.9444 36.3736 39.9563C35.9005 39.9808 35.6117 40.2612 35.6125 40.6793C35.6125 41.1042 35.8963 41.3686 36.3761 41.3897C36.4741 41.394 36.5721 41.3897 36.6701 41.3897Z" fill="#FFF000"/>
<path d="M26.9382 37.8445V43.5294H19.0825V37.8445H26.9382ZM24.4345 41.3906C24.5469 41.3906 24.6592 41.3957 24.7707 41.3898C25.226 41.3661 25.5023 41.1085 25.5132 40.7013C25.5242 40.2976 25.2522 39.9985 24.8155 39.9614C24.579 39.9411 24.3391 39.9428 24.1017 39.9597C23.6574 39.9909 23.3812 40.2748 23.3804 40.6777C23.3795 41.1026 23.6633 41.3695 24.1406 41.3914C24.2386 41.3957 24.3366 41.3914 24.4345 41.3914V41.3906Z" fill="#FFF000"/>
<path d="M36.6699 41.3906C36.5719 41.3906 36.4739 41.3948 36.3759 41.3906C35.8961 41.3695 35.6131 41.1042 35.6123 40.6802C35.6123 40.2621 35.9012 39.9816 36.3734 39.9571C36.5964 39.9453 36.8228 39.9419 37.0449 39.9605C37.4833 39.9977 37.7545 40.2933 37.7452 40.6988C37.7359 41.1076 37.4614 41.3652 37.0061 41.3897C36.8946 41.3957 36.7822 41.3906 36.6699 41.3914V41.3906Z" fill="#AEBAA8"/>
<path d="M39.192 14.138C39.192 15.5571 39.1852 16.9762 39.1937 18.3953C39.2047 20.2325 38.4579 21.6761 36.9713 22.7463C35.0453 24.1333 33.1211 25.5229 31.1952 26.9107C30.6487 27.3043 30.4814 27.3018 29.9197 26.8972C27.9819 25.5017 26.0425 24.1097 24.1081 22.7092C22.6798 21.6752 21.9381 20.2764 21.9347 18.5051C21.9297 15.4557 21.9398 12.4072 21.9263 9.35781C21.9246 8.86451 22.1231 8.58998 22.5691 8.39739C25.0804 7.31363 27.5858 6.21468 30.0878 5.10812C30.4248 4.95861 30.7188 4.96452 31.0524 5.1115C33.568 6.22059 36.0877 7.32208 38.6091 8.41681C39.0239 8.59674 39.2004 8.87802 39.1962 9.33163C39.1827 10.9332 39.1911 12.5356 39.1911 14.1371L39.192 14.138ZM23.3741 14.4235C23.3741 15.7725 23.3783 17.1206 23.3733 18.4696C23.3682 19.7595 23.8953 20.7773 24.9326 21.5291C26.7174 22.8232 28.5107 24.1055 30.2922 25.4038C30.5017 25.5567 30.6377 25.5474 30.8413 25.3995C32.6346 24.0936 34.4405 22.8046 36.2338 21.4979C37.2297 20.7723 37.7467 19.7806 37.7492 18.5439C37.756 15.6779 37.7492 12.8126 37.7568 9.94657C37.7568 9.69738 37.6724 9.57828 37.4468 9.48029C35.2464 8.52663 33.0527 7.55691 30.8489 6.61C30.6841 6.53904 30.4358 6.54664 30.2686 6.61844C28.0909 7.55437 25.9243 8.51564 23.7466 9.45157C23.4535 9.57743 23.3614 9.72864 23.3657 10.0412C23.3834 11.5017 23.3733 12.963 23.3733 14.4243L23.3741 14.4235Z" fill="#618260"/>
<path d="M24.4346 41.3906C24.3366 41.3906 24.2386 41.3948 24.1406 41.3906C23.6633 41.3695 23.3795 41.1017 23.3804 40.6768C23.3804 40.2739 23.6574 39.9901 24.1017 39.9588C24.3383 39.9419 24.579 39.9403 24.8155 39.9605C25.2531 39.9977 25.5242 40.2967 25.5132 40.7005C25.5023 41.1085 25.226 41.3653 24.7708 41.3889C24.6593 41.3948 24.5469 41.3898 24.4346 41.3898V41.3906Z" fill="#AEBAA8"/>
<path d="M28.9458 18.7805C29.5 17.9518 30.0304 17.1612 30.5584 16.368C31.7418 14.5941 32.9235 12.8186 34.1078 11.0455C34.2007 10.9062 34.2911 10.7558 34.4153 10.6485C34.6763 10.423 34.9787 10.396 35.2693 10.5911C35.5556 10.7837 35.6654 11.0624 35.5514 11.3961C35.5024 11.5389 35.4162 11.6723 35.3318 11.799C33.5123 14.5316 31.692 17.2634 29.8699 19.9943C29.4366 20.643 29.1097 20.6996 28.4888 20.2351C27.6239 19.588 26.7564 18.9427 25.8973 18.288C25.4927 17.9797 25.4167 17.5759 25.6726 17.2288C25.9269 16.885 26.3458 16.8394 26.7504 17.1367C27.4744 17.668 28.189 18.2111 28.9467 18.7788L28.9458 18.7805Z" fill="#618260"/>
</g>
<defs>
<clipPath id="clip0_785_116">
<rect width="43.1507" height="40" fill="white" transform="translate(9 5)"/>
</clipPath>
</defs>
</svg>
