<svg xmlns="http://www.w3.org/2000/svg" xmlns:xlink="http://www.w3.org/1999/xlink" width="54" height="54" viewBox="0 0 54 54">
  <defs>
    <linearGradient id="linear-gradient" x1="0.145" y1="0.112" x2="0.922" y2="0.876" gradientUnits="objectBoundingBox">
      <stop offset="0" stop-color="#fde159"/>
      <stop offset="1" stop-color="#fe0817"/>
    </linearGradient>
  </defs>
  <g id="Group_627" data-name="Group 627" transform="translate(-272 -1091)">
    <g id="Group_626" data-name="Group 626">
      <circle id="Ellipse_19" data-name="Ellipse 19" cx="27" cy="27" r="27" transform="translate(272 1091)" fill="url(#linear-gradient)"/>
    </g>
    <path id="noun-tech-4200830" d="M106.357,26.257a1.977,1.977,0,0,0-.507,3.888v2.673h0a.51.51,0,0,0,.343.482l2.485.87v2.6h-1.4a.51.51,0,0,0-.508.512v1.4h-2.6L103.3,36.2h0a.51.51,0,0,0-.482-.343h-2.676a1.984,1.984,0,1,0,0,1.02h2.314l.87,2.489a.51.51,0,0,0,.478.339h2.968v2.7H103.8a.51.51,0,0,0-.478.343l-.87,2.486h-2.315a1.979,1.979,0,1,0,0,1.02h2.675a.51.51,0,0,0,.482-.339l.87-2.489h2.6v1.4h0a.51.51,0,0,0,.508.508h1.4v2.606l-2.485.87a.51.51,0,0,0-.343.478v2.676a1.987,1.987,0,1,0,1.02,0V49.65l2.486-.87h0a.511.511,0,0,0,.343-.482V45.329h2.7V48.3h0a.511.511,0,0,0,.343.482l2.485.87v2.312a1.979,1.979,0,1,0,1.021,0V49.284a.51.51,0,0,0-.343-.478l-2.486-.87V45.329h1.4a.51.51,0,0,0,.508-.508v-1.4h2.6l.87,2.489a.51.51,0,0,0,.482.339h2.675a1.986,1.986,0,1,0,0-1.02h-2.315l-.87-2.486h0a.51.51,0,0,0-.482-.343h-2.965V39.7h2.965a.51.51,0,0,0,.482-.339l.87-2.489h2.315a1.978,1.978,0,1,0,0-1.02H119.28a.51.51,0,0,0-.482.343l-.87,2.485h-2.6v-1.4a.51.51,0,0,0-.508-.512h-1.4v-2.6l2.486-.87a.51.51,0,0,0,.343-.482V30.144a1.985,1.985,0,1,0-1.021,0v2.314l-2.485.87h0a.51.51,0,0,0-.343.481v2.965h-2.7V33.808a.51.51,0,0,0-.343-.481l-2.486-.87V30.143a1.976,1.976,0,0,0-.513-3.886Zm1.432,11.536H114.3v6.516h-6.516Z" transform="translate(187.748 1076.743)" fill="#fff"/>
  </g>
</svg>
