<svg width="11" height="11" viewBox="0 0 11 11" fill="none" xmlns="http://www.w3.org/2000/svg">
    <path d="M10.626 1.124a.763.763 0 0 0-.248-.166l-.038.093.038-.093a.764.764 0 0 0-.832.166L1.124 9.546a.764.764 0 0 0 0 1.08l.07-.07-.07.07a.76.76 0 0 0 .54.224l8.891-9.655m.071-.071-.07.07m.07-.07-.07.07m.07-.07a.763.763 0 0 1 0 1.08l-.07-.07a.664.664 0 0 0 0-.94m-8.352 9.432 8.422-8.422-8.422 8.422z" fill="#C9C9C9" stroke="#C9C9C9" stroke-width=".2"/>
    <path d="M10.085 10.85a.76.76 0 0 1-.54-.224L1.124 2.204a.764.764 0 0 1 0-1.08l.07.07-.07-.07a.764.764 0 0 1 1.08 0l8.421 8.422a.764.764 0 0 1-.54 1.304zm0 0z" fill="#C9C9C9" stroke="#C9C9C9" stroke-width=".2"/>
</svg>
