<svg xmlns="http://www.w3.org/2000/svg" xmlns:xlink="http://www.w3.org/1999/xlink" width="54" height="54" viewBox="0 0 54 54">
  <defs>
    <linearGradient id="linear-gradient" x1="0.145" y1="0.112" x2="0.922" y2="0.876" gradientUnits="objectBoundingBox">
      <stop offset="0" stop-color="#fde159"/>
      <stop offset="1" stop-color="#fe0817"/>
    </linearGradient>
  </defs>
  <g id="Group_667" data-name="Group 667" transform="translate(-276 -1171)">
    <circle id="Ellipse_8698" data-name="Ellipse 8698" cx="27" cy="27" r="27" transform="translate(276 1171)" fill="url(#linear-gradient)"/>
    <g id="Group_101" data-name="Group 101" transform="translate(4.629 -10.506)">
      <path id="Path_296" data-name="Path 296" d="M230.362,232.3a4.342,4.342,0,0,1,2.406-4c-.042,0-.082-.006-.124-.006h-6.46c-2.939,0-4.493,1.981-4.493,4v9.477h2.745v-9.283h1.323l0,9.283h4.6V232.3Z" transform="translate(68.804 976.74)" fill="#fff"/>
      <path id="Path_297" data-name="Path 297" d="M79.447,232.3a4.34,4.34,0,0,1,2.405-4c-.042,0-.082-.006-.124-.006H75.467c-2.939,0-4.493,1.981-4.493,4v9.477H73.72v-9.283h1.322l0,9.283h4.4Z" transform="translate(210.131 976.74)" fill="#fff"/>
      <path id="Path_298" data-name="Path 298" d="M281.11,95.156l3.839-3.839,3.838,3.838-3.839,3.839Z" transform="translate(13.088 1105.183)" fill="#fff"/>
      <path id="Path_299" data-name="Path 299" d="M431.18,111.55,435.487,118l4.308-6.448Z" transform="translate(-127.632 1086.211)" fill="#fff"/>
      <path id="Path_300" data-name="Path 300" d="M386.927,228.29h-6.855c-2.94,0-4.493,1.981-4.493,4v9.477h2.745v-9.283h1.323l0,9.283h7.738v-9.283h1.289v9.283h2.744v-9.477c0-2.021-1.554-4-4.493-4Z" transform="translate(-75.495 976.744)" fill="#fff"/>
      <path id="Path_301" data-name="Path 301" d="M146.795,104.562a3.218,3.218,0,1,1-3.218-3.218,3.219,3.219,0,0,1,3.218,3.218" transform="translate(145.071 1095.78)" fill="#fff"/>
    </g>
  </g>
</svg>
