<svg width="65" height="52" viewBox="0 0 65 52" fill="none" xmlns="http://www.w3.org/2000/svg">
<path fill-rule="evenodd" clip-rule="evenodd" d="M44.5 11.9774C44.4878 5.36036 39.1199 0 32.5 0C25.8726 0 20.5 5.37258 20.5 12C20.5 12.031 20.5001 12.062 20.5004 12.0929L11.0477 7.73012C9.93878 7.21833 8.62244 7.58261 7.93445 8.59167L0.434445 19.5917C0.0249318 20.1923 -0.102872 20.9414 0.0843381 21.6438C0.271544 22.3463 0.755219 22.9324 1.40933 23.2495L16.5 30.5662V49C16.5 50.3807 17.6193 51.5 19 51.5H32.25C32.2919 51.5 32.3336 51.499 32.375 51.4969C32.4164 51.499 32.4581 51.5 32.5 51.5H45.75C47.1307 51.5 48.25 50.3807 48.25 49V30.5662L63.3407 23.2495C63.9948 22.9324 64.4785 22.3463 64.6657 21.6438C64.8529 20.9414 64.7251 20.1923 64.3156 19.5917L56.8156 8.59167C56.1276 7.58261 54.8112 7.21833 53.7024 7.73012L44.5 11.9774ZM39.5 12C39.5 15.866 36.366 19 32.5 19C28.634 19 25.5 15.866 25.5 12C25.5 8.13401 28.634 5 32.5 5C36.366 5 39.5 8.13401 39.5 12ZM42.71 18.3084C40.5949 21.7244 36.8132 24 32.5 24C28.2325 24 24.4853 21.7724 22.3578 18.4165C22.2209 18.38 22.0853 18.3313 21.9524 18.2699L10.8736 13.1566L6.19775 20.0145L20.0907 26.7505C20.9527 27.1684 21.5 28.0421 21.5 29V46.5H32.25C32.2919 46.5 32.3336 46.501 32.375 46.5031C32.4164 46.501 32.4581 46.5 32.5 46.5H43.25V29C43.25 28.0421 43.7974 27.1684 44.6593 26.7505L58.5523 20.0145L53.8764 13.1566L42.7977 18.2699C42.7686 18.2833 42.7393 18.2962 42.71 18.3084Z" fill="#00582E"/>
</svg>
