<svg xmlns="http://www.w3.org/2000/svg" width="62" height="62" viewBox="0 0 62 62">
  <g id="Group_104" data-name="Group 104" transform="translate(-271 -1181)">
    <circle id="Ellipse_19" data-name="Ellipse 19" cx="31" cy="31" r="31" transform="translate(271 1181)" fill="#606060"/>
    <g id="Group_101" data-name="Group 101" transform="translate(1.263 1.998)">
      <path id="Path_296" data-name="Path 296" d="M231.541,232.841a4.932,4.932,0,0,1,2.732-4.54c-.048,0-.093-.006-.141-.006h-7.337c-3.338,0-5.1,2.25-5.1,4.547v10.764h3.118V233.061h1.5l0,10.544h5.224V232.841Z" transform="translate(70.08 977.899)" fill="#fff"/>
      <path id="Path_297" data-name="Path 297" d="M80.6,232.841a4.929,4.929,0,0,1,2.732-4.54c-.048,0-.093-.006-.141-.006H76.078c-3.338,0-5.1,2.25-5.1,4.547v10.764h3.119V233.061h1.5l0,10.544h5Z" transform="translate(210.131 977.899)" fill="#fff"/>
      <path id="Path_298" data-name="Path 298" d="M281.11,95.677l4.36-4.36,4.36,4.36-4.36,4.36Z" transform="translate(14.867 1105.183)" fill="#fff"/>
      <path id="Path_299" data-name="Path 299" d="M431.18,111.55l4.893,7.324,4.893-7.324Z" transform="translate(-124.583 1086.382)" fill="#fff"/>
      <path id="Path_300" data-name="Path 300" d="M388.469,228.29h-7.786c-3.339,0-5.1,2.25-5.1,4.547V243.6H378.7V233.057h1.5l0,10.544h8.79l0-10.544h1.464V243.6h3.117V232.837c0-2.3-1.765-4.547-5.1-4.547Z" transform="translate(-72.917 977.903)" fill="#fff"/>
      <path id="Path_301" data-name="Path 301" d="M147.669,105a3.656,3.656,0,1,1-3.656-3.656A3.656,3.656,0,0,1,147.669,105" transform="translate(145.658 1095.865)" fill="#fff"/>
    </g>
  </g>
</svg>
