<svg width="47" height="47" viewBox="0 0 47 47" fill="none" xmlns="http://www.w3.org/2000/svg">
<g clip-path="url(#clip0_1585_2041)">
<path d="M3.01179 26.9571C3.05799 26.1139 2.90782 25.0627 3.08109 24.0347C3.31212 22.6254 4.08604 21.5858 5.33357 20.9043C5.52994 20.8004 5.59924 20.6849 5.61079 20.4538C5.85337 16.2146 7.36657 12.4835 10.1619 9.28386C12.6686 6.43073 15.7758 4.46703 19.4722 3.58914C25.5596 2.14525 31.0926 3.38122 35.9095 7.40103C39.2478 10.1964 41.2923 13.7888 42.1124 18.0743C42.2626 18.8482 42.3666 19.6452 42.3781 20.4307C42.3781 20.6618 42.4474 20.7888 42.6669 20.9159C44.1801 21.7591 44.9656 23.0528 44.9771 24.7971C44.9887 26.3911 45.0002 27.9736 44.9771 29.5677C44.954 31.2657 44.1917 32.5479 42.7131 33.3911C42.4705 33.5297 42.4128 33.6799 42.4012 33.9456C42.3897 34.9852 42.4821 36.0363 42.2973 37.0759C41.8699 39.5363 39.6636 41.6386 37.2148 41.939C36.025 42.0891 34.8237 41.9852 33.6223 42.0083C33.3798 42.0083 33.2758 42.0891 33.1603 42.3086C32.6058 43.406 31.7164 44.0182 30.4689 44.0297C29.3715 44.0528 28.2626 44.0528 27.1652 44.0297C25.5943 43.9951 24.3583 42.7245 24.2544 41.0957C24.1619 39.6172 25.3286 38.1849 26.8534 38.0116C28.1818 37.8614 29.5217 37.873 30.8616 38.0116C31.9474 38.1155 32.6983 38.7393 33.1719 39.7096C33.2758 39.9291 33.3913 40.0099 33.6339 39.9984C34.6966 39.9637 35.7478 40.0446 36.8105 39.9406C38.7395 39.7443 40.3451 38.0231 40.3798 36.0941C40.3913 35.4588 40.3798 34.8119 40.3798 34.165C40.3798 33.9918 40.3567 33.9225 40.1487 33.8763C38.6471 33.5297 37.827 32.5017 37.8154 30.9538C37.8154 28.4357 37.8154 25.906 37.8154 23.3878C37.8154 21.8631 38.5778 20.8812 40.0679 20.4885C40.2874 20.4307 40.322 20.3499 40.3105 20.1304C39.756 12.703 34.0728 6.48848 26.7379 5.28716C18.5596 3.93568 10.7742 8.72941 8.32532 16.6188C7.96723 17.774 7.73621 18.9637 7.65535 20.1766C7.6438 20.3961 7.72466 20.4192 7.88637 20.4654C9.43423 20.9043 10.1619 21.8631 10.1619 23.4802C10.1619 25.8598 10.0926 28.2509 10.1851 30.6304C10.289 33.2294 8.09429 34.6617 5.6339 33.5644C3.95898 32.802 3.09264 31.4621 3.02334 29.6254C2.98868 28.8053 3.02334 27.9852 3.02334 26.9571H3.01179ZM8.11739 27.1535C8.11739 25.8598 8.11739 24.566 8.11739 23.2608C8.11739 22.7063 7.80551 22.4175 7.25106 22.4175C6.06129 22.4175 5.04479 23.4456 5.03324 24.7278C5.01013 26.3449 5.01013 27.9621 5.03324 29.5792C5.05634 30.8152 6.00353 31.8202 7.13555 31.8779C7.81707 31.9126 8.11739 31.6353 8.11739 30.9538C8.11739 29.6832 8.11739 28.4126 8.11739 27.1535ZM39.8831 27.1419C39.8831 28.4472 39.8831 29.7641 39.8831 31.0693C39.8831 31.6007 40.195 31.8895 40.7148 31.8895C41.9161 31.8895 42.9326 30.8961 42.9557 29.6023C42.9903 27.9736 42.9903 26.3449 42.9557 24.7047C42.9326 23.5495 42.1933 22.7063 41.0844 22.4522C40.3105 22.2789 39.8369 22.6717 39.86 23.4109C39.9062 24.6469 39.8715 25.8944 39.8715 27.1304L39.8831 27.1419ZM28.8633 41.9967C29.36 41.9967 29.8682 41.9967 30.3649 41.9967C31.0118 41.9967 31.4507 41.5693 31.4507 40.9802C31.4507 40.368 31.0349 39.9753 30.3765 39.9753C29.3831 39.9753 28.4012 39.9753 27.4078 39.9753C26.7379 39.9753 26.322 40.368 26.322 40.9802C26.322 41.5809 26.761 41.9967 27.3963 41.9967C27.8814 41.9967 28.3666 41.9967 28.8633 41.9967Z" fill="#AEBAA9"/>
<path d="M24.0233 12.7491C26.1141 12.7491 28.2048 12.7491 30.2956 12.7491C32.9061 12.7491 34.7659 14.5973 34.7659 17.2079C34.7659 19.9686 34.7659 22.7293 34.7659 25.4901C34.7659 28.1122 32.9061 29.9488 30.2956 29.9604C28.6322 29.9604 26.9804 29.9604 25.317 29.9604C24.9821 29.9604 24.751 30.0643 24.52 30.2953C23.3995 31.4389 22.2675 32.5709 21.1124 33.6798C20.0728 34.6848 18.4441 34.4076 17.7972 33.1485C17.6355 32.8366 17.5547 32.5016 17.5547 32.1435C17.5547 31.5198 17.5547 30.8845 17.5547 30.2607C17.5547 30.0297 17.5085 29.9604 17.2659 29.9488C15.2791 29.7987 13.789 28.528 13.3269 26.6105C13.2345 26.2409 13.2114 25.8713 13.2114 25.4901C13.2114 22.7293 13.2114 19.9686 13.2114 17.2079C13.2114 14.5973 15.0712 12.7491 17.6933 12.7491C19.7956 12.7491 21.8979 12.7491 24.0118 12.7491H24.0233ZM19.5992 32.2244C19.8187 32.1551 19.8995 32.028 20.0035 31.9125C21.1702 30.7574 22.3484 29.6023 23.492 28.4241C23.8616 28.0429 24.2659 27.8927 24.7857 27.8927C26.1603 27.9158 27.5464 27.9043 28.921 27.8927C29.5448 27.8927 30.1801 27.9389 30.8038 27.8581C31.855 27.7194 32.6867 26.8647 32.6982 25.802C32.7213 22.8218 32.7213 19.8416 32.6982 16.8498C32.6982 15.7062 31.751 14.8168 30.6075 14.7706C30.5382 14.7706 30.4689 14.7706 30.3995 14.7706C26.1372 14.7706 21.8748 14.7937 17.6124 14.7706C16.1454 14.7706 15.2791 15.9373 15.2791 16.8845C15.2791 19.8531 15.2791 22.8218 15.2791 25.7904C15.2791 26.8762 16.1223 27.7425 17.1966 27.8581C17.5662 27.9043 17.9474 27.8927 18.317 27.8927C19.2411 27.8927 19.5761 28.2277 19.5761 29.1518C19.5761 30.1567 19.5761 31.1501 19.5761 32.2013L19.5992 32.2244Z" fill="#AEBAA9"/>
<path d="M8.11711 27.1535C8.11711 28.4241 8.11711 29.6947 8.11711 30.9538C8.11711 31.6353 7.81678 31.9125 7.13526 31.8779C6.00325 31.8201 5.05605 30.8152 5.03295 29.5792C5.00985 27.962 5.00985 26.3449 5.03295 24.7277C5.05605 23.4455 6.061 22.4175 7.25077 22.4175C7.79368 22.4175 8.10556 22.7063 8.11711 23.2607C8.11711 24.5544 8.11711 25.8482 8.11711 27.1535Z" fill="#FDEE0E"/>
<path d="M39.883 27.1419C39.883 25.9059 39.9176 24.6584 39.8714 23.4224C39.8483 22.6832 40.3104 22.2904 41.0959 22.4637C42.2048 22.7063 42.944 23.5611 42.9671 24.7162C43.0018 26.3449 43.0018 27.9736 42.9671 29.6139C42.944 30.9076 41.9275 31.901 40.7262 31.901C40.1949 31.901 39.8945 31.6122 39.8945 31.0809C39.8945 29.7756 39.8945 28.4587 39.8945 27.1535L39.883 27.1419Z" fill="#FDEE0E"/>
<path d="M28.863 41.9967C28.3779 41.9967 27.8927 41.9967 27.396 41.9967C26.7492 41.9967 26.3218 41.5693 26.3218 40.9802C26.3218 40.368 26.7376 39.9868 27.4076 39.9752C28.401 39.9752 29.3828 39.9752 30.3762 39.9752C31.0346 39.9752 31.4505 40.3795 31.4505 40.9802C31.4505 41.5693 31.0115 41.9851 30.3647 41.9967C29.868 41.9967 29.3597 41.9967 28.863 41.9967Z" fill="#FDEE0E"/>
<path d="M23.9883 20.0149C24.7853 20.0149 25.49 20.6733 25.5015 21.4819C25.5246 22.302 24.82 23.0066 23.9999 23.0066C23.2028 23.0066 22.5098 22.3136 22.5098 21.5165C22.5098 20.7195 23.1797 20.0264 23.9883 20.0149Z" fill="#638162"/>
<path d="M17.647 21.5165C17.647 20.6964 18.2938 20.0264 19.1024 20.0033C19.9225 19.9918 20.6272 20.6848 20.6272 21.505C20.6272 22.3135 19.9341 22.9951 19.1371 22.9951C18.3285 22.9951 17.6585 22.3251 17.6585 21.5165H17.647Z" fill="#638162"/>
<path d="M30.3529 21.5396C30.3529 22.3482 29.6598 23.0182 28.8512 23.0066C28.0427 23.0066 27.3612 22.302 27.3727 21.505C27.3727 20.6964 28.0658 20.0149 28.8628 20.0149C29.6945 20.0149 30.3529 20.6964 30.3529 21.5396Z" fill="#638162"/>
</g>
<defs>
<clipPath id="clip0_1585_2041">
<rect width="42" height="41.0182" fill="white" transform="translate(3 3)"/>
</clipPath>
</defs>
</svg>
