<svg xmlns="http://www.w3.org/2000/svg" width="54" height="54" viewBox="0 0 54 54">
  <g id="Group_312" data-name="Group 312" transform="translate(-270 -977)">
    <g id="Group_217" data-name="Group 217" transform="translate(-1 -3578)">
      <g id="Group_142" data-name="Group 142" transform="translate(0 1213)">
        <ellipse id="Ellipse_27" data-name="Ellipse 27" cx="27" cy="27" rx="27" ry="27" transform="translate(271 3342)" fill="#606060"/>
      </g>
    </g>
    <g id="Group_263" data-name="Group 263" transform="translate(2.336 -94.561)">
      <path id="Path_464" data-name="Path 464" d="M317.26,289.145a1.854,1.854,0,0,1-.864-.221l-1.4-.775c-.037-.022-.066-.037-.1-.059v1.484l.133.081a5.867,5.867,0,0,1,2.229,2.436,5.777,5.777,0,0,1,2.229-2.436l.133-.081V288.09c-.037.022-.066.037-.1.059l-1.4.775a1.675,1.675,0,0,1-.849.221Z" transform="translate(-24.18 807.989)" fill="#fff"/>
      <path id="Path_465" data-name="Path 465" d="M156.058,391.08l-1.454-1.816a5.259,5.259,0,0,0-1.794,3.181l-.886,5.293a.588.588,0,0,0,.487.679.424.424,0,0,0,.1.007h2.982a7.1,7.1,0,0,1,.376-6.267l.236-.421a.58.58,0,0,0-.044-.657Z" transform="translate(127.796 713.643)" fill="#fff"/>
      <path id="Path_466" data-name="Path 466" d="M289.448,113.557v-3.366a.6.6,0,0,0-.17-.421l-2.266-2.259a7.1,7.1,0,0,1-3.9,2.119l-2.628.48a.594.594,0,0,0-.487.583v2.871a5.908,5.908,0,0,0,3.034,5.16l1.4.775a.573.573,0,0,0,.576,0l1.4-.775a5.928,5.928,0,0,0,3.034-5.167Zm-3.543-2.082h1.772v1.181H285.9Zm-4.134,1.181v-1.181h1.772v1.181Zm2.953,4.134a1.777,1.777,0,0,1-1.772-1.772h1.181a.591.591,0,0,0,1.181,0H286.5A1.777,1.777,0,0,1,284.724,116.79Z" transform="translate(8.357 976.381)" fill="#fff"/>
      <path id="Path_467" data-name="Path 467" d="M214.144,48.787a7.111,7.111,0,0,1-.6-2.842V43.074A1.772,1.772,0,0,1,215,41.332l2.628-.48a5.91,5.91,0,0,0,4.008-2.768l.258-.428,1.011.605-.258.428c-.059.1-.118.185-.177.273l2.362,2.362a1.77,1.77,0,0,1,.517,1.255v3.366a7.085,7.085,0,0,1-.6,2.842,6.207,6.207,0,0,0,1.188-11.139l-2.429-1.5a7.746,7.746,0,0,0-8.127,0l-2.428,1.491a6.213,6.213,0,0,0,1.188,11.146Z" transform="translate(73.629 1044)" fill="#fff"/>
      <path id="Path_468" data-name="Path 468" d="M231.722,326.413H230.9l-2.724-5.44-.967.709,2.362,4.732h-7.529l2.4-4.8-.967-.709-1.5,3a5.759,5.759,0,0,1-3.477-2.576,4.648,4.648,0,0,0-2.141,3.9H215.18a4.648,4.648,0,0,0-2.141-3.9,5.747,5.747,0,0,1-3.713,2.635l-1.912.406a5.774,5.774,0,0,0-1.351.48l1.388,1.735a1.764,1.764,0,0,1,.155,1.986l-.236.421a5.9,5.9,0,0,0-.155,5.573l.052.111h13.139a1.4,1.4,0,0,1-.074-.3l-.945-5.684a1.763,1.763,0,0,1-1.181-2.207,1.781,1.781,0,0,1,1.7-1.262h1.41l-.591,1.181h-.812a.591.591,0,1,0,0,1.181h11.811a.592.592,0,0,0,.591-.591.586.586,0,0,0-.591-.583Z" transform="translate(77.302 777.388)" fill="#fff"/>
      <path id="Path_469" data-name="Path 469" d="M422.433,442.909a.588.588,0,0,0,.583.495h7.448a.587.587,0,0,0,.583-.495l.9-5.411H421.525Zm6.666-4.23h1.181v3.543H429.1Zm-2.953,0h1.181v3.543h-1.181Zm-2.953,0h1.181v3.543h-1.181Z" transform="translate(-123.618 668.665)" fill="#fff"/>
    </g>
  </g>
</svg>
