<svg width="76" height="72" viewBox="0 0 76 72" fill="none" xmlns="http://www.w3.org/2000/svg">
<path fill-rule="evenodd" clip-rule="evenodd" d="M60.5 25C66.0229 25 70.5 20.5228 70.5 15C70.5 9.47715 66.0229 5 60.5 5C54.9772 5 50.5 9.47715 50.5 15C50.5 20.5228 54.9772 25 60.5 25ZM62.6323 29.8496C69.9066 28.8144 75.5 22.5604 75.5 15C75.5 6.71573 68.7843 0 60.5 0C54.5444 0 49.3995 3.47079 46.9777 8.5H26V22.5H26.5613L25 32.1141V50.5H0V71.5H26V66.4519L35.8078 64H58.75C62.4779 64 65.5 60.9779 65.5 57.25C65.5 55.1328 64.5252 53.2432 63 52.0057V32.1141L62.6323 29.8496ZM57.5439 29.7088C53.2558 28.8517 49.6276 26.1664 47.5067 22.5H31.6268L30 32.5175V48.1466L31.7924 43.0255C32.9894 39.6055 36.682 37.7501 40.1404 38.8309C43.7305 39.9528 45.701 43.8026 44.5116 47.3709L43.4686 50.5L58 50.5V32.5175L57.5439 29.7088ZM45.5741 13.5H31V17.5H45.7074C45.571 16.687 45.5 15.8518 45.5 15C45.5 14.4938 45.5251 13.9934 45.5741 13.5ZM69.2678 12.7678L59.5 22.5355L52.7322 15.7678L56.2678 12.2322L59.5 15.4645L65.7322 9.23223L69.2678 12.7678ZM36.5117 44.6772C36.8181 43.8016 37.7635 43.3266 38.649 43.6033C39.5682 43.8905 40.0727 44.8762 39.7682 45.7898L37.6283 52.2094C37.3742 52.9718 37.502 53.8098 37.9719 54.4618C38.4418 55.1137 39.1964 55.5 40 55.5H58.75C59.7165 55.5 60.5 56.2835 60.5 57.25C60.5 58.2165 59.7165 59 58.75 59H35.5C35.2956 59 35.092 59.0251 34.8937 59.0746L26 61.2981V55.5865L33.0645 52.262C33.6714 51.9764 34.1381 51.459 34.3596 50.8259L36.5117 44.6772ZM21 55.5H5V66.5H21V64.5V55.5Z" fill="#00582E"/>
</svg>
