<svg xmlns="http://www.w3.org/2000/svg" xmlns:xlink="http://www.w3.org/1999/xlink" width="54" height="54" viewBox="0 0 54 54">
  <defs>
    <linearGradient id="linear-gradient" x1="0.145" y1="0.112" x2="0.922" y2="0.876" gradientUnits="objectBoundingBox">
      <stop offset="0" stop-color="#fde159"/>
      <stop offset="1" stop-color="#fe0817"/>
    </linearGradient>
  </defs>
  <g id="Group_666" data-name="Group 666" transform="translate(-750 -1816)">
    <circle id="Ellipse_8698" data-name="Ellipse 8698" cx="27" cy="27" r="27" transform="translate(750 1816)" fill="url(#linear-gradient)"/>
    <path id="Path_594" data-name="Path 594" d="M126.218,56.634v-3.1a1.035,1.035,0,0,0-1.033-1.034H97.28a1.034,1.034,0,0,0-1.034,1.034v3.1ZM102.964,54.05a.517.517,0,1,1-.517.517A.516.516,0,0,1,102.964,54.05Zm-2.067,0a.517.517,0,1,1-.517.517A.516.516,0,0,1,100.9,54.05Zm-2.067,0a.517.517,0,1,1-.517.517A.516.516,0,0,1,98.83,54.05Zm17.58,11.768,2.614,3.735h-5.1ZM99.864,60.252v9.3h9.3v-9.3Zm6.974,5.1-3.617,2.067a.486.486,0,0,1-.516,0,.517.517,0,0,1-.257-.447V62.835a.517.517,0,0,1,.773-.449l3.617,2.067a.517.517,0,0,1,0,.9Zm-3.357-1.625L105.54,64.9l-2.059,1.177Zm18.5,5.827h-1.694l-1.751-2.5.941-1.254Zm-6.01-4.938a.517.517,0,0,1,.424-.23.534.534,0,0,1,.429.221l1.088,1.554,1.176-1.568h0a.5.5,0,0,1,.427-.206.516.516,0,0,1,.416.23l2.671,4.006V60.252h-9.3v8.37Zm4.822-3.331a1.293,1.293,0,1,1-.913.379,1.292,1.292,0,0,1,.913-.379ZM96.246,57.668v20.67a1.034,1.034,0,0,0,1.034,1.034h27.9a1.035,1.035,0,0,0,1.033-1.033V57.668Zm13.436,17.57H99.347a.517.517,0,1,1,0-1.034h10.335a.517.517,0,1,1,0,1.034ZM98.83,72.654a.517.517,0,0,1,.517-.517h5.168a.517.517,0,1,1,0,1.034H99.347A.517.517,0,0,1,98.83,72.654Zm11.369-3.1a1.034,1.034,0,0,1-1.034,1.034h-9.3a1.034,1.034,0,0,1-1.034-1.034v-9.3a1.034,1.034,0,0,1,1.034-1.034h9.3a1.034,1.034,0,0,1,1.034,1.034Zm12.919,5.684H112.782a.517.517,0,1,1,0-1.034h10.335a.517.517,0,1,1,0,1.034Zm-10.852-2.584a.517.517,0,0,1,.517-.517h7.235a.517.517,0,1,1,0,1.034h-7.235a.517.517,0,0,1-.517-.517Zm11.369-3.1a1.035,1.035,0,0,1-1.033,1.034h-9.3a1.035,1.035,0,0,1-1.034-1.034v-9.3a1.035,1.035,0,0,1,1.034-1.034h9.3a1.035,1.035,0,0,1,1.033,1.034Zm-3.1-6.976a.258.258,0,1,1,.258.258.259.259,0,0,1-.258-.258Z" transform="translate(665.875 1777.5)" fill="#fff"/>
  </g>
</svg>
