<svg width="47" height="47" viewBox="0 0 47 47" fill="none" xmlns="http://www.w3.org/2000/svg">
<g clip-path="url(#clip0_1579_1888)">
<path d="M44.7267 7.16566C44.7267 6.60957 44.7267 6.03326 44.4537 5.51761C43.6853 4.06167 42.5327 3.25281 40.8239 3.25281C29.6819 3.26292 18.5399 3.25281 7.40795 3.25281C7.05408 3.25281 6.71031 3.26292 6.36655 3.31347C4.92071 3.51569 4.04108 4.42565 3.45466 5.64905C3.303 5.9726 3.36366 6.3568 3.25244 6.69046V34.4444C3.39399 34.9399 3.36366 35.4757 3.67709 35.9307C4.4354 37.0429 5.43636 37.7608 6.7912 37.9832C7.34729 38.0742 7.89327 38.0337 8.44936 38.0439C9.20767 38.054 9.28855 38.1349 9.29866 38.8729C9.29866 40.0053 9.29866 41.1377 9.29866 42.2701C9.29866 42.9678 9.58176 43.534 10.0367 44.0597C10.421 44.4945 10.9164 44.6158 11.4421 44.7271H12.5745C13.1812 44.6563 13.7069 44.4237 14.1923 44.0294C16.4065 42.1994 18.6511 40.4098 20.8653 38.5797C21.3203 38.2056 21.7955 38.0439 22.382 38.0439C27.2756 38.054 32.1692 38.0439 37.0729 38.0439C38.2457 38.0439 39.4185 38.0439 40.5914 38.0439C42.472 38.0337 44.7772 36.507 44.7671 33.9793C44.7267 25.0414 44.757 16.0934 44.7469 7.15555L44.7267 7.16566ZM40.3285 36.4464C34.1003 36.416 27.862 36.4464 21.6338 36.4261C21.1788 36.4261 20.8148 36.5475 20.4609 36.8407C17.9737 38.883 15.4662 40.9052 12.9689 42.9476C12.5341 43.3014 12.0892 43.4632 11.5534 43.2104C11.0276 42.9577 10.8557 42.5128 10.8658 41.9466C10.8759 40.4098 10.8658 38.8729 10.8658 37.3361C10.8658 36.6789 10.6333 36.4362 9.96597 36.4261C9.16722 36.4261 8.37859 36.4261 7.57984 36.4261C5.79024 36.416 4.64772 35.2735 4.64772 33.4839C4.64772 24.8696 4.64772 16.2451 4.64772 7.63076C4.64772 5.84116 5.82057 4.67842 7.62028 4.67842C13.0801 4.67842 18.55 4.67842 24.0098 4.67842C29.4696 4.67842 34.9092 4.67842 40.3588 4.67842C41.7845 4.67842 42.8461 5.43673 43.2 6.68035C43.291 6.99378 43.3213 7.31732 43.3213 7.64087C43.3213 16.2451 43.3112 24.8493 43.3213 33.4536C43.3213 35.1724 42.0979 36.4464 40.3285 36.4362V36.4464Z" fill="#AEBAA9"/>
<path d="M11.4219 44.9899C10.8557 44.8686 10.2693 44.7472 9.8244 44.2316C9.28853 43.6148 9.02565 42.9778 9.02565 42.2802C9.02565 41.6129 9.02565 40.9456 9.02565 40.2783V38.883C9.02565 38.5055 8.82681 38.3134 8.42912 38.3067C8.28757 38.3067 8.13591 38.3067 7.99436 38.3067C7.57982 38.3067 7.16528 38.3067 6.74063 38.246C5.37568 38.0236 4.30394 37.3259 3.46475 36.0924C3.22209 35.7386 3.16143 35.3645 3.10076 35.0005C3.07043 34.8387 3.05021 34.687 3.00977 34.5253V34.4545V6.61964C3.05021 6.49831 3.06032 6.35676 3.07043 6.2051C3.09065 5.98267 3.11087 5.76023 3.22209 5.53779C3.92984 4.07174 4.94092 3.26288 6.31598 3.07078C6.62941 3.02022 6.96306 3 7.39782 3H10.9164C20.8855 3 30.8547 3 40.8239 3C42.5529 3 43.8167 3.78864 44.6761 5.40636C44.9794 5.98267 44.9794 6.61964 44.9794 7.17573C44.9794 10.4314 44.9794 13.6972 44.9794 16.9528C44.9794 22.635 44.9794 28.3173 44.9997 33.9995C45.0098 36.5676 42.7247 38.3067 40.5813 38.3168C39.732 38.3168 38.8827 38.3168 38.0334 38.3168H37.0526H33.6655C29.8942 38.3168 26.133 38.3168 22.3718 38.3168C21.836 38.3168 21.4214 38.4685 21.0271 38.792C19.925 39.7121 18.8027 40.6119 17.6906 41.5219C16.5784 42.4319 15.4662 43.3317 14.354 44.2417C13.8384 44.6663 13.2621 44.9191 12.6049 45H11.4421L11.4219 44.9899ZM8.23702 37.8012C8.30779 37.8012 8.37857 37.8012 8.44934 37.8012C9.3492 37.8113 9.5413 38.0034 9.5413 38.883V40.2783C9.5413 40.9456 9.5413 41.6129 9.5413 42.2802C9.5413 42.8565 9.76374 43.3722 10.2187 43.8979C10.5524 44.2821 11.0074 44.3832 11.4826 44.4843H12.5644C13.1003 44.4136 13.5755 44.2012 14.0204 43.8373C15.1224 42.9172 16.2447 42.0173 17.3569 41.1074C18.4691 40.1974 19.5813 39.2975 20.6934 38.3876C21.1788 37.9831 21.7146 37.791 22.3617 37.791C26.1229 37.8012 29.8942 37.791 33.6554 37.791H37.0425H38.0232C38.8725 37.791 39.7117 37.791 40.561 37.791C42.2091 37.7809 44.4941 36.4463 44.484 33.9793C44.4638 28.2971 44.4638 22.6148 44.4638 16.9326C44.4638 13.6769 44.4638 10.4112 44.4638 7.15551C44.4638 6.62975 44.4638 6.09389 44.211 5.62879C43.4527 4.19307 42.3405 3.49543 40.8037 3.49543C30.8345 3.50554 20.8653 3.49543 10.8961 3.49543H7.3776C6.97317 3.49543 6.65974 3.51565 6.36653 3.55609C5.16335 3.72797 4.30394 4.42561 3.66696 5.75012C3.59619 5.89167 3.58608 6.06355 3.56586 6.24555C3.55575 6.39721 3.53552 6.55898 3.49508 6.72075V34.4039C3.53552 34.5657 3.56586 34.7275 3.59619 34.8994C3.64674 35.2229 3.6973 35.5262 3.87929 35.7891C4.63759 36.9013 5.59811 37.5282 6.82151 37.7304C7.20572 37.791 7.57982 37.791 7.99436 37.791C8.07524 37.791 8.15613 37.791 8.23702 37.791V37.8012ZM12.0488 43.5845C11.8465 43.5845 11.6443 43.5339 11.4421 43.4429C10.8759 43.17 10.6029 42.6846 10.6029 41.9567C10.6029 40.804 10.6029 39.6514 10.6029 38.4988V37.3462C10.6029 36.8305 10.4715 36.6991 9.95584 36.689C9.56152 36.689 9.15709 36.689 8.76277 36.689C8.36846 36.689 7.96403 36.689 7.56971 36.689C5.63856 36.6789 4.38483 35.4251 4.38483 33.494C4.38483 24.8796 4.38483 16.2552 4.38483 7.64083C4.38483 5.71979 5.679 4.43572 7.61015 4.43572H28.0844H40.3487C41.8855 4.43572 43.0382 5.25469 43.4325 6.61964C43.5235 6.93308 43.5639 7.26673 43.5639 7.65094V13.7275C43.5639 20.3096 43.5639 26.8917 43.5639 33.4636C43.5639 34.3736 43.2404 35.2027 42.6439 35.7992C42.0574 36.3856 41.2283 36.689 40.3184 36.7092C36.355 36.689 32.3916 36.689 28.418 36.689C26.1532 36.689 23.8884 36.689 21.6236 36.689C21.2192 36.689 20.9159 36.8002 20.6126 37.0428C19.0757 38.3067 17.5389 39.5604 15.992 40.804C15.0314 41.5826 14.0709 42.3611 13.1104 43.1497C12.7464 43.4429 12.3925 43.5946 12.0387 43.5946L12.0488 43.5845ZM9.29864 36.1834C9.52108 36.1834 9.74352 36.1834 9.95584 36.1834C10.7647 36.1834 11.1085 36.5373 11.1085 37.3462V38.4988C11.1085 39.6514 11.1085 40.804 11.1085 41.9567C11.1085 42.4925 11.2702 42.806 11.6544 42.988C12.0285 43.17 12.3723 43.0992 12.797 42.7554C13.7575 41.9769 14.718 41.1984 15.6785 40.4097C17.2153 39.156 18.7623 37.9023 20.2991 36.6485C20.6934 36.325 21.108 36.1733 21.6337 36.1733C23.8985 36.1733 26.1634 36.1733 28.4282 36.1733C32.3916 36.1733 36.3651 36.1733 40.3285 36.1935H40.3487C41.1272 36.1935 41.8047 35.9307 42.3001 35.4352C42.7955 34.9398 43.0685 34.2422 43.0685 33.4636C43.0584 26.8816 43.0584 20.2995 43.0685 13.7275V7.65094C43.0685 7.31728 43.0382 7.02407 42.9573 6.76119C42.6337 5.61868 41.653 4.94126 40.3588 4.94126H19.9149H7.62026C5.97221 4.94126 4.90047 6.00289 4.90047 7.64083C4.90047 16.2552 4.90047 24.8796 4.90047 33.494C4.90047 35.142 5.93177 36.1733 7.57982 36.1834C7.97414 36.1834 8.36846 36.1834 8.77288 36.1834H9.30875H9.29864Z" fill="#AEBAA9"/>
<path d="M24.1216 21.1488C26.9192 21.1488 29.1871 18.8809 29.1871 16.0833C29.1871 13.2857 26.9192 11.0178 24.1216 11.0178C21.324 11.0178 19.0562 13.2857 19.0562 16.0833C19.0562 18.8809 21.324 21.1488 24.1216 21.1488Z" fill="#FDEE0E"/>
<path d="M24.1215 21.4015C21.1894 21.4015 18.8032 19.0154 18.8032 16.0833C18.8032 13.1511 21.1894 10.765 24.1215 10.765C27.0536 10.765 29.4397 13.1511 29.4397 16.0833C29.4397 19.0154 27.0536 21.4015 24.1215 21.4015ZM24.1215 11.2604C21.4623 11.2604 19.3088 13.4241 19.3088 16.0732C19.3088 18.7222 21.4725 20.8859 24.1215 20.8859C26.7705 20.8859 28.9342 18.7222 28.9342 16.0732C28.9342 13.4241 26.7705 11.2604 24.1215 11.2604Z" fill="#AEBAA9"/>
<path d="M24.0201 21.3611C23.9493 21.3611 23.8684 21.3611 23.7976 21.3611C20.9262 21.2398 18.7524 18.9143 18.8535 16.0631C18.904 14.6678 19.4803 13.3837 20.4914 12.4535C21.4924 11.5233 22.8371 11.0178 24.2122 11.0886C27.0735 11.22 29.2372 13.5556 29.1361 16.3967C29.0856 17.792 28.4991 19.0761 27.4982 20.0063C26.5478 20.8859 25.3244 21.3611 24.0201 21.3611ZM23.9999 11.584C22.8371 11.584 21.6946 12.0289 20.8352 12.8175C19.9252 13.6567 19.3995 14.8093 19.359 16.0732C19.268 18.6413 21.2295 20.7342 23.8179 20.8454C25.0615 20.9061 26.2444 20.4612 27.1443 19.622C28.0543 18.7829 28.58 17.6302 28.6205 16.3664C28.7115 13.7983 26.7601 11.6952 24.1818 11.584C24.1212 11.584 24.0605 11.584 23.9897 11.584H23.9999Z" fill="#AEBAA9"/>
<path d="M16.9835 28.3678C17.398 25.2335 19.8347 22.7563 22.9791 22.2811C26.7504 21.7048 30.3802 24.374 30.9565 28.1555C30.9868 28.388 31.0071 28.5194 30.9868 28.6003H32.1496C32.1496 28.6003 32.1091 28.4992 32.099 28.4285C31.6744 25.2031 29.9454 22.9687 26.9628 21.6846C26.892 21.6543 26.7909 21.6644 26.7606 21.5532C29.4803 20.077 30.5116 17.064 29.7331 14.4857C28.9647 11.9581 26.6392 10.2291 23.9801 10.2291C21.3311 10.2291 19.0056 11.9884 18.2473 14.5161C17.4789 17.0943 18.5405 20.1073 21.2805 21.5734C21.139 21.634 21.0379 21.6745 20.9469 21.7149C18.7023 22.6653 17.1554 24.283 16.3061 26.558C16.0836 27.1545 15.932 27.7713 15.8915 28.4183C15.8915 28.4992 15.8713 28.5498 15.8511 28.6003H17.0037C16.9835 28.5397 16.9734 28.479 16.9936 28.3779L16.9835 28.3678ZM19.1168 16.063C19.2179 13.2421 21.5738 11.22 24.2127 11.3312C26.9527 11.4626 28.9849 13.7274 28.8939 16.3765C28.7928 19.1771 26.4876 21.2094 23.8183 21.0982C20.9671 20.9768 19.036 18.6008 19.1168 16.063Z" fill="#638162"/>
<path d="M32.574 28.8531H30.653L30.7541 28.5296C30.7541 28.5296 30.7339 28.3172 30.7136 28.1959C30.4407 26.4366 29.4902 24.8796 28.0141 23.7977C26.548 22.7159 24.7685 22.271 23.0194 22.544C19.9659 23.0091 17.6405 25.375 17.236 28.4183C17.236 28.4183 17.236 28.5093 17.236 28.5296L17.3574 28.8733H15.4565L15.6183 28.5194C15.6183 28.5194 15.6385 28.4588 15.6385 28.4183C15.679 27.7915 15.8306 27.1444 16.0632 26.4973C16.9125 24.2022 18.4797 22.544 20.7141 21.5633C18.2977 20.0264 17.1956 17.1752 18.0044 14.4655C18.7931 11.8367 21.25 9.99658 23.9799 9.99658C26.7603 9.99658 29.1667 11.7761 29.9756 14.4352C30.8046 17.1651 29.7026 20.0365 27.276 21.5734C30.2182 22.908 31.9269 25.2132 32.3415 28.4285C32.3415 28.479 32.3617 28.4992 32.3718 28.5194L32.5639 28.8935L32.574 28.8531ZM31.2495 28.3476H31.846C31.4113 25.3042 29.743 23.1405 26.8817 21.907C26.7806 21.8868 26.5885 21.8363 26.5379 21.6138L26.4874 21.4217L26.6592 21.3307C29.1364 19.986 30.3092 17.1954 29.5105 14.5565C28.7724 12.1198 26.5581 10.4819 24.0001 10.4819C21.4927 10.4819 19.238 12.1704 18.51 14.5869C17.7213 17.2258 18.9144 20.0062 21.4219 21.3509L21.8971 21.6037L21.068 21.9475C18.9043 22.8675 17.3877 24.4448 16.5687 26.649C16.3564 27.2253 16.225 27.8016 16.1744 28.3476H16.7608C17.1956 25.0818 19.6929 22.544 22.9688 22.0385C24.8595 21.7453 26.7705 22.2306 28.3477 23.3832C29.925 24.5459 30.9563 26.2243 31.2394 28.115C31.2495 28.206 31.2596 28.2768 31.2697 28.3476H31.2495ZM24.0203 21.361C23.9496 21.361 23.8687 21.361 23.7979 21.361C20.9265 21.2397 18.7526 18.9143 18.8538 16.063C18.9043 14.6677 19.4806 13.3837 20.4917 12.4535C21.4927 11.5233 22.8374 11.0178 24.2124 11.0885C27.0738 11.22 29.2375 13.5556 29.1364 16.3967C29.0858 17.792 28.4994 19.076 27.4984 20.0062C26.548 20.8858 25.3246 21.361 24.0203 21.361ZM24.0001 11.584C22.8374 11.584 21.6949 12.0288 20.8355 12.8175C19.9255 13.6567 19.3997 14.8093 19.3593 16.0731C19.2683 18.6413 21.2298 20.7342 23.8181 20.8454C25.0516 20.896 26.2447 20.4612 27.1446 19.622C28.0545 18.7828 28.5803 17.6302 28.6207 16.3663C28.7117 13.7982 26.7603 11.6952 24.1821 11.584C24.1214 11.584 24.0608 11.584 23.99 11.584H24.0001Z" fill="#638162"/>
<path d="M34.788 28.7217C34.0095 28.7217 33.2309 28.7115 32.4625 28.7217C32.3008 28.7217 32.2098 28.6913 32.1592 28.5902H15.8506C15.8 28.6913 15.7191 28.7419 15.5473 28.7217C15.3956 28.7014 15.2338 28.7217 15.0721 28.7217C14.4452 28.7217 13.8183 28.7217 13.1915 28.7217C12.8174 28.7217 12.5848 28.9441 12.5747 29.2676C12.5747 29.6013 12.787 29.8035 13.1712 29.8338C13.242 29.8338 13.3229 29.8338 13.3937 29.8338C20.4611 29.8338 27.5285 29.8338 34.5959 29.8338C34.7374 29.8338 34.879 29.8338 35.0104 29.8035C35.2834 29.7428 35.425 29.5608 35.425 29.2777C35.425 28.934 35.1924 28.7217 34.788 28.7217Z" fill="#638162"/>
<path d="M13.2827 30.0866C13.2321 30.0866 13.1917 30.0866 13.1613 30.0866C12.6457 30.0563 12.3222 29.7429 12.3323 29.2677C12.3323 28.8026 12.6861 28.479 13.1917 28.4689C13.6062 28.4689 14.0309 28.4689 14.4454 28.4689H15.2138C15.3453 28.4689 15.4666 28.4689 15.5879 28.4689L15.6587 28.3173H15.8609L32.3212 28.3274L32.392 28.4588C32.392 28.4588 32.4122 28.4588 32.4526 28.4588H32.4728C33.1907 28.4487 33.9086 28.4487 34.6163 28.4588H34.7983C35.3342 28.4588 35.6881 28.7925 35.6881 29.2677C35.6881 29.6721 35.4656 29.9552 35.0713 30.0361C34.9095 30.0765 34.7377 30.0765 34.6062 30.0765H13.3939C13.3939 30.0765 13.313 30.0765 13.2827 30.0765V30.0866ZM14.0005 28.9745C13.7275 28.9745 13.4647 28.9745 13.1917 28.9745C13.0299 28.9745 12.8277 29.025 12.8277 29.2677C12.8277 29.3486 12.8277 29.5508 13.1917 29.5811C13.2422 29.5811 13.2827 29.5811 13.3332 29.5811H34.6062C34.7174 29.5811 34.8489 29.5811 34.9601 29.5508C35.1219 29.5103 35.1825 29.4396 35.1825 29.2677C35.1825 29.0756 35.0511 28.9745 34.7983 28.9643H34.6163C33.9086 28.9643 33.1907 28.9643 32.483 28.9643C32.4122 28.9643 32.21 28.9643 32.0583 28.8329H16.0025C15.9115 28.9239 15.7699 28.9947 15.5374 28.9643C15.4464 28.9542 15.3453 28.9643 15.2442 28.9643H14.4656C14.314 28.9643 14.1724 28.9643 14.0208 28.9643L14.0005 28.9745Z" fill="#638162"/>
</g>
<defs>
<clipPath id="clip0_1579_1888">
<rect width="42" height="41.9899" fill="white" transform="translate(3 3)"/>
</clipPath>
</defs>
</svg>
