<svg width="66" height="57" viewBox="0 0 66 57" fill="none" xmlns="http://www.w3.org/2000/svg">
<path fill-rule="evenodd" clip-rule="evenodd" d="M5.6 0H36.2C39.2801 0 41.8 2.5199 41.8 5.6V22.7679C42.9104 21.9493 44.2604 21.5 45.6568 21.5H48.1602C50.0577 21.5 51.8605 22.3292 53.0954 23.7699L56.761 28.0465C57.818 29.2797 58.4757 30.7666 58.7348 32.3118C58.9395 33.5318 59.2027 34.9265 59.4855 36.1126C59.6273 36.7074 59.7662 37.2168 59.8956 37.6104C59.994 37.9096 60.0608 38.0598 60.0828 38.1093C60.0884 38.1219 60.0911 38.128 60.0906 38.1283C60.0904 38.1284 60.0892 38.1268 60.087 38.1237C60.3578 38.5247 61.1963 39.4857 62.3131 40.6796C63.3775 41.8174 64.5325 42.997 65.2677 43.7322C66.244 44.7086 66.244 46.2915 65.2677 47.2678C64.2914 48.2441 62.7085 48.2441 61.7322 47.2678C60.9674 46.503 59.7724 45.2827 58.6618 44.0954C57.6134 42.9747 56.4567 41.6921 55.9198 40.8868C55.5622 40.3503 55.3161 39.6903 55.1456 39.1716C54.9564 38.596 54.7809 37.9396 54.6218 37.272C54.3027 35.9334 54.0181 34.4168 53.8037 33.1389C53.6854 32.4333 53.393 31.8 52.9647 31.3004L49.2991 27.0238C49.0141 26.6914 48.5981 26.5 48.1602 26.5H45.6568C45.259 26.5 44.8774 26.6581 44.5961 26.9394L38.2677 33.2678C37.3226 34.2129 35.8013 34.2474 34.8143 33.3462L26.3564 25.6238C25.6414 24.971 24.5394 24.9961 23.8548 25.6807C23.1383 26.3972 23.1496 27.551 23.8678 28.2487C27.4081 31.6879 31.7376 35.8747 35.3089 39.2857C37.0955 40.9921 38.6861 42.4984 39.891 43.618C40.4946 44.1787 40.9924 44.6343 41.3658 44.9663C41.6378 45.2083 41.7915 45.3371 41.8571 45.3921L41.8572 45.3922L41.8812 45.4123C41.8888 45.4187 41.8932 45.4226 41.8948 45.4243C41.9104 45.4331 41.9433 45.451 41.9978 45.4771C42.0871 45.5198 42.2082 45.5721 42.3643 45.6323C42.6786 45.7535 43.0759 45.8845 43.5369 46.0195C44.4579 46.2892 45.5249 46.5437 46.4748 46.7471C47.8471 47.0409 49.1798 47.6456 50.314 48.5908L55.1004 52.5795C56.1611 53.4634 56.3044 55.0398 55.4205 56.1005C54.5366 57.1612 52.9602 57.3045 51.8995 56.4206L47.1131 52.4319C46.6562 52.0512 46.0808 51.776 45.428 51.6363C44.4109 51.4185 43.2137 51.1349 42.1316 50.818C42.021 50.7856 41.9072 50.7516 41.7911 50.7161C41.6258 53.6506 39.174 56 36.2 56H5.6C2.5199 56 0 53.4801 0 50.4V5.6C0 2.5199 2.5199 0 5.6 0ZM36.2 5.6V27.8408L29.7278 21.9314C27.0387 19.4762 22.8941 19.5703 20.3193 22.1451C17.6387 24.8258 17.6559 29.1851 20.3838 31.8351C22.7233 34.1078 25.4097 36.7091 27.9969 39.2H5.6V5.6H36.2ZM5.6 44.8H33.8497C34.7175 45.6229 35.511 46.3706 36.2 47.0131V50.4H5.6V44.8ZM14.5 24C14.5 19.8579 17.8579 16.5 22 16.5C24.6887 16.5 27.0493 17.9131 28.3765 20.049C29.1052 21.2218 30.6467 21.5817 31.8194 20.853C32.9922 20.1243 33.3522 18.5829 32.6235 17.4101C30.4222 13.8676 26.4886 11.5 22 11.5C15.0964 11.5 9.5 17.0964 9.5 24C9.5 27.4515 10.9022 30.5803 13.162 32.8397C14.1384 33.8159 15.7213 33.8157 16.6975 32.8393C17.6738 31.8629 17.6736 30.28 16.6972 29.3038C15.3369 27.9438 14.5 26.072 14.5 24Z" fill="#00582E"/>
</svg>
