<svg width="37" height="56" viewBox="0 0 37 56" fill="none" xmlns="http://www.w3.org/2000/svg">
<path d="M34.5865 19.764H23.6959L29.5614 2.16663C29.8085 1.42397 29.5004 0.611448 28.8254 0.219476C28.1482 -0.1673 27.2901 -0.0342151 26.7694 0.550364L0.415842 30.1982C-0.0143243 30.6827 -0.120943 31.3761 0.143779 31.9658C0.407748 32.5607 0.995267 32.9409 1.64456 32.9409H12.6374L6.64836 53.9014C6.43291 54.6558 6.77997 55.4566 7.47704 55.8169C7.71748 55.9404 7.97631 56 8.23294 56C8.72044 56 9.1984 55.7824 9.51899 55.3823L35.8726 22.4404C36.2682 21.9462 36.3439 21.269 36.0704 20.6977C35.7954 20.1263 35.2204 19.7638 34.5865 19.7638L34.5865 19.764Z" fill="#00582E"/>
</svg>
