<svg xmlns="http://www.w3.org/2000/svg" xmlns:xlink="http://www.w3.org/1999/xlink" width="54" height="54" viewBox="0 0 54 54">
  <defs>
    <linearGradient id="linear-gradient" x1="0.145" y1="0.112" x2="0.922" y2="0.876" gradientUnits="objectBoundingBox">
      <stop offset="0" stop-color="#fde159"/>
      <stop offset="1" stop-color="#fe0817"/>
    </linearGradient>
  </defs>
  <g id="Group_656" data-name="Group 656" transform="translate(-745 -6302)">
    <circle id="Ellipse_8708" data-name="Ellipse 8708" cx="27" cy="27" r="27" transform="translate(745 6302)" fill="url(#linear-gradient)"/>
    <g id="Group_305" data-name="Group 305" transform="translate(43.57 -46.02)">
      <path id="Path_449" data-name="Path 449" d="M156.2,343v2.36a2.367,2.367,0,0,1-2.36,2.36h-9.439v2.832h1.888a.472.472,0,1,1,0,.944H135.911a.472.472,0,1,1,0-.944H137.8v-2.832H128.36a2.364,2.364,0,0,1-2.36-2.36V343Z" transform="translate(587.43 6036.009)" fill="#fff"/>
      <path id="Path_450" data-name="Path 450" d="M405.97,180.8l2.36.062V179.3l-2.36-.2Z" transform="translate(326.336 6188.855)" fill="#fff"/>
      <path id="Path_451" data-name="Path 451" d="M405.97,219.953l2.36-.1v-1.5l-2.36-.062Z" transform="translate(326.336 6152.312)" fill="#fff"/>
      <path id="Path_452" data-name="Path 452" d="M454.97,221.016l1.888-.079v-1.31l-1.888-.05Z" transform="translate(280.639 6151.109)" fill="#fff"/>
      <path id="Path_453" data-name="Path 453" d="M496.97,188.033l1.416.037V186.8l-1.416-.118Z" transform="translate(241.472 6181.785)" fill="#fff"/>
      <path id="Path_454" data-name="Path 454" d="M363.97,219.037l1.888-.079v-1.727l-1.888-.05Z" transform="translate(365.504 6153.344)" fill="#fff"/>
      <path id="Path_455" data-name="Path 455" d="M363.97,177.458l1.888.05v-1.751l-1.888-.157Z" transform="translate(365.504 6192.124)" fill="#fff"/>
      <path id="Path_456" data-name="Path 456" d="M153.845,91H128.36A2.361,2.361,0,0,0,126,93.36v13.685h30.2V93.36A2.364,2.364,0,0,0,153.845,91Zm-15.576,13.686H128.83a.472.472,0,1,1,0-.944h9.439a.472.472,0,0,1,0,.944Zm0-2.36H128.83a.472.472,0,1,1,0-.944h9.439a.472.472,0,0,1,0,.944Zm0-2.36H128.83a.472.472,0,1,1,0-.944h9.439a.472.472,0,0,1,0,.944Zm0-2.36H128.83a.472.472,0,1,1,0-.944h9.439a.472.472,0,0,1,0,.944Zm0-2.36H128.83a.472.472,0,1,1,0-.944h9.439a.472.472,0,0,1,0,.944Zm15.1,6.135a.472.472,0,0,1-.452.471l-9.952.415a.459.459,0,0,1-.214.058.708.708,0,0,0,0,1.416h8.731a.944.944,0,1,1-.944.944H144.4a.944.944,0,0,1-1.888,0c0-.008,0-.016,0-.024a1.649,1.649,0,0,1-1.418-1.628,1.631,1.631,0,0,1,.213-.8.449.449,0,0,1-.068-.044.472.472,0,0,1-.145-.341V95.3c-.076-.309-.152-.608-.227-.908-.052-.206-.1-.412-.157-.622l-2.525-.421a.472.472,0,1,1,.155-.931l2.832.472a.472.472,0,0,1,.381.353c.077.313.153.615.229.917.081.319.162.639.243.971a.48.48,0,0,1,.013.111v.51l10.894.908a.471.471,0,0,1,.433.47Z" transform="translate(587.43 6271.02)" fill="#fff"/>
      <path id="Path_457" data-name="Path 457" d="M496.97,221.929l1.416-.059v-1.15l-1.416-.037Z" transform="translate(241.472 6150.078)" fill="#fff"/>
      <path id="Path_458" data-name="Path 458" d="M454.97,184.69l1.888.05v-1.4l-1.888-.157Z" transform="translate(280.639 6185.053)" fill="#fff"/>
    </g>
  </g>
</svg>
