<svg width="56" height="56" viewBox="0 0 56 56" fill="none" xmlns="http://www.w3.org/2000/svg">
<path d="M56 5.59998H11.4801L10.92 0H0V5.59998H5.88008L8.68007 36.3999H46.2C48.4398 36.3999 50.4 38.3601 50.4 40.5999C50.4 42.5601 49 44.2397 47.0398 44.7999C45.9199 41.7198 42.8398 39.1999 39.2 39.1999C35.5602 39.1999 32.4801 41.4397 31.3602 44.7999H24.6399C23.52 41.4397 20.4399 39.1999 16.8002 39.1999C13.1604 39.1999 10.0803 41.4397 8.96037 44.7999H5.60018V50.3999H8.96037C10.0803 53.76 13.1604 55.9998 16.8002 55.9998C20.4399 55.9998 23.52 53.76 24.6399 50.3999H31.3598C32.4797 53.76 35.5598 55.9998 39.1996 55.9998C42.8394 55.9998 45.9195 53.4799 47.0394 50.3999C52.0791 49.8397 55.9995 45.9198 55.9995 40.5999C55.9995 35.28 51.5195 30.7999 46.1996 30.7999H42.2797L55.9996 20.7199L56 5.59998ZM16.8001 50.3999C15.12 50.3999 14.0001 49.28 14.0001 47.5999C14.0001 45.9198 15.12 44.7999 16.8001 44.7999C18.4802 44.7999 19.6001 45.9198 19.6001 47.5999C19.6001 49.28 18.4802 50.3999 16.8001 50.3999ZM39.2 50.3999C37.52 50.3999 36.4001 49.28 36.4001 47.5999C36.4001 45.9198 37.52 44.7999 39.2 44.7999C40.8801 44.7999 42 45.9198 42 47.5999C42 49.28 40.8801 50.3999 39.2 50.3999ZM50.4 17.9199L32.7601 30.7999H13.7201L12.04 11.2H50.3999L50.4 17.9199Z" fill="#00582E"/>
</svg>
