<svg xmlns="http://www.w3.org/2000/svg" xmlns:xlink="http://www.w3.org/1999/xlink" width="54" height="54" viewBox="0 0 54 54">
  <defs>
    <linearGradient id="linear-gradient" x1="0.145" y1="0.112" x2="0.922" y2="0.876" gradientUnits="objectBoundingBox">
      <stop offset="0" stop-color="#fde159"/>
      <stop offset="1" stop-color="#fe0817"/>
    </linearGradient>
  </defs>
  <g id="Group_669" data-name="Group 669" transform="translate(-278 -6302)">
    <circle id="Ellipse_8707" data-name="Ellipse 8707" cx="27" cy="27" r="27" transform="translate(278 6302)" fill="url(#linear-gradient)"/>
    <path id="Path_448" data-name="Path 448" d="M107.037,26.508a.659.659,0,0,0-.018-.074.615.615,0,0,0-.031-.081.582.582,0,0,0-.04-.078c-.008-.012-.012-.025-.018-.036l-2.673-3.967c-.008-.012-.019-.022-.028-.035a.768.768,0,0,0-.058-.068c-.022-.023-.043-.043-.066-.064s-.044-.035-.069-.054-.052-.035-.08-.053-.055-.03-.083-.043-.056-.026-.085-.037-.065-.022-.1-.032-.059-.016-.091-.023-.068-.012-.1-.016-.068-.007-.1-.009c-.016,0-.032,0-.049,0h-1.21V9.98h3.889a1.261,1.261,0,0,0,.234-.024c.023,0,.043-.011.066-.017a1.134,1.134,0,0,0,.167-.055c.021-.009.042-.017.062-.027a1.056,1.056,0,0,0,.187-.114l.009-.006a.923.923,0,0,0,.153-.161c0-.007.013-.012.017-.019a.172.172,0,0,0,.021-.04.675.675,0,0,0,.075-.159.667.667,0,0,0,.02-.076.841.841,0,0,0,.012-.092.408.408,0,0,0,.005-.042c0-.01,0-.019,0-.029a.563.563,0,0,0-.012-.091c0-.024-.01-.049-.014-.073s-.019-.054-.031-.08-.022-.049-.036-.073-.031-.049-.048-.073a.806.806,0,0,0-.051-.065.781.781,0,0,0-.067-.064.831.831,0,0,0-.068-.057.786.786,0,0,0-.074-.049c-.03-.018-.059-.035-.091-.052-.012-.006-.02-.012-.031-.018L91.622,1.666,91.6,1.658c-.034-.014-.069-.025-.1-.037s-.057-.019-.086-.027-.068-.012-.1-.018-.063-.011-.095-.013-.071,0-.106,0-.061,0-.091,0-.071.009-.106.015-.061.009-.091.015-.06.018-.09.028-.069.022-.1.036c-.008,0-.016,0-.024.008L75.7,8.426c-.011,0-.02.012-.03.017-.032.016-.062.034-.093.053s-.05.031-.073.048-.048.039-.07.06-.044.04-.063.061a.816.816,0,0,0-.054.069.784.784,0,0,0-.046.068.686.686,0,0,0-.037.077.567.567,0,0,0-.029.075.665.665,0,0,0-.017.077.641.641,0,0,0-.011.088c0,.011,0,.021,0,.031s0,.029.005.044a.753.753,0,0,0,.011.089.717.717,0,0,0,.022.079.658.658,0,0,0,.075.159c.008.013.013.027.022.039s.012.012.017.018a.9.9,0,0,0,.152.161l.009.006a1.018,1.018,0,0,0,.185.114c.021.01.042.018.063.027a1.233,1.233,0,0,0,.167.055c.022.006.043.012.066.016a1.311,1.311,0,0,0,.236.024h3.887V21.838H78.879c-.015,0-.03,0-.046,0-.038,0-.075,0-.113.009l-.095.015c-.032.007-.064.014-.1.024s-.064.018-.094.031-.057.024-.086.038a.9.9,0,0,0-.084.044.709.709,0,0,0-.077.051.578.578,0,0,0-.072.057c-.022.019-.042.039-.061.059s-.043.049-.062.074-.019.021-.027.032l-2.672,3.967a.265.265,0,0,0-.017.035.8.8,0,0,0-.043.081.642.642,0,0,0-.029.075.707.707,0,0,0-.019.079.648.648,0,0,0-.011.089c0,.012,0,.024,0,.035s0,.025,0,.038a.6.6,0,0,0,.011.088.723.723,0,0,0,.019.077.787.787,0,0,0,.03.078.736.736,0,0,0,.038.074.855.855,0,0,0,.048.071.642.642,0,0,0,.053.065.693.693,0,0,0,.066.064.855.855,0,0,0,.068.055c.025.018.051.035.079.053s.057.033.086.047c.014.008.027.016.042.023s.025.007.037.012a1.347,1.347,0,0,0,.16.05c.022.006.043.012.065.015a1.3,1.3,0,0,0,.226.022h29.819a1.283,1.283,0,0,0,.227-.022c.022,0,.044-.012.066-.015a1.144,1.144,0,0,0,.158-.05c.012,0,.024-.006.037-.012s.028-.015.043-.023.058-.031.086-.047.054-.035.079-.053.046-.035.068-.055.046-.042.066-.064.035-.043.051-.066.034-.047.048-.071.026-.049.038-.074a.76.76,0,0,0,.03-.079.367.367,0,0,0,.018-.075.578.578,0,0,0,.012-.091.321.321,0,0,0,.005-.035c0-.012,0-.023,0-.035,0-.031-.007-.062-.014-.093ZM84.211,21.837h-2.05V9.98h2.05Zm7.673-2.878v.963H90.251v-.887a3.815,3.815,0,0,1-1.414-.415l-.3-.171.586-1.312.515.276a2.774,2.774,0,0,0,1.253.3c.357,0,.774-.116.774-.443,0-.174-.07-.381-.893-.65-1.009-.317-2.046-.783-2.046-1.825a1.849,1.849,0,0,1,1.6-1.67v-.938h1.623v.856a3.675,3.675,0,0,1,1.136.317l.353.166-.611,1.291-.493-.225a2.436,2.436,0,0,0-1.091-.237c-.4,0-.637.124-.637.341,0,.159.073.3,1.011.608.9.293,1.937.776,1.936,1.909a1.929,1.929,0,0,1-1.669,1.745Zm8.178,2.878h-2.05V9.98h2.05Z" transform="translate(213.83 6314.438)" fill="#fff"/>
  </g>
</svg>
