<svg width="56" height="56" viewBox="0 0 56 56" fill="none" xmlns="http://www.w3.org/2000/svg">
<path fill-rule="evenodd" clip-rule="evenodd" d="M48.72 11.2C44.2399 4.2 36.4 0 28 0C19.6 0 11.76 4.2 7 11.2H0V16.8H56V11.2H48.72ZM28 5.6C33.0398 5.6 38.08 7.5602 41.72 11.2H14.28C17.9198 7.5602 22.9601 5.6 28 5.6ZM56 50.4V56H0V50.4H56ZM2.79999 47.6V42H5.59999V25.2H2.79999V19.6H14V25.2H11.2V42H14V47.6H2.79999ZM22.4 42V47.6H33.6V42H30.8V25.2H33.6V19.6H22.4V25.2H25.2V42H22.4ZM42 47.6V42H44.8V25.2H42V19.6H53.2V25.2H50.4V42H53.2V47.6H42Z" fill="#00582E"/>
</svg>
