<svg width="47" height="47" viewBox="0 0 47 47" fill="none" xmlns="http://www.w3.org/2000/svg">
<g clip-path="url(#clip0_1579_1867)">
<path d="M20.4368 44C19.8431 43.8429 19.3673 43.5 18.9165 43.0921C17.9321 42.2031 16.736 41.7601 15.4306 41.496C15.4048 41.6125 15.3821 41.7093 15.3618 41.8062C15.2352 42.3914 14.747 42.8257 14.1446 42.8289C11.9181 42.839 9.69149 42.8414 7.46493 42.8273C6.75009 42.8226 6.23212 42.2437 6.22587 41.4859C6.21649 40.314 6.22274 39.1421 6.22274 37.9703C6.22274 34.871 6.22274 31.7726 6.22274 28.6734C6.22274 27.639 6.72431 27.1359 7.75321 27.1359C9.73212 27.1351 11.7118 27.1359 13.6907 27.1359C14.7977 27.1359 15.1274 27.3757 15.4438 28.4484C15.7985 28.125 16.1212 27.7921 16.4829 27.5085C17.3392 26.8367 18.2282 26.2046 19.079 25.5257C20.3392 24.5195 21.129 23.2148 21.3665 21.6132C21.4673 20.9328 21.5407 20.2351 21.5102 19.5507C21.4618 18.4578 22.5235 17.6007 23.3727 17.446C24.5876 17.225 25.7087 17.857 26.1391 19.0203C27.0641 21.5226 27.0696 24.032 26.1759 26.5445C26.1337 26.664 26.0954 26.7851 26.0376 26.9601H26.4931C28.8626 26.9601 31.2329 26.9601 33.6024 26.9601C35.0806 26.9601 36.1017 27.671 36.4063 28.9429C36.722 30.2601 36.0243 31.4742 34.8907 31.9578C34.8681 31.9671 34.8509 31.9898 34.8313 32.007C35.7673 33.6335 35.1032 35.0062 33.8806 35.864C34.2946 36.5015 34.5243 37.1914 34.3407 37.9609C34.1602 38.721 33.7001 39.2851 33.0845 39.7015C33.2462 40.1054 33.4634 40.4828 33.5477 40.8882C33.8337 42.2648 33.0227 43.5367 31.6641 43.9187C31.5915 43.939 31.5227 43.9734 31.4524 44.0007H20.4368V44ZM25.9446 42.7492C27.6235 42.7492 29.3032 42.7554 30.9821 42.746C31.7032 42.7421 32.2337 42.2757 32.3399 41.5914C32.4368 40.9664 32.079 40.3531 31.4727 40.1414C31.2915 40.0781 31.0915 40.0679 30.9009 40.0281C30.5548 39.9562 30.3798 39.725 30.3977 39.3875C30.4157 39.046 30.6267 38.8328 30.9743 38.8132C31.1798 38.8015 31.3884 38.8429 31.5954 38.8648C32.4274 38.9546 33.2915 38.0109 33.1204 37.1976C32.9852 36.5554 32.554 36.1906 31.8282 36.1046C31.4009 36.0539 31.1595 35.7953 31.1907 35.4203C31.2204 35.064 31.4829 34.8484 31.8993 34.8593C32.0665 34.864 32.2329 34.9062 32.4001 34.9242C32.5274 34.9374 32.6602 34.9625 32.7845 34.9421C33.4446 34.8343 34.0563 34.0804 34.0235 33.4312C33.986 32.7007 33.4095 32.1718 32.6149 32.146C32.3024 32.1359 31.9892 32.1578 31.6782 32.1343C31.2063 32.0992 30.9165 31.6007 31.1876 31.2367C31.3196 31.0601 31.6087 30.9234 31.8352 30.9093C32.536 30.8664 33.2407 30.9078 33.9431 30.8859C34.686 30.8625 35.2251 30.2718 35.2173 29.5312C35.2087 28.7531 34.6298 28.2101 33.7876 28.2093C30.9368 28.2062 28.086 28.2093 25.2352 28.207C24.5056 28.2062 24.2407 27.7875 24.5634 27.1359C25.1431 25.9671 25.4821 24.7335 25.5681 23.4335C25.661 22.0234 25.4446 20.657 24.9235 19.3429C24.7204 18.8304 24.1798 18.5734 23.6063 18.6804C23.0798 18.7789 22.8063 19.1093 22.7704 19.6835C22.7454 20.0859 22.7048 20.4882 22.6884 20.8914C22.5993 23.1562 21.6548 24.9992 19.9267 26.4414C19.5821 26.7289 19.129 26.889 18.7907 27.1828C17.7001 28.1289 16.6345 29.1046 15.5727 30.0835C15.4673 30.1812 15.4001 30.375 15.3993 30.5242C15.3892 33.6351 15.3938 36.7468 15.3876 39.8578C15.3876 40.1023 15.4392 40.2187 15.711 40.2734C17.361 40.6054 18.8462 41.2703 20.0977 42.4343C20.3079 42.6304 20.6821 42.7304 20.9829 42.7359C22.636 42.764 24.2892 42.7492 25.9423 42.7492H25.9446ZM7.50321 28.4078V41.5562H14.1165V28.4078H7.50321Z" fill="#AEBAA8"/>
<path d="M23.6398 4C23.793 4.21719 23.9867 4.41562 24.093 4.65391C24.618 5.82812 25.125 7.01016 25.625 8.19453C25.7219 8.42266 25.8359 8.52266 26.1023 8.54453C27.4633 8.65391 28.8219 8.79453 30.1812 8.92266C30.4844 8.95156 30.6953 9.09687 30.7836 9.39297C30.875 9.70078 30.7195 9.91719 30.5031 10.1078C29.4969 10.993 28.4953 11.8828 27.4828 12.7609C27.2961 12.9227 27.2281 13.0602 27.2906 13.3219C27.5906 14.5727 27.8601 15.8305 28.1398 17.0852C28.157 17.1609 28.1648 17.2398 28.1851 17.3148C28.2648 17.6117 28.207 17.9078 27.932 18.0203C27.725 18.1047 27.4039 18.1086 27.214 18.0023C26.1133 17.3891 25.0219 16.7539 23.9586 16.0789C23.5492 15.8188 23.2562 15.8273 22.8523 16.0836C21.8211 16.7375 20.7539 17.3352 19.7047 17.9617C19.4336 18.1234 19.164 18.2375 18.8703 18.0359C18.5609 17.8242 18.5687 17.5234 18.643 17.1984C18.9359 15.9063 19.2117 14.6102 19.5203 13.3211C19.5836 13.0586 19.514 12.9219 19.3281 12.7602C18.3359 11.8984 17.3555 11.0242 16.3672 10.1578C16.1211 9.94219 15.9117 9.71875 16.0398 9.35625C16.1648 9.00312 16.4515 8.94062 16.7851 8.91172C18.1195 8.79531 19.4515 8.65391 20.7859 8.53984C21.0133 8.52031 21.0898 8.40937 21.1672 8.22969C21.6773 7.03516 22.1875 5.84063 22.7187 4.65469C22.825 4.41641 23.018 4.21719 23.1711 4C23.3273 4 23.4836 4 23.6398 4ZM20.1484 16.2414C21.0476 15.7109 21.8656 15.2789 22.6265 14.7633C23.182 14.3867 23.6312 14.3883 24.1859 14.7609C24.9578 15.2797 25.7828 15.7195 26.6476 16.2297C26.6101 16.0273 26.5898 15.9016 26.5625 15.7781C26.364 14.8766 26.1781 13.9727 25.957 13.0766C25.8625 12.6938 25.9664 12.4281 26.2523 12.182C26.9523 11.5789 27.6422 10.9633 28.3344 10.3508C28.432 10.2648 28.5203 10.1688 28.6523 10.0383C27.5312 9.92969 26.4961 9.81641 25.4594 9.73516C25.0531 9.70313 24.825 9.5125 24.675 9.15C24.3156 8.28594 23.9383 7.42969 23.5656 6.57187C23.5242 6.47656 23.468 6.38672 23.3906 6.24219C22.9414 7.27734 22.5172 8.23984 22.107 9.20859C21.9703 9.53047 21.7601 9.70391 21.4039 9.72656C20.9234 9.75703 20.4453 9.81484 19.9664 9.8625C19.3844 9.92031 18.8023 9.97891 18.1367 10.0453C18.8164 10.6453 19.4219 11.1773 20.025 11.7109C21.107 12.6695 20.9922 12.4188 20.6976 13.75C20.5211 14.5461 20.3476 15.343 20.15 16.2422L20.1484 16.2414Z" fill="#618260"/>
<path d="M32.5998 18.8937C32.7647 18.1508 32.9022 17.3258 33.1405 16.5312C33.3115 15.9601 33.1905 15.6039 32.7162 15.2492C32.124 14.8062 31.5983 14.275 31.0365 13.7898C30.7905 13.5773 30.6311 13.3422 30.7483 13.0086C30.8584 12.6945 31.1115 12.6055 31.4225 12.5797C32.3045 12.507 33.1842 12.4109 34.0662 12.3359C34.3256 12.314 34.4772 12.2211 34.5811 11.9625C34.9053 11.1547 35.2662 10.3617 35.6061 9.55936C35.7295 9.26717 35.8897 9.01873 36.2412 9.01014C36.6131 9.00076 36.7834 9.25467 36.9139 9.5617C37.2537 10.3633 37.6147 11.1562 37.9397 11.964C38.0444 12.2234 38.1975 12.314 38.4561 12.3351C39.3506 12.4109 40.2436 12.5062 41.1381 12.582C41.4381 12.6078 41.667 12.7156 41.7717 13.0101C41.8772 13.3078 41.7623 13.5406 41.5381 13.7375C40.8631 14.3305 40.1959 14.932 39.5123 15.5148C39.2998 15.6961 39.2264 15.8625 39.299 16.1492C39.5131 16.993 39.6905 17.8469 39.8803 18.6961C39.949 19.0023 39.9592 19.2992 39.6686 19.5078C39.4147 19.6906 39.1608 19.6492 38.903 19.4953C38.1108 19.0211 37.31 18.5601 36.5217 18.0789C36.328 17.9609 36.185 17.9633 35.9928 18.0805C35.1936 18.568 34.3889 19.0476 33.5764 19.5133C33.0819 19.7969 32.5803 19.5047 32.599 18.8922L32.5998 18.8937ZM39.6865 13.7031C39.0178 13.639 38.4498 13.5656 37.8803 13.5367C37.4397 13.514 37.1553 13.3422 36.992 12.9187C36.778 12.3633 36.5233 11.8234 36.2592 11.2164C35.9959 11.8211 35.7389 12.3586 35.5272 12.9133C35.3655 13.3367 35.0858 13.5133 34.6436 13.5367C34.0678 13.5672 33.4944 13.6414 32.8373 13.7055C33.3303 14.1406 33.7412 14.5359 34.1865 14.8883C34.5655 15.1883 34.66 15.5265 34.5342 15.9851C34.385 16.5297 34.2873 17.0883 34.1483 17.7258C34.6881 17.4086 35.1639 17.1664 35.5975 16.8633C36.0545 16.543 36.453 16.5336 36.9139 16.8562C37.3498 17.1617 37.8303 17.4039 38.3772 17.7242C38.2225 17.0367 38.0959 16.4555 37.9592 15.8765C37.8733 15.5148 37.942 15.2226 38.2436 14.9734C38.7115 14.5859 39.1584 14.1719 39.6873 13.7039L39.6865 13.7031Z" fill="#618260"/>
<path d="M6.89139 18.9031C7.08436 18.0305 7.27732 17.1008 7.50232 16.1789C7.57342 15.8883 7.52967 15.7047 7.29451 15.5078C6.62576 14.9477 5.98357 14.3578 5.32498 13.7852C5.08123 13.5734 4.91873 13.3398 5.04139 13.0039C5.15545 12.6906 5.40936 12.6047 5.71873 12.5789C6.61326 12.5039 7.50623 12.4055 8.40076 12.3305C8.6367 12.3102 8.76639 12.2164 8.85779 11.9937C9.19451 11.1766 9.55467 10.3695 9.89998 9.55546C10.0242 9.2625 10.1859 9.0164 10.5375 9.01015C10.9101 9.00312 11.0781 9.25937 11.2078 9.56562C11.543 10.3555 11.9039 11.1344 12.2187 11.932C12.3336 12.2227 12.5031 12.3195 12.7914 12.3422C13.6734 12.4133 14.5531 12.5086 15.4351 12.5836C15.7367 12.6094 15.9648 12.7203 16.0648 13.0156C16.1648 13.3117 16.0515 13.5453 15.8258 13.743C15.1406 14.3437 14.4648 14.9555 13.7703 15.5453C13.5726 15.7133 13.525 15.8742 13.5836 16.1187C13.7836 16.9531 13.9656 17.7914 14.1562 18.6281C14.2312 18.9562 14.2804 19.2828 13.9554 19.5141C13.632 19.7445 13.3453 19.5914 13.0539 19.4156C12.3297 18.9789 11.5914 18.5664 10.8758 18.1164C10.6273 17.9609 10.4523 17.9773 10.2125 18.1258C9.43904 18.6055 8.65389 19.068 7.86326 19.5187C7.37498 19.7969 6.86639 19.4937 6.89061 18.9031H6.89139ZM13.982 13.7016C13.293 13.6367 12.7117 13.5687 12.1281 13.5328C11.7179 13.5078 11.4531 13.3383 11.2992 12.9484C11.0758 12.3844 10.8211 11.8328 10.5531 11.2141C10.289 11.8234 10.0328 12.3633 9.81951 12.9187C9.65623 13.343 9.37186 13.5133 8.93123 13.5367C8.35701 13.5672 7.78514 13.6422 7.13201 13.7055C7.62732 14.1437 8.03982 14.5398 8.48514 14.893C8.86639 15.1945 8.95076 15.5344 8.82498 15.9922C8.67576 16.5328 8.58123 17.0883 8.44451 17.725C9.01326 17.3898 9.50936 17.1312 9.96795 16.818C10.3828 16.5344 10.743 16.5531 11.1508 16.8211C11.6148 17.1273 12.1047 17.3937 12.6672 17.7273C12.5234 17.0734 12.4156 16.5039 12.2687 15.9445C12.1562 15.5156 12.2492 15.1961 12.6 14.9133C13.0523 14.5492 13.475 14.1492 13.9828 13.7008L13.982 13.7016Z" fill="#618260"/>
<path d="M7.50293 28.4078H14.1162V41.5563H7.50293V28.4078ZM12.017 30.4844C12.0186 30.1024 11.7631 29.8258 11.4061 29.8235C11.0506 29.8211 10.7771 30.1024 10.774 30.4742C10.7709 30.8469 11.0365 31.1274 11.3951 31.1305C11.7584 31.1336 12.0154 30.8664 12.017 30.4844Z" fill="#FFF000"/>
<path d="M12.0174 30.4843C12.0158 30.8663 11.758 31.1335 11.3955 31.1304C11.0369 31.1273 10.7713 30.846 10.7744 30.4742C10.7776 30.1023 11.051 29.821 11.4065 29.8234C11.7643 29.8257 12.0198 30.1023 12.0174 30.4843Z" fill="#AEBAA8"/>
</g>
<defs>
<clipPath id="clip0_1579_1867">
<rect width="36.8102" height="40" fill="white" transform="translate(5 4)"/>
</clipPath>
</defs>
</svg>
