<svg width="56" height="56" viewBox="0 0 56 56" fill="none" xmlns="http://www.w3.org/2000/svg">
<path fill-rule="evenodd" clip-rule="evenodd" d="M35.6664 22.9997H37.3331H49C50.0983 22.9997 50.9999 22.0981 50.9999 20.9998V6.99992C50.9999 5.90177 50.0983 4.99999 48.9998 4.99999H34.9999C33.9016 4.99999 33 5.90158 33 6.99992V24.9995L34.333 23.9997L35.6664 22.9997ZM33 31.2496L37.3331 27.9997H49C52.8597 27.9997 55.9999 24.8595 55.9999 20.9998V6.99992C55.9999 3.14016 52.8595 0 48.9998 0H34.9999C31.1402 0 28 3.14016 28 6.99992V28.7496V28.7602V29.1662V29.1664V31.4996C28 32.9379 29.6469 33.7644 30.8 32.8996L32.6666 31.4996L32.9914 31.256L33 31.2496ZM41.5002 10.3785C38.6435 7.5785 35 9.43393 35 12.466C35 16.5477 40.689 18.8004 40.9311 18.8943C41.2944 19.0352 41.7059 19.0352 42.0689 18.8943C42.311 18.8004 48 16.5477 48 12.466C48.0003 9.43538 44.3585 7.5779 41.5002 10.3785ZM16.7998 32.8C21.56 32.8 25.1998 29.1602 25.1998 24.4C25.1998 19.6398 21.56 16 16.7998 16C12.0396 16 8.39978 19.6398 8.39978 24.4C8.39978 29.1602 12.0396 32.8 16.7998 32.8ZM16.7998 21.6C18.4799 21.6 19.5998 22.7199 19.5998 24.4C19.5998 26.0801 18.4799 27.2 16.7998 27.2C15.1197 27.2 13.9998 26.0801 13.9998 24.4C13.9998 22.7199 15.1197 21.6 16.7998 21.6ZM30.2398 39.8001C22.4 34.2001 11.4798 34.2001 3.6398 39.8001C1.4 41.4802 0 44.0001 0 46.52V55.2001H33.6V46.52C33.6 44.0001 32.2 41.4802 30.2398 39.8001ZM28 49.6001H5.60001V46.52C5.60001 45.6801 6.16017 44.8399 6.71991 44.2802C12.6 40.0802 20.9999 40.0802 26.8799 44.2802C27.7198 44.8403 27.9998 45.6802 27.9998 46.52L28 49.6001Z" fill="#00582E"/>
</svg>
