<svg xmlns="http://www.w3.org/2000/svg" xmlns:xlink="http://www.w3.org/1999/xlink" width="53" height="54" viewBox="0 0 53 54">
  <defs>
    <linearGradient id="linear-gradient" x1="0.145" y1="0.112" x2="0.922" y2="0.876" gradientUnits="objectBoundingBox">
      <stop offset="0" stop-color="#fde159"/>
      <stop offset="1" stop-color="#fe0817"/>
    </linearGradient>
  </defs>
  <g id="Group_665" data-name="Group 665" transform="translate(-271 -1380)">
    <ellipse id="Ellipse_24" data-name="Ellipse 24" cx="26.5" cy="27" rx="26.5" ry="27" transform="translate(271 1380)" fill="url(#linear-gradient)"/>
    <g id="Group_664" data-name="Group 664" transform="translate(207.151 205.152)">
      <path id="Path_718" data-name="Path 718" d="M348.945,306.644c.558-.563,1.122-1.12,1.67-1.693a1.065,1.065,0,0,0,.258-.457c.3-1.21.572-2.428.883-3.635a1.741,1.741,0,0,1,.4-.718c.542-.582,1.133-1.117,1.676-1.7a2.2,2.2,0,0,1,1.173-.7c.164-.035.323-.1.523-.16a2.523,2.523,0,0,1-.03-2.3,2.419,2.419,0,0,1,1.144-1.126,2.561,2.561,0,0,1,3.238.952c.1-.1.208-.2.308-.3q.93-.927,1.859-1.854c.39-.387.627-.389,1.013-.005.911.905,1.817,1.815,2.729,2.72.184.183.349.37.274.652s-.32.38-.59.438a1.372,1.372,0,0,0-1.1,1.593,1.387,1.387,0,0,0,1.473,1.141,1.368,1.368,0,0,0,1.249-1.079c.056-.268.117-.518.411-.61.31-.1.511.088.711.289q1.491,1.5,2.99,2.988c.405.405.4.651-.007,1.061-.876.876-1.745,1.759-2.638,2.617a1.016,1.016,0,0,1-.641.278c-.3,0-.386-.289-.451-.56a1.382,1.382,0,0,0-1.475-1.1,1.413,1.413,0,0,0-1.271,1.3,1.384,1.384,0,0,0,1.107,1.433c.256.062.486.145.566.423a.641.641,0,0,1-.259.657q-1.487,1.478-2.969,2.962c-.4.4-.642.4-1.037,0-.9-.9-1.8-1.8-2.794-2.8a4.715,4.715,0,0,1-.327.458,4.953,4.953,0,0,1-3.134,1.487,1.083,1.083,0,0,0-.551.263c-.524.488-1.016,1.009-1.53,1.507a.546.546,0,0,1-.839.006.532.532,0,0,1,.039-.74c.637-.648,1.276-1.3,1.937-1.92a1.166,1.166,0,0,1,.529-.185c.507-.116,1.029-.182,1.525-.332a3.964,3.964,0,0,0,1.685-1.3c-.261-.228-.533-.448-.783-.69-.315-.3-.338-.617-.09-.862s.554-.211.866.1q1.849,1.84,3.692,3.685a2.715,2.715,0,0,1,.209.258l2.218-2.21c-1.361-1.264-1.535-2.736-.421-3.858s2.58-.961,3.933.459c.042-.037.085-.073.124-.112l1.821-1.8-2.317-2.227a2.483,2.483,0,0,1-2.814,1.147,2.367,2.367,0,0,1-1.8-1.9,2.528,2.528,0,0,1,1.126-2.617l-1.937-1.926c-.028.026-.111.1-.188.176q-1.1,1.095-2.2,2.192a.61.61,0,0,1-.633.231c-.27-.077-.355-.286-.414-.53A1.369,1.369,0,0,0,357.589,295a1.408,1.408,0,0,0-1.262,1.307,1.373,1.373,0,0,0,1.15,1.428c.249.059.5.167.5.431a.922.922,0,0,1-.223.593c-.417.461-.874.885-1.284,1.374.125-.039.25-.074.373-.117q1.765-.626,3.53-1.254c.5-.177.746-.058.919.435a2.189,2.189,0,0,1-.931,2.892c-.829.532-1.718.97-2.59,1.434a.5.5,0,0,0-.3.433,4.139,4.139,0,0,1-1.606,3.035.54.54,0,0,1-.86-.177.473.473,0,0,1,.128-.617,3.36,3.36,0,0,0,1.288-2.734.834.834,0,0,1,.546-.768c.968-.5,1.923-1.022,2.872-1.556a.984.984,0,0,0,.508-1.19c-.125.037-.24.067-.351.106q-2.729.967-5.456,1.936c-.24.085-.494.122-.659-.091a.8.8,0,0,1-.144-.523.77.77,0,0,1,.258-.382c.727-.735,1.462-1.463,2.193-2.195a.935.935,0,0,0,.223-.307c-.632.239-1.353.209-1.861.773-.478.531-1.014,1.011-1.51,1.527a1.066,1.066,0,0,0-.26.458c-.308,1.243-.592,2.493-.9,3.735a1.285,1.285,0,0,1-.3.549c-.508.536-1.039,1.05-1.563,1.571-.419.417-.687.4-1.066-.052Z" transform="translate(-275.945 907.605)" fill="#fff"/>
      <path id="Path_719" data-name="Path 719" d="M429.842,225.638c.46.365.476.64.056,1.062-.522.523-1.037,1.053-1.573,1.56a1.292,1.292,0,0,1-.549.3c-1.256.313-2.518.6-3.776.907a.929.929,0,0,0-.4.226c-.507.489-.976,1.021-1.507,1.481a2.351,2.351,0,0,0-.659,1.484l1.9-1.9c.113-.112.224-.226.339-.336a.535.535,0,0,1,.685-.1.513.513,0,0,1,.233.648c-.187.618-.385,1.233-.579,1.849l-1.311,4.149a.822.822,0,0,0,1.04-.241,9.024,9.024,0,0,0,.764-1.164c.365-.666.7-1.349,1.031-2.032a.685.685,0,0,1,.63-.429,6.952,6.952,0,0,0,1.141-.18,2.759,2.759,0,0,0,1.6-1.025.539.539,0,0,1,.8-.154.553.553,0,0,1,.06.816,3.7,3.7,0,0,1-2.581,1.5,1.286,1.286,0,0,0-1.124.861,20.44,20.44,0,0,1-1.261,2.214,2.258,2.258,0,0,1-3.008.753c-.318-.13-.4-.391-.287-.766q.6-1.914,1.206-3.826c.04-.128.075-.257.094-.324l-6.189,6.176c.011.012.08.1.156.171q1.265,1.266,2.534,2.528a.618.618,0,0,1,.236.632c-.073.266-.275.357-.526.415a1.368,1.368,0,0,0-1.14,1.5,1.4,1.4,0,0,0,2.772.142c.063-.259.158-.525.442-.528a.963.963,0,0,1,.616.25c.827.792,1.628,1.611,2.467,2.45l1.746-1.754c.321-.322.645-.64.964-.964a.629.629,0,0,1,.654-.26c.285.082.362.3.424.559a1.361,1.361,0,0,0,1.439,1.1,1.387,1.387,0,0,0,.223-2.735,1.009,1.009,0,0,1-.527-.314c-.192-.261-.049-.507.165-.719q1.139-1.127,2.268-2.263c.055-.055.1-.115.174-.192l-1.553-1.547q-1.159-1.156-2.316-2.312a.541.541,0,0,1-.113-.71.488.488,0,0,1,.586-.235.837.837,0,0,1,.336.215c.25.246.485.507.721.757a3.837,3.837,0,0,0,1.627-2.916,1.59,1.59,0,0,1,.537-1.154c.515-.463.987-.973,1.479-1.462.42-.418.691-.4,1.064.055v.409c-.59.595-1.183,1.187-1.767,1.788a.636.636,0,0,0-.195.338,5.1,5.1,0,0,1-1.793,3.588,1.524,1.524,0,0,0-.115.125c.083.089.163.18.247.265q1.145,1.145,2.292,2.288c.39.392.389.641-.006,1.036-.713.714-1.429,1.426-2.165,2.159a2.483,2.483,0,0,1,1.213,2.11,2.417,2.417,0,0,1-.744,1.806,2.522,2.522,0,0,1-3.9-.5l-1.344,1.345c-.394.394-.784.791-1.183,1.179a.559.559,0,0,1-.892,0c-.672-.662-1.337-1.331-2-2-.079-.079-.162-.155-.263-.252a2.55,2.55,0,0,1-2.271,1.217,2.455,2.455,0,0,1-1.772-.825,2.53,2.53,0,0,1,.577-3.837c-.065-.074-.125-.15-.192-.217q-1.1-1.1-2.2-2.192c-.531-.529-.529-.691.012-1.23q1.931-1.927,3.857-3.858a1.255,1.255,0,0,0,.291-.482c.3-.928.571-1.864.873-2.791a1.452,1.452,0,0,1,.324-.542c.656-.677,1.322-1.346,2-2a1.415,1.415,0,0,1,.605-.339c1.19-.3,2.388-.558,3.577-.858a1.594,1.594,0,0,0,.66-.367c.557-.514,1.086-1.06,1.626-1.593Z" transform="translate(-326.125 958.362)" fill="#fff"/>
    </g>
  </g>
</svg>
