<svg width="62" height="50" viewBox="0 0 62 50" fill="none" xmlns="http://www.w3.org/2000/svg">
<g clip-path="url(#clip0_663_199)">
<rect width="62" height="50" fill="white"/>
<rect x="41.7646" y="19.8605" width="6.93983" height="18.0145" transform="rotate(-32.518 41.7646 19.8605)" fill="#FFEE05"/>
<rect x="15.2305" y="15.4591" width="6.93983" height="18.7176" transform="rotate(33.1247 15.2305 15.4591)" fill="#FFEE05"/>
<path d="M57.6812 29.9661L48.867 16.3347C48.2629 15.4053 47.0184 15.1372 46.0759 15.727L41.7504 18.4497C40.9227 18.974 40.5965 20.0107 40.9771 20.9043C40.7294 20.9103 40.4757 20.9043 40.2038 20.8984C39.4184 20.8448 38.6572 20.6243 37.9746 20.243C37.2073 19.8021 36.3314 19.5817 35.4433 19.6175C34.0901 19.7962 32.7972 20.249 31.6373 20.958C30.417 19.3017 28.3267 19.8141 26.466 20.2669C24.9617 20.6362 23.4151 21.0116 21.9894 20.6124C22.4244 19.7068 22.1102 18.6166 21.2524 18.0744L16.9268 15.3577C15.9844 14.7678 14.7338 15.0419 14.1358 15.9654L5.31552 29.5967C4.71743 30.5261 4.99533 31.7594 5.93172 32.3492L10.2573 35.0719C11.1997 35.6617 12.4502 35.3936 13.0483 34.4642L13.6947 33.4692C13.7914 33.5705 13.8941 33.6658 14.0029 33.7552C13.0785 34.7561 12.2146 35.906 12.3475 37.4133C12.3596 38.301 12.7704 39.1351 13.4712 39.6951C14.2022 40.1658 15.0903 40.3385 15.9481 40.1777C16.0267 40.982 16.3831 41.7326 16.9631 42.3046C17.7001 42.9301 18.6546 43.2638 19.6273 43.234C19.7843 43.943 20.1951 44.5685 20.7932 44.9915C21.7115 45.5337 22.811 45.6945 23.8501 45.4324C24.3153 46.7491 25.6142 47.5951 27.0218 47.4938H27.1849C28.0307 47.47 28.8764 46.8206 29.4987 46.2069C31.2929 47.4402 32.8395 48.0538 34.1203 48.0538C34.4948 48.0538 34.8694 48.0002 35.2198 47.881C36.2287 47.4997 37.014 46.6835 37.3463 45.6707C38.2585 46.0401 39.2855 46.0282 40.1917 45.6409C41.1402 45.0988 41.8168 44.1872 42.0585 43.1327C42.9526 43.2936 43.8709 43.1029 44.626 42.5965C45.2845 42.0603 45.7134 41.2918 45.8101 40.4577C47.1513 40.6841 48.5166 40.2968 49.5315 39.4091C49.5678 39.3734 49.604 39.3317 49.6342 39.29C50.2927 38.438 50.5706 37.3537 50.3894 36.2932C50.2263 35.6021 49.8638 34.9706 49.3442 34.4761C49.4288 34.4165 49.5074 34.351 49.5799 34.2795L49.9423 34.8395C50.5404 35.7689 51.791 36.037 52.7334 35.4472L57.065 32.7245C58.0014 32.1287 58.2793 30.9014 57.6812 29.972V29.9661ZM11.9669 33.7731C11.7495 34.1067 11.3024 34.202 10.9641 33.9935L6.63855 31.2708C6.30024 31.0563 6.19754 30.6155 6.41503 30.2759L15.2232 16.6505C15.4346 16.3169 15.8817 16.2156 16.226 16.4301C16.226 16.4301 16.226 16.4301 16.2321 16.4301L20.5637 19.1528C20.902 19.3672 20.9986 19.8081 20.7872 20.1477L11.973 33.7731H11.9669ZM14.2385 38.6644C13.8458 38.3188 13.6283 37.8184 13.6404 37.3001C13.5377 36.1026 14.4559 35.1434 15.4286 34.1186C15.6159 33.922 15.8152 33.7195 15.9965 33.5169C16.3892 33.0701 17.0114 32.8735 17.5974 33.0164C18.274 33.1773 18.8177 33.6778 19.0292 34.3272C18.7754 35.1195 18.0807 36.6447 16.2019 38.8491C15.5494 39.0457 14.8486 38.9802 14.2445 38.6644H14.2385ZM17.1987 39.6534C19.2769 37.2107 20.0199 35.483 20.2858 34.6131C21.0711 33.8029 22.2552 33.499 23.3426 33.8327C24.0495 34.1305 24.4724 34.8514 24.3817 35.6021L19.8145 41.9531C19.1077 42.0127 18.4009 41.8101 17.8451 41.3752C17.4101 40.9045 17.1806 40.2849 17.1926 39.6534H17.1987ZM21.5242 43.937C21.1436 43.6451 20.8959 43.2161 20.8355 42.7395L25.4027 36.3945C26.5022 36.2038 27.342 36.3707 27.7769 36.8711C28.23 37.3954 28.2481 38.3248 27.8373 39.427L25.1792 42.6084C24.563 43.3472 24.128 43.8715 23.9226 44.1098C22.8291 44.3362 22.0196 44.2766 21.5182 43.937H21.5242ZM27.1426 46.2188C26.176 46.3678 25.2577 45.772 25.004 44.8426C25.2034 44.6043 25.5598 44.1753 26.1881 43.4246C26.8164 42.674 27.6259 41.7029 28.6529 40.4696C29.6799 40.7615 30.2841 41.1905 30.429 41.7505C30.5499 42.2093 30.1995 43.2936 29.2933 44.4792C28.4415 45.5992 27.5655 46.195 27.1366 46.2129L27.1426 46.2188ZM48.6072 38.5095C47.7373 39.2006 46.5773 39.421 45.508 39.1112L37.1711 33.5586C36.8751 33.362 36.4703 33.4394 36.2709 33.7314C36.0716 34.0233 36.1501 34.4225 36.4461 34.6191L44.5656 40.0347C44.5414 40.6245 44.2817 41.1845 43.8407 41.5837C43.2305 41.9352 42.5055 42.0186 41.835 41.8101L35.401 37.6695C35.0989 37.4788 34.7002 37.5622 34.5069 37.8541C34.3136 38.1461 34.3982 38.5452 34.6942 38.7359L40.8442 42.6918C40.7052 43.4366 40.2582 44.086 39.6178 44.497C39.0499 44.7771 38.2585 44.6996 37.2738 44.2706L33.4799 41.6135C33.1899 41.405 32.7851 41.4705 32.5797 41.7565C32.3683 42.0424 32.4347 42.4416 32.7247 42.6442C32.7247 42.6442 32.7308 42.6442 32.7368 42.6501L36.1985 45.0749C36.0051 45.7899 35.4916 46.3737 34.809 46.6716C33.794 47.0172 32.2596 46.5167 30.3566 45.2298C30.7794 44.6698 32.0602 42.8229 31.6917 41.4348C31.4379 40.4636 30.6163 39.7547 29.257 39.3197C29.6316 37.9852 29.4685 36.8413 28.7798 36.0489C28.1092 35.2744 27.0218 34.9408 25.6625 35.0778C25.5719 33.9876 24.865 33.0462 23.832 32.653C22.509 32.2121 21.053 32.4326 19.9293 33.2488C19.4762 32.51 18.7392 31.9798 17.8874 31.7772C16.8422 31.533 15.7427 31.8726 15.0359 32.6709C14.9936 32.7186 14.9453 32.7722 14.897 32.8198C14.7218 32.6828 14.5647 32.522 14.4318 32.3492L21.2947 21.7384C23.1554 22.3997 25.0765 21.935 26.7801 21.512C28.7194 21.0354 29.8612 20.809 30.5559 21.661C26.8526 24.479 24.5086 27.9166 24.8107 30.1448C24.8771 30.8717 25.3544 31.4972 26.0491 31.7594C27.8253 32.4385 31.0392 30.9431 35.111 27.5651C35.1714 27.5174 35.7876 27.1242 38.7539 28.7924C40.6992 29.8886 42.9345 31.4615 44.7348 32.7245C45.8101 33.4812 46.7405 34.1305 47.3808 34.5238C48.4018 35.1612 48.9938 35.8404 49.1449 36.5434C49.2476 37.2405 49.0543 37.9495 48.6193 38.5035L48.6072 38.5095ZM48.2991 33.6122C48.2206 33.5586 48.136 33.505 48.0514 33.4514C47.4412 33.076 46.529 32.4385 45.4718 31.6938C40.1494 27.9524 35.9447 25.2058 34.2713 26.594C30.0484 30.1091 27.4507 30.9312 26.5143 30.5738C26.2606 30.4784 26.0914 30.2461 26.0914 29.978C25.9887 29.2273 26.4418 28.0358 27.2997 26.7787C28.526 25.0628 30.0364 23.5734 31.7702 22.358C35.2802 20.3622 36.1803 20.7911 37.4188 21.3929C38.2585 21.8516 39.1889 22.1197 40.1434 22.1793C40.675 22.2091 41.2067 22.1972 41.7383 22.1316L48.867 33.1535C48.7341 33.362 48.5347 33.5169 48.3051 33.6122H48.2991ZM56.3763 31.6462L52.0447 34.3689C51.7064 34.5833 51.2533 34.4821 51.0358 34.1484L42.2216 20.5171C42.0041 20.1834 42.1068 19.7366 42.4451 19.5221L46.7767 16.7994C47.115 16.5909 47.5681 16.6862 47.7856 17.0199L56.5998 30.6512C56.8173 30.9849 56.7146 31.4317 56.3763 31.6402V31.6462Z" fill="#AEBAA9" stroke="#AEBAA9" stroke-width="0.6"/>
<path d="M35.2302 12.7501C35.7103 13.2302 36.4917 13.2303 36.9717 12.7503L40.873 8.84896C41.353 8.36897 41.3529 7.5875 40.8728 7.1074C40.3927 6.62729 39.6113 6.6272 39.1313 7.10719L35.2356 11.0029C34.7556 11.4829 34.7557 12.2644 35.2358 12.7445L35.2302 12.7501Z" fill="#638161"/>
<path d="M33.2302 3.67312C33.2301 2.99213 32.683 2.44503 32.002 2.44495C31.321 2.44487 30.7741 2.99183 30.7741 3.67283L30.7748 9.18777C30.7748 9.53385 30.9144 9.82971 31.1433 10.0586C31.3722 10.2875 31.6792 10.4159 32.0141 10.4271C32.6951 10.4272 33.2421 9.88023 33.242 9.19923L33.2413 3.68429L33.2302 3.67312Z" fill="#638161"/>
<path d="M28.3044 11.007L24.4021 7.1048C23.922 6.6247 23.1406 6.62461 22.6606 7.1046C22.1806 7.58458 22.1807 8.36605 22.6608 8.84616L26.5574 12.7428C27.0375 13.2229 27.819 13.223 28.299 12.743C28.779 12.263 28.7789 11.4816 28.2988 11.0014L28.3044 11.007Z" fill="#638161"/>
</g>
<defs>
<clipPath id="clip0_663_199">
<rect width="62" height="50" fill="white"/>
</clipPath>
</defs>
</svg>
