<svg width="23" height="12" viewBox="0 0 23 12" fill="none" xmlns="http://www.w3.org/2000/svg">
<path d="M1 5.25C0.585786 5.25 0.25 5.58579 0.25 6C0.25 6.41421 0.585786 6.75 1 6.75V5.25ZM22.5303 6.53033C22.8232 6.23744 22.8232 5.76256 22.5303 5.46967L17.7574 0.696699C17.4645 0.403806 16.9896 0.403806 16.6967 0.696699C16.4038 0.989593 16.4038 1.46447 16.6967 1.75736L20.9393 6L16.6967 10.2426C16.4038 10.5355 16.4038 11.0104 16.6967 11.3033C16.9896 11.5962 17.4645 11.5962 17.7574 11.3033L22.5303 6.53033ZM1 6.75H22V5.25H1V6.75Z" fill="#666666"/>
</svg>
