<svg width="62" height="50" viewBox="0 0 62 50" fill="none" xmlns="http://www.w3.org/2000/svg">
<rect width="62" height="50" fill="white"/>
<path d="M22.8621 8.09948L27 13.1898H19.2414L17.6897 14.2078V41.6956C13.1379 42.9172 12 40.1685 12 38.6414V12.1717C12 8.09948 14.069 7.76012 15.1034 8.09948H22.8621Z" fill="#FFEE05"/>
<path d="M47 12.1429H28.88L23.9467 7.37286C23.6933 7.12857 23.36 7 23 7H15C12.7867 7 11 8.72286 11 10.8571V39.1429C11 41.2771 12.7867 43 15 43H47C49.2133 43 51 41.2771 51 39.1429V16C51 13.8657 49.2133 12.1429 47 12.1429ZM16.3333 14.7143V40.4286H15C14.2667 40.4286 13.6667 39.85 13.6667 39.1429V10.8571C13.6667 10.15 14.2667 9.57143 15 9.57143H22.4533L25.12 12.1429H19C17.5333 12.1429 16.3333 13.3 16.3333 14.7143ZM48.3333 39.1429C48.3333 39.85 47.7333 40.4286 47 40.4286H19V14.7143H47C47.7333 14.7143 48.3333 15.2929 48.3333 16V39.1429Z" fill="#AEBAA9"/>
<path d="M36.3648 26.1467C38.1469 24.4019 38.0849 21.6351 36.2229 19.9651C34.361 18.2951 31.4085 18.3532 29.6263 20.098C27.8974 21.7847 27.8974 24.4518 29.6263 26.1384C27.392 27.285 26 29.4868 26 31.8714V32.9681C26 34.7794 27.5693 36.25 29.5022 36.25H36.4978C38.4307 36.25 40 34.7794 40 32.9681V31.8714C40 29.4868 38.608 27.285 36.3737 26.1384L36.3648 26.1467ZM32.9956 20.9538C34.2812 20.9538 35.3274 21.9342 35.3274 23.139C35.3274 24.3437 34.2812 25.3242 32.9956 25.3242C31.7099 25.3242 30.6637 24.3437 30.6637 23.139C30.6637 21.9342 31.7099 20.9538 32.9956 20.9538ZM37.6593 32.9764C37.6593 33.5829 37.1362 34.0731 36.4889 34.0731H29.4933C28.8461 34.0731 28.323 33.5829 28.323 32.9764V31.8797C28.323 29.4619 30.4155 27.5093 32.9867 27.5093C35.5579 27.5093 37.6504 29.4702 37.6504 31.8797V32.9764H37.6593Z" fill="#638161"/>
</svg>
