<svg width="62" height="50" viewBox="0 0 62 50" fill="none" xmlns="http://www.w3.org/2000/svg">
<rect width="62" height="50" fill="white"/>
<path d="M20.0377 3.39779L20.0377 3.39694C20.0297 2.68383 20.5948 2.09609 21.3078 2.0753L21.314 2.07736L21.3269 2.07712C22.0618 2.06301 22.666 2.6615 22.6579 3.3991V3.39992V9.37033V9.44533H22.7329H30.1557H30.2307V9.37033L30.2307 3.39992L30.2307 3.39887C30.2207 2.67785 30.8025 2.08519 31.5236 2.07713L31.5238 2.07712C32.2562 2.06706 32.8505 2.66516 32.8424 3.39909V3.39992V9.37033V9.44533H32.9174H40.3424H40.4174V9.37033L40.4174 3.39992L40.4173 3.39908C40.4093 2.67756 40.9873 2.08518 41.7081 2.07713L41.7083 2.07712C42.4409 2.06705 43.0371 2.66531 43.0291 3.39909V3.39992V9.3682V9.4432H43.1041L46.2957 9.4432C46.2958 9.4432 46.2958 9.4432 46.2959 9.4432C47.0125 9.44531 47.5944 10.0276 47.5964 10.7449V13.9387V14.0137H47.6714H53.6186C54.0587 14.0137 54.3833 14.1782 54.5986 14.4207C54.8151 14.6645 54.925 14.9918 54.925 15.3216C54.925 15.6513 54.8151 15.9786 54.5986 16.2225C54.3833 16.465 54.0587 16.6294 53.6186 16.6294H47.6714H47.5964V16.7044V24.1344V24.2094H47.6714H53.6186C54.0587 24.2094 54.3833 24.3739 54.5986 24.6164C54.8151 24.8603 54.925 25.1876 54.925 25.5173C54.925 25.8471 54.8151 26.1744 54.5986 26.4182C54.3833 26.6607 54.0587 26.8252 53.6186 26.8252H47.6714H47.5964V26.9002V34.3302V34.4052H47.6714H53.6186C54.0587 34.4052 54.3833 34.5696 54.5986 34.8121C54.8151 35.056 54.925 35.3833 54.925 35.7131C54.925 36.0428 54.8151 36.3701 54.5986 36.614C54.3833 36.8565 54.0587 37.0209 53.6186 37.0209H47.6714H47.5964V37.0959V40.2897C47.5944 41.0071 47.0124 41.5894 46.2957 41.5914H43.1041H43.0291V41.6664V47.6177C43.0291 48.0581 42.8647 48.3829 42.6224 48.5984C42.3787 48.8151 42.0516 48.925 41.7221 48.925C41.3927 48.925 41.0656 48.8151 40.8219 48.5984C40.5796 48.3829 40.4152 48.0581 40.4152 47.6177V41.6664V41.5914H40.3402H32.9153H32.8403V41.6664V47.6177C32.8403 48.0581 32.6759 48.3829 32.4336 48.5984C32.1899 48.8151 31.8629 48.925 31.5334 48.925C31.2039 48.925 30.8768 48.8151 30.6332 48.5984C30.3908 48.3829 30.2265 48.0581 30.2265 47.6177V41.6664V41.5914H30.1515H22.7287H22.6537V41.6664V47.6177C22.6537 48.0581 22.4892 48.3829 22.2467 48.5983C22.0028 48.815 21.6755 48.925 21.3457 48.925C21.0159 48.925 20.6886 48.815 20.4447 48.5983C20.2022 48.3829 20.0377 48.0581 20.0377 47.6177V41.6664V41.5914H19.9627H16.7711C16.0544 41.5894 15.4724 41.0072 15.4703 40.2899C15.4703 40.2898 15.4703 40.2898 15.4703 40.2897L15.4703 37.0959V37.0209H15.3953H9.45029C9.01021 37.0209 8.68565 36.8565 8.47033 36.614C8.25379 36.3701 8.1439 36.0428 8.1439 35.7131C8.1439 35.3833 8.25379 35.056 8.47033 34.8121C8.68565 34.5696 9.01021 34.4052 9.45029 34.4052H15.3953H15.4703V34.3302V26.9002V26.8252H15.3953H9.45029C9.01021 26.8252 8.68565 26.6607 8.47033 26.4182C8.25379 26.1744 8.1439 25.8471 8.1439 25.5173C8.1439 25.1876 8.25379 24.8603 8.47033 24.6164C8.68565 24.3739 9.01021 24.2094 9.45029 24.2094H15.3953H15.4703V24.1344V16.7044V16.6294H15.3953H9.45029V16.6294L9.44674 16.6295C9.00661 16.6504 8.67402 16.5015 8.4469 16.2693C8.2185 16.0358 8.09274 15.7139 8.07674 15.3843C8.06075 15.0546 8.15476 14.7222 8.35948 14.4679C8.56276 14.2155 8.87879 14.0355 9.31798 14.0137H9.31815H9.3184H9.31865H9.3189H9.31915H9.3194H9.31965H9.3199H9.32015H9.3204H9.32065H9.32091H9.32116H9.32141H9.32166H9.32191H9.32216H9.32242H9.32267H9.32292H9.32317H9.32342H9.32368H9.32393H9.32418H9.32443H9.32469H9.32494H9.32519H9.32544H9.3257H9.32595H9.3262H9.32646H9.32671H9.32696H9.32722H9.32747H9.32772H9.32798H9.32823H9.32849H9.32874H9.32899H9.32925H9.3295H9.32976H9.33001H9.33027H9.33052H9.33078H9.33103H9.33128H9.33154H9.33179H9.33205H9.3323H9.33256H9.33282H9.33307H9.33333H9.33358H9.33384H9.33409H9.33435H9.3346H9.33486H9.33512H9.33537H9.33563H9.33589H9.33614H9.3364H9.33665H9.33691H9.33717H9.33742H9.33768H9.33794H9.33819H9.33845H9.33871H9.33897H9.33922H9.33948H9.33974H9.33999H9.34025H9.34051H9.34077H9.34102H9.34128H9.34154H9.3418H9.34206H9.34231H9.34257H9.34283H9.34309H9.34335H9.34361H9.34386H9.34412H9.34438H9.34464H9.3449H9.34516H9.34542H9.34567H9.34593H9.34619H9.34645H9.34671H9.34697H9.34723H9.34749H9.34775H9.34801H9.34827H9.34853H9.34879H9.34905H9.34931H9.34957H9.34983H9.35009H9.35035H9.35061H9.35087H9.35113H9.35139H9.35165H9.35191H9.35217H9.35243H9.35269H9.35295H9.35321H9.35347H9.35373H9.35399H9.35425H9.35451H9.35477H9.35504H9.3553H9.35556H9.35582H9.35608H9.35634H9.3566H9.35686H9.35713H9.35739H9.35765H9.35791H9.35817H9.35843H9.3587H9.35896H9.35922H9.35948H9.35974H9.36H9.36027H9.36053H9.36079H9.36105H9.36132H9.36158H9.36184H9.3621H9.36236H9.36263H9.36289H9.36315H9.36341H9.36368H9.36394H9.3642H9.36447H9.36473H9.36499H9.36525H9.36552H9.36578H9.36604H9.36631H9.36657H9.36683H9.3671H9.36736H9.36762H9.36789H9.36815H9.36841H9.36868H9.36894H9.3692H9.36947H9.36973H9.36999H9.37026H9.37052H9.37078H9.37105H9.37131H9.37158H9.37184H9.3721H9.37237H9.37263H9.3729H9.37316H9.37342H9.37369H9.37395H9.37422H9.37448H9.37475H9.37501H9.37527H9.37554H9.3758H9.37607H9.37633H9.3766H9.37686H9.37713H9.37739H9.37765H9.37792H9.37818H9.37845H9.37871H9.37898H9.37924H9.37951H9.37977H9.38004H9.3803H9.38057H9.38083H9.3811H9.38136H9.38163H9.38189H9.38216H9.38242H9.38269H9.38295H9.38322H9.38348H9.38375H9.38401H9.38428H9.38454H9.38481H9.38508H9.38534H9.38561H9.38587H9.38614H9.3864H9.38667H9.38693H9.3872H9.38746H9.38773H9.388H9.38826H9.38853H9.38879H9.38906H9.38932H9.38959H9.38985H9.39012H9.39039H9.39065H9.39092H9.39118H9.39145H9.39172H9.39198H9.39225H9.39251H9.39278H9.39304H9.39331H9.39358H9.39384H9.39411H9.39437H9.39464H9.39491H9.39517H9.39544H9.3957H9.39597H9.39624H9.3965H9.39677H9.39703H9.3973H9.39757H9.39783H9.3981H9.39836H9.39863H9.3989H9.39916H9.39943H9.39969H9.39996H9.40023H9.40049H9.40076H9.40102H9.40129H9.40156H9.40182H9.40209H9.40236H9.40262H9.40289H9.40315H9.40342H9.40369H9.40395H9.40422H9.40448H9.40475H9.40502H9.40528H9.40555H9.40582H9.40608H9.40635H9.40661H9.40688H9.40715H9.40741H9.40768H9.40794H9.40821H9.40848H9.40874H9.40901H9.40928H9.40954H9.40981H9.41007H9.41034H9.41061H9.41087H9.41114H9.4114H9.41167H9.41194H9.4122H9.41247H9.41273H9.413H9.41327H9.41353H9.4138H9.41407H9.41433H9.4146H9.41486H9.41513H9.41539H9.41566H9.41593H9.41619H9.41646H9.41672H9.41699H9.41726H9.41752H9.41779H9.41805H9.41832H9.41859H9.41885H9.41912H9.41938H9.41965H9.41991H9.42018H9.42045H9.42071H9.42098H9.42124H9.42151H9.42177H9.42204H9.4223H9.42257H9.42284H9.4231H9.42337H9.42363H9.4239H9.42416H9.42443H9.42469H9.42496H9.42523H9.42549H9.42576H9.42602H9.42629H9.42655H9.42682H9.42708H9.42735H9.42761H9.42788H9.42814H9.42841H9.42867H9.42894H9.4292H9.42947H9.42973H9.43H9.43026H9.43053H9.43079H9.43106H9.43132H9.43159H9.43185H9.43212H9.43238H9.43265H9.43291H9.43317H9.43344H9.4337H9.43397H9.43423H9.4345H9.43476H9.43503H9.43529H9.43555H9.43582H9.43608H9.43635H9.43661H9.43688H9.43714H9.4374H9.43767H9.43793H9.4382H9.43846H9.43872H9.43899H9.43925H9.43951H9.43978H9.44004H9.44031H9.44057H9.44083H9.4411H9.44136H9.44162H9.44189H9.44215H9.44241H9.44268H9.44294H9.4432H9.44347H9.44373H9.44399H9.44426H9.44452H9.44478H9.44505H9.44531H9.44557H9.44583H9.4461H9.44636H9.44662H9.44688H9.44715H9.44741H9.44767H9.44793H9.4482H9.44846H9.44872H9.44898H9.44925H9.44951H9.44977H9.45003H9.45029H15.3953H15.4703V13.9387L15.4703 10.7449C15.4703 10.7448 15.4703 10.7448 15.4703 10.7447C15.4724 10.0275 16.0543 9.44531 16.7709 9.4432C16.771 9.4432 16.771 9.4432 16.7711 9.4432L19.9627 9.4432H20.0377V9.3682L20.0377 3.39779ZM18.1571 12.0589H18.0821V12.1339V38.9028V38.9778H18.1571H44.9076H44.9826V38.9028V12.1339V12.0589H44.9076H18.1571Z" fill="#AEBAA9" stroke="white" stroke-width="0.15"/>
<path d="M32 18L26.5 20.7273H26L32 24L38 21.2727L32 18Z" fill="#FFEE05"/>
<path d="M24.074 29.637C24.074 29.8445 24.1849 30.0357 24.3646 30.123L31.7622 33.9454C31.7834 33.9563 31.8045 33.9618 31.8256 33.9672C31.8415 33.9727 31.852 33.9782 31.8679 33.9836C31.9102 33.9945 31.9577 34 32 34C32.074 34 32.148 33.9782 32.2114 33.9509C32.2166 33.9454 32.2272 33.9509 32.2325 33.9454L39.6301 30.123C39.8151 30.0357 39.926 29.8445 39.926 29.637V21.1732C39.9736 21.0913 40 20.9985 40 20.9002C40 20.6818 39.8732 20.4852 39.683 20.3978L32.2114 17.045C32.0793 16.985 31.926 16.985 31.7886 17.045L24.317 20.3978C24.1215 20.4852 24 20.6818 24 20.9002C24 20.9985 24.0264 21.0913 24.074 21.1732V29.637ZM38.8692 29.2985L32.5284 32.5748V24.6133L38.8692 21.7684V29.2985ZM32 18.1426L38.1453 20.9002L32.0423 23.6414C32.0264 23.6414 32.0159 23.6304 32 23.6304C31.9841 23.6304 31.9736 23.6359 31.9577 23.6414L25.8547 20.9002L32 18.1426ZM25.1308 21.7684L31.4716 24.6133V32.5748L25.1308 29.2985V21.7684Z" fill="#638161" stroke="#638161"/>
</svg>
