<svg width="62" height="50" viewBox="0 0 62 50" fill="none" xmlns="http://www.w3.org/2000/svg">
<rect width="62" height="50" fill="white"/>
<path d="M9.93652 35.0213H52.0642V37.5106C52.0642 40.2721 49.8256 42.5106 47.0642 42.5106H14.9365C12.1751 42.5106 9.93652 40.2721 9.93652 37.5106V35.0213Z" fill="#FFEE05"/>
<path d="M51.6217 34.4315H50.9394V9.4685C50.9348 7.55757 49.3952 6 47.5006 6H14.4994C12.6048 6 11.0652 7.55292 11.0652 9.46385V34.4268H10.3737C9.6131 34.4268 9 35.0499 9 35.817V38.5928C9 41.2709 11.1574 43.4468 13.8126 43.4468H48.1874C50.8426 43.4468 53 41.2709 53 38.5928V35.817C53 35.0499 52.3869 34.4315 51.6263 34.4315H51.6217ZM35.4461 35.8217L34.7131 37.979H27.273L26.5401 35.8217H35.4461ZM12.4296 9.4685C12.4296 8.32008 13.3516 7.39019 14.4902 7.39019H47.4914C48.63 7.39019 49.5519 8.32008 49.5519 9.4685V34.4315H12.4296V9.4685ZM51.6217 38.5928C51.6217 40.5037 50.0774 42.0566 48.1874 42.0566H13.808C11.9134 42.0566 10.3737 40.5037 10.3737 38.5928V35.817H25.0972L25.9869 38.4254C26.1759 38.988 26.7014 39.3646 27.2869 39.3646H34.727C35.3124 39.3646 35.8379 38.9926 36.0269 38.4254L36.9166 35.817H51.6401V38.5881H51.6355L51.6217 38.5928Z" fill="#AEBAA9" stroke="#AEBAA9" stroke-width="0.75"/>
<path d="M41.7659 38.7659C41.7659 40.0142 39.8936 40.0142 39.8936 38.7659C39.8936 37.5177 41.7659 37.5177 41.7659 38.7659Z" fill="#AEBAA9"/>
<path d="M43.6383 38.7659C43.6383 40.0142 42.7021 40.0142 42.7021 38.7659C42.7021 37.5177 43.6383 37.5177 43.6383 38.7659Z" fill="#AEBAA9"/>
<path d="M46.4469 38.7659C46.4469 40.0142 45.5107 40.0142 45.5107 38.7659C45.5107 37.5177 46.4469 37.5177 46.4469 38.7659Z" fill="#AEBAA9"/>
<path d="M36.4653 16.1701V13.288C36.4653 12.6697 36.1759 12.0997 35.6732 11.7556C35.1654 11.4061 34.5256 11.3469 33.9569 11.6104L26.0611 15.412C26.0307 15.4281 26.0002 15.4496 25.9697 15.4765H22.6997C20.562 15.4765 18.8203 17.3262 18.8203 19.5899C18.8203 20.6922 19.2265 21.7246 19.9577 22.4989C20.3284 22.8914 20.7549 23.1925 21.217 23.3968V28.3275C21.217 29.532 22.1411 30.5106 23.2785 30.5106H23.6238C24.7612 30.5106 25.6854 29.532 25.6854 28.3275V23.7087H26.0256C26.0256 23.7087 26.051 23.7248 26.0611 23.7356L33.9569 27.4027C34.1854 27.5102 34.4342 27.564 34.6831 27.564C35.0283 27.564 35.3685 27.4565 35.6681 27.2575C36.1607 26.9134 36.4602 26.3434 36.4602 25.7251V22.843C37.882 22.4774 38.9432 21.1331 38.9432 19.5092C38.9432 17.8854 37.882 16.5304 36.4552 16.1701H36.4653ZM20.3436 19.5791C20.3436 18.1973 21.4049 17.0681 22.7048 17.0681H25.6194V22.0848H22.7048C22.0802 22.0848 21.4912 21.8267 21.0342 21.3536C20.5874 20.8804 20.3436 20.2567 20.3436 19.5791ZM24.1925 28.3168C24.1925 28.634 23.9488 28.8921 23.6492 28.8921H23.3039C23.0043 28.8921 22.7606 28.634 22.7606 28.3168V23.6979H24.1976V28.3168H24.1925ZM34.9471 25.7089C34.9471 25.8057 34.8912 25.8649 34.8455 25.8971C34.81 25.924 34.7084 25.9778 34.5764 25.924L27.1376 22.4666V16.6541L34.5764 13.0676C34.7084 13.0084 34.8049 13.0676 34.8455 13.0945C34.8912 13.1267 34.9471 13.1859 34.9471 13.2827V25.7089ZM36.4653 21.1277V17.8531C37.034 18.1542 37.4352 18.7726 37.4352 19.4931C37.4352 20.2136 37.0442 20.8374 36.4653 21.1277Z" fill="#638161" stroke="#638161" stroke-width="0.3"/>
<path d="M42.5652 18.8711L40.6158 18.8605C40.2757 18.8605 40.002 19.0963 40.002 19.3813C40.002 19.6663 40.2798 19.9091 40.6158 19.9091L42.5652 19.9196C42.9053 19.9196 43.1791 19.6839 43.1791 19.3989C43.1874 19.1068 42.9095 18.8711 42.5652 18.8711Z" fill="#638161"/>
<path d="M41.3102 23.3147C41.0038 23.0167 40.5052 23.022 40.2144 23.3467C39.9236 23.6607 39.9288 24.1717 40.2456 24.4698L41.8762 26.056C42.0268 26.1997 42.2138 26.2743 42.4111 26.2743C42.6085 26.2743 42.8214 26.1944 42.9668 26.0241C43.2576 25.71 43.2524 25.199 42.9356 24.901L41.305 23.3094L41.3102 23.3147Z" fill="#638161"/>
<path d="M40.7721 16.7423C40.9592 16.7423 41.1567 16.6678 41.3074 16.5241L42.9392 14.9379C43.2458 14.6398 43.2614 14.1288 42.9704 13.8148C42.6794 13.4901 42.1805 13.4847 41.8738 13.7828L40.242 15.369C39.9354 15.6671 39.9198 16.1781 40.2108 16.4922C40.3615 16.6572 40.5642 16.7423 40.7669 16.7423H40.7721Z" fill="#638161"/>
</svg>
