<svg width="56" height="71" viewBox="0 0 56 71" fill="none" xmlns="http://www.w3.org/2000/svg">
<path fill-rule="evenodd" clip-rule="evenodd" d="M30.2674 10.0772V0H25.2288V10.0772H30.2674ZM11.1565 17.6351L3.56282 10.0414L0 13.6042L7.5937 21.1979L11.1565 17.6351ZM48.4063 21.1979L56 13.6042L52.4372 10.0414L44.8435 17.6351L48.4063 21.1979ZM9.01042 29.4051C10.7034 21.7866 17.7574 13.6041 28.4795 13.6041L28.4793 13.6038C39.4835 13.6038 48.2305 22.3508 48.2305 33.355C48.2305 39.2806 45.6912 44.6415 41.1765 48.5916C38.3549 50.8492 36.9441 53.9526 36.9441 57.3387V61.5711H20.0146V57.3391C20.0146 53.953 18.3215 50.8491 15.4999 48.3098C9.85674 43.5131 7.59962 36.4591 9.01042 29.4051ZM31.301 55.9281C31.8656 51.1314 33.8409 46.899 37.5088 44.0774H37.5089C40.6122 41.5378 42.5875 37.5877 42.5875 33.3553C42.5875 25.455 36.3798 19.2473 28.4795 19.2473C21.1432 19.2473 15.7823 25.1728 14.6537 30.5337C13.5252 35.6126 15.2182 40.6912 19.1684 44.0774C23.1185 47.181 25.3756 51.4134 25.6579 55.9281H31.301ZM34.1226 64.3934H22.8362V70.0366H34.1226V64.3934ZM28.1573 30.2149L23.6393 25.697L19.6863 29.65L25.3336 35.2973V48.2861H30.981V35.2973L36.6283 29.65L32.6752 25.697L28.1573 30.2149Z" fill="#00582E"/>
</svg>
