<svg width="47" height="47" viewBox="0 0 47 47" fill="none" xmlns="http://www.w3.org/2000/svg">
<g clip-path="url(#clip0_1598_939)">
<path d="M15.4415 6.21665C25.1429 1.75615 36.6217 6.0047 41.0822 15.7012C42.243 18.2205 42.8452 20.9613 42.85 23.7359H41.7999L43.5147 27.1511L45.2199 23.7359H44.1698C44.1554 12.3342 34.902 3.10971 23.5003 3.12416C20.5282 3.12416 17.5899 3.77445 14.8876 5.02204C14.56 5.17619 14.4155 5.57118 14.5696 5.89873C14.7238 6.22628 15.1091 6.36597 15.4415 6.21665Z" fill="#AEBAA8" stroke="#AEBAA8" stroke-width="0.877756" stroke-miterlimit="10"/>
<path d="M7.25278 8.36018C9.15066 8.36018 10.6921 6.81875 10.6921 4.92087C10.6921 3.02299 9.15066 1.48157 7.25278 1.48157C5.3549 1.48157 3.81348 3.02299 3.81348 4.92087C3.81348 6.81875 5.3549 8.36018 7.25278 8.36018ZM5.6391 3.30238C6.53024 2.41124 7.98014 2.41124 8.87128 3.30238C9.76242 4.19351 9.76242 5.64342 8.87128 6.53455C7.98014 7.42569 6.53024 7.42569 5.6391 6.53455C4.74797 5.64342 4.74797 4.19351 5.6391 3.30238Z" fill="#AEBAA8" stroke="#AEBAA8" stroke-width="0.877756" stroke-miterlimit="10"/>
<path d="M38.891 28.447C36.9931 28.447 35.4517 29.9884 35.4517 31.8863C35.4517 33.7842 36.9931 35.3256 38.891 35.3256C40.7889 35.3256 42.3303 33.7842 42.3303 31.8863C42.3303 29.9884 40.7889 28.447 38.891 28.447ZM40.5095 33.5048C39.6183 34.396 38.1684 34.396 37.2773 33.5048C36.3861 32.6137 36.3861 31.1638 37.2773 30.2726C38.1684 29.3815 39.6183 29.3815 40.5095 30.2726C41.4006 31.1638 41.4006 32.6137 40.5095 33.5048Z" fill="#AEBAA8" stroke="#AEBAA8" stroke-width="0.877756" stroke-miterlimit="10"/>
<path d="M23.5242 19.0106C20.8893 19.0106 18.7554 21.1445 18.7554 23.7794C18.7554 26.4143 20.8893 28.5482 23.5242 28.5482C26.159 28.5482 28.2929 26.4143 28.2929 23.7794C28.2929 21.1445 26.159 19.0106 23.5242 19.0106ZM26.0771 26.3372C24.6658 27.7486 22.3825 27.7486 20.9712 26.3372C19.5598 24.9258 19.5598 22.6378 20.9712 21.2264C22.3825 19.8151 24.6706 19.8151 26.082 21.2264C27.4933 22.6378 27.4933 24.9258 26.082 26.3372H26.0771Z" fill="#AEBAA8"/>
<path d="M33.8471 30.2629L34.2807 29.5067C34.2807 29.5067 34.2903 29.4874 34.2951 29.4826C35.0466 28.1868 34.6034 26.525 33.3076 25.7735L32.0552 25.051C32.1805 24.2128 32.1805 23.3554 32.0552 22.5173L33.3125 21.7899C34.6082 21.0385 35.0514 19.3814 34.3048 18.0857L33.8664 17.3294C33.8664 17.3294 33.8568 17.3101 33.852 17.3053C33.1053 16.0047 31.4435 15.5568 30.1429 16.3082L28.8905 17.0308C28.2258 16.5009 27.4888 16.0722 26.6988 15.7639V14.3188C26.6988 12.8207 25.4801 11.6069 23.982 11.6021H23.0764C21.5784 11.6021 20.3645 12.8159 20.3597 14.314V15.7639C19.5697 16.077 18.8327 16.5057 18.1679 17.0308L16.9107 16.3082C15.615 15.5616 13.9579 16.0047 13.2065 17.3005L12.7537 18.0905C12.0071 19.3863 12.4502 21.0433 13.746 21.7947L15.0032 22.5173C14.878 23.3602 14.878 24.2128 15.0032 25.0558L13.7797 25.7639C12.4743 26.4961 12.0071 28.1435 12.7344 29.4489L13.2065 30.2726C13.9579 31.5683 15.615 32.0115 16.9107 31.2649L18.1679 30.5375C18.8327 31.0674 19.5697 31.4961 20.3597 31.8092V33.2591C20.3597 34.7572 21.5784 35.971 23.0764 35.9758H23.982C25.4801 35.9758 26.694 34.762 26.6988 33.2639V31.814C27.4888 31.5009 28.2306 31.0722 28.8905 30.5423L30.1477 31.2649C31.4435 32.0115 33.1005 31.5683 33.852 30.2726L33.8471 30.2629ZM32.8548 29.6897C32.4213 30.4363 31.4676 30.6916 30.7209 30.2629L29.1169 29.3381C28.9049 29.2128 28.6352 29.2417 28.4473 29.4007C28.0812 29.7234 27.6814 30.0076 27.2575 30.2533C26.8481 30.4893 26.4146 30.6868 25.9618 30.8458C25.7113 30.9132 25.5379 31.1396 25.5379 31.3997V33.2494C25.5379 34.1117 24.8394 34.8101 23.9772 34.8101H23.0716C22.2094 34.8101 21.5109 34.1117 21.5109 33.2494V31.3997C21.5109 31.1396 21.3375 30.9132 21.087 30.8458C20.639 30.6916 20.2055 30.4942 19.7913 30.2533C19.3674 30.0076 18.9676 29.7234 18.6015 29.4007C18.4136 29.2369 18.1439 29.2128 17.9319 29.3381L16.3279 30.2629C15.5812 30.6916 14.6275 30.4363 14.194 29.6897L13.7412 28.9046C13.7412 28.9046 13.7315 28.8901 13.7315 28.8853C13.3125 28.129 13.587 27.1753 14.3481 26.7562L15.8799 25.8747C16.1207 25.7639 16.2508 25.499 16.2026 25.2437C16.0148 24.2803 16.0148 23.2928 16.2026 22.3342C16.2508 22.0741 16.1207 21.814 15.8799 21.7032L14.3192 20.8024C13.5726 20.3689 13.3173 19.4152 13.746 18.6685L14.1988 17.8834C14.6323 17.1367 15.5861 16.8814 16.3327 17.3101L17.9319 18.235C18.1487 18.3602 18.4184 18.3313 18.6015 18.1676C19.3288 17.5317 20.1718 17.0404 21.087 16.7273C21.3375 16.6599 21.5109 16.4335 21.5109 16.1733V14.3236C21.5109 13.4614 22.2094 12.7629 23.0716 12.7629H23.9772C24.8394 12.7629 25.5379 13.4662 25.5379 14.3236V16.1733C25.5379 16.4335 25.7113 16.6599 25.9618 16.7273C26.4098 16.8814 26.8433 17.0789 27.2575 17.3198C27.6814 17.5654 28.0764 17.8496 28.4473 18.1724C28.64 18.341 28.9194 18.3602 29.1362 18.2254L30.7161 17.315C31.4627 16.8863 32.4165 17.1416 32.85 17.8882L33.3221 18.7022C33.7171 19.4344 33.4714 20.3496 32.7633 20.788C32.2527 21.0722 31.6602 21.4431 31.1593 21.7177C30.9281 21.8333 30.8028 22.0886 30.851 22.3439C31.0389 23.3073 31.0389 24.2947 30.851 25.2533C30.8028 25.5134 30.9329 25.7735 31.1737 25.8843L32.7344 26.7851C33.4762 27.2186 33.7315 28.1676 33.3076 28.919L32.8548 29.7042V29.6897Z" fill="#618260" stroke="#618260" stroke-width="0.438878" stroke-miterlimit="10"/>
<path d="M7.25282 17.8689C9.30484 17.8689 11.2027 17.4161 12.6141 15.7542C12.8838 15.4363 13.0283 15.0269 13.0235 14.6078V13.5866C13.0332 12.4113 12.6334 11.2648 11.8964 10.3496C11.2124 9.48256 10.1767 8.96714 9.06881 8.94788H5.43683C4.33374 8.96714 3.29328 9.48256 2.60927 10.3496C1.86746 11.2648 1.47247 12.4113 1.48211 13.5866V14.6078C1.47729 15.0269 1.6218 15.4315 1.89155 15.7542C3.30773 17.4113 5.19598 17.8689 7.25282 17.8689ZM2.63818 13.5914C2.62372 12.681 2.92719 11.7995 3.49559 11.0866C3.96284 10.4845 4.67575 10.1232 5.44164 10.1039H9.07363C9.83471 10.1232 10.5476 10.4845 11.0149 11.0866C11.5833 11.7947 11.8867 12.681 11.8723 13.5866V14.6078C11.8819 14.7523 11.8337 14.892 11.7422 15.0028C10.5669 16.3804 8.97729 16.708 7.25282 16.708C5.52835 16.708 3.93875 16.3804 2.76823 15.0028C2.67671 14.892 2.62854 14.7523 2.63818 14.6078V13.5866V13.5914Z" fill="#AEBAA8" stroke="#AEBAA8" stroke-width="0.877756" stroke-miterlimit="10"/>
<path d="M40.7023 35.9181H37.0703C35.9673 35.9374 34.9268 36.4528 34.2428 37.3199C33.501 38.2351 33.1012 39.3815 33.1156 40.5569V41.5733C33.1108 41.9923 33.2553 42.397 33.5251 42.7197C34.9364 44.3767 36.8343 44.8295 38.8863 44.8295C40.9384 44.8295 42.8362 44.3767 44.2476 42.7149C44.5173 42.3921 44.6619 41.9875 44.657 41.5684V40.5521C44.6667 39.3767 44.2717 38.2303 43.5299 37.3151C42.8459 36.448 41.8054 35.9326 40.7023 35.9133V35.9181ZM43.5058 41.5781C43.5154 41.7226 43.4673 41.8623 43.3757 41.9779C42.2004 43.3555 40.6108 43.6831 38.8863 43.6831C37.1619 43.6831 35.5723 43.3555 34.4017 41.9779C34.3102 41.8671 34.262 41.7226 34.2717 41.5781V40.5617C34.2572 39.6513 34.5607 38.7698 35.1291 38.0617C35.5963 37.4596 36.3093 37.0983 37.0703 37.0742H40.7071C41.4682 37.0935 42.1811 37.4548 42.6484 38.0617C43.2168 38.7698 43.5202 39.6561 43.5058 40.5617V41.5781Z" fill="#AEBAA8" stroke="#AEBAA8" stroke-width="0.877756" stroke-miterlimit="10"/>
<path d="M30.779 42.0212C30.6008 41.8912 30.3744 41.8622 30.1673 41.9393C20.1432 45.6098 9.04008 40.4557 5.37438 30.4268C4.59885 28.3122 4.20386 26.0771 4.19904 23.8227H5.24914L3.53912 20.4027L1.8291 23.8227H2.8792C2.90328 35.2293 12.1711 44.4586 23.5777 44.4297C25.3744 44.4297 27.1663 44.1888 28.9004 43.7216C29.4832 43.5675 30.0516 43.3844 30.62 43.1773C30.962 43.052 31.1403 42.6715 31.015 42.3295C30.9717 42.2043 30.8898 42.0983 30.779 42.0212Z" fill="#AEBAA8" stroke="#AEBAA8" stroke-width="0.877756" stroke-miterlimit="10"/>
<path d="M23.5244 27.3873C25.517 27.3873 27.1323 25.772 27.1323 23.7794C27.1323 21.7868 25.517 20.1715 23.5244 20.1715C21.5318 20.1715 19.9165 21.7868 19.9165 23.7794C19.9165 25.772 21.5318 27.3873 23.5244 27.3873Z" fill="#FFF000"/>
</g>
<defs>
<clipPath id="clip0_1598_939">
<rect width="45" height="44.316" fill="white" transform="translate(1 1)"/>
</clipPath>
</defs>
</svg>
