<svg xmlns="http://www.w3.org/2000/svg" xmlns:xlink="http://www.w3.org/1999/xlink" width="54" height="54" viewBox="0 0 54 54">
  <defs>
    <linearGradient id="linear-gradient" x1="0.145" y1="0.112" x2="0.922" y2="0.876" gradientUnits="objectBoundingBox">
      <stop offset="0" stop-color="#fde159"/>
      <stop offset="1" stop-color="#fe0817"/>
    </linearGradient>
  </defs>
  <g id="Group_662" data-name="Group 662" transform="translate(-750 -1425)">
    <circle id="Ellipse_8698" data-name="Ellipse 8698" cx="27" cy="27" r="27" transform="translate(750 1425)" fill="url(#linear-gradient)"/>
    <g id="Group_661" data-name="Group 661" transform="translate(2.193 2.062)">
      <path id="Path_592" data-name="Path 592" d="M187.709,42.969h-2.62a12.884,12.884,0,0,0-1.291-3.075l1.86-1.86a1.22,1.22,0,0,0,0-1.632l-3.531-3.531a1.146,1.146,0,0,0-1.632,0l-1.86,1.86a14.054,14.054,0,0,0-3.113-1.253V30.82a1.119,1.119,0,0,0-1.139-1.139h-5.049a1.119,1.119,0,0,0-1.139,1.139v2.62a13.163,13.163,0,0,0-3.113,1.291l-1.822-1.822a1.146,1.146,0,0,0-1.632,0L158.1,36.439a1.22,1.22,0,0,0,0,1.632l1.632,1.632a3.241,3.241,0,0,1,1.4-1.253,3.456,3.456,0,0,1,1.518-.38,3.589,3.589,0,0,1,2.126.721l2.923,2.24a6.886,6.886,0,0,1,4.138-1.4,7.024,7.024,0,0,1,0,14.048,6.8,6.8,0,0,1-4.138-1.4l-2.923,2.24a3.59,3.59,0,0,1-2.126.721,3.424,3.424,0,0,1-1.518-.342,3.35,3.35,0,0,1-1.4-1.215l-1.595,1.595a1.146,1.146,0,0,0,0,1.632l3.531,3.531a1.146,1.146,0,0,0,1.632,0l1.86-1.86a14.054,14.054,0,0,0,3.113,1.253v2.62a1.119,1.119,0,0,0,1.139,1.139h5.012a1.119,1.119,0,0,0,1.139-1.139v-2.62a13.162,13.162,0,0,0,3.113-1.291l1.822,1.822a1.146,1.146,0,0,0,1.632,0l3.531-3.531a1.146,1.146,0,0,0,0-1.632l-1.86-1.86a14.143,14.143,0,0,0,1.291-3.113h2.62a1.142,1.142,0,0,0,1.139-1.139V44.108a1.168,1.168,0,0,0-1.139-1.139Z" transform="translate(604.293 1403.354)" fill="#fff"/>
      <path id="Path_593" data-name="Path 593" d="M92.85,200.521a1.119,1.119,0,0,0,.569.949.979.979,0,0,0,1.1-.114l6.644-5.087a1.044,1.044,0,0,0,0-1.671l-6.644-5.087a1.032,1.032,0,0,0-.645-.228,1.01,1.01,0,0,0-.456.114,1.072,1.072,0,0,0-.569.949v2.316H84.878a.883.883,0,0,0-.873.873v3.873a.883.883,0,0,0,.873.873h7.973Z" transform="translate(673.069 1254.572)" fill="#fff"/>
    </g>
  </g>
</svg>
