<svg width="45" height="47" viewBox="0 0 45 47" fill="none" xmlns="http://www.w3.org/2000/svg">
<path fill-rule="evenodd" clip-rule="evenodd" d="M29 8C29 9.65685 27.6569 11 26 11C24.3431 11 23 9.65685 23 8C23 6.34315 24.3431 5 26 5C27.6569 5 29 6.34315 29 8ZM26.5246 15.9831C26.3512 15.9943 26.1763 16 26 16C24.9973 16 24.0376 15.8155 23.1531 15.4786L14.8865 24.9262C15.469 25.9086 15.8471 27.0265 15.9626 28.2211L27.5312 32.3261C28.5561 30.7508 30.0355 29.4983 31.7835 28.7545L26.5246 15.9831ZM36.9237 28.106L31.1616 14.1123C32.8976 12.6448 34 10.4512 34 8C34 3.58172 30.4183 0 26 0C21.5817 0 18 3.58172 18 8C18 9.59338 18.4658 11.078 19.2687 12.325L11.1242 21.633C10.1643 21.2255 9.1085 21 8 21C3.58172 21 0 24.5817 0 29C0 33.4183 3.58172 37 8 37C10.9062 37 13.4504 35.4504 14.8515 33.1323L26.0086 37.0913C26.0029 37.2268 26 37.3631 26 37.5C26 42.7467 30.2533 47 35.5 47C40.7467 47 45 42.7467 45 37.5C45 32.7372 41.495 28.793 36.9237 28.106ZM8 32C9.65685 32 11 30.6569 11 29C11 27.3431 9.65685 26 8 26C6.34315 26 5 27.3431 5 29C5 30.6569 6.34315 32 8 32ZM40 37.5C40 39.9853 37.9853 42 35.5 42C33.0147 42 31 39.9853 31 37.5C31 35.0147 33.0147 33 35.5 33C37.9853 33 40 35.0147 40 37.5Z" fill="#00582E"/>
</svg>
