<svg width="62" height="50" viewBox="0 0 62 50" fill="none" xmlns="http://www.w3.org/2000/svg">
<g clip-path="url(#clip0_1492_308)">
<path d="M24.1573 9.75304C32.9963 5.68903 43.4548 9.55993 47.5188 18.3945C48.5765 20.6899 49.1251 23.1871 49.1295 25.715H48.1727L49.7352 28.8267L51.2888 25.715H50.332C50.3189 15.3268 41.888 6.92227 31.4998 6.93544C28.7919 6.93544 26.1147 7.52793 23.6526 8.66462C23.3542 8.80506 23.2225 9.16494 23.363 9.46338C23.5034 9.76182 23.8545 9.88909 24.1573 9.75304Z" fill="#AEBAA8" stroke="#AEBAA8" stroke-width="0.877756" stroke-miterlimit="10"/>
<path d="M16.6966 11.706C18.4258 11.706 19.8302 10.3016 19.8302 8.57243C19.8302 6.84325 18.4258 5.43884 16.6966 5.43884C14.9674 5.43884 13.563 6.84325 13.563 8.57243C13.563 10.3016 14.9674 11.706 16.6966 11.706ZM15.2263 7.0978C16.0383 6.28588 17.3593 6.28588 18.1712 7.0978C18.9831 7.90973 18.9831 9.23075 18.1712 10.0427C17.3593 10.8546 16.0383 10.8546 15.2263 10.0427C14.4144 9.23075 14.4144 7.90973 15.2263 7.0978Z" fill="#AEBAA8" stroke="#AEBAA8" stroke-width="0.877756" stroke-miterlimit="10"/>
<path d="M45.5223 30.0073C43.7931 30.0073 42.3887 31.4117 42.3887 33.1409C42.3887 34.8701 43.7931 36.2745 45.5223 36.2745C47.2514 36.2745 48.6559 34.8701 48.6559 33.1409C48.6559 31.4117 47.2514 30.0073 45.5223 30.0073ZM46.9969 34.6155C46.185 35.4275 44.8639 35.4275 44.052 34.6155C43.2401 33.8036 43.2401 32.4826 44.052 31.6707C44.8639 30.8587 46.185 30.8587 46.9969 31.6707C47.8088 32.4826 47.8088 33.8036 46.9969 34.6155Z" fill="#AEBAA8" stroke="#AEBAA8" stroke-width="0.877756" stroke-miterlimit="10"/>
<path d="M31.5217 21.4097C29.121 21.4097 27.1768 23.3539 27.1768 25.7546C27.1768 28.1552 29.121 30.0995 31.5217 30.0995C33.9223 30.0995 35.8665 28.1552 35.8665 25.7546C35.8665 23.3539 33.9223 21.4097 31.5217 21.4097ZM33.8477 28.085C32.5618 29.3709 30.4815 29.3709 29.1956 28.085C27.9097 26.7991 27.9097 24.7144 29.1956 23.4285C30.4815 22.1426 32.5662 22.1426 33.8521 23.4285C35.138 24.7144 35.138 26.7991 33.8521 28.085H33.8477Z" fill="#AEBAA8"/>
<path d="M40.9268 31.6618L41.3217 30.9728C41.3217 30.9728 41.3305 30.9552 41.3349 30.9508C42.0196 29.7702 41.6158 28.2561 40.4352 27.5715L39.2941 26.9131C39.4082 26.1495 39.4082 25.3683 39.2941 24.6046L40.4396 23.9419C41.6202 23.2573 42.024 21.7476 41.3437 20.567L40.9443 19.8779C40.9443 19.8779 40.9355 19.8604 40.9311 19.856C40.2509 18.671 38.7368 18.2629 37.5518 18.9475L36.4107 19.6058C35.805 19.1231 35.1336 18.7325 34.4138 18.4516V17.1349C34.4138 15.77 33.3034 14.6641 31.9385 14.6597H31.1134C29.7485 14.6597 28.6426 15.7656 28.6382 17.1306V18.4516C27.9184 18.7368 27.2469 19.1274 26.6413 19.6058L25.4958 18.9475C24.3152 18.2672 22.8055 18.671 22.1208 19.8516L21.7083 20.5714C21.028 21.7519 21.4318 23.2617 22.6124 23.9463L23.7578 24.6046C23.6437 25.3727 23.6437 26.1495 23.7578 26.9175L22.6431 27.5627C21.4537 28.2298 21.028 29.7307 21.6907 30.9201L22.1208 31.6706C22.8055 32.8512 24.3152 33.2549 25.4958 32.5747L26.6413 31.912C27.2469 32.3947 27.9184 32.7853 28.6382 33.0706V34.3916C28.6382 35.7565 29.7485 36.8625 31.1134 36.8669H31.9385C33.3034 36.8669 34.4094 35.7609 34.4138 34.396V33.075C35.1336 32.7897 35.8094 32.3991 36.4107 31.9164L37.5562 32.5747C38.7368 33.2549 40.2465 32.8512 40.9311 31.6706L40.9268 31.6618ZM40.0227 31.1395C39.6277 31.8198 38.7587 32.0524 38.0784 31.6618L36.617 30.8192C36.4239 30.7051 36.1781 30.7314 36.0069 30.8762C35.6734 31.1703 35.3091 31.4292 34.9229 31.653C34.5499 31.8681 34.1549 32.048 33.7423 32.1929C33.5141 32.2543 33.3561 32.4606 33.3561 32.6976V34.3829C33.3561 35.1684 32.7197 35.8048 31.9341 35.8048H31.109C30.3235 35.8048 29.6871 35.1684 29.6871 34.3829V32.6976C29.6871 32.4606 29.5291 32.2543 29.3009 32.1929C28.8927 32.0524 28.4977 31.8725 28.1203 31.653C27.7341 31.4292 27.3698 31.1703 27.0363 30.8762C26.8651 30.727 26.6193 30.7051 26.4262 30.8192L24.9648 31.6618C24.2845 32.0524 23.4155 31.8198 23.0205 31.1395L22.608 30.4242C22.608 30.4242 22.5992 30.411 22.5992 30.4066C22.2174 29.7176 22.4675 28.8486 23.161 28.4668L24.5566 27.6636C24.776 27.5627 24.8945 27.3213 24.8506 27.0887C24.6795 26.2109 24.6795 25.3112 24.8506 24.4379C24.8945 24.2009 24.776 23.9639 24.5566 23.8629L23.1346 23.0422C22.4544 22.6473 22.2218 21.7783 22.6124 21.098L23.0249 20.3826C23.4199 19.7024 24.2889 19.4698 24.9691 19.8604L26.4262 20.703C26.6237 20.8171 26.8695 20.7908 27.0363 20.6416C27.699 20.0623 28.467 19.6146 29.3009 19.3293C29.5291 19.2679 29.6871 19.0616 29.6871 18.8246V17.1393C29.6871 16.3537 30.3235 15.7174 31.109 15.7174H31.9341C32.7197 15.7174 33.3561 16.3581 33.3561 17.1393V18.8246C33.3561 19.0616 33.5141 19.2679 33.7423 19.3293C34.1505 19.4698 34.5455 19.6497 34.9229 19.8692C35.3091 20.093 35.669 20.3519 36.0069 20.646C36.1825 20.7996 36.437 20.8171 36.6345 20.6942L38.074 19.8648C38.7543 19.4742 39.6233 19.7068 40.0183 20.387L40.4484 21.1287C40.8083 21.7958 40.5844 22.6297 39.9393 23.0291C39.4741 23.288 38.9342 23.6259 38.4778 23.8761C38.2672 23.9814 38.153 24.214 38.1969 24.4467C38.3681 25.3244 38.3681 26.2241 38.1969 27.0975C38.153 27.3345 38.2715 27.5715 38.491 27.6724L39.9129 28.4931C40.5888 28.8881 40.8214 29.7527 40.4352 30.4373L40.0227 31.1527V31.1395Z" fill="#618260" stroke="#618260" stroke-width="0.438878" stroke-miterlimit="10"/>
<path d="M16.6964 20.3695C18.566 20.3695 20.2952 19.9569 21.5811 18.4428C21.8269 18.1531 21.9585 17.7801 21.9542 17.3983V16.4679C21.9629 15.397 21.5987 14.3525 20.9272 13.5186C20.304 12.7286 19.3604 12.259 18.351 12.2415H15.0418C14.0368 12.259 13.0888 12.7286 12.4656 13.5186C11.7897 14.3525 11.4299 15.397 11.4386 16.4679V17.3983C11.4342 17.7801 11.5659 18.1488 11.8117 18.4428C13.102 19.9525 14.8224 20.3695 16.6964 20.3695ZM12.4919 16.4722C12.4788 15.6428 12.7553 14.8396 13.2731 14.1901C13.6989 13.6415 14.3484 13.3123 15.0462 13.2948H18.3554C19.0488 13.3123 19.6983 13.6415 20.124 14.1901C20.6419 14.8352 20.9184 15.6428 20.9052 16.4679V17.3983C20.914 17.5299 20.8701 17.6572 20.7867 17.7582C19.7159 19.0133 18.2676 19.3118 16.6964 19.3118C15.1252 19.3118 13.6769 19.0133 12.6104 17.7582C12.5271 17.6572 12.4832 17.5299 12.4919 17.3983V16.4679V16.4722Z" fill="#AEBAA8" stroke="#AEBAA8" stroke-width="0.877756" stroke-miterlimit="10"/>
<path d="M47.1724 36.8143H43.8633C42.8583 36.8319 41.9103 37.3015 41.2871 38.0915C40.6112 38.9253 40.2469 39.9699 40.2601 41.0407V41.9668C40.2557 42.3486 40.3874 42.7172 40.6332 43.0113C41.9191 44.521 43.6483 44.9336 45.5179 44.9336C47.3875 44.9336 49.1167 44.521 50.4026 43.0069C50.6484 42.7128 50.78 42.3442 50.7756 41.9624V41.0363C50.7844 39.9655 50.4245 38.9209 49.7487 38.0871C49.1255 37.2971 48.1775 36.8275 47.1724 36.8099V36.8143ZM49.7267 41.9711C49.7355 42.1028 49.6916 42.2301 49.6082 42.3354C48.5374 43.5906 47.0891 43.889 45.5179 43.889C43.9467 43.889 42.4984 43.5906 41.4319 42.3354C41.3485 42.2345 41.3046 42.1028 41.3134 41.9711V41.0451C41.3003 40.2156 41.5767 39.4125 42.0946 38.7673C42.5203 38.2187 43.1699 37.8896 43.8633 37.8676H47.1768C47.8703 37.8852 48.5198 38.2143 48.9455 38.7673C49.4634 39.4125 49.7399 40.22 49.7267 41.0451V41.9711Z" fill="#AEBAA8" stroke="#AEBAA8" stroke-width="0.877756" stroke-miterlimit="10"/>
<path d="M38.1315 42.375C37.9691 42.2565 37.7628 42.2301 37.5741 42.3003C28.441 45.6446 18.3249 40.9486 14.985 31.8112C14.2784 29.8845 13.9186 27.8481 13.9142 25.7941H14.8709L13.3129 22.6781L11.7549 25.7941H12.7116C12.7336 36.1868 21.1776 44.5957 31.5702 44.5693C33.2072 44.5693 34.8399 44.3499 36.4198 43.9242C36.9509 43.7838 37.4688 43.617 37.9866 43.4283C38.2982 43.3142 38.4606 42.9674 38.3465 42.6558C38.307 42.5417 38.2324 42.4452 38.1315 42.375Z" fill="#AEBAA8" stroke="#AEBAA8" stroke-width="0.877756" stroke-miterlimit="10"/>
<path d="M31.5221 29.0418C33.3375 29.0418 34.8093 27.5701 34.8093 25.7546C34.8093 23.9391 33.3375 22.4674 31.5221 22.4674C29.7066 22.4674 28.2349 23.9391 28.2349 25.7546C28.2349 27.5701 29.7066 29.0418 31.5221 29.0418Z" fill="#FFF000"/>
</g>
<defs>
<clipPath id="clip0_1492_308">
<rect width="41" height="40.3768" fill="white" transform="translate(11 5)"/>
</clipPath>
</defs>
</svg>
