<svg xmlns="http://www.w3.org/2000/svg" width="54" height="54" viewBox="0 0 54 54">
  <g id="Group_311" data-name="Group 311" transform="translate(-737 -1385.526)">
    <g id="Group_224" data-name="Group 224" transform="translate(466 -3169.474)">
      <g id="Group_142" data-name="Group 142" transform="translate(0 1213)">
        <ellipse id="Ellipse_27" data-name="Ellipse 27" cx="27" cy="27" rx="27" ry="27" transform="translate(271 3342)" fill="#606060"/>
      </g>
    </g>
    <path id="Path_592" data-name="Path 592" d="M191.349,44.585h-2.938a14.451,14.451,0,0,0-1.448-3.449l2.087-2.087a1.368,1.368,0,0,0,0-1.831l-3.96-3.96a1.285,1.285,0,0,0-1.831,0l-2.087,2.087a15.763,15.763,0,0,0-3.492-1.405V30.959a1.255,1.255,0,0,0-1.278-1.278h-5.664a1.255,1.255,0,0,0-1.278,1.278V33.9a14.764,14.764,0,0,0-3.492,1.448L163.925,33.3a1.285,1.285,0,0,0-1.831,0l-3.96,3.96a1.368,1.368,0,0,0,0,1.831l1.831,1.831a3.636,3.636,0,0,1,1.576-1.405,3.877,3.877,0,0,1,1.7-.426,4.026,4.026,0,0,1,2.385.809l3.279,2.512a7.723,7.723,0,0,1,4.642-1.576,7.878,7.878,0,0,1,0,15.757,7.629,7.629,0,0,1-4.642-1.576l-3.279,2.512a4.026,4.026,0,0,1-2.385.809,3.841,3.841,0,0,1-1.7-.383,3.757,3.757,0,0,1-1.576-1.363l-1.789,1.789a1.285,1.285,0,0,0,0,1.831l3.96,3.96a1.285,1.285,0,0,0,1.831,0l2.087-2.087a15.763,15.763,0,0,0,3.492,1.405v2.938a1.255,1.255,0,0,0,1.278,1.278h5.621a1.255,1.255,0,0,0,1.278-1.278V63.492a14.764,14.764,0,0,0,3.492-1.448l2.044,2.044a1.285,1.285,0,0,0,1.831,0l3.96-3.96a1.285,1.285,0,0,0,0-1.831l-2.087-2.087a15.863,15.863,0,0,0,1.448-3.492h2.938a1.281,1.281,0,0,0,1.278-1.278V45.863a1.31,1.31,0,0,0-1.278-1.278Z" transform="translate(591.901 1363.88)" fill="#fff"/>
    <path id="Path_593" data-name="Path 593" d="M93.926,201.887a1.255,1.255,0,0,0,.639,1.065,1.1,1.1,0,0,0,1.235-.128l7.452-5.706a1.171,1.171,0,0,0,0-1.874L95.8,189.538a1.157,1.157,0,0,0-.724-.255,1.133,1.133,0,0,0-.511.128,1.2,1.2,0,0,0-.639,1.065v2.6H84.984a.991.991,0,0,0-.979.979V198.4a.991.991,0,0,0,.979.979h8.943Z" transform="translate(660.069 1216.414)" fill="#fff"/>
  </g>
</svg>
