<svg width="69" height="63" viewBox="0 0 69 63" fill="none" xmlns="http://www.w3.org/2000/svg">
<path fill-rule="evenodd" clip-rule="evenodd" d="M28 0C43.4 0 56 12.6 56 28C56 37.24 51.5199 45.3602 44.8 50.4H57.511L55.0555 47.9445L58.9446 44.0554L68.3891 53.5L58.9446 62.9445L55.0555 59.0554L58.1109 56H28C12.6 56 0 43.4 0 28C0 12.6 12.6 0 28 0ZM28 5.6C15.68 5.6 5.6 15.68 5.6 28C5.6 40.32 15.68 50.4 28 50.4C40.32 50.4 50.4 40.32 50.4 28C50.4 15.68 40.32 5.6 28 5.6ZM28 8C16.8889 8 8 16.8889 8 28C8 39.1111 16.8889 48 28 48C39.1111 48 48 39.1111 48 28C48 16.8889 39.1111 8 28 8ZM30.2222 43.3333V41.3334H25.7778V43.3333C18.8888 42.4445 13.5556 36.889 12.6667 30.2222H14.6666V25.7778H12.6667C13.5555 18.8888 18.8887 13.5556 25.7778 12.6667V14.6666H30.2222V12.6667C37.1112 13.5555 42.4444 19.111 43.3333 25.7778H41.3334V30.2222H43.3333C42.4445 37.1112 37.1113 42.4444 30.2222 43.3333ZM25.7778 19.1111H30.2222V25.7778H34.6667V30.2222H25.7778V19.1111Z" fill="#00582E"/>
</svg>
