<svg xmlns="http://www.w3.org/2000/svg" xmlns:xlink="http://www.w3.org/1999/xlink" width="54" height="54" viewBox="0 0 54 54">
  <defs>
    <linearGradient id="linear-gradient" x1="0.145" y1="0.112" x2="0.922" y2="0.876" gradientUnits="objectBoundingBox">
      <stop offset="0" stop-color="#fde159"/>
      <stop offset="1" stop-color="#fe0817"/>
    </linearGradient>
  </defs>
  <g id="Group_658" data-name="Group 658" transform="translate(-750 -1058)">
    <circle id="Ellipse_8698" data-name="Ellipse 8698" cx="27" cy="27" r="27" transform="translate(750 1058)" fill="url(#linear-gradient)"/>
    <g id="Group_313" data-name="Group 313" transform="translate(22.414 84.063)">
      <path id="Path_588" data-name="Path 588" d="M306.236,286.235a.911.911,0,1,1-.911-.911.911.911,0,0,1,.911.911" transform="translate(447.398 716.336)" fill="#fff"/>
      <path id="Path_589" data-name="Path 589" d="M129.041,96.57a.887.887,0,0,1,.085.035,10.276,10.276,0,1,1-3.985-.8h11.1V92.9h-11.1a13.137,13.137,0,1,0,13.137,13.137,13.013,13.013,0,0,0-4.031-9.469Z" transform="translate(627.581 896.533)" fill="#fff"/>
      <path id="Path_590" data-name="Path 590" d="M183.806,151.824a9.365,9.365,0,0,0-4.01-1.074v1.085a.384.384,0,0,1-.768,0V150.75a9.419,9.419,0,0,0-4.01,1.074l.544.939a.387.387,0,0,1-.669.388l-.541-.939a9.549,9.549,0,0,0-2.935,2.935l.939.541a.385.385,0,0,1,.142.527.381.381,0,0,1-.335.192.418.418,0,0,1-.192-.05l-.939-.544a9.365,9.365,0,0,0-1.074,4.01h1.085a.384.384,0,1,1,0,.768h-1.085a9.418,9.418,0,0,0,1.074,4.01l.939-.544a.386.386,0,0,1,.384.669l-.939.541a9.549,9.549,0,0,0,2.935,2.935l.541-.939a.386.386,0,0,1,.669.384l-.544.939a9.365,9.365,0,0,0,4.01,1.074v-1.085a.384.384,0,1,1,.768,0v1.085a9.4,9.4,0,0,0,4.01-1.074l-.544-.939a.386.386,0,0,1,.669-.384l.541.939a9.549,9.549,0,0,0,2.935-2.935l-.939-.541a.386.386,0,0,1,.384-.669l.939.544a9.366,9.366,0,0,0,1.074-4.01h-1.085a.384.384,0,0,1,0-.768h1.085a9.419,9.419,0,0,0-1.074-4.01l-.939.544a.379.379,0,0,1-.192.05.385.385,0,0,1-.192-.719l.939-.541a9.549,9.549,0,0,0-2.935-2.935l-.541.939a.383.383,0,0,1-.527.139.388.388,0,0,1-.142-.527Zm2.58,8a.384.384,0,0,1,0,.768h-5.337a1.681,1.681,0,1,1-2.021-2.021v-4a.384.384,0,1,1,.768,0v4a1.689,1.689,0,0,1,1.252,1.252h5.337Z" transform="translate(573.311 842.36)" fill="#fff"/>
      <path id="Path_591" data-name="Path 591" d="M505.57,53.594v7.892l5.238-3.946Z" transform="translate(259.023 933.343)" fill="#fff"/>
    </g>
  </g>
</svg>
