<svg xmlns="http://www.w3.org/2000/svg" width="54" height="54" viewBox="0 0 54 54">
  <g id="Group_317" data-name="Group 317" transform="translate(-737.5 -976)">
    <g id="Group_314" data-name="Group 314" transform="translate(8.5 -3)">
      <g id="Group_222" data-name="Group 222" transform="translate(458 -3576)">
        <g id="Group_142" data-name="Group 142" transform="translate(0 1213)">
          <ellipse id="Ellipse_27" data-name="Ellipse 27" cx="27" cy="27" rx="27" ry="27" transform="translate(271 3342)" fill="#606060"/>
        </g>
      </g>
      <g id="Group_313" data-name="Group 313" transform="translate(-0.916 3.047)">
        <path id="Path_588" data-name="Path 588" d="M306.5,286.368a1.044,1.044,0,1,1-1.044-1.044,1.044,1.044,0,0,1,1.044,1.044" transform="translate(449.182 718.485)" fill="#fff"/>
        <path id="Path_589" data-name="Path 589" d="M131.528,97.106a1.018,1.018,0,0,1,.1.041,11.776,11.776,0,1,1-4.567-.922H139.78V92.9H127.059a15.054,15.054,0,1,0,15.054,15.054,14.913,14.913,0,0,0-4.62-10.851Z" transform="translate(627.581 896.897)" fill="#fff"/>
        <path id="Path_590" data-name="Path 590" d="M185.827,151.981a10.732,10.732,0,0,0-4.6-1.231v1.243a.44.44,0,0,1-.881,0V150.75a10.794,10.794,0,0,0-4.6,1.231l.624,1.077a.443.443,0,0,1-.767.445l-.62-1.077a10.942,10.942,0,0,0-3.364,3.364l1.077.62a.441.441,0,0,1,.163.6.436.436,0,0,1-.383.22.479.479,0,0,1-.22-.057l-1.077-.624a10.732,10.732,0,0,0-1.231,4.6H171.2a.44.44,0,1,1,0,.881h-1.243a10.793,10.793,0,0,0,1.231,4.6l1.077-.624a.442.442,0,0,1,.441.767l-1.077.62a10.942,10.942,0,0,0,3.364,3.364l.62-1.077a.442.442,0,0,1,.767.441l-.624,1.077a10.732,10.732,0,0,0,4.6,1.231v-1.243a.44.44,0,1,1,.881,0v1.243a10.777,10.777,0,0,0,4.6-1.231l-.624-1.077a.442.442,0,0,1,.767-.441l.62,1.077a10.943,10.943,0,0,0,3.364-3.364l-1.077-.62a.442.442,0,0,1,.441-.767l1.077.624a10.733,10.733,0,0,0,1.231-4.6h-1.243a.44.44,0,0,1,0-.881h1.243a10.793,10.793,0,0,0-1.231-4.6l-1.077.624a.434.434,0,0,1-.22.057.441.441,0,0,1-.22-.824l1.077-.62a10.942,10.942,0,0,0-3.364-3.364l-.62,1.077a.438.438,0,0,1-.6.159.445.445,0,0,1-.163-.6Zm2.956,9.166a.44.44,0,1,1,0,.881h-6.116a1.926,1.926,0,1,1-2.316-2.316v-4.583a.44.44,0,1,1,.881,0v4.587a1.935,1.935,0,0,1,1.435,1.435h6.117Z" transform="translate(573.848 843.261)" fill="#fff"/>
        <path id="Path_591" data-name="Path 591" d="M505.57,53.594v9.044l6-4.522Z" transform="translate(262.673 933.343)" fill="#fff"/>
      </g>
    </g>
  </g>
</svg>
