<svg xmlns="http://www.w3.org/2000/svg" xmlns:xlink="http://www.w3.org/1999/xlink" width="54" height="54" viewBox="0 0 54 54">
  <defs>
    <linearGradient id="linear-gradient" x1="0.145" y1="0.112" x2="0.922" y2="0.876" gradientUnits="objectBoundingBox">
      <stop offset="0" stop-color="#fde159"/>
      <stop offset="1" stop-color="#fe0817"/>
    </linearGradient>
  </defs>
  <g id="Group_650" data-name="Group 650" transform="translate(-278 -4810)">
    <circle id="Ellipse_8701" data-name="Ellipse 8701" cx="27" cy="27" r="27" transform="translate(278 4810)" fill="url(#linear-gradient)"/>
    <g id="Group_149" data-name="Group 149" transform="translate(803.947 -11605.535)">
      <path id="Path_381" data-name="Path 381" d="M109.469,44a4.5,4.5,0,0,1-3.614-7.184L104.1,35.043a10.057,10.057,0,0,1-6.259,2.511v2.022a2.226,2.226,0,1,1-.807,0V37.555a10.067,10.067,0,0,1-6.453-2.689L88.869,36.6a4.5,4.5,0,1,1-.554-.57l1.726-1.726a10.065,10.065,0,0,1-2.689-6.453H85.325a2.226,2.226,0,1,1,0-.807h2.022A10.058,10.058,0,0,1,89.858,20.8l-1.753-1.753a4.514,4.514,0,1,1,.747-.71c-.032.038-.108.129-.145.167l1.7,1.7a10.072,10.072,0,0,1,6.625-2.844V15.346a2.226,2.226,0,1,1,.807,0v2.022a10.067,10.067,0,0,1,6.453,2.689l1.715-1.737a4.6,4.6,0,1,1,.57.554l-1.726,1.721a10.078,10.078,0,0,1,2.689,6.453h2.022a2.226,2.226,0,1,1,0,.807h-2.033a10.071,10.071,0,0,1-2.845,6.625l1.71,1.71a4.5,4.5,0,0,1,6.512,6.195h0A4.518,4.518,0,0,1,109.469,44Zm0-.807a3.672,3.672,0,0,0,2.613-1.075,2.688,2.688,0,0,0-1.339-1.748,1.871,1.871,0,0,1-2.549,0,2.689,2.689,0,0,0-1.328,1.748,3.689,3.689,0,0,0,2.592,1.075ZM97.44,40.367A1.425,1.425,0,1,0,98.6,41.1a1.425,1.425,0,0,0-1.161-.735ZM85.4,43.19a3.7,3.7,0,0,0,2.613-1.075,2.689,2.689,0,0,0-1.328-1.748,1.871,1.871,0,0,1-2.549,0,2.688,2.688,0,0,0-1.328,1.748A3.689,3.689,0,0,0,85.4,43.19Zm0-7.4a3.726,3.726,0,0,0-3.226,5.56A3.506,3.506,0,0,1,83.642,39.7a1.866,1.866,0,1,1,3.463,0,3.49,3.49,0,0,1,1.468,1.646,3.721,3.721,0,0,0-3.162-5.555Zm24.058,0a3.726,3.726,0,0,0-3.2,5.56,3.507,3.507,0,0,1,1.468-1.651,1.866,1.866,0,1,1,3.463,0,3.491,3.491,0,0,1,1.468,1.646,3.721,3.721,0,0,0-3.189-5.555Zm0,4.275a1.075,1.075,0,1,0-.775-.576A1.076,1.076,0,0,0,109.458,40.066Zm-24.058,0a1.076,1.076,0,1,0-.775-.576A1.076,1.076,0,0,0,85.4,40.066ZM97.44,18.17a9.3,9.3,0,0,0-9.292,9.292c.511,12.33,18.078,12.325,18.584,0A9.3,9.3,0,0,0,97.44,18.17Zm14.3,7.867a1.425,1.425,0,1,0,1.234.712A1.425,1.425,0,0,0,111.743,26.036Zm-28.612,0a1.425,1.425,0,1,0,1.234.712A1.425,1.425,0,0,0,83.131,26.036Zm26.348-6.9a3.623,3.623,0,0,0,2.613-1.075,2.689,2.689,0,0,0-1.328-1.753,1.871,1.871,0,0,1-2.549,0,2.688,2.688,0,0,0-1.328,1.748,3.688,3.688,0,0,0,2.57,1.081Zm-24.058,0a3.7,3.7,0,0,0,2.613-1.075,2.689,2.689,0,0,0-1.35-1.748,1.871,1.871,0,0,1-2.549,0,2.688,2.688,0,0,0-1.328,1.748A3.687,3.687,0,0,0,85.4,19.132Zm0-7.4a3.726,3.726,0,0,0-3.226,5.56,3.507,3.507,0,0,1,1.484-1.662,1.866,1.866,0,1,1,3.463,0,3.49,3.49,0,0,1,1.468,1.645,3.721,3.721,0,0,0-3.2-5.544Zm24.058,0a3.726,3.726,0,0,0-3.2,5.56,3.5,3.5,0,0,1,1.457-1.662,1.866,1.866,0,1,1,3.463,0,3.491,3.491,0,0,1,1.468,1.645,3.721,3.721,0,0,0-3.2-5.544Zm0,4.3a2.365,2.365,0,1,1-.022-.027Zm-24.058,0a2.368,2.368,0,1,1-.022-.027Zm12.018-4.3a1.425,1.425,0,1,0,1.07.756A1.425,1.425,0,0,0,97.439,11.733Zm.075,23.181-2.226-2.237a2.529,2.529,0,1,1-3.925-3.156L92.912,28l2.506-6.238,2.3,2.3h0a1.92,1.92,0,0,1,2.651,2.646l2.3,2.3-5.732,2.312L99.052,33.4Zm-1.689-2.807,1.667,1.667.366-.371-1.645-1.64Zm-2.6-3.334-1.317,1.317a1.7,1.7,0,0,0,0,2.393,1.731,1.731,0,0,0,2.393,0l1.317-1.317Zm.479-.667,2.6,2.581,4.893-1.979-5.5-5.517Zm4.576-3.458,1.463,1.463A1.119,1.119,0,0,0,98.3,24.649ZM95.5,29.074,94.428,28l.688-1.667.742.307-.484,1.172.694.688Zm8.34-3.915h-2.151v-.807h2.151Zm-2.861-1.129-.57-.57,1.683-1.683.57.57Zm-.892-1.291h-.807V20.589h.807Z" transform="translate(-596.395 16415.074)" fill="#fff" stroke="#fff" stroke-linecap="round" stroke-linejoin="round" stroke-width="0.5"/>
    </g>
  </g>
</svg>
