<svg width="62" height="50" viewBox="0 0 62 50" fill="none" xmlns="http://www.w3.org/2000/svg">
<path d="M35.7353 9.37203L32.9518 8.93132L31.6761 6.41466C31.3978 5.86957 30.5975 5.85798 30.296 6.40306L29.0087 8.91973L26.2485 9.36043C25.599 9.45321 25.3787 10.2302 25.8078 10.6594L27.8025 12.6541L27.3734 15.3796C27.2227 16.087 27.9301 16.5277 28.4636 16.2494L30.9803 14.9736L33.4969 16.2494C34.042 16.5277 34.7031 16.0754 34.5987 15.4491L34.158 12.6657L36.1528 10.671C36.5819 10.2418 36.3615 9.47641 35.7353 9.37203ZM32.8127 11.8423C32.6271 12.0395 32.5575 12.2946 32.6039 12.5382L32.8591 14.1966L31.3398 13.4196C31.1194 13.3036 30.8527 13.3152 30.6439 13.4196L29.1247 14.1966L29.3914 12.5034C29.4378 12.2598 29.345 12.0163 29.1826 11.8539L27.9765 10.6478L29.6581 10.381C29.9017 10.3462 30.1105 10.1839 30.2148 9.9751L30.9919 8.45583L31.7689 9.9751C31.8965 10.2187 32.1284 10.3694 32.3836 10.3926L34.0188 10.6362L32.8127 11.8423Z" fill="#618260"/>
<path d="M29.3346 12.4941C29.3752 12.2831 29.301 12.0534 29.1421 11.8946L27.856 10.6084L29.6501 10.3242C29.867 10.2929 30.0641 10.1503 30.1639 9.94964L30.9931 8.32947L31.8223 9.94964C31.9371 10.1688 32.1494 10.3138 32.3906 10.3358L34.143 10.5968L32.8557 11.8841C32.6898 12.0604 32.6191 12.2958 32.6631 12.5278L32.9357 14.2999L31.3155 13.4718C31.2204 13.4219 31.1114 13.3953 30.9989 13.3953C30.8864 13.3953 30.7716 13.4219 30.6718 13.4718L29.0517 14.301L29.3358 12.4953L29.3346 12.4941Z" fill="#FFF000"/>
<path d="M30.9923 8.45583L31.7693 9.97511C31.8969 10.2187 32.1289 10.3694 32.384 10.3926L34.0193 10.6362L32.8131 11.8423C32.6276 12.0395 32.558 12.2946 32.6044 12.5382L32.8595 14.1966L31.3402 13.4196C31.2324 13.3627 31.1152 13.3372 30.9969 13.3372C30.8729 13.3372 30.7511 13.3662 30.6444 13.4196L29.1251 14.1966L29.3918 12.5034C29.4382 12.2598 29.3455 12.0163 29.1831 11.8539L27.9769 10.6478L29.6586 10.381C29.9021 10.3462 30.1109 10.1839 30.2153 9.97511L30.9923 8.45583ZM30.9923 8.20068L30.8891 8.40248L30.1121 9.92176C30.0204 10.1062 29.8395 10.2372 29.6424 10.2662L27.9584 10.5329L27.7334 10.5689L27.8946 10.7301L29.1007 11.9363C29.2457 12.0812 29.3141 12.2911 29.277 12.4825L29.0091 14.1792L28.9732 14.4042L29.1761 14.301L30.6954 13.524C30.787 13.4787 30.8902 13.4544 30.9958 13.4544C31.1013 13.4544 31.1987 13.4787 31.2846 13.524L32.805 14.3021L33.0068 14.4054L32.972 14.1815L32.7169 12.5231C32.6751 12.3051 32.7412 12.0882 32.8955 11.9247L34.0993 10.7208L34.2617 10.5585L34.0343 10.5248L32.3991 10.2813H32.3956H32.3921C32.1706 10.2616 31.9758 10.1282 31.8702 9.92524L31.0932 8.40712L30.99 8.20532L30.9923 8.20068Z" fill="#FFF000"/>
<path d="M20.1372 15.2984L17.3538 14.8577L16.0665 12.341C15.7882 11.7959 14.9879 11.7843 14.7096 12.341L13.4223 14.8577L10.662 15.2984C10.0126 15.3912 9.79223 16.1682 10.2213 16.5973L12.2161 18.5805L11.787 21.3059C11.6362 22.0134 12.3437 22.4541 12.8772 22.1757L15.3938 20.9L17.9105 22.1757C18.4556 22.4541 19.1167 22.0018 19.0123 21.3755L18.5716 18.5921L20.5663 16.5973C20.9955 16.1682 20.7635 15.4028 20.1372 15.2984ZM17.2031 17.7803C17.0175 17.9658 16.9479 18.2326 16.9943 18.4761L17.2494 20.123L15.7302 19.3459C15.4982 19.23 15.2431 19.2416 15.0343 19.3459L13.515 20.123L13.7818 18.4297C13.8282 18.1862 13.7354 17.9426 13.573 17.7803L12.3669 16.5741L14.0485 16.3074C14.2921 16.2726 14.5008 16.1102 14.6052 15.9015L15.3822 14.3822L16.1593 15.9015C16.2869 16.145 16.5188 16.2958 16.7739 16.319L18.4092 16.5741L17.2031 17.7803Z" fill="#618260"/>
<path d="M13.7233 18.4204C13.7639 18.2093 13.6897 17.9797 13.5308 17.8208L12.2446 16.5347L14.0388 16.2505C14.2556 16.2192 14.4528 16.0754 14.5525 15.8759L15.3818 14.2557L16.211 15.8759C16.3258 16.0951 16.538 16.2401 16.7793 16.2621L18.5305 16.5358L17.2432 17.8231C17.0796 17.9867 17.0054 18.2337 17.0506 18.4668L17.3232 20.2285L15.703 19.3992C15.6021 19.3482 15.4943 19.3227 15.3818 19.3227C15.2693 19.3227 15.1591 19.3494 15.0594 19.3992L13.4392 20.2285L13.7233 18.4227V18.4204Z" fill="#FFF000"/>
<path d="M15.3824 14.3822L16.1595 15.9015C16.2871 16.145 16.519 16.2958 16.7741 16.319L18.4094 16.5742L17.2033 17.7803C17.0177 17.9659 16.9481 18.2326 16.9945 18.4762L17.2496 20.123L15.7304 19.346C15.6179 19.2891 15.4996 19.2636 15.3836 19.2636C15.2618 19.2636 15.1424 19.2926 15.0345 19.346L13.5152 20.123L13.782 18.4298C13.8284 18.1862 13.7356 17.9427 13.5732 17.7803L12.3671 16.5742L14.0487 16.3074C14.2923 16.2726 14.501 16.1103 14.6054 15.9015L15.3824 14.3822ZM15.3824 14.1271L15.2792 14.3289L14.5022 15.8481C14.4106 16.0326 14.2296 16.1636 14.0325 16.1926L12.3485 16.4593L12.1235 16.4953L12.2847 16.6565L13.4909 17.8626C13.6359 18.0076 13.7043 18.2175 13.6672 18.4089L13.3993 20.1056L13.3633 20.3306L13.5663 20.2274L15.0855 19.4503C15.1772 19.4051 15.2792 19.3808 15.3813 19.3808C15.4833 19.3808 15.5831 19.404 15.677 19.4515L17.1951 20.2285L17.3969 20.3318L17.3621 20.1068L17.107 18.4599C17.0652 18.2407 17.1325 18.0134 17.2833 17.8638L18.4894 16.6577L18.6506 16.4965L18.4256 16.4617L16.7904 16.2065H16.7869H16.7834C16.5619 16.1868 16.3671 16.0534 16.2615 15.8505L15.4845 14.3324L15.3813 14.1306L15.3824 14.1271Z" fill="#FFF000"/>
<path d="M51.3571 15.2984L48.5737 14.8577L47.2864 12.341C47.008 11.7959 46.1962 11.7843 45.9063 12.341L44.6305 14.8577L41.8703 15.2984C41.2208 15.3912 40.9889 16.1682 41.4296 16.5973L43.4244 18.5805L42.9953 21.3059C42.8561 22.0134 43.552 22.4541 44.0854 22.1757L46.6021 20.9L49.1188 22.1757C49.6523 22.4541 50.3133 22.0018 50.2205 21.3755L49.7798 18.5921L51.7862 16.5973C52.2037 16.1682 51.9834 15.4028 51.3571 15.2984ZM48.3997 17.7803C48.2142 17.9658 48.1446 18.2326 48.191 18.4761L48.4577 20.123L46.9384 19.3459C46.7181 19.23 46.4513 19.2416 46.2426 19.3459L44.7233 20.123L44.99 18.4297C45.0364 18.1862 44.9437 17.9426 44.7813 17.7803L43.5752 16.5741L45.2568 16.3074C45.5003 16.2726 45.7091 16.1102 45.8135 15.9015L46.5905 14.3822L47.3675 15.9015C47.4951 16.145 47.7387 16.2958 47.9938 16.319L49.6059 16.5741L48.3997 17.7803Z" fill="#618260"/>
<path d="M46.912 19.3969C46.8169 19.3471 46.7079 19.3204 46.5954 19.3204C46.4829 19.3204 46.3681 19.3471 46.2683 19.3969L44.6482 20.2262L44.9323 18.4204C44.9729 18.2093 44.8987 17.9797 44.7398 17.8208L43.4536 16.5347L45.2478 16.2505C45.4646 16.2192 45.6618 16.0754 45.7615 15.8759L46.5907 14.2557L47.42 15.8759C47.5325 16.0916 47.7551 16.2401 47.9999 16.2621L49.7279 16.5358L48.4417 17.822C48.2782 17.9855 48.204 18.2325 48.2492 18.4656L48.5345 20.2273L46.9132 19.3981L46.912 19.3969Z" fill="#FFF000"/>
<path d="M46.5909 14.3822L47.368 15.9015C47.4955 16.145 47.7391 16.2958 47.9942 16.319L49.6063 16.5742L48.4002 17.7803C48.2146 17.9659 48.145 18.2326 48.1914 18.4762L48.4581 20.123L46.9389 19.346C46.831 19.2891 46.7139 19.2636 46.5956 19.2636C46.4715 19.2636 46.3497 19.2926 46.243 19.346L44.7237 20.123L44.9905 18.4298C45.0369 18.1862 44.9441 17.9427 44.7817 17.7803L43.5756 16.5742L45.2572 16.3074C45.5008 16.2726 45.7095 16.1103 45.8139 15.9015L46.5909 14.3822ZM46.5909 14.1271L46.4877 14.3289L45.7107 15.8481C45.6191 16.0326 45.4393 16.1636 45.241 16.1926L43.557 16.4593L43.332 16.4953L43.4932 16.6565L44.6994 17.8626C44.8444 18.0076 44.9128 18.2175 44.8757 18.4089L44.6078 20.1056L44.5718 20.3306L44.7748 20.2274L46.294 19.4503C46.3857 19.4051 46.4889 19.3808 46.5944 19.3808C46.7 19.3808 46.7974 19.4051 46.8832 19.4503L48.4036 20.2285L48.6078 20.3329L48.5706 20.1068L48.3039 18.4599C48.2621 18.2419 48.3306 18.0146 48.4802 17.865L49.6863 16.6588L49.8475 16.4976L49.6225 16.4617L48.0105 16.2065H48.007H48.0035C47.7785 16.1856 47.5733 16.0499 47.47 15.8505L46.693 14.3324L46.5898 14.1306L46.5909 14.1271Z" fill="#FFF000"/>
<path d="M42.4621 24.2865L36.93 21.0856L31.398 17.8962C31.1661 17.7571 30.8761 17.7571 30.621 17.8962L25.0889 21.0972L19.6149 24.2633C19.3482 24.3793 19.1626 24.646 19.1626 24.9591V37.7396C19.1626 38.0064 19.3018 38.2615 19.5453 38.4007L25.0773 41.6016C25.0773 41.6016 29.2072 44.0359 30.6094 44.8025C30.9875 45.009 31.2055 44.8942 31.3864 44.8025C32.8117 44.0812 36.9184 41.6016 36.9184 41.6016L40.4441 39.5605C40.4673 39.5489 40.4905 39.5373 40.5137 39.5257L42.3925 38.4355C42.6592 38.3195 42.8448 38.0528 42.8448 37.7396V24.9476C42.8448 24.6924 42.7056 24.4257 42.4621 24.2865ZM31.1661 44.8837C31.1684 44.8953 31.1869 44.8605 31.1892 44.8721C31.1904 44.8779 31.1649 44.8779 31.1661 44.8837ZM36.1414 40.2679L30.9921 43.2485L22.839 38.5399C23.2797 37.5657 23.964 36.7307 24.8222 36.116C25.808 35.3969 27.0373 34.9794 28.3363 34.9794H33.6363C36.037 34.9794 38.1826 36.3943 39.1452 38.5399L36.1414 40.2679ZM27.0721 29.3082C27.0721 27.1395 28.8233 25.3883 30.9921 25.3883C33.1608 25.3883 34.9121 27.1395 34.9121 29.3082C34.9121 31.477 33.1608 33.2282 30.9921 33.2282C28.8233 33.2282 27.0721 31.477 27.0721 29.3082ZM41.3023 37.2989L40.4789 37.7744C39.3655 35.4433 37.104 33.7965 34.5061 33.4949C36.9532 31.4306 37.1156 27.7194 34.8541 25.4462C32.7201 23.3123 29.2641 23.3123 27.1301 25.4462C24.8686 27.7194 25.031 31.4306 27.478 33.4949C24.8802 33.7965 22.6187 35.4317 21.5053 37.7744L20.6935 37.3105V25.3999L25.8428 22.4193L30.9921 19.4387L41.3023 25.3999V37.2989Z" fill="#AEBAA8" stroke="#AEBAA8" stroke-width="0.57987" stroke-miterlimit="10"/>
<path d="M31.1899 44.8721C31.1875 44.8602 31.1684 44.896 31.1661 44.884C31.1649 44.8781 31.1911 44.8781 31.1899 44.8721Z" fill="black"/>
</svg>
