<svg width="56" height="56" viewBox="0 0 56 56" fill="none" xmlns="http://www.w3.org/2000/svg">
<path fill-rule="evenodd" clip-rule="evenodd" d="M52.3602 21.5601C51.8 19.3203 50.9602 17.08 49.5602 15.1203L50.9602 11.2003L44.5204 4.76052L40.6005 6.16052C38.6402 5.04062 36.4004 4.20031 34.1606 3.36051L32.4801 0H23.5199L21.5601 3.63981C19.3203 4.19998 17.08 5.03982 15.1203 6.43982L11.48 5.03982L5.03982 11.48L6.43982 15.4C5.31992 17.3602 4.47962 19.6 3.63981 21.8398L0 23.5199V32.4801L3.63981 34.1602C4.19998 36.4 5.03982 38.6403 6.43982 40.6L5.03982 44.52L11.4796 50.9598L15.3996 49.5598C17.3598 50.6797 19.5996 51.52 21.8394 52.3598L23.5199 56H32.4801L34.1602 52.3602C36.4 51.8 38.6403 50.9602 40.6001 49.5602L44.52 50.9602L50.9598 44.5204L49.5598 40.6004C50.6797 38.6402 51.52 36.4004 52.3598 34.1606L55.9996 32.4805L56 23.52L52.3602 21.5601ZM50.4 29.1199L47.6 30.5199L47.3199 31.9199C46.7597 34.4398 45.9199 36.6801 44.5199 38.9199L43.68 40.0398L44.8 43.12L43.3999 44.52L40.3198 43.4001L39.1999 44.2399C36.9601 45.6399 34.7198 46.7598 32.1999 47.0399L30.5198 47.6001L29.1198 50.4001H26.88L25.48 47.6001L24.08 47.32C21.5601 46.7598 19.3198 45.92 17.0799 44.52L15.96 43.6801L12.8799 44.8L11.4799 43.4L12.5998 40.3199L11.76 39.2C10.36 36.9602 9.24007 34.7199 8.95997 32.2L8.39981 30.5199L5.5998 29.1199V26.8801L8.39981 25.4801L8.67989 24.0801C9.24006 21.5602 10.0799 19.3198 11.4799 17.08L12.3197 15.9601L11.4799 12.88L12.8799 11.48L15.96 12.5999L17.0799 11.7601C19.3197 10.3601 21.56 9.24017 24.08 8.96007L25.48 8.39991L26.88 5.5999H29.1198L30.5198 8.39991L31.9198 8.67999C34.4397 9.24015 36.68 10.08 38.9198 11.48L40.0397 12.3198L43.1198 11.1999L44.5198 12.5999L43.3999 15.6801L44.2398 16.8C45.6398 19.0398 46.7597 21.2801 47.0398 23.8L47.5999 25.4801L50.4 26.8801L50.4 29.1199ZM28 39C34.0751 39 39 34.0751 39 28C39 21.9249 34.0751 17 28 17C21.9249 17 17 21.9249 17 28C17 34.0751 21.9249 39 28 39ZM28 44C36.8366 44 44 36.8366 44 28C44 19.1634 36.8366 12 28 12C19.1634 12 12 19.1634 12 28C12 36.8366 19.1634 44 28 44ZM23.25 22H32.7501C33.3467 22 33.919 22.2477 34.341 22.6887C34.763 23.1296 35 23.7277 35 24.3511V29.8372C35 30.4606 34.763 31.0586 34.341 31.4996C33.919 31.9406 33.3467 32.1883 32.75 32.1883H26L25.5303 34.7688C25.3923 34.9165 25.2031 34.9998 25.0055 35C24.8053 35.0015 24.6128 34.9195 24.471 34.7721C24.3289 34.6245 24.2495 34.424 24.25 34.2147L23.25 32.1882C22.6533 32.1882 22.081 31.9405 21.6591 31.4996C21.2371 31.0586 21 30.4606 21 29.8372V24.3511C21 23.7276 21.2371 23.1296 21.6591 22.6887C22.081 22.2477 22.6533 22 23.25 22Z" fill="#00582E"/>
</svg>
