<svg width="47" height="47" viewBox="0 0 47 47" fill="none" xmlns="http://www.w3.org/2000/svg">
<path d="M29.1862 5.69318L26.1377 5.2105L24.7405 2.45415C24.4356 1.85715 23.5592 1.84445 23.2289 2.44145L21.819 5.1978L18.7959 5.68047C18.0846 5.78209 17.8432 6.63313 18.3132 7.10311L20.498 9.28786L20.028 12.2728C19.8629 13.0477 20.6377 13.5304 21.222 13.2255L23.9783 11.8283L26.7347 13.2255C27.3317 13.5304 28.0557 13.035 27.9414 12.3491L27.4587 9.30056L29.6435 7.11581C30.1134 6.64583 29.8721 5.8075 29.1862 5.69318ZM25.9853 8.39872C25.782 8.61465 25.7058 8.8941 25.7566 9.16084L26.0361 10.9772L24.3721 10.1262C24.1308 9.99918 23.8386 10.0119 23.61 10.1262L21.946 10.9772L22.2382 9.12274C22.289 8.85599 22.1874 8.58925 22.0095 8.41142L20.6885 7.0904L22.5303 6.79826C22.797 6.76015 23.0257 6.58232 23.14 6.35368L23.991 4.68971L24.8421 6.35368C24.9818 6.62043 25.2358 6.78555 25.5153 6.81096L27.3063 7.0777L25.9853 8.39872Z" fill="#618260"/>
<path d="M22.1762 9.11258C22.2206 8.8814 22.1393 8.6299 21.9653 8.45589L20.5566 7.04723L22.5216 6.73603C22.7592 6.70173 22.9751 6.54549 23.0844 6.32575L23.9925 4.55127L24.9007 6.32575C25.0265 6.56582 25.2589 6.72459 25.5231 6.74873L27.4424 7.03452L26.0325 8.44445C25.8509 8.63753 25.7734 8.89538 25.8216 9.14942L26.1201 11.0903L24.3457 10.1834C24.2415 10.1287 24.1221 10.0995 23.9989 10.0995C23.8757 10.0995 23.7499 10.1287 23.6407 10.1834L21.8662 11.0916L22.1774 9.11385L22.1762 9.11258Z" fill="#FFF000"/>
<path d="M23.9912 4.68972L24.8422 6.35369C24.9819 6.62044 25.236 6.78557 25.5154 6.81097L27.3064 7.07771L25.9854 8.39873C25.7821 8.61466 25.7059 8.89411 25.7567 9.16085L26.0362 10.9772L24.3722 10.1262C24.2541 10.064 24.1258 10.036 23.9962 10.036C23.8603 10.036 23.727 10.0678 23.6101 10.1262L21.9461 10.9772L22.2383 9.12275C22.2891 8.856 22.1875 8.58926 22.0096 8.41143L20.6886 7.09042L22.5304 6.79827C22.7972 6.76016 23.0258 6.58233 23.1401 6.35369L23.9912 4.68972ZM23.9912 4.41028L23.8781 4.63129L23.0271 6.29527C22.9267 6.49723 22.7286 6.64076 22.5126 6.67252L20.6683 6.96466L20.4219 7.00404L20.5984 7.1806L21.9194 8.50161C22.0782 8.66039 22.1532 8.8903 22.1125 9.09988L21.8191 10.9582L21.7797 11.2046L22.002 11.0916L23.666 10.2405C23.7663 10.191 23.8794 10.1643 23.995 10.1643C24.1106 10.1643 24.2173 10.191 24.3112 10.2405L25.9765 11.0928L26.1975 11.2059L26.1594 10.9607L25.88 9.14434C25.8342 8.90554 25.9066 8.66801 26.0756 8.48891L27.394 7.17044L27.5719 6.99261L27.3229 6.95577L25.5319 6.68903H25.5281H25.5243C25.2817 6.66744 25.0683 6.52136 24.9527 6.29908L24.1017 4.63638L23.9886 4.41536L23.9912 4.41028Z" fill="#FFF000"/>
<path d="M12.1027 12.184L9.05419 11.7013L7.64426 8.94496C7.33941 8.34796 6.46297 8.33526 6.15812 8.94496L4.74819 11.7013L1.7251 12.184C1.01378 12.2856 0.772441 13.1366 1.24242 13.6066L3.42717 15.7787L2.9572 18.7637C2.79207 19.5385 3.5669 20.0212 4.15119 19.7163L6.90754 18.3191L9.66389 19.7163C10.2609 20.0212 10.9849 19.5258 10.8706 18.8399L10.3879 15.7914L12.5727 13.6066C13.0426 13.1366 12.7886 12.2983 12.1027 12.184ZM8.88906 14.9022C8.68583 15.1055 8.60962 15.3976 8.66042 15.6643L8.93987 17.468L7.2759 16.617C7.02186 16.49 6.74241 16.5027 6.51377 16.617L4.8498 17.468L5.14195 15.6135C5.19276 15.3468 5.09114 15.0801 4.91331 14.9022L3.5923 13.5812L5.4341 13.2891C5.70084 13.251 5.92948 13.0731 6.0438 12.8445L6.89484 11.1805L7.74588 12.8445C7.8856 13.1112 8.13964 13.2764 8.41909 13.3018L10.2101 13.5812L8.88906 14.9022Z" fill="#618260"/>
<path d="M5.07752 15.6033C5.12198 15.3721 5.04069 15.1206 4.86667 14.9466L3.45801 13.5379L5.42302 13.2267C5.66055 13.1925 5.87648 13.0349 5.98572 12.8165L6.89392 11.042L7.80211 12.8165C7.92786 13.0565 8.16031 13.2153 8.42452 13.2394L10.3425 13.5392L8.9326 14.9491C8.7535 15.1282 8.67221 15.3988 8.72174 15.6541L9.02024 17.5836L7.24576 16.6754C7.13526 16.6195 7.01713 16.5915 6.89392 16.5915C6.77071 16.5915 6.65004 16.6207 6.5408 16.6754L4.76632 17.5836L5.07752 15.6058V15.6033Z" fill="#FFF000"/>
<path d="M6.89545 11.1806L7.74649 12.8445C7.88621 13.1113 8.14026 13.2764 8.4197 13.3018L10.2107 13.5813L8.88968 14.9023C8.68644 15.1055 8.61023 15.3977 8.66104 15.6644L8.94049 17.4681L7.27651 16.6171C7.1533 16.5548 7.02374 16.5269 6.89672 16.5269C6.76335 16.5269 6.63252 16.5586 6.51439 16.6171L4.85042 17.4681L5.14257 15.6136C5.19338 15.3468 5.09176 15.0801 4.91393 14.9023L3.59292 13.5813L5.43472 13.2891C5.70146 13.251 5.9301 13.0732 6.04441 12.8445L6.89545 11.1806ZM6.89545 10.9011L6.7824 11.1221L5.93137 12.7861C5.83102 12.9881 5.63287 13.1316 5.41693 13.1634L3.57259 13.4555L3.32617 13.4949L3.50273 13.6714L4.82375 14.9925C4.98252 15.1512 5.05746 15.3811 5.01682 15.5907L4.7234 17.449L4.68402 17.6955L4.90631 17.5824L6.57028 16.7314C6.67063 16.6818 6.7824 16.6552 6.89418 16.6552C7.00596 16.6552 7.1152 16.6806 7.21809 16.7326L8.88079 17.5837L9.1018 17.6967L9.0637 17.4503L8.78425 15.6466C8.73852 15.4065 8.81219 15.1576 8.97732 14.9937L10.2983 13.6727L10.4749 13.4962L10.2285 13.458L8.43748 13.1786H8.43367H8.42986C8.18725 13.157 7.97386 13.0109 7.85827 12.7887L7.00723 11.1259L6.89418 10.9049L6.89545 10.9011Z" fill="#FFF000"/>
<path d="M46.2958 12.184L43.2473 11.7013L41.8374 8.94496C41.5326 8.34796 40.6434 8.33526 40.3259 8.94496L38.9286 11.7013L35.9055 12.184C35.1942 12.2856 34.9402 13.1366 35.4229 13.6066L37.6076 15.7787L37.1376 18.7637C36.9852 19.5385 37.7473 20.0212 38.3316 19.7163L41.088 18.3191L43.8443 19.7163C44.4286 20.0212 45.1526 19.5258 45.051 18.8399L44.5683 15.7914L46.7658 13.6066C47.2231 13.1366 46.9817 12.2983 46.2958 12.184ZM43.0568 14.9022C42.8536 15.1055 42.7774 15.3976 42.8282 15.6643L43.1203 17.468L41.4563 16.617C41.215 16.49 40.9229 16.5027 40.6942 16.617L39.0302 17.468L39.3224 15.6135C39.3732 15.3468 39.2716 15.0801 39.0938 14.9022L37.7727 13.5812L39.6145 13.2891C39.8813 13.251 40.1099 13.0731 40.2242 12.8445L41.0753 11.1805L41.9263 12.8445C42.066 13.1112 42.3328 13.2764 42.6122 13.3018L44.3778 13.5812L43.0568 14.9022Z" fill="#618260"/>
<path d="M41.4274 16.6728C41.3232 16.6182 41.2038 16.589 41.0806 16.589C40.9574 16.589 40.8317 16.6182 40.7224 16.6728L38.948 17.581L39.2592 15.6033C39.3036 15.3721 39.2223 15.1206 39.0483 14.9466L37.6396 13.5379L39.6047 13.2267C39.8422 13.1925 40.0581 13.0349 40.1674 12.8165L41.0756 11.042L41.9838 12.8165C42.107 13.0527 42.3508 13.2153 42.6189 13.2394L44.5115 13.5392L43.1028 14.9479C42.9237 15.127 42.8424 15.3975 42.892 15.6528L43.2044 17.5823L41.4287 16.6741L41.4274 16.6728Z" fill="#FFF000"/>
<path d="M41.0761 11.1806L41.9272 12.8445C42.0669 13.1113 42.3336 13.2764 42.6131 13.3018L44.3787 13.5813L43.0576 14.9023C42.8544 15.1055 42.7782 15.3977 42.829 15.6644L43.1211 17.4681L41.4572 16.6171C41.339 16.5548 41.2108 16.5269 41.0812 16.5269C40.9453 16.5269 40.8119 16.5586 40.6951 16.6171L39.0311 17.4681L39.3232 15.6136C39.374 15.3468 39.2724 15.0801 39.0946 14.9023L37.7736 13.5813L39.6154 13.2891C39.8821 13.251 40.1108 13.0732 40.2251 12.8445L41.0761 11.1806ZM41.0761 10.9011L40.9631 11.1221L40.112 12.7861C40.0117 12.9881 39.8148 13.1316 39.5976 13.1634L37.7533 13.4555L37.5068 13.4949L37.6834 13.6714L39.0044 14.9925C39.1632 15.1512 39.2381 15.3811 39.1975 15.5907L38.9041 17.449L38.8647 17.6955L39.087 17.5824L40.7509 16.7314C40.8513 16.6818 40.9643 16.6552 41.0799 16.6552C41.1955 16.6552 41.3022 16.6818 41.3962 16.7314L43.0615 17.5837L43.285 17.698L43.2444 17.4503L42.9522 15.6466C42.9065 15.4078 42.9814 15.1589 43.1453 14.995L44.4663 13.674L44.6429 13.4974L44.3964 13.458L42.6308 13.1786H42.627H42.6232C42.3768 13.1557 42.152 13.0071 42.0389 12.7887L41.1879 11.1259L41.0748 10.9049L41.0761 10.9011Z" fill="#FFF000"/>
<path d="M36.5536 22.0281L30.4947 18.5223L24.4358 15.0292C24.1818 14.8768 23.8642 14.8768 23.5848 15.0292L17.5259 18.535L11.5305 22.0027C11.2384 22.1297 11.0352 22.4218 11.0352 22.7648V36.7625C11.0352 37.0546 11.1876 37.3341 11.4543 37.4865L17.5132 40.9923C17.5132 40.9923 22.0364 43.6584 23.5721 44.498C23.9862 44.7241 24.225 44.5984 24.4231 44.498C25.9842 43.708 30.482 40.9923 30.482 40.9923L34.3434 38.7567C34.3689 38.744 34.3943 38.7313 34.4197 38.7186L36.4774 37.5246C36.7695 37.3976 36.9728 37.1054 36.9728 36.7625V22.7521C36.9728 22.4726 36.8204 22.1805 36.5536 22.0281ZM24.1818 44.5869C24.1843 44.5997 24.2047 44.5615 24.2072 44.5742C24.2085 44.5806 24.1805 44.5806 24.1818 44.5869ZM29.631 39.5315L23.9913 42.796L15.0617 37.6389C15.5444 36.5719 16.2938 35.6574 17.2338 34.9842C18.3134 34.1967 19.6599 33.7394 21.0825 33.7394H26.8873C29.5167 33.7394 31.8665 35.289 32.9208 37.6389L29.631 39.5315ZM19.698 27.5281C19.698 25.1528 21.616 23.2348 23.9913 23.2348C26.3666 23.2348 28.2846 25.1528 28.2846 27.5281C28.2846 29.9034 26.3666 31.8214 23.9913 31.8214C21.616 31.8214 19.698 29.9034 19.698 27.5281ZM35.2834 36.2798L34.3816 36.8006C33.1622 34.2475 30.6853 32.4438 27.84 32.1135C30.5201 29.8525 30.698 25.7879 28.2211 23.2983C25.8839 20.9611 22.0987 20.9611 19.7615 23.2983C17.2846 25.7879 17.4624 29.8525 20.1425 32.1135C17.2973 32.4438 14.8204 34.2348 13.601 36.8006L12.7118 36.2925V23.2475L18.3515 19.983L23.9913 16.7186L35.2834 23.2475V36.2798Z" fill="#AEBAA8" stroke="#AEBAA8" stroke-width="0.57987" stroke-miterlimit="10"/>
<path d="M24.2078 44.5742C24.2052 44.5612 24.1843 44.6004 24.1817 44.5873C24.1804 44.5808 24.2091 44.5808 24.2078 44.5742Z" fill="black"/>
</svg>
