<svg xmlns="http://www.w3.org/2000/svg" width="54" height="54" viewBox="0 0 54 54">
  <g id="Group_100" data-name="Group 100" transform="translate(-738 -1061)">
    <g id="Group_86" data-name="Group 86" transform="translate(738 1061)">
      <path id="Path_598" data-name="Path 598" d="M27,0A27,27,0,1,1,0,27,27,27,0,0,1,27,0Z" fill="#606060"/>
    </g>
    <g id="Group_92" data-name="Group 92" transform="translate(747.581 1070.581)">
      <path id="Path_274" data-name="Path 274" d="M344.226,327.367l.679-.336a4.286,4.286,0,0,0,.983.406l.241.717h.59A13.858,13.858,0,0,1,347.8,340.42a4.64,4.64,0,0,0-.786-.057,4.494,4.494,0,0,0-4.364,4.275,4.388,4.388,0,0,0,.38,1.941,13.833,13.833,0,0,1-15.165.748,2.779,2.779,0,0,0-1.947-1.383,13.833,13.833,0,0,1-2.968-17.651l.273.552,1.452-2.9H327.1a1.663,1.663,0,0,0,1.662-1.662v-1.357a13.844,13.844,0,0,1,13.326.609v.59l.717.241a4.591,4.591,0,0,0,.406.983l-.336.679Z" transform="translate(-317.67 -318.17)" fill="#fff"/>
      <path id="Path_275" data-name="Path 275" d="M302.908,274.943v-1.909l-.717-.241a4.588,4.588,0,0,0-.406-.983l.336-.679-1.351-1.351-.679.342a4.285,4.285,0,0,0-.983-.406l-.241-.717h-1.909l-.241.717a4.588,4.588,0,0,0-.983.406l-.679-.336-1.243,1.243a17.22,17.22,0,0,0-14.309-.875A1.661,1.661,0,0,0,277.931,269h-7.763a1.663,1.663,0,0,0-1.662,1.662v4.44a1.663,1.663,0,0,0,1.662,1.662h1.161a17.169,17.169,0,0,0,.875,20.093,2.777,2.777,0,0,0-1.992,2.169,2.221,2.221,0,0,0,.507,4.383h7.77a2.216,2.216,0,0,0,1.77-.894,17.133,17.133,0,0,0,15.438-2.309v.983a2.22,2.22,0,1,0,4.44,0v-1.116a1.027,1.027,0,0,1,.4-.85,4.449,4.449,0,0,0,1.82-3.584,4.4,4.4,0,0,0-.856-2.613,17.22,17.22,0,0,0-.622-14.93l1.243-1.243-.336-.679a4.286,4.286,0,0,0,.406-.983Zm-7.852,3.254.679-.336a4.288,4.288,0,0,0,.983.406l.241.717h.59a13.858,13.858,0,0,1,1.078,12.266,4.647,4.647,0,0,0-.786-.057,4.494,4.494,0,0,0-4.364,4.275,4.389,4.389,0,0,0,.381,1.941,13.834,13.834,0,0,1-15.165.748,2.779,2.779,0,0,0-1.947-1.383,13.833,13.833,0,0,1-2.968-17.651l.273.552,1.452-2.9h2.429a1.663,1.663,0,0,0,1.662-1.662v-1.357a13.845,13.845,0,0,1,13.326.609v.59l.717.241a4.591,4.591,0,0,0,.406.983l-.336.679Z" transform="translate(-268.5 -269)" fill="none"/>
      <path id="Path_276" data-name="Path 276" d="M303.5,303.9h6.66v1.11H303.5Z" transform="translate(-301.28 -301.687)" fill="#fff"/>
      <path id="Path_277" data-name="Path 277" d="M391,338.9h1.11v1.11H391Z" transform="translate(-383.23 -334.466)" fill="#fff"/>
      <path id="Path_278" data-name="Path 278" d="M303.5,338.9h4.44v1.11H303.5Z" transform="translate(-301.28 -334.466)" fill="#fff"/>
      <path id="Path_279" data-name="Path 279" d="M446.451,382.7h-9.989a1.663,1.663,0,0,0-1.662,1.662v17.759a1.663,1.663,0,0,0,1.662,1.662h9.989a1.663,1.663,0,0,0,1.662-1.662V384.362A1.655,1.655,0,0,0,446.451,382.7Zm-9.989,1.11h9.989a.559.559,0,0,1,.558.558v1.662h-11.1v-1.662A.554.554,0,0,1,436.462,383.81Zm10.548,3.33v11.1h-11.1v-11.1Zm-.558,15.539h-9.989a.559.559,0,0,1-.558-.558v-2.778H447v2.778A.554.554,0,0,1,446.451,402.679Z" transform="translate(-424.252 -375.488)" fill="#606060"/>
      <path id="Path_280" data-name="Path 280" d="M294.879,728.34h-7.77a1.11,1.11,0,1,1,0-2.22h.558v-.558a1.663,1.663,0,0,1,1.662-1.662,1.64,1.64,0,0,1,1.25.577l.419.476.419-.476a1.631,1.631,0,0,1,1.25-.577,1.663,1.663,0,0,1,1.662,1.662v.558h.558a1.11,1.11,0,1,1-.006,2.22Z" transform="translate(-284.89 -695.048)" fill="#fff"/>
      <path id="Path_281" data-name="Path 281" d="M715.91,777.51a1.107,1.107,0,0,1-1.11-1.11h2.22A1.111,1.111,0,0,1,715.91,777.51Z" transform="translate(-686.493 -744.218)" fill="#fff"/>
      <path id="Path_282" data-name="Path 282" d="M685.06,642.606a2.15,2.15,0,0,0-.85,1.75v.006h-.558v-2.778h-1.11v2.778h-.558v-.006a2.19,2.19,0,0,0-.863-1.757,3.324,3.324,0,0,1-1.351-2.8,3.363,3.363,0,0,1,3.273-3.2h.057a3.335,3.335,0,0,1,3.33,3.33,3.341,3.341,0,0,1-1.37,2.677Z" transform="translate(-653.684 -613.285)" fill="#fff"/>
      <path id="Path_283" data-name="Path 283" d="M723.5,680.2h1.11v1.11H723.5Z" transform="translate(-694.641 -654.12)" fill="#fff"/>
      <path id="Path_284" data-name="Path 284" d="M457.614,288.6q-.1.238-.171.495l-.717.241v.032a15.024,15.024,0,0,0-13.326-.558v-1.205a16.05,16.05,0,0,1,14.214,1Z" transform="translate(-432.307 -285.296)" fill="#fff"/>
      <path id="Path_285" data-name="Path 285" d="M289.019,392.4l.564,1.135a14.963,14.963,0,0,0,2.074,18.983,2.7,2.7,0,0,0-.66.368,2.689,2.689,0,0,0-.97-.463,16.079,16.079,0,0,1-1.008-20.023Z" transform="translate(-284.89 -384.574)" fill="#fff"/>
      <path id="Path_286" data-name="Path 286" d="M748.72,426.355a4.543,4.543,0,0,0-.964-.584,14.975,14.975,0,0,0-.856-12.584h.032l.241-.717a3.5,3.5,0,0,0,.495-.171,16.07,16.07,0,0,1,1.053,14.055Z" transform="translate(-716.557 -403.211)" fill="#fff"/>
      <path id="Path_287" data-name="Path 287" d="M452.852,400.2h9.989a.559.559,0,0,1,.558.558v1.662H452.3v-1.662A.554.554,0,0,1,452.852,400.2Z" transform="translate(-440.642 -391.879)" fill="#fff"/>
      <rect id="Rectangle_9" data-name="Rectangle 9" width="11.099" height="11.099" transform="translate(11.657 11.651)" fill="#fff"/>
      <path id="Path_288" data-name="Path 288" d="M462.748,648.436h-9.989a.559.559,0,0,1-.558-.558V645.1h11.1v2.778A.554.554,0,0,1,462.748,648.436Z" transform="translate(-440.549 -621.246)" fill="#fff"/>
      <path id="Path_289" data-name="Path 289" d="M504.8,662.7h4.44v1.11H504.8Z" transform="translate(-489.813 -637.729)" fill="#606060"/>
      <path id="Path_290" data-name="Path 290" d="M509.684,492.154,504.8,488.9v6.514Zm-3.774-1.186,1.776,1.186-1.776,1.186Z" transform="translate(-489.813 -474.953)" fill="#606060"/>
      <path id="Path_291" data-name="Path 291" d="M678.582,290.44l-.558.184-.063.317a3.255,3.255,0,0,1-.495,1.186l-.177.266.26.526-.222.222-.526-.266-.266.178a3.37,3.37,0,0,1-1.186.495l-.317.063-.184.558h-.311l-.184-.558-.317-.063a3.151,3.151,0,0,1-1.186-.495l-.266-.178-.526.266-.222-.222.26-.526-.178-.266a3.367,3.367,0,0,1-.495-1.186l-.063-.317-.558-.184v-.311l.558-.184.063-.317a3.255,3.255,0,0,1,.495-1.186l.178-.266-.26-.526.222-.222.526.266.266-.178a3.37,3.37,0,0,1,1.186-.495l.317-.063.184-.558h.311l.184.558.317.063a3.151,3.151,0,0,1,1.186.495l.266.178.526-.266.222.222-.26.526.177.266a3.369,3.369,0,0,1,.495,1.186l.063.317.558.184Z" transform="translate(-645.284 -285.296)" fill="#fff"/>
      <circle id="Ellipse_21" data-name="Ellipse 21" cx="2.22" cy="2.22" r="2.22" transform="translate(27.197 2.772)" fill="#606060"/>
      <path id="Path_292" data-name="Path 292" d="M715.91,332.42a1.11,1.11,0,1,1,1.11-1.11A1.107,1.107,0,0,1,715.91,332.42Z" transform="translate(-686.493 -326.318)" fill="#fff"/>
      <path id="Path_293" data-name="Path 293" d="M457.784,735.114a2.374,2.374,0,0,0,.032-.3,2.216,2.216,0,0,0-.216-.939,15.015,15.015,0,0,0,5.214.939A14.785,14.785,0,0,0,471.535,732a4.267,4.267,0,0,0,.8.786,16.134,16.134,0,0,1-9.52,3.133,15.842,15.842,0,0,1-5.03-.806Z" transform="translate(-445.606 -702.634)" fill="#fff"/>
    </g>
  </g>
</svg>
