<svg width="40" height="56" viewBox="0 0 40 56" fill="none" xmlns="http://www.w3.org/2000/svg">
<path fill-rule="evenodd" clip-rule="evenodd" d="M5.6 0H33.6C36.6801 0 39.2 2.5199 39.2 5.6V50.4C39.2 53.4801 36.6801 56 33.6 56H5.6C2.5199 56 0 53.4801 0 50.4V5.6C0 2.5199 2.5199 0 5.6 0ZM33.6 39.2V5.6H5.6V39.2H33.6ZM5.6 44.8V50.4H33.6V44.8H5.6ZM22.3333 17.3333C22.3333 15.9332 21.4001 15 20 15C18.5999 15 17.6667 15.9332 17.6667 17.3333C17.6667 18.7334 18.5999 19.6667 20 19.6667C23.9668 19.6667 27 22.6998 27 26.6667C27 29.6998 25.1335 32.2666 22.3333 33.1998V36H17.6667V33.1998C14.8665 32.2666 13 29.6998 13 26.6667H17.6667C17.6667 28.0667 18.5999 29 20 29C21.4001 29 22.3333 28.0667 22.3333 26.6667C22.3333 25.2666 21.4001 24.3333 20 24.3333C16.0332 24.3333 13 21.3002 13 17.3333C13 14.3002 14.8665 11.7334 17.6667 10.8002V8H22.3333V10.8002C25.1335 11.7334 27 14.3002 27 17.3333H22.3333Z" fill="#00582E"/>
</svg>
