<svg xmlns="http://www.w3.org/2000/svg" xmlns:xlink="http://www.w3.org/1999/xlink" width="54" height="54" viewBox="0 0 54 54">
  <defs>
    <linearGradient id="linear-gradient" x1="0.145" y1="0.112" x2="0.922" y2="0.876" gradientUnits="objectBoundingBox">
      <stop offset="0" stop-color="#fde159"/>
      <stop offset="1" stop-color="#fe0817"/>
    </linearGradient>
  </defs>
  <g id="Group_625" data-name="Group 625" transform="translate(-738 -1061)">
    <g id="Group_86" data-name="Group 86" transform="translate(738 1061)">
      <path id="Path_598" data-name="Path 598" d="M27,0A27,27,0,1,1,0,27,27,27,0,0,1,27,0Z" fill="url(#linear-gradient)"/>
    </g>
    <g id="Group_92" data-name="Group 92" transform="translate(747.581 1070.581)">
      <path id="Subtraction_3" data-name="Subtraction 3" d="M13072.294-12732.84a13.832,13.832,0,0,1-7.015-1.908,2.756,2.756,0,0,0-1.947-1.383,13.789,13.789,0,0,1-4.913-10.575,13.8,13.8,0,0,1,1.947-7.077l.272.552,1.451-2.906h2.431a1.665,1.665,0,0,0,1.662-1.662v-1.356a13.869,13.869,0,0,1,6.105-1.422,13.87,13.87,0,0,1,7.219,2.029v.592l.716.239a4.576,4.576,0,0,0,.407.985l-.339.68,1.354,1.344.68-.339a4.043,4.043,0,0,0,.982.407l.239.716h.591a13.856,13.856,0,0,1,2.03,7.219,13.8,13.8,0,0,1-.953,5.048,5.432,5.432,0,0,0-.7-.056h-.085a4.487,4.487,0,0,0-4.365,4.276,4.3,4.3,0,0,0,.381,1.938A13.715,13.715,0,0,1,13072.294-12732.84Zm-5-23.856a1.666,1.666,0,0,0-1.665,1.662v17.761a1.664,1.664,0,0,0,1.665,1.658h9.987a1.663,1.663,0,0,0,1.662-1.658v-17.761a1.622,1.622,0,0,0-.479-1.169,1.646,1.646,0,0,0-1.183-.493Zm9.987,19.978h-9.987a.559.559,0,0,1-.562-.555v-2.778h11.1v2.778a.529.529,0,0,1-.157.388A.553.553,0,0,1,13077.286-12736.719Zm-7.212-2.217v1.107h4.44v-1.107Zm7.771-2.22h-11.1v-11.1h11.1v11.1h0Zm-6.946-7.824h0v4.3l3.219-2.151-3.219-2.151Zm6.946-4.387h-11.1v-1.661a.549.549,0,0,1,.552-.559h9.987a.56.56,0,0,1,.559.559v1.66Z" transform="translate(-13055.088 12763.907)" fill="#fff"/>
      <path id="Path_275" data-name="Path 275" d="M302.908,274.943v-1.909l-.717-.241a4.588,4.588,0,0,0-.406-.983l.336-.679-1.351-1.351-.679.342a4.285,4.285,0,0,0-.983-.406l-.241-.717h-1.909l-.241.717a4.588,4.588,0,0,0-.983.406l-.679-.336-1.243,1.243a17.22,17.22,0,0,0-14.309-.875A1.661,1.661,0,0,0,277.931,269h-7.763a1.663,1.663,0,0,0-1.662,1.662v4.44a1.663,1.663,0,0,0,1.662,1.662h1.161a17.169,17.169,0,0,0,.875,20.093,2.777,2.777,0,0,0-1.992,2.169,2.221,2.221,0,0,0,.507,4.383h7.77a2.216,2.216,0,0,0,1.77-.894,17.133,17.133,0,0,0,15.438-2.309v.983a2.22,2.22,0,1,0,4.44,0v-1.116a1.027,1.027,0,0,1,.4-.85,4.449,4.449,0,0,0,1.82-3.584,4.4,4.4,0,0,0-.856-2.613,17.22,17.22,0,0,0-.622-14.93l1.243-1.243-.336-.679a4.286,4.286,0,0,0,.406-.983Zm-7.852,3.254.679-.336a4.288,4.288,0,0,0,.983.406l.241.717h.59a13.858,13.858,0,0,1,1.078,12.266,4.647,4.647,0,0,0-.786-.057,4.494,4.494,0,0,0-4.364,4.275,4.389,4.389,0,0,0,.381,1.941,13.834,13.834,0,0,1-15.165.748,2.779,2.779,0,0,0-1.947-1.383,13.833,13.833,0,0,1-2.968-17.651l.273.552,1.452-2.9h2.429a1.663,1.663,0,0,0,1.662-1.662v-1.357a13.845,13.845,0,0,1,13.326.609v.59l.717.241a4.591,4.591,0,0,0,.406.983l-.336.679Z" transform="translate(-268.5 -269)" fill="none"/>
      <path id="Path_276" data-name="Path 276" d="M303.5,303.9h6.66v1.11H303.5Z" transform="translate(-301.28 -301.687)" fill="#fff"/>
      <path id="Path_277" data-name="Path 277" d="M391,338.9h1.11v1.11H391Z" transform="translate(-383.23 -334.466)" fill="#fff"/>
      <path id="Path_278" data-name="Path 278" d="M303.5,338.9h4.44v1.11H303.5Z" transform="translate(-301.28 -334.466)" fill="#fff"/>
      <path id="Path_280" data-name="Path 280" d="M294.879,728.34h-7.77a1.11,1.11,0,1,1,0-2.22h.558v-.558a1.663,1.663,0,0,1,1.662-1.662,1.64,1.64,0,0,1,1.25.577l.419.476.419-.476a1.631,1.631,0,0,1,1.25-.577,1.663,1.663,0,0,1,1.662,1.662v.558h.558a1.11,1.11,0,1,1-.006,2.22Z" transform="translate(-284.89 -695.048)" fill="#fff"/>
      <path id="Path_281" data-name="Path 281" d="M715.91,777.51a1.107,1.107,0,0,1-1.11-1.11h2.22A1.111,1.111,0,0,1,715.91,777.51Z" transform="translate(-686.493 -744.218)" fill="#fff"/>
      <path id="Path_282" data-name="Path 282" d="M685.06,642.606a2.15,2.15,0,0,0-.85,1.75v.006h-.558v-2.778h-1.11v2.778h-.558v-.006a2.19,2.19,0,0,0-.863-1.757,3.324,3.324,0,0,1-1.351-2.8,3.363,3.363,0,0,1,3.273-3.2h.057a3.335,3.335,0,0,1,3.33,3.33,3.341,3.341,0,0,1-1.37,2.677Z" transform="translate(-653.684 -613.285)" fill="#fff"/>
      <path id="Path_283" data-name="Path 283" d="M723.5,680.2h1.11v1.11H723.5Z" transform="translate(-694.641 -654.12)" fill="#fff"/>
      <path id="Path_284" data-name="Path 284" d="M457.614,288.6q-.1.238-.171.495l-.717.241v.032a15.024,15.024,0,0,0-13.326-.558v-1.205a16.05,16.05,0,0,1,14.214,1Z" transform="translate(-432.307 -285.296)" fill="#fff"/>
      <path id="Path_285" data-name="Path 285" d="M289.019,392.4l.564,1.135a14.963,14.963,0,0,0,2.074,18.983,2.7,2.7,0,0,0-.66.368,2.689,2.689,0,0,0-.97-.463,16.079,16.079,0,0,1-1.008-20.023Z" transform="translate(-284.89 -384.574)" fill="#fff"/>
      <path id="Path_286" data-name="Path 286" d="M748.72,426.355a4.543,4.543,0,0,0-.964-.584,14.975,14.975,0,0,0-.856-12.584h.032l.241-.717a3.5,3.5,0,0,0,.495-.171,16.07,16.07,0,0,1,1.053,14.055Z" transform="translate(-716.557 -403.211)" fill="#fff"/>
      <path id="Path_287" data-name="Path 287" d="M452.852,400.2h9.989a.559.559,0,0,1,.558.558v1.662H452.3v-1.662A.554.554,0,0,1,452.852,400.2Z" transform="translate(-440.642 -391.879)" fill="#fff"/>
      <path id="Path_288" data-name="Path 288" d="M462.748,648.436h-9.989a.559.559,0,0,1-.558-.558V645.1h11.1v2.778A.554.554,0,0,1,462.748,648.436Z" transform="translate(-440.549 -621.246)" fill="#fff"/>
      <path id="Subtraction_4" data-name="Subtraction 4" d="M13062.468-12752.811h-.312l-.185-.561-.317-.062a3.1,3.1,0,0,1-1.187-.5l-.266-.177-.527.266-.22-.22.259-.528-.177-.266a3.306,3.306,0,0,1-.5-1.187l-.062-.317-.561-.184v-.309l.561-.187.063-.315a3.175,3.175,0,0,1,.5-1.187l.177-.266-.259-.528.22-.22.527.266.266-.177a3.321,3.321,0,0,1,1.188-.5l.317-.065.185-.558h.312l.184.558.314.065a3.1,3.1,0,0,1,1.187.5l.266.177.528-.266.223.22-.262.528.177.266a3.294,3.294,0,0,1,.5,1.187l.065.315.558.187v.309l-.558.184-.065.317a3.178,3.178,0,0,1-.5,1.188l-.177.266.262.528-.223.22-.528-.266-.266.177a3.335,3.335,0,0,1-1.187.5l-.314.063-.184.56Zm-.148-6.1a2.223,2.223,0,0,0-2.22,2.22,2.223,2.223,0,0,0,2.22,2.221,2.223,2.223,0,0,0,2.221-2.221A2.223,2.223,0,0,0,13062.319-12758.913Z" transform="translate(-13032.903 12761.685)" fill="#fff"/>
      <path id="Path_292" data-name="Path 292" d="M715.91,332.42a1.11,1.11,0,1,1,1.11-1.11A1.107,1.107,0,0,1,715.91,332.42Z" transform="translate(-686.493 -326.318)" fill="#fff"/>
      <path id="Path_293" data-name="Path 293" d="M457.784,735.114a2.374,2.374,0,0,0,.032-.3,2.216,2.216,0,0,0-.216-.939,15.015,15.015,0,0,0,5.214.939A14.785,14.785,0,0,0,471.535,732a4.267,4.267,0,0,0,.8.786,16.134,16.134,0,0,1-9.52,3.133,15.842,15.842,0,0,1-5.03-.806Z" transform="translate(-445.606 -702.634)" fill="#fff"/>
    </g>
  </g>
</svg>
