<svg xmlns="http://www.w3.org/2000/svg" xmlns:xlink="http://www.w3.org/1999/xlink" width="54" height="54" viewBox="0 0 54 54">
  <defs>
    <linearGradient id="linear-gradient" x1="0.145" y1="0.112" x2="0.922" y2="0.876" gradientUnits="objectBoundingBox">
      <stop offset="0" stop-color="#fde159"/>
      <stop offset="1" stop-color="#fe0817"/>
    </linearGradient>
  </defs>
  <g id="Group_663" data-name="Group 663" transform="translate(-283 -1816)">
    <circle id="Ellipse_8698" data-name="Ellipse 8698" cx="27" cy="27" r="27" transform="translate(283 1816)" fill="url(#linear-gradient)"/>
    <g id="Group_262" data-name="Group 262" transform="translate(234 633.968)">
      <path id="Path_505" data-name="Path 505" d="M341.25.518V8.8a.518.518,0,1,0,1.036,0V.518a.518.518,0,1,0-1.036,0Z" transform="translate(-266.199 1192.032)" fill="#fff"/>
      <path id="Path_506" data-name="Path 506" d="M393.75,53.018v6.213a.518.518,0,1,0,1.036,0V53.018a.518.518,0,1,0-1.036,0Z" transform="translate(-315.592 1142.639)" fill="#fff"/>
      <path id="Path_507" data-name="Path 507" d="M288.75,53.018v6.213a.518.518,0,1,0,1.036,0V53.018a.518.518,0,1,0-1.036,0Z" transform="translate(-216.806 1142.639)" fill="#fff"/>
      <path id="Path_508" data-name="Path 508" d="M327.225,298.127c.092.431.339.581.809.71v-1.893a1.512,1.512,0,0,0-.241.1.965.965,0,0,0-.568,1.084Z" transform="translate(-252.982 912.66)" fill="#fff"/>
      <path id="Path_509" data-name="Path 509" d="M359.252,352.768a1.147,1.147,0,0,0-.5-.2v1.893a1.893,1.893,0,0,0,.6-.291.928.928,0,0,0-.1-1.4Z" transform="translate(-282.665 860.326)" fill="#fff"/>
      <path id="Path_510" data-name="Path 510" d="M249.712,234.23a6.731,6.731,0,1,0-6.73,6.732A6.738,6.738,0,0,0,249.712,234.23Zm-7.249,4.078v-.524a3.212,3.212,0,0,1-1.458-.554,1.5,1.5,0,0,1-.4-.466.61.61,0,0,1,.582-.874h.031a.629.629,0,0,1,.582.379,1.123,1.123,0,0,0,.662.554v-2.242a5.964,5.964,0,0,1-1.13-.422,1.791,1.791,0,0,1-.3-2.928,3.113,3.113,0,0,1,1.428-.582v-.5a.534.534,0,0,1,.533-.582c.337,0,.5.262.5.582v.5a2.323,2.323,0,0,1,1.7.961.6.6,0,0,1-.552.9.691.691,0,0,1-.582-.349c-.091-.26-.34-.357-.57-.466,0,0,0,2.156,0,2.156a4.475,4.475,0,0,1,1.255.4,1.885,1.885,0,0,1,.2,2.888,2.749,2.749,0,0,1-1.458.641v.524a.534.534,0,0,1-.533.583c-.337,0-.5-.263-.5-.583Z" transform="translate(-167.412 977.994)" fill="#fff"/>
      <path id="Path_511" data-name="Path 511" d="M83.464,196.747H80.357a.518.518,0,0,0,0,1.036H92.784a.518.518,0,1,0,0-1.036H89.677v-2.071h11.391a2.069,2.069,0,0,0,2.071-2.067V177.066A2.069,2.069,0,0,0,101.068,175H91.14a1.551,1.551,0,0,1-2.925,0H84.927A1.551,1.551,0,0,1,82,175H72.073A2.069,2.069,0,0,0,70,177.066v15.543a2.069,2.069,0,0,0,2.071,2.067H83.464Zm5.178,0H84.5v-2.071h4.142ZM78.8,184.837a7.767,7.767,0,1,1,7.767,7.767A7.767,7.767,0,0,1,78.8,184.837Z" transform="translate(-11.002 1027.388)" fill="#fff"/>
    </g>
  </g>
</svg>
