<svg width="43" height="43" viewBox="0 0 43 43" fill="none" xmlns="http://www.w3.org/2000/svg">
<path fill-rule="evenodd" clip-rule="evenodd" d="M16.7998 16.8C21.56 16.8 25.1998 13.1602 25.1998 8.40001C25.1998 3.63981 21.56 0 16.7998 0C12.0396 0 8.39978 3.63981 8.39978 8.40001C8.39978 13.1602 12.0396 16.8 16.7998 16.8ZM16.7998 5.60001C18.4799 5.60001 19.5998 6.71991 19.5998 8.40001C19.5998 10.0801 18.4799 11.2 16.7998 11.2C15.1197 11.2 13.9998 10.0801 13.9998 8.40001C13.9998 6.71991 15.1197 5.60001 16.7998 5.60001ZM32 43C38.0751 43 43 38.0751 43 32C43 25.9249 38.0751 21 32 21C25.9249 21 21 25.9249 21 32C21 38.0751 25.9249 43 32 43ZM33 30C33 29.4 32.6 29 32 29C31.4 29 31 29.4 31 30C31 30.6 31.4 31 32 31C33.7001 31 35 32.2999 35 34C35 35.2999 34.2001 36.4 33 36.7999V38H31V36.7999C29.7999 36.4 29 35.2999 29 34H31C31 34.6 31.4 35 32 35C32.6 35 33 34.6 33 34C33 33.4 32.6 33 32 33C30.2999 33 29 31.7001 29 30C29 28.7001 29.7999 27.6 31 27.2001V26H33V27.2001C34.2001 27.6 35 28.7001 35 30H33ZM3.63981 23.8001C9.15594 19.86 16.1969 18.6921 22.6169 20.2964C20.9573 21.6287 19.5871 23.3066 18.6156 25.221C14.4606 24.8039 10.1592 25.8236 6.71991 28.2802C6.16017 28.8399 5.60001 29.6802 5.60001 30.52V33.6001H17.0843C17.2977 35.6123 17.9089 37.5057 18.8378 39.2001H0V30.52C0 28.0001 1.4 25.4802 3.63981 23.8001Z" fill="#00582E"/>
</svg>
