<svg width="47" height="47" viewBox="0 0 47 47" fill="none" xmlns="http://www.w3.org/2000/svg">
<rect x="19" y="3" width="9" height="12" rx="4.5" fill="#FFEE05"/>
<path d="M15.9906 20.3444L15.9909 20.3441C16.6691 19.6659 17.6055 19.2441 18.6338 19.2441H19.7822C19.8748 20.0234 20.2251 20.7289 20.7417 21.2714C20.742 21.2717 20.7423 21.272 20.7425 21.2723L20.7984 21.3337L20.7983 21.3338L20.8017 21.3372C21.4466 21.9806 22.3383 22.3824 23.3176 22.3824C24.297 22.3824 25.1844 21.9804 25.8334 21.3329L25.8335 21.3328C26.3841 20.7822 26.7568 20.0529 26.8543 19.2427L28.0027 19.2441H28.0028C29.0297 19.2441 29.9675 19.6659 30.6457 20.3441L30.6457 20.3442L30.6479 20.3463L30.6936 20.3892C31.344 21.0599 31.7457 21.9787 31.7457 22.987V25.1524V25.2524H31.8457H33.7586H33.8586V25.1524V22.9899C33.8586 21.4119 33.2223 19.9714 32.1956 18.9149L32.1423 18.856L32.1424 18.8559L32.1388 18.8523C31.0778 17.7928 29.6135 17.1327 28.0014 17.1327H26.8788V15.7299C27.259 15.4804 27.6121 15.1933 27.9329 14.8725C29.116 13.6894 29.8521 12.0543 29.8521 10.2571V7.43451C29.8521 5.63591 29.1159 4.00221 27.9329 2.81918C26.7499 1.63617 25.1176 0.9 23.3204 0.9C21.5233 0.9 19.8896 1.63615 18.7065 2.81918C17.5235 4.00222 16.7874 5.63736 16.7874 7.43451V10.2571C16.7874 12.0558 17.5235 13.6895 18.7065 14.8725L18.7067 14.8726C19.0274 15.192 19.3805 15.479 19.7607 15.7285V17.1312H18.6381C17.0275 17.1312 15.5616 17.7913 14.5033 18.8539C13.4409 19.9149 12.7809 21.3807 12.7809 22.9884V25.1524V25.2524H12.8809H14.7908H14.8908V25.1524V22.987C14.8908 21.957 15.31 21.0194 15.9906 20.3444ZM22.2963 19.8425L22.2963 19.8425L22.2936 19.8399L22.2562 19.8052C22.0172 19.5462 21.8707 19.1997 21.8707 18.8212V16.626C22.3369 16.7323 22.8212 16.7888 23.319 16.7888C23.8168 16.7888 24.2999 16.7323 24.7659 16.626V18.1855V18.8198C24.7659 19.2181 24.6024 19.5818 24.3419 19.8439C24.0798 20.1045 23.716 20.2681 23.3176 20.2681C22.9194 20.2681 22.5584 20.1046 22.2963 19.8425ZM20.1983 4.31236L20.1984 4.3123C20.9985 3.51078 22.1041 3.01285 23.319 3.01285H23.3203C24.5338 3.01425 25.6396 3.5122 26.4412 4.3138C27.2428 5.1154 27.7407 6.22111 27.7407 7.43451V10.2571C27.7407 11.4706 27.2428 12.5763 26.4412 13.3779C26.1196 13.6994 25.7491 13.973 25.3423 14.1834L25.3423 14.1834L25.3404 14.1845L25.3246 14.1931L25.3244 14.1927L25.3175 14.1973C24.7154 14.5044 24.0368 14.6774 23.319 14.6774C22.6015 14.6774 21.9216 14.5031 21.321 14.1962L21.3212 14.1959L21.3134 14.1916L21.2976 14.183L21.2976 14.183L21.2961 14.1822C20.8903 13.9702 20.5197 13.6979 20.1983 13.3764C19.3967 12.5748 18.8988 11.4691 18.8988 10.2557V7.43308C18.8988 6.21968 19.3967 5.11396 20.1983 4.31236Z" fill="#AEBAA8" stroke="#AEBAA8" stroke-width="0.2"/>
<path d="M9.5342 25.0523V25.0523L9.53115 25.0524C8.96082 25.0698 8.50576 25.5357 8.50576 26.1081C8.50576 26.1815 8.51346 26.2533 8.52728 26.3218L11.0804 43.9842H7.95714C7.3723 43.9842 6.9 44.4582 6.9 45.0414C6.9 45.6247 7.37384 46.0985 7.95714 46.0985H12.298L34.3381 46.0999H34.3969H34.3969L38.6789 46.0985C38.6789 46.0985 38.679 46.0985 38.679 46.0985C39.2638 46.0985 39.7361 45.6246 39.7361 45.0414C39.7361 44.4581 39.2622 43.9842 38.6789 43.9842H35.5556L38.1178 26.2572L38.1178 26.2571C38.2003 25.6812 37.7975 25.1472 37.2222 25.0648L37.2223 25.0647L37.2165 25.0642L37.0817 25.0527L37.0817 25.0523H37.0732H9.5342ZM35.8556 27.1638L33.4235 43.9828H13.2111L10.779 27.1638H35.8556Z" fill="#AEBAA8" stroke="#AEBAA8" stroke-width="0.2"/>
<path d="M23.3166 31.5667C22.2116 31.5667 21.2086 32.0158 20.4839 32.7405C19.7592 33.4651 19.3101 34.4668 19.3101 35.5732C19.3101 36.6795 19.7592 37.6812 20.4839 38.4058C21.2086 39.1305 22.2102 39.5797 23.3166 39.5797C24.4229 39.5797 25.4246 39.1305 26.1492 38.4058C26.8739 37.6812 27.3231 36.6795 27.3231 35.5732C27.3231 34.4668 26.8739 33.4651 26.1492 32.7405C25.4246 32.0158 24.4229 31.5667 23.3166 31.5667ZM24.7975 37.0541C24.4186 37.4329 23.8949 37.6668 23.3166 37.6668C22.7383 37.6668 22.2145 37.4329 21.8356 37.0541C21.4568 36.6752 21.2229 36.1515 21.2229 35.5732C21.2229 34.9949 21.4568 34.4711 21.8356 34.0922C22.2145 33.7134 22.7383 33.4795 23.3166 33.4795C23.8949 33.4795 24.4186 33.7134 24.7975 34.0922C25.1763 34.4711 25.4102 34.9949 25.4102 35.5732C25.4102 36.1515 25.1763 36.6752 24.7975 37.0541Z" fill="#638162"/>
</svg>
