<svg width="47" height="47" viewBox="0 0 47 47" fill="none" xmlns="http://www.w3.org/2000/svg">
<rect x="19" y="5" width="9" height="11" rx="4" fill="#FFEE05"/>
<path d="M16.3959 21.0595L16.3962 21.0592C17.028 20.4274 17.9002 20.0345 18.8581 20.0345H19.9241C20.0117 20.7609 20.3389 21.4185 20.8207 21.9245C20.821 21.9248 20.8212 21.9251 20.8215 21.9254L20.8735 21.9826L20.8734 21.9827L20.8769 21.9861C21.4799 22.5878 22.3139 22.9636 23.2297 22.9636C24.1457 22.9636 24.9756 22.5876 25.5826 21.9821L25.5826 21.982C26.0962 21.4684 26.4442 20.7886 26.5365 20.0332L27.6025 20.0345H27.6026C28.5592 20.0345 29.4328 20.4275 30.0646 21.0592L30.0645 21.0593L30.0668 21.0614L30.1093 21.1013C30.7151 21.7261 31.0893 22.582 31.0893 23.5212V25.5422V25.6422H31.1893H32.9747H33.0747V25.5422V23.5239C33.0747 22.0493 32.4801 20.7033 31.5208 19.716L31.4711 19.6611L31.4712 19.661L31.4676 19.6574C30.4761 18.6673 29.1077 18.0505 27.6013 18.0505H26.5602V16.7515C26.9143 16.5189 27.2432 16.2513 27.5421 15.9524C28.6474 14.847 29.3353 13.3192 29.3353 11.64V9.00555C29.3353 7.325 28.6474 5.79853 27.5421 4.69318C26.4367 3.58786 24.9116 2.9 23.2324 2.9C21.5532 2.9 20.0267 3.58784 18.9214 4.69318C17.816 5.79854 17.1282 7.32635 17.1282 9.00555V11.64C17.1282 13.3206 17.816 14.847 18.9214 15.9524L18.9215 15.9525C19.2203 16.25 19.5492 16.5175 19.9033 16.7502V18.0491H18.8622C17.3571 18.0491 15.9873 18.666 14.9984 19.6589C14.0056 20.6504 13.3888 22.0201 13.3888 23.5225V25.5422V25.6422H13.4888H15.2714H15.3714V25.5422V23.5212C15.3714 22.5617 15.7619 21.6883 16.3959 21.0595ZM22.2812 20.5816L22.2812 20.5816L22.2785 20.5791L22.2438 20.5468C22.0219 20.3063 21.8859 19.9845 21.8859 19.6331V17.5926C22.3191 17.6907 22.7688 17.7429 23.231 17.7429C23.6933 17.7429 24.1419 17.6907 24.5748 17.5926V19.0398V19.6318C24.5748 20.0018 24.4229 20.3397 24.1808 20.5831C23.9374 20.825 23.5996 20.9769 23.2297 20.9769C22.8599 20.9769 22.5247 20.8251 22.2812 20.5816ZM20.3231 6.09625L20.3232 6.09619C21.0687 5.3493 22.099 4.88532 23.231 4.88532H23.2323C24.363 4.88663 25.3934 5.35062 26.1403 6.09759C26.8873 6.84457 27.3513 7.8749 27.3513 9.00555V11.64C27.3513 12.7707 26.8873 13.801 26.1403 14.548C25.8407 14.8476 25.4954 15.1026 25.1164 15.2986L25.1164 15.2986L25.1145 15.2997L25.0997 15.3077L25.0995 15.3073L25.093 15.3117C24.532 15.5978 23.8998 15.7589 23.231 15.7589C22.5627 15.7589 21.9295 15.5966 21.37 15.3108L21.3701 15.3106L21.3623 15.3064L21.3476 15.2983L21.3476 15.2983L21.346 15.2975C20.968 15.0999 20.6226 14.8461 20.3231 14.5466C19.5761 13.7996 19.1122 12.7693 19.1122 11.6387V9.00421C19.1122 7.87356 19.5761 6.84323 20.3231 6.09625Z" fill="#AEBAA8" stroke="#AEBAA8" stroke-width="0.2"/>
<path d="M10.3653 25.4422V25.4422L10.3622 25.4423C9.82631 25.4587 9.39871 25.8964 9.39871 26.4342C9.39871 26.5032 9.40593 26.5705 9.41889 26.6348L11.8007 43.112H8.89333C8.34379 43.112 7.9 43.5573 7.9 44.1053C7.9 44.6534 8.34523 45.0987 8.89333 45.0987H12.9448L33.5155 45.1H33.5705H33.5705L37.567 45.0987C37.567 45.0987 37.567 45.0987 37.567 45.0987C38.1166 45.0986 38.5603 44.6533 38.5603 44.1053C38.5603 43.5572 38.1151 43.112 37.567 43.112H34.6596L37.0499 26.5744L37.0499 26.5743C37.1274 26.0331 36.7489 25.5314 36.2084 25.454L36.2084 25.4538L36.2027 25.4533L36.0768 25.4426L36.0768 25.4422H36.0683H10.3653ZM34.9242 27.4262L32.6562 43.1107H13.8028L11.5348 27.4262H34.9242Z" fill="#AEBAA9" stroke="#AEBAA9" stroke-width="0.2"/>
<path d="M23.384 31.4015C22.3868 31.4015 21.4815 31.8069 20.8275 32.4609C20.1734 33.1149 19.7681 34.0189 19.7681 35.0174C19.7681 36.016 20.1734 36.9199 20.8275 37.574C21.4815 38.228 22.3855 38.6334 23.384 38.6334C24.3825 38.6334 25.2865 38.228 25.9406 37.574C26.5946 36.9199 27 36.016 27 35.0174C27 34.0189 26.5946 33.1149 25.9406 32.4609C25.2865 31.8069 24.3825 31.4015 23.384 31.4015ZM24.7206 36.354C24.3787 36.6959 23.9059 36.907 23.384 36.907C22.8621 36.907 22.3894 36.6959 22.0475 36.354C21.7055 36.0121 21.4944 35.5394 21.4944 35.0174C21.4944 34.4955 21.7055 34.0228 22.0475 33.6809C22.3894 33.339 22.8621 33.1279 23.384 33.1279C23.9059 33.1279 24.3787 33.339 24.7206 33.6809C25.0625 34.0228 25.2736 34.4955 25.2736 35.0174C25.2736 35.5394 25.0625 36.0121 24.7206 36.354Z" fill="#638162"/>
</svg>
