<svg width="56" height="56" viewBox="0 0 56 56" fill="none" xmlns="http://www.w3.org/2000/svg">
<path fill-rule="evenodd" clip-rule="evenodd" d="M56 16.8H50.4V5.6H39.2V0H56V16.8ZM56 28V47.6H44.8V50.4H50.4V56H33.6V50.4H39.2V47.6H28V28H56ZM50.4 33.6H33.6V42H50.4V33.6ZM5.6 39.2H0V56H16.8V50.4H5.6V39.2ZM5.6 0H16.8C19.8801 0 22.4 2.5199 22.4 5.6V28C22.4 31.0801 19.8801 33.6 16.8 33.6H5.6C2.5199 33.6 0 31.0801 0 28V5.6C0 2.5199 2.5199 0 5.6 0ZM16.8 19.6V5.6H5.6V19.6H16.8ZM5.6 25.2V28H16.8V25.2H5.6Z" fill="#00582E"/>
</svg>
