<svg xmlns="http://www.w3.org/2000/svg" xmlns:xlink="http://www.w3.org/1999/xlink" width="54" height="54" viewBox="0 0 54 54">
  <defs>
    <linearGradient id="linear-gradient" x1="0.145" y1="0.112" x2="0.922" y2="0.876" gradientUnits="objectBoundingBox">
      <stop offset="0" stop-color="#fde159"/>
      <stop offset="1" stop-color="#fe0817"/>
    </linearGradient>
  </defs>
  <g id="Group_642" data-name="Group 642" transform="translate(-270 -3396)">
    <g id="Group_641" data-name="Group 641" transform="translate(-2 2305)">
      <circle id="Ellipse_19" data-name="Ellipse 19" cx="27" cy="27" r="27" transform="translate(272 1091)" fill="url(#linear-gradient)"/>
    </g>
    <g id="Group_135" data-name="Group 135" transform="translate(599.242 -10897.184)">
      <path id="Path_352" data-name="Path 352" d="M214.62,130.871a.992.992,0,1,0,.62-1.885,12.9,12.9,0,1,0,8.228,8.228.992.992,0,1,0-1.885.62,10.911,10.911,0,1,1-6.944-6.943Z" transform="translate(-514.563 14180.818)" fill="#fff"/>
      <path id="Path_353" data-name="Path 353" d="M369.025,94.324a.992.992,0,0,0-.992-.992h-6.314a.992.992,0,0,0-.7,1.692l2.48,2.48-10.054,10.008,1.4,1.4,10.034-10.024,2.48,2.45a.993.993,0,0,0,.7.293,1.031,1.031,0,0,0,.382-.074.992.992,0,0,0,.585-.918Z" transform="translate(-656.498 14212.852)" fill="#fff"/>
    </g>
  </g>
</svg>
