<svg width="62" height="50" viewBox="0 0 62 50" fill="none" xmlns="http://www.w3.org/2000/svg">
<path d="M25.048 23.0387L25.0486 23.0382C25.5748 22.512 26.3007 22.1851 27.0976 22.1851H27.9256C28.0194 22.798 28.304 23.3513 28.7134 23.7816L28.7581 23.8308L28.7579 23.8309L28.7645 23.8375C29.3031 24.3748 30.0483 24.7108 30.867 24.7108C31.6862 24.7108 32.4279 24.3745 32.9696 23.834L32.9697 23.8339C33.4075 23.3961 33.7109 22.8227 33.8094 22.1842L34.6374 22.1851H34.6377C35.4334 22.1851 36.1605 22.512 36.6867 23.0382L36.6866 23.0382L36.6909 23.0423L36.7258 23.0751C37.229 23.5949 37.5397 24.3064 37.5397 25.0872V26.8299V27.0205H37.7304H39.2698H39.4605V26.8299V25.0895C39.4605 23.7901 38.9368 22.6043 38.0924 21.7347L38.0508 21.6887L38.0509 21.6885L38.0441 21.6817C37.1706 20.8094 35.9645 20.2655 34.6365 20.2655H33.8432V19.3059C34.1366 19.1088 34.4098 18.8842 34.6593 18.6347C35.631 17.663 36.2361 16.3194 36.2361 14.8424V12.5708C36.2361 11.0927 35.631 9.75029 34.6593 8.77858C33.6876 7.80692 32.3464 7.20179 30.8694 7.20179C29.3924 7.20179 28.05 7.80689 27.0783 8.77858C26.1065 9.75031 25.5015 11.0939 25.5015 12.5708V14.8424C25.5015 16.3206 26.1065 17.663 27.0783 18.6347L27.0786 18.635C27.3279 18.8832 27.601 19.1077 27.8943 19.3048V20.2644H27.1011C25.7744 20.2644 24.5671 20.8081 23.6958 21.6829C22.821 22.5564 22.2771 23.7637 22.2771 25.0883V26.8299V27.0205H22.4678H24.0049H24.1956V26.8299V25.0872C24.1956 24.2887 24.5204 23.562 25.048 23.0387ZM30.123 22.4786L30.1231 22.4786L30.1179 22.4738L30.091 22.4488C29.9183 22.2601 29.8128 22.0088 29.8128 21.7346V20.1043C30.1542 20.1729 30.5069 20.2092 30.8682 20.2092C31.2295 20.2092 31.5814 20.1729 31.9225 20.1043V21.223V21.7335C31.9225 22.0234 31.8035 22.2885 31.6134 22.4798C31.4221 22.6699 31.1569 22.7889 30.867 22.7889C30.5774 22.7889 30.3145 22.6701 30.123 22.4786ZM28.4346 10.1361L28.4347 10.136C29.059 9.51062 29.9212 9.12255 30.8682 9.12255L30.8691 9.12255C30.8692 9.12255 30.8692 9.12255 30.8692 9.12255C31.8152 9.12367 32.6774 9.51176 33.3029 10.1373C33.9285 10.7628 34.3165 11.625 34.3165 12.5708V14.8424C34.3165 15.7883 33.9285 16.6505 33.3029 17.276C33.052 17.527 32.7629 17.7404 32.4459 17.9044L32.4459 17.9043L32.4422 17.9063L32.4295 17.9133L32.4221 17.9173L32.4208 17.9181C31.9527 18.1558 31.4257 18.2896 30.8682 18.2896C30.3108 18.2896 29.7827 18.1547 29.3156 17.917L29.3143 17.9162L29.3069 17.9121L29.2942 17.9052L29.2942 17.9052L29.2912 17.9036C28.9746 17.7381 28.6854 17.5256 28.4346 17.2749C27.8091 16.6493 27.4211 15.7871 27.4211 14.8413V12.5697C27.4211 11.6239 27.8091 10.7616 28.4346 10.1361Z" fill="#AEBAA8" stroke="#AEBAA8" stroke-width="0.381333"/>
<path d="M19.7743 26.6392V26.6391L19.7685 26.6393C19.2503 26.6551 18.8365 27.0785 18.8365 27.599C18.8365 27.6647 18.8433 27.7286 18.8554 27.7897L20.8915 41.8752H18.5052C17.9735 41.8752 17.5442 42.306 17.5442 42.8362C17.5442 43.3664 17.9749 43.7971 18.5052 43.7971H21.9986L39.736 43.7983H39.7834H39.7835L43.2295 43.7971C43.2295 43.7971 43.2295 43.7971 43.2295 43.7971C43.7611 43.7971 44.1904 43.3662 44.1904 42.8362C44.1904 42.3059 43.7598 41.8752 43.2295 41.8752H40.8432L42.887 27.7348L42.887 27.7346C42.9621 27.2105 42.5956 26.7252 42.0728 26.6503L42.0728 26.65L42.0619 26.6491L41.9534 26.6399L41.9453 26.6392H41.9372H19.7743ZM40.83 28.5588L38.9046 41.874H22.8289L20.9034 28.5588H40.83Z" fill="#618260" stroke="#618260" stroke-width="0.381333"/>
<path d="M30.866 31.9919C29.9767 31.9919 29.1695 32.3534 28.5863 32.9366C28.0031 33.5198 27.6416 34.3259 27.6416 35.2163C27.6416 36.1067 28.0031 36.9128 28.5863 37.496C29.1695 38.0792 29.9756 38.4407 30.866 38.4407C31.7564 38.4407 32.5624 38.0792 33.1456 37.496C33.7289 36.9128 34.0903 36.1067 34.0903 35.2163C34.0903 34.3259 33.7289 33.5198 33.1456 32.9366C32.5624 32.3534 31.7564 31.9919 30.866 31.9919ZM32.0578 36.4081C31.7529 36.713 31.3314 36.9012 30.866 36.9012C30.4006 36.9012 29.979 36.713 29.6741 36.4081C29.3693 36.1032 29.181 35.6817 29.181 35.2163C29.181 34.7509 29.3693 34.3294 29.6741 34.0245C29.979 33.7196 30.4006 33.5314 30.866 33.5314C31.3314 33.5314 31.7529 33.7196 32.0578 34.0245C32.3627 34.3294 32.5509 34.7509 32.5509 35.2163C32.5509 35.6817 32.3627 36.1032 32.0578 36.4081Z" fill="#FFEE05"/>
</svg>
