<?xml version="1.0" encoding="UTF-8" standalone="no"?>
<!-- Created with Inkscape (http://www.inkscape.org/) -->

<svg
   version="1.1"
   id="svg2"
   width="84"
   height="60"
   viewBox="0 0 84 60"
   sodipodi:docname="Partnerships.eps"
   xmlns:inkscape="http://www.inkscape.org/namespaces/inkscape"
   xmlns:sodipodi="http://sodipodi.sourceforge.net/DTD/sodipodi-0.dtd"
   xmlns="http://www.w3.org/2000/svg"
   xmlns:svg="http://www.w3.org/2000/svg">
  <defs
     id="defs6" />
  <sodipodi:namedview
     id="namedview4"
     pagecolor="#ffffff"
     bordercolor="#000000"
     borderopacity="0.25"
     inkscape:showpageshadow="2"
     inkscape:pageopacity="0.0"
     inkscape:pagecheckerboard="0"
     inkscape:deskcolor="#d1d1d1" />
  <g
     id="g8"
     inkscape:groupmode="layer"
     inkscape:label="ink_ext_XXXXXX"
     transform="matrix(1.3333333,0,0,-1.3333333,0,60)">
    <g
       id="g10"
       transform="scale(0.1)">
      <path
         d="m 49.7969,329 64.0001,64 72,-72 -60,-64 z M 382.121,228.891 438.914,156.16 c 18.746,21.621 23.734,57.242 25.055,73.442 l -48.199,48.199 -50.11,1.148 h -71.351 c -1.356,-3.304 -2.614,-7.32 -3.176,-11.683 -0.973,-7.508 -0.57,-18.446 12.351,-30.063 h 61.594 c 6.66,0 12.945,-3.066 17.043,-8.312 z m -24.562,-155.0629 40.933,15.1602 9.707,36.2497 -53.668,68.731 h -58.644 c -4.59,0 -9.059,1.457 -12.758,4.164 -19.797,14.469 -31.465,32.347 -34.684,53.156 -1.582,10.234 -0.863,19.844 0.934,28.313 l -42.477,0.757 -40.492,-40.5 c 0.684,-18.906 3.528,-31.359 6.293,-39.183 l 4.192,4.195 c 9.527,9.531 22.199,14.777 35.675,14.777 13.481,0 26.149,-5.246 35.68,-14.777 l 3.059,-3.058 c 6.863,-6.864 11.32,-15.227 13.394,-24.043 11.227,-1.313 21.613,-6.309 29.723,-14.415 l 3.058,-3.058 c 6.868,-6.863 11.329,-15.234 13.403,-24.055 11.218,-1.312 21.609,-6.308 29.715,-14.422 l 3.058,-3.058 c 12.199,-12.196 16.828,-29.1331 13.899,-44.9339 z m -76.106,-27.4726 31.633,31.6328 c 2.809,2.8086 2.809,7.3828 0,10.1914 l -3.059,3.0586 c -1.839,1.8398 -3.984,2.1133 -5.097,2.1133 -1.117,0 -3.258,-0.2735 -5.098,-2.1133 L 268.199,59.6055 c -2.804,-2.8086 -2.804,-7.3828 0,-10.1914 l 3.059,-3.0586 c 1.84,-1.8399 3.984,-2.1133 5.097,-2.1133 1.118,0 3.258,0.2812 5.098,2.1133 z m -51.273,39.414 c 1.117,0 3.265,0.2813 5.097,2.1133 l 31.633,31.6332 c 2.809,2.808 2.809,7.382 0,10.195 l -3.058,3.055 c -1.84,1.839 -3.985,2.113 -5.098,2.113 -1.113,0 -3.262,-0.281 -5.098,-2.113 l -31.625,-31.633 c -1.843,-1.8361 -2.117,-3.9846 -2.117,-5.0939 0,-1.1172 0.274,-3.2618 2.109,-5.0977 l 3.059,-3.0586 c 1.84,-1.8398 3.984,-2.1133 5.098,-2.1133 z m -46.176,41.5195 c 1.117,0 3.262,0.274 5.098,2.109 l 31.628,31.633 c 2.813,2.813 2.813,7.383 0,10.196 l -3.054,3.058 c -1.836,1.836 -3.988,2.11 -5.098,2.11 -1.113,0 -3.262,-0.278 -5.098,-2.11 l -31.628,-31.633 c -1.84,-1.839 -2.114,-3.984 -2.114,-5.097 0,-1.117 0.274,-3.258 2.11,-5.098 l 3.058,-3.059 c 1.832,-1.835 3.985,-2.109 5.098,-2.109 z M 111.414,215.438 1.80859,325.043 1.79688,325.047 112.535,443.07 227.508,328.93 c 1.015,-1.207 1.871,-3.957 2.578,-6.223 0.324,-1.051 0.617,-1.992 0.879,-2.637 h 157.637 c 0.839,2.582 2.171,6.664 4.019,8.86 L 507.578,449 628.203,325.047 508.711,215.438 c -0.945,-0.95 -1.977,-1.782 -3.039,-2.516 -4.199,-30.496 -17.168,-80.621 -57.274,-104.734 L 437.375,67.0078 C 435.563,60.2266 430.578,54.7539 424,52.3203 L 307.23,9.06641 c -1.804,-0.66797 -3.667,-1.08203 -5.531,-1.25 C 294.082,3.375 285.406,1 276.355,1 262.883,1 250.215,6.25391 240.684,15.7813 l -3.059,3.0585 c -6.867,6.8672 -11.328,15.2344 -13.402,24.0547 -11.219,1.3125 -21.602,6.3047 -29.715,14.418 l -3.063,3.0586 c -6.722,6.7227 -11.304,15.0156 -13.425,24.043 -11.211,1.3164 -21.586,6.3086 -29.692,14.4101 l -3.058,3.0588 c -9.528,9.531 -14.778,22.199 -14.778,35.68 0,11.074 3.551,21.597 10.106,30.289 -5.332,8.312 -11.098,21.351 -14.528,41.285 -5.316,0.152 -10.593,2.238 -14.656,6.301"
         style="fill:#1b542b;fill-opacity:1;fill-rule:evenodd;stroke:none"
         id="path12" />
    </g>
  </g>
</svg>
