<svg width="79" height="56" viewBox="0 0 79 56" fill="none" xmlns="http://www.w3.org/2000/svg">
<path fill-rule="evenodd" clip-rule="evenodd" d="M13.702 29.1953L0.00130095 15.4946L0 15.4944L13.8424 0.741381L28.2137 15.0088C28.3409 15.1598 28.4476 15.5033 28.5358 15.7868C28.5765 15.9177 28.6132 16.0359 28.6461 16.1164H48.3504C48.4553 15.7933 48.622 15.283 48.853 15.0088L63.2226 0L78.3006 15.4944L63.3643 29.1951C63.2459 29.3141 63.1172 29.4178 62.984 29.5098C62.4596 33.3216 60.8384 39.5873 55.825 42.6017L54.4472 47.7489C54.2207 48.5965 53.5977 49.2807 52.7753 49.5851L38.1793 54.9915C37.9534 55.0752 37.7204 55.1267 37.4875 55.1479C36.5355 55.7033 35.4512 56 34.3198 56C32.6357 56 31.0519 55.3435 29.8606 54.1523L29.4784 53.77C28.6198 52.9115 28.0625 51.8657 27.8032 50.7633C26.4008 50.5993 25.1028 49.975 24.0885 48.9608L23.7062 48.5785C22.8657 47.7381 22.2929 46.7019 22.0278 45.5731C20.6262 45.4089 19.3294 44.7847 18.3164 43.7717L17.9341 43.3895C16.7429 42.1983 16.0871 40.6146 16.0871 38.9296C16.0871 37.5454 16.5305 36.23 17.3498 35.1437C16.6836 34.1044 15.9628 32.4748 15.5342 29.983C14.8694 29.9637 14.2098 29.703 13.702 29.1953ZM22.7757 40.2139C22.9153 40.2139 23.1837 40.1798 23.4128 39.95L27.3668 35.996C27.7182 35.6446 27.7182 35.0731 27.3668 34.7218L26.9846 34.3395C26.7554 34.1097 26.4864 34.0756 26.3474 34.0756C26.2084 34.0756 25.94 34.1104 25.7103 34.3395L21.7569 38.2935C21.5265 38.5233 21.4924 38.7916 21.4924 38.9306C21.4924 39.0703 21.5265 39.338 21.7563 39.5678L22.1386 39.95C22.3677 40.1798 22.6367 40.2139 22.7757 40.2139ZM28.5477 45.4036C28.6874 45.4036 28.9558 45.3688 29.1849 45.1397L33.1389 41.1857C33.4903 40.8343 33.4903 40.2628 33.1389 39.9114L32.7566 39.5292C32.5269 39.2994 32.2585 39.2653 32.1195 39.2653C31.9805 39.2653 31.7121 39.3001 31.4824 39.5292L27.529 43.4832C27.2986 43.7129 27.2645 43.9813 27.2645 44.1203C27.2645 44.26 27.2986 44.5277 27.5283 44.7574L27.9106 45.1397C28.1404 45.3695 28.4087 45.4036 28.5477 45.4036ZM34.9569 50.3307L38.911 46.3766C39.2623 46.0252 39.2623 45.4538 38.911 45.1024L38.5287 44.7201C38.2989 44.4903 38.0306 44.4562 37.8916 44.4562C37.7519 44.4562 37.4842 44.4904 37.2544 44.7201L33.3004 48.6741C32.9497 49.0255 32.9497 49.597 33.3004 49.9484L33.6827 50.3307C33.9124 50.5604 34.1808 50.5945 34.3198 50.5945C34.4595 50.5945 34.7272 50.5598 34.9569 50.3307ZM44.47 46.8966L49.587 45.0013L50.8002 40.47L44.0917 31.8791H36.7609C36.1875 31.8791 35.6289 31.6969 35.1662 31.3584C32.6918 29.55 31.2334 27.3149 30.8312 24.7137C30.633 23.4344 30.7231 22.2335 30.9477 21.1748L25.6383 21.0802L20.5766 26.1425C20.6622 28.5056 21.0174 30.0624 21.363 31.0406L21.8869 30.5161C23.078 29.3249 24.662 28.6691 26.3467 28.6691C28.0315 28.6691 29.6153 29.3249 30.8065 30.5161L31.1888 30.8984C32.0467 31.7562 32.604 32.802 32.8633 33.9038C34.2664 34.0679 35.565 34.6922 36.5786 35.7058L36.9609 36.0881C37.8194 36.9459 38.3768 37.9924 38.6361 39.0948C40.0385 39.2588 41.3372 39.8831 42.3507 40.8973L42.733 41.2796C44.2576 42.8042 44.8362 44.9216 44.47 46.8966ZM47.5405 27.5138L54.6396 36.6048C56.9828 33.9024 57.6065 29.4495 57.7712 27.4249L51.7463 21.3999L45.4831 21.2564H36.5639C36.3947 21.6696 36.237 22.1715 36.1668 22.7166C36.0453 23.6551 36.0954 25.0226 37.7107 26.4745H45.4102C46.2424 26.4745 47.0282 26.858 47.5405 27.5138ZM6 15L14 7L23 16L15.5 24L6 15Z" fill="#00582E"/>
</svg>
