<svg xmlns="http://www.w3.org/2000/svg" width="53" height="54" viewBox="0 0 53 54">
  <g id="Group_107" data-name="Group 107" transform="translate(-570 -1477)">
    <ellipse id="Ellipse_24" data-name="Ellipse 24" cx="26.5" cy="27" rx="26.5" ry="27" transform="translate(570 1477)" fill="#606060"/>
    <path id="noun-facilitated-partnership-1958223" d="M313.683,303.492a1.393,1.393,0,0,1-1.947.362l-5.087-3.5v15.616a1.51,1.51,0,1,1-3.019,0V307.62h-.547v8.355a1.508,1.508,0,1,1-3.012,0v-15.6l-5.1,3.5a1.4,1.4,0,0,1-1.591-2.3l5.883-4.057a1.388,1.388,0,0,1,.8-.249h6.607a1.388,1.388,0,0,1,.8.249l5.868,4.035a1.351,1.351,0,0,1,.575.888,1.432,1.432,0,0,1-.22,1.051Zm-10.344-6.764h0a2.632,2.632,0,1,0,.021.021Zm18.1,9.058-.043,10.969h0a.609.609,0,0,1-.59.6l-4.9.071a7.462,7.462,0,0,1-7.438,7.012h-.909l1.215,1.265a.608.608,0,0,1,.178.426.595.595,0,0,1-.618.59.589.589,0,0,1-.419-.2l-2.586-2.693,2.586-2.693h0a.609.609,0,0,1,.845,0,.592.592,0,0,1,.178.419.58.58,0,0,1-.178.419l-1.215,1.272h.909a6.261,6.261,0,0,0,6.252-5.84l-4.973.036a.58.58,0,0,1-.419-.178.609.609,0,0,1-.178-.426l.021-10.969a.588.588,0,0,1,.59-.59l11.09-.085a.634.634,0,0,1,.426.171.584.584,0,0,1,.178.426ZM301.47,323.832l-2.586,2.693h0a.592.592,0,0,1-.831,0,.6.6,0,0,1-.028-.831l1.215-1.265h-.909a7.467,7.467,0,0,1-7.439-6.948l-4.959-.043a.593.593,0,0,1-.59-.59l-.043-11.055a.609.609,0,0,1,.178-.426.677.677,0,0,1,.426-.178l11.112.085a.6.6,0,0,1,.576.6l.05,11.055a.608.608,0,0,1-.178.426.585.585,0,0,1-.419.171L292.1,317.5h0a6.271,6.271,0,0,0,6.238,5.741h.909l-1.215-1.272a.592.592,0,0,1-.178-.419.58.58,0,0,1,.178-.419.609.609,0,0,1,.845,0Z" transform="translate(292.7 1194.6)" fill="#fff"/>
  </g>
</svg>
