<svg xmlns="http://www.w3.org/2000/svg" width="54" height="54" viewBox="0 0 54 54">
  <g id="Group_310" data-name="Group 310" transform="translate(-270 -1378)">
    <g id="Group_226" data-name="Group 226" transform="translate(-1 -3177)">
      <g id="Group_142" data-name="Group 142" transform="translate(0 1213)">
        <ellipse id="Ellipse_27" data-name="Ellipse 27" cx="27" cy="27" rx="27" ry="27" transform="translate(271 3342)" fill="#606060"/>
      </g>
    </g>
    <path id="Path_595" data-name="Path 595" d="M88.34,108.409a2.021,2.021,0,0,1,.279-.978,23.27,23.27,0,0,1-2.794-3.772,19.254,19.254,0,0,0-2.375-3.492l8.521-9.359c3.492,2.514,7.4,3.492,11.455,4.33a18.05,18.05,0,0,1,4.051-.419c3.213.14,4.051,1.537,7.543,1.676a13.99,13.99,0,0,0,5.448-.978c2.514,3.632,4.889,7.4,7.264,11.176-1.956,1.537-3.911,4.051-7.124,3.911,0,2.514-1.4,4.889-4.191,4.33.838,2.375-.838,4.191-3.213,3.352,0,2.794-2.654,3.492-4.749,2.1a3.142,3.142,0,0,1-4.889,1.4,22.776,22.776,0,0,1-4.051-3.213,1.94,1.94,0,0,1-1.816.559,19.418,19.418,0,0,1-9.359-10.617Zm1.257-2.514a4.728,4.728,0,0,1,2.1-.838c1.676-.279,2.794.978,2.235,2.375,2.1-.838,3.073,1.257,2.794,2.934a2.048,2.048,0,0,1,1.956,3.352c1.816-.419,2.934.838,2.375,2.934l-.419.419a26.993,26.993,0,0,0,3.911,3.073c1.117.838,2.1.14,2.375-.978l-4.191-4.191c-.838-.7.279-2.1,1.117-1.257l4.749,4.61c2.514,2.235,3.772,0,1.956-1.816l-5.308-5.029c-.838-.7.419-2.1,1.257-1.257,1.956,1.816,4.191,3.772,6.007,5.588,2.794,2.235,3.213-.419.7-2.654l-5.448-5.308a.783.783,0,0,1,0-1.257.882.882,0,0,1,1.257,0l5.448,5.308c2.934,2.1,4.749.838,4.47-1.537a1.055,1.055,0,0,0-.559-.14c-3.911-1.257-5.588-6.426-9.779-8.8-2.934-1.676-5.588-.279-8.661-.279-2.654,0-3.352-2.235-.559-4.051a12.971,12.971,0,0,1,1.4-.7,38.5,38.5,0,0,1-8.521-3.213l-6.426,7.124c.559.838,1.117,1.676,1.537,2.375a27.519,27.519,0,0,0,2.235,3.213Z" transform="translate(193.624 1299.984)" fill="#fff" fill-rule="evenodd"/>
  </g>
</svg>
