<svg xmlns="http://www.w3.org/2000/svg" xmlns:xlink="http://www.w3.org/1999/xlink" width="54" height="54" viewBox="0 0 54 54">
  <defs>
    <linearGradient id="linear-gradient" x1="0.145" y1="0.112" x2="0.922" y2="0.876" gradientUnits="objectBoundingBox">
      <stop offset="0" stop-color="#fde159"/>
      <stop offset="1" stop-color="#fe0817"/>
    </linearGradient>
  </defs>
  <g id="Group_660" data-name="Group 660" transform="translate(-283 -1425)">
    <circle id="Ellipse_8698" data-name="Ellipse 8698" cx="27" cy="27" r="27" transform="translate(283 1425)" fill="url(#linear-gradient)"/>
    <path id="Path_595" data-name="Path 595" d="M87.843,106.622a1.815,1.815,0,0,1,.251-.879,20.907,20.907,0,0,1-2.51-3.389,17.3,17.3,0,0,0-2.134-3.138l7.656-8.409c3.138,2.259,6.652,3.138,10.292,3.891a16.218,16.218,0,0,1,3.64-.377c2.887.126,3.64,1.381,6.777,1.506a12.57,12.57,0,0,0,4.895-.879c2.259,3.263,4.393,6.652,6.526,10.041-1.757,1.381-3.514,3.64-6.4,3.514,0,2.259-1.255,4.393-3.765,3.891.753,2.134-.753,3.765-2.887,3.012,0,2.51-2.385,3.138-4.267,1.883a2.823,2.823,0,0,1-4.393,1.255,20.463,20.463,0,0,1-3.64-2.887,1.743,1.743,0,0,1-1.632.5,17.446,17.446,0,0,1-8.409-9.539Zm1.13-2.259a4.248,4.248,0,0,1,1.883-.753c1.506-.251,2.51.879,2.008,2.134,1.883-.753,2.761,1.13,2.51,2.636a1.84,1.84,0,0,1,1.757,3.012c1.632-.377,2.636.753,2.134,2.636l-.377.377a24.252,24.252,0,0,0,3.514,2.761c1,.753,1.883.126,2.134-.879l-3.765-3.765c-.753-.628.251-1.883,1-1.13l4.267,4.142c2.259,2.008,3.389,0,1.757-1.632l-4.769-4.518c-.753-.628.377-1.883,1.13-1.13,1.757,1.632,3.765,3.389,5.4,5.02,2.51,2.008,2.887-.377.628-2.385l-4.895-4.769a.7.7,0,0,1,0-1.13.792.792,0,0,1,1.13,0l4.895,4.769c2.636,1.883,4.267.753,4.016-1.381a.948.948,0,0,0-.5-.126c-3.514-1.13-5.02-5.773-8.786-7.907-2.636-1.506-5.02-.251-7.782-.251-2.385,0-3.012-2.008-.5-3.64a11.655,11.655,0,0,1,1.255-.628,34.59,34.59,0,0,1-7.656-2.887l-5.773,6.4c.5.753,1,1.506,1.381,2.134a24.726,24.726,0,0,0,2.008,2.887Z" transform="translate(206.55 1347.025)" fill="#fff" fill-rule="evenodd"/>
  </g>
</svg>
