<svg width="56" height="56" viewBox="0 0 56 56" fill="none" xmlns="http://www.w3.org/2000/svg">
<path fill-rule="evenodd" clip-rule="evenodd" d="M5.6 0H50.4C53.4801 0 56 2.5199 56 5.6V39.2C56 42.2801 53.4801 44.8 50.4 44.8H30.8V50.4H42V56H14V50.4H25.2V44.8H5.6C2.5199 44.8 0 42.2801 0 39.2V5.6C0 2.5199 2.5199 0 5.6 0ZM50.4 28V5.6H5.6V28H50.4ZM5.6 33.6V39.2H50.4V33.6H5.6ZM32.9645 8.5H44.5V20.0355L40.5 16.0355L29.8759 26.6596L20.5801 20.9788L13.9163 25.5601L11.0837 21.4399L20.4199 15.0212L29.1241 20.3404L36.9645 12.5L32.9645 8.5Z" fill="#00582E"/>
</svg>
