<svg width="56" height="56" viewBox="0 0 56 56" fill="none" xmlns="http://www.w3.org/2000/svg">
<path fill-rule="evenodd" clip-rule="evenodd" d="M53.2002 2.80001V29.9601L53.2 29.9603C54.8801 32.4802 56 35.8399 56 39.2001C56 48.44 48.4398 56.0002 39.1999 56.0002C35.8402 56.0002 32.48 54.8803 29.9601 53.2002H0V2.80001H11.2V0H16.8001V2.80001H36.4001V0H42.0002V2.80001H53.2002ZM11.2 11.2V8.40003H5.60002V14.0001H47.6002V8.40003H42.0002V11.2H36.4001V8.40003H16.8001V11.2H11.2ZM47.6002 19.6001H5.60002L5.59982 47.6002H24.6399C23.2399 45.0803 22.4001 42.2803 22.4001 39.2001C22.4001 29.9603 29.9603 22.4001 39.2001 22.4001C42.2803 22.4001 45.0803 23.2399 47.6002 24.6399V19.6001ZM28.0001 39.2001C28.0001 45.3604 33.0399 50.4002 39.2001 50.4002C45.3604 50.4002 50.4002 45.3604 50.4002 39.2001C50.4002 33.0399 45.3604 28.0001 39.2001 28.0001C33.0399 28.0001 28.0001 33.0399 28.0001 39.2001ZM36.4001 30.8001H42.0002V36.4001H44.8002V42.0002H36.4001V30.8001Z" fill="#00582E"/>
</svg>
