<svg width="47" height="47" viewBox="0 0 47 47" fill="none" xmlns="http://www.w3.org/2000/svg">
<path d="M7.17582 44.5138H39.8187C43.369 44.5138 46.25 41.627 46.25 38.0825V12.033C46.25 8.48805 43.3631 5.60718 39.8187 5.60718H7.17582C3.63087 5.60718 0.75 8.49412 0.75 12.0385V38.0825C0.75 41.6325 3.63101 44.5138 7.17582 44.5138ZM7.17582 41.816C5.12181 41.816 3.4478 40.1424 3.4478 38.0825V12.0385C3.4478 9.98426 5.12159 8.31047 7.17582 8.31047H39.8187C41.8786 8.31047 43.5522 9.98448 43.5522 12.0385V38.0825C43.5522 40.1422 41.8784 41.816 39.8187 41.816H7.17582Z" fill="#AEBAA9" stroke="#AEBAA9" stroke-width="0.5"/>
<path d="M11.8953 10.9286C11.2909 10.9286 10.7964 10.4341 10.7964 9.82967V3.0989C10.7964 2.49451 11.2909 2 11.8953 2C12.4997 2 12.9942 2.49451 12.9942 3.0989V9.82967C12.9942 10.4341 12.4997 10.9286 11.8953 10.9286Z" fill="#638162"/>
<path d="M23.4339 10.9286C22.8295 10.9286 22.335 10.4341 22.335 9.82967V3.0989C22.335 2.49451 22.8295 2 23.4339 2C24.0383 2 24.5328 2.49451 24.5328 3.0989V9.82967C24.5328 10.4341 24.0383 10.9286 23.4339 10.9286Z" fill="#638162"/>
<path d="M34.9724 10.9286C34.368 10.9286 33.8735 10.4341 33.8735 9.82967V3.0989C33.8735 2.49451 34.368 2 34.9724 2C35.5768 2 36.0713 2.49451 36.0713 3.0989V9.82967C36.0713 10.4341 35.5768 10.9286 34.9724 10.9286Z" fill="#638162"/>
<path d="M11.8955 20.5823C12.9758 20.5823 13.8515 19.7065 13.8515 18.6262C13.8515 17.5459 12.9758 16.6702 11.8955 16.6702C10.8152 16.6702 9.93945 17.5459 9.93945 18.6262C9.93945 19.7065 10.8152 20.5823 11.8955 20.5823Z" fill="#FDEE0E"/>
<path d="M19.5879 20.5823C20.6682 20.5823 21.5439 19.7065 21.5439 18.6262C21.5439 17.5459 20.6682 16.6702 19.5879 16.6702C18.5076 16.6702 17.6318 17.5459 17.6318 18.6262C17.6318 19.7065 18.5076 20.5823 19.5879 20.5823Z" fill="#FDEE0E"/>
<path d="M27.2803 20.5823C28.3606 20.5823 29.2363 19.7065 29.2363 18.6262C29.2363 17.5459 28.3606 16.6702 27.2803 16.6702C26.2 16.6702 25.3242 17.5459 25.3242 18.6262C25.3242 19.7065 26.2 20.5823 27.2803 20.5823Z" fill="#FDEE0E"/>
<path d="M34.9726 20.5823C36.0529 20.5823 36.9287 19.7065 36.9287 18.6262C36.9287 17.5459 36.0529 16.6702 34.9726 16.6702C33.8924 16.6702 33.0166 17.5459 33.0166 18.6262C33.0166 19.7065 33.8924 20.5823 34.9726 20.5823Z" fill="#FDEE0E"/>
<path d="M11.8955 27.9122C12.9758 27.9122 13.8515 27.0365 13.8515 25.9562C13.8515 24.8759 12.9758 24.0001 11.8955 24.0001C10.8152 24.0001 9.93945 24.8759 9.93945 25.9562C9.93945 27.0365 10.8152 27.9122 11.8955 27.9122Z" fill="#FDEE0E"/>
<path d="M19.5879 27.9122C20.6682 27.9122 21.5439 27.0365 21.5439 25.9562C21.5439 24.8759 20.6682 24.0001 19.5879 24.0001C18.5076 24.0001 17.6318 24.8759 17.6318 25.9562C17.6318 27.0365 18.5076 27.9122 19.5879 27.9122Z" fill="#FDEE0E"/>
<path d="M27.2803 27.9122C28.3606 27.9122 29.2363 27.0365 29.2363 25.9562C29.2363 24.8759 28.3606 24.0001 27.2803 24.0001C26.2 24.0001 25.3242 24.8759 25.3242 25.9562C25.3242 27.0365 26.2 27.9122 27.2803 27.9122Z" fill="#FDEE0E"/>
<path d="M34.9726 27.9122C36.0529 27.9122 36.9287 27.0365 36.9287 25.9562C36.9287 24.8759 36.0529 24.0001 34.9726 24.0001C33.8924 24.0001 33.0166 24.8759 33.0166 25.9562C33.0166 27.0365 33.8924 27.9122 34.9726 27.9122Z" fill="#FDEE0E"/>
<path d="M11.8955 35.445C12.9758 35.445 13.8515 34.5693 13.8515 33.489C13.8515 32.4087 12.9758 31.533 11.8955 31.533C10.8152 31.533 9.93945 32.4087 9.93945 33.489C9.93945 34.5693 10.8152 35.445 11.8955 35.445Z" fill="#FDEE0E"/>
<path d="M19.5879 35.445C20.6682 35.445 21.5439 34.5693 21.5439 33.489C21.5439 32.4087 20.6682 31.533 19.5879 31.533C18.5076 31.533 17.6318 32.4087 17.6318 33.489C17.6318 34.5693 18.5076 35.445 19.5879 35.445Z" fill="#FDEE0E"/>
<path d="M27.2803 35.445C28.3606 35.445 29.2363 34.5693 29.2363 33.489C29.2363 32.4087 28.3606 31.533 27.2803 31.533C26.2 31.533 25.3242 32.4087 25.3242 33.489C25.3242 34.5693 26.2 35.445 27.2803 35.445Z" fill="#FDEE0E"/>
<path d="M34.9726 35.445C36.0529 35.445 36.9287 34.5693 36.9287 33.489C36.9287 32.4087 36.0529 31.533 34.9726 31.533C33.8924 31.533 33.0166 32.4087 33.0166 33.489C33.0166 34.5693 33.8924 35.445 34.9726 35.445Z" fill="#FDEE0E"/>
</svg>
