<svg width="62" height="50" viewBox="0 0 62 50" fill="none" xmlns="http://www.w3.org/2000/svg">
<rect width="62" height="50" fill="white"/>
<g clip-path="url(#clip0_686_12)">
<path d="M51.0121 32.0048C51.0121 32.0679 50.9604 32.1196 50.8973 32.1188C50.3121 32.1188 49.747 32.1172 49.1811 32.1188C48.2854 32.1229 47.6201 32.5319 47.3274 33.2813C47.0081 34.097 47.1908 34.8092 47.8117 35.4163C48.2142 35.8092 48.6176 36.2005 48.9944 36.5667C49.0404 36.6112 49.0396 36.6839 48.9944 36.7292C46.899 38.8246 44.8359 40.8876 42.7341 42.9903C42.6888 43.0356 42.616 43.0356 42.5716 42.9903C42.228 42.6386 41.8448 42.2498 41.4665 41.8561C40.8594 41.2255 40.1528 40.9846 39.3104 41.3161C38.5231 41.6257 38.1229 42.2821 38.1213 43.2336C38.1197 43.7753 38.1213 44.3169 38.1213 44.8852C38.1213 44.9483 38.0703 45 38.0073 45H29.1965C29.1334 45 29.0817 44.9491 29.0817 44.8852C29.0825 44.2789 29.0914 43.6637 29.0792 43.0493C29.0542 41.7809 27.8982 40.899 26.6912 41.2579C26.3719 41.3525 26.0655 41.5691 25.8149 41.7979C25.3872 42.1876 25.0008 42.6233 24.5869 43.0566C24.5433 43.1019 24.4713 43.1035 24.4252 43.0606C24.3145 42.9572 24.2288 42.8787 24.1455 42.7963C22.3953 41.0469 20.6427 39.2991 18.8998 37.5424C18.7155 37.3565 18.5328 37.2773 18.2692 37.2789C16.4398 37.2894 14.6112 37.2846 12.7817 37.2846H12.4357C12.3727 37.2846 12.3218 37.2336 12.3218 37.1706V36.1075C12.3218 36.0445 12.3727 35.9935 12.4357 35.9935H12.7696C14.5716 35.9935 16.3743 35.9757 18.1763 36.0057C18.65 36.0137 19.0016 35.8965 19.2862 35.5279C19.4406 35.3282 19.6079 35.139 19.8133 34.9006C19.8771 34.8262 19.8246 34.7114 19.7268 34.7114H12.4317C12.3687 34.7114 12.3177 34.6605 12.3177 34.5974V33.5319C12.3177 33.4689 12.3687 33.4179 12.4317 33.4179H19.73C19.806 33.4179 19.8626 33.3452 19.8408 33.2724C19.6322 32.5845 18.7995 32.1075 18.1075 32.114C16.2514 32.1326 14.3953 32.1205 12.5392 32.1196C11.4899 32.1196 11.0065 31.6386 11.0065 30.5942C11.0065 26.5724 11.013 22.5505 11 18.5287C10.9976 17.8496 11.2425 17.3703 11.8513 17.0598C12.3056 16.8278 12.7324 16.5424 13.1908 16.3185C13.4956 16.1698 13.6007 15.9854 13.599 15.6378C13.5829 12.5982 13.5893 9.5578 13.5902 6.51819C13.5893 5.4996 14.0825 5 15.0889 5C19.6888 5 24.2886 5 28.8876 5C29.8779 5 30.3735 5.49717 30.3743 6.4907C30.3759 7.66209 30.3743 8.83347 30.3743 10.0445C30.3743 10.1075 30.4252 10.1593 30.4883 10.1593H38.0073C38.0703 10.1593 38.1213 10.211 38.1213 10.274C38.1213 10.8763 38.1197 11.4414 38.1213 12.0073C38.1245 12.9078 38.5287 13.5732 39.2741 13.8682C40.0873 14.19 40.802 14.0129 41.4115 13.3945C41.806 12.9935 42.1973 12.5885 42.5619 12.2142C42.6063 12.1681 42.6791 12.169 42.7243 12.2142C44.8141 14.304 46.8763 16.367 48.9766 18.4681C49.021 18.5125 49.0218 18.5853 48.9766 18.6297C48.6395 18.962 48.2506 19.3428 47.8666 19.7276C47.1779 20.4179 46.9895 21.1536 47.3282 21.9167C47.6985 22.7502 48.3678 23.1043 49.2652 23.0816C49.8028 23.0679 50.3412 23.0776 50.8973 23.0792C50.9604 23.0792 51.0121 23.1302 51.0121 23.1932V32.0048ZM42.7777 14.0234C42.7316 13.9774 42.6556 13.9798 42.612 14.0283C41.5578 15.19 40.2943 15.7001 38.7688 15.0501C37.2571 14.4058 36.7365 13.1423 36.823 11.5982C36.827 11.5327 36.7753 11.477 36.709 11.477H30.5077C30.4446 11.477 30.3937 11.5279 30.3937 11.5909V15.6063C30.3937 15.6799 30.4632 15.734 30.5352 15.7171C33.8771 14.9159 37.0477 15.3339 39.9814 17.1366C42.9685 18.9717 44.8537 21.6394 45.6023 25.0671C46.8925 30.9766 43.5489 37.0048 37.8343 39.114C31.5287 41.4406 24.591 38.2134 22.2191 32.2231C22.2021 32.1795 22.1601 32.1512 22.1132 32.1512H20.941C20.8553 32.1512 20.7995 32.2433 20.8408 32.3193C21.7381 33.9919 21.3509 35.4131 20.0687 36.5966C20.021 36.6411 20.0186 36.7162 20.0647 36.7623C21.5425 38.2417 22.9855 39.6863 24.4487 41.1512C24.4948 41.1973 24.5708 41.1948 24.6144 41.1463C25.6298 40.0243 26.886 39.4988 28.4139 40.1415C29.9329 40.7801 30.4649 42.0348 30.3784 43.5974C30.3743 43.6629 30.426 43.7187 30.4923 43.7187H36.7155C36.7817 43.7187 36.8327 43.6629 36.8294 43.5974C36.7429 42.0194 37.2741 40.7656 38.8044 40.1366C40.3307 39.5093 41.5885 40.0331 42.5788 41.1285C42.6233 41.177 42.6985 41.1803 42.7454 41.1334C44.2207 39.658 45.6702 38.2078 47.1358 36.7421C47.1819 36.696 47.1795 36.62 47.131 36.5764C46.0178 35.5651 45.4988 34.3056 46.1455 32.7793C46.7874 31.2652 48.0429 30.734 49.5926 30.8238C49.6589 30.8278 49.7146 30.7761 49.7146 30.7098V24.4875C49.7146 24.422 49.6589 24.3703 49.5934 24.3735C48.0089 24.4559 46.7583 23.9208 46.1318 22.3872C45.5069 20.8577 46.0421 19.6023 47.1625 18.5909C47.211 18.5473 47.2142 18.4713 47.1674 18.4252C45.6936 16.9483 44.2506 15.5012 42.7777 14.0251V14.0234ZM28.9693 6.31932H14.9992C14.9426 6.31932 14.8949 6.36055 14.886 6.41633C14.8836 6.43331 14.882 6.44867 14.882 6.46403C14.8812 10.5505 14.8779 14.637 14.8917 18.7243C14.8917 18.865 15.0332 19.0622 15.1641 19.1366C16.8885 20.1237 18.6241 21.0914 20.3525 22.0728C20.5417 22.1803 20.6847 22.2005 20.8876 22.097C21.5748 21.7486 22.3816 21.7292 23.0623 22.0905C23.2749 22.2037 23.4204 22.1811 23.6128 22.0719C25.3177 21.1051 27.0251 20.1415 28.7397 19.1924C28.9952 19.0509 29.0914 18.9006 29.0906 18.6023C29.0792 14.6362 29.0833 10.671 29.0833 6.70493C29.0833 6.61843 29.0833 6.53193 29.0833 6.43573C29.0833 6.37268 29.0324 6.32094 28.9693 6.32094V6.31932ZM33.0582 19.2595C33.0008 19.266 32.9572 19.3153 32.9572 19.3735C32.9572 19.4939 32.9572 19.6176 32.9572 19.7405C32.9572 23.3848 32.958 27.0291 32.9572 30.6734C32.9572 31.6055 32.4414 32.1164 31.5053 32.118C29.9855 32.1205 28.4665 32.118 26.9467 32.1196C26.8925 32.1196 26.8383 32.1221 26.7817 32.1261C26.6936 32.1318 26.6451 32.2296 26.6928 32.3032C28.5295 35.1584 32.713 37.0566 36.8408 35.3428C40.8311 33.6863 42.9135 29.207 41.6055 25.0825C40.2563 20.827 36.1415 18.9135 33.059 19.2603L33.0582 19.2595ZM30.3711 30.8173C30.4737 30.8173 30.5255 30.6912 30.4503 30.6209C30.4503 30.6209 30.4495 30.62 30.4487 30.6192C27.8836 28.2239 25.3201 25.8262 22.7518 23.4349C22.2199 22.9402 21.7187 22.9612 21.1536 23.4883C18.6354 25.8351 16.1205 28.1851 13.6055 30.536C13.5756 30.5643 13.5473 30.5934 13.5182 30.6265C13.4519 30.7001 13.5037 30.8181 13.6031 30.8181H30.3711V30.8173ZM23.6564 32.1471C25.4463 36.4681 30.9556 39.9386 36.9127 38.0606C42.7809 36.211 45.9863 29.8804 43.9927 24.0825C41.9475 18.1326 36.0332 15.9757 32.0663 16.7696C31.975 16.7882 31.9418 16.9014 32.0097 16.9652C32.2636 17.2021 32.5303 17.4551 32.8076 17.696C32.92 17.7939 33.0671 17.8973 33.207 17.9103C33.8222 17.9644 34.4495 17.9297 35.055 18.0283C40.4964 18.9192 44.0332 23.8585 43.1334 29.2789C42.4948 33.1237 39.5093 36.207 35.5796 37.0792C31.8658 37.9038 27.7389 36.2886 25.6581 33.0558C25.1342 32.2417 24.5885 31.9806 23.7235 32.1261C23.7106 32.1285 23.6977 32.1342 23.6564 32.1479V32.1471ZM19.494 23.0663C17.1334 21.7389 14.8278 20.4422 12.4948 19.1302C12.4188 19.0873 12.3242 19.1423 12.3242 19.2296V29.6993C12.3242 29.7995 12.4438 29.8504 12.5166 29.7825C14.8626 27.5926 17.1665 25.443 19.5158 23.2498C19.5724 23.1973 19.5611 23.1043 19.494 23.0663ZM24.4487 23.2506C26.7995 25.4438 29.1067 27.5966 31.4552 29.7882C31.5279 29.8561 31.6476 29.8052 31.6476 29.7049V19.2255C31.6476 19.1382 31.553 19.0833 31.477 19.1261C29.1374 20.4422 26.8311 21.7389 24.4697 23.0671C24.4026 23.1051 24.3913 23.1981 24.4479 23.2506H24.4487ZM13.5602 18.0461V17.7801C13.5602 17.692 13.4649 17.637 13.3881 17.6815L13.152 17.8189C13.0792 17.8618 13.0801 17.9725 13.1577 18.0162L13.3905 18.1463C13.4673 18.1892 13.5611 18.1342 13.5611 18.0469L13.5602 18.0461ZM30.5546 18.1544C30.6379 18.1075 30.7195 18.0606 30.806 18.0113C30.8844 17.9669 30.8828 17.8537 30.8036 17.8108L30.553 17.6758C30.4762 17.6346 30.3832 17.6896 30.3832 17.7761V18.055C30.3832 18.1423 30.4778 18.1973 30.5538 18.1544H30.5546Z" fill="#AEBAA8"/>
<path d="M23.6566 32.1471C23.6978 32.1334 23.7107 32.1277 23.7237 32.1253C24.5887 31.9806 25.1335 32.2409 25.6582 33.055C27.739 36.2878 31.8659 37.903 35.5798 37.0784C39.5094 36.2061 42.4957 33.1229 43.1335 29.2781C44.0333 23.8577 40.4957 18.9192 35.0551 18.0275C34.4488 17.928 33.8223 17.9636 33.2071 17.9095C33.0681 17.8973 32.9209 17.793 32.8077 17.6952C32.4714 17.4034 32.1497 17.0938 31.849 16.8157C35.8142 15.8973 41.9096 18.0226 43.9921 24.0825C45.9848 29.8804 42.7803 36.2102 36.912 38.0606C30.9549 39.9386 25.4456 36.4681 23.6558 32.1471H23.6566Z" fill="#FFF000"/>
<path d="M25.8536 7.61115H18.1018C17.7589 7.61115 17.481 7.88912 17.481 8.23201C17.481 8.5749 17.7589 8.85287 18.1018 8.85287H25.8536C26.1965 8.85287 26.4745 8.5749 26.4745 8.23201C26.4745 7.88912 26.1965 7.61115 25.8536 7.61115Z" fill="#618260"/>
<path d="M25.8464 10.1867H18.1026C17.7593 10.1867 17.481 10.4649 17.481 10.808C17.481 11.1511 17.7593 11.4293 18.1026 11.4293H25.8464C26.1897 11.4293 26.468 11.1511 26.468 10.808C26.468 10.4649 26.1897 10.1867 25.8464 10.1867Z" fill="#618260"/>
<path d="M25.8465 12.7688H18.1044C17.7606 12.7688 17.4819 13.0473 17.4819 13.3909C17.4819 13.7344 17.7606 14.0129 18.1044 14.0129H25.8465C26.1903 14.0129 26.469 13.7344 26.469 13.3909C26.469 13.0473 26.1903 12.7688 25.8465 12.7688Z" fill="#618260"/>
<path d="M25.8618 17.9418H18.1165C17.7736 17.9418 17.4956 18.2198 17.4956 18.5627V18.5635C17.4956 18.9064 17.7736 19.1843 18.1165 19.1843H25.8618C26.2047 19.1843 26.4827 18.9064 26.4827 18.5635V18.5627C26.4827 18.2198 26.2047 17.9418 25.8618 17.9418Z" fill="#618260"/>
<path d="M25.8567 15.3484H21.9861C21.6432 15.3484 21.3652 15.6264 21.3652 15.9693V15.9701C21.3652 16.313 21.6432 16.5909 21.9861 16.5909H25.8567C26.1996 16.5909 26.4776 16.313 26.4776 15.9701V15.9693C26.4776 15.6264 26.1996 15.3484 25.8567 15.3484Z" fill="#618260"/>
<path d="M19.385 15.3517H18.1149C17.768 15.3517 17.4868 15.6329 17.4868 15.9798C17.4868 16.3267 17.768 16.6079 18.1149 16.6079H19.385C19.7319 16.6079 20.0131 16.3267 20.0131 15.9798C20.0131 15.6329 19.7319 15.3517 19.385 15.3517Z" fill="#618260"/>
</g>
<defs>
<clipPath id="clip0_686_12">
<rect width="40.0121" height="40" fill="white" transform="translate(11 5)"/>
</clipPath>
</defs>
</svg>
