<svg width="62" height="50" viewBox="0 0 62 50" fill="none" xmlns="http://www.w3.org/2000/svg">
<rect width="62" height="50" fill="white"/>
<g clip-path="url(#clip0_671_193)">
<path d="M35.2508 33.8521V37.692C35.3755 37.692 35.5017 37.692 35.6278 37.692C36.6132 37.692 37.5986 37.6891 38.584 37.6927C39.3156 37.6956 39.8418 38.18 39.8433 38.8432C39.8447 39.5078 39.3192 39.998 38.589 39.998C33.5302 40.0001 28.472 40.0001 23.4131 39.998C22.6808 39.998 22.1545 39.5136 22.1509 38.8504C22.1466 38.1829 22.6685 37.6949 23.4002 37.692C24.5038 37.6884 25.6074 37.6913 26.7362 37.6913V33.8513C26.5942 33.8513 26.4551 33.8513 26.316 33.8513C23.8283 33.8513 21.3414 33.8557 18.8538 33.8499C17.3653 33.8463 16.2689 32.9424 16.0339 31.5331C16.0022 31.345 16.0022 31.1503 16.0022 30.9586C16 24.9389 16 18.9177 16 12.8965C16.0007 11.1419 17.1339 10.0008 18.8798 10.0008C26.9546 10.0001 35.0288 10.0001 43.1037 10.0008C44.8553 10.0008 45.9928 11.1369 45.9928 12.8857C45.9942 18.9068 45.9935 24.928 45.9928 30.9492C45.9928 32.7139 44.8531 33.8499 43.0777 33.8513C40.6268 33.8542 38.1753 33.8513 35.7244 33.8513H35.2508V33.8521ZM30.9813 12.3083C26.9683 12.3083 22.9554 12.3083 18.9432 12.3083C18.3968 12.3083 18.3074 12.3948 18.3074 12.926C18.3074 18.9227 18.3074 24.9187 18.3074 30.9154C18.3074 31.4445 18.4062 31.5446 18.9374 31.5446C26.9748 31.5446 35.0129 31.5446 43.0503 31.5446C43.5859 31.5446 43.6861 31.4452 43.6861 30.9211C43.6861 24.9244 43.6861 18.9285 43.6861 12.9318C43.6861 12.3991 43.5946 12.3083 43.0561 12.3083C39.0316 12.3083 35.0064 12.3083 30.982 12.3083H30.9813ZM29.0934 33.8751V37.6747H32.9045V33.8751H29.0934Z" fill="#AEBAA8"/>
<path d="M29.0933 33.875H32.9044V37.6746H29.0933V33.875Z" fill="#FFF000"/>
<path d="M23.2661 21.8622C23.8579 22.4439 24.3394 22.9117 24.8152 23.3853C25.5901 24.1566 26.3686 24.9236 27.1312 25.7064C27.7612 26.353 27.5479 27.3247 26.7261 27.5965C26.316 27.732 25.931 27.6563 25.6261 27.3536C24.0662 25.8052 22.5092 24.2532 20.9644 22.6904C20.5269 22.2478 20.5204 21.6056 20.9565 21.1637C22.4912 19.6074 24.0374 18.0612 25.5929 16.5258C26.0363 16.0882 26.7225 16.1221 27.1485 16.5503C27.5731 16.977 27.5789 17.6842 27.1298 18.1383C25.9995 19.2837 24.8577 20.4191 23.7159 21.5529C23.6063 21.6618 23.4593 21.7317 23.2668 21.8629L23.2661 21.8622Z" fill="#618260"/>
<path d="M38.6573 21.8211C38.5377 21.7396 38.4014 21.6748 38.3005 21.5738C37.1753 20.4565 36.0551 19.3349 34.9356 18.2118C34.4303 17.7051 34.3971 16.9972 34.8491 16.5452C35.314 16.081 35.9909 16.1077 36.5114 16.626C37.992 18.1008 39.4711 19.5778 40.9445 21.0599C41.4866 21.6048 41.4902 22.2327 40.9518 22.7748C39.4531 24.2828 37.9494 25.7857 36.4414 27.2843C35.9563 27.7666 35.2831 27.7803 34.8325 27.337C34.3669 26.8792 34.3719 26.2009 34.8664 25.7014C36.0075 24.5495 37.1558 23.4041 38.3063 22.2615C38.4072 22.1613 38.547 22.0993 38.6688 22.0193L38.6566 21.8196L38.6573 21.8211Z" fill="#618260"/>
<path d="M29.3332 27.657C28.5821 27.6635 28.1431 26.9398 28.4141 26.1252C29.3397 23.3392 30.2688 20.5546 31.1966 17.77C31.2759 17.5314 31.3551 17.292 31.438 17.0549C31.6644 16.4054 32.2497 16.0767 32.8408 16.2656C33.4744 16.4674 33.7829 17.0902 33.5588 17.7663C32.7147 20.3109 31.8626 22.8533 31.0142 25.3965C30.8585 25.8621 30.7071 26.3285 30.5478 26.7927C30.3402 27.3975 29.9783 27.652 29.3346 27.6577L29.3332 27.657Z" fill="#618260"/>
</g>
<defs>
<clipPath id="clip0_671_193">
<rect width="29.9935" height="30" fill="white" transform="translate(16 10)"/>
</clipPath>
</defs>
</svg>
