<svg width="62" height="50" viewBox="0 0 62 50" fill="none" xmlns="http://www.w3.org/2000/svg">
<rect width="62" height="50" fill="white"/>
<g clip-path="url(#clip0_782_43)">
<path d="M44.8855 13.8785C44.2253 13.7182 43.5446 13.6439 42.8719 13.5292C42.6166 8.56055 36.7594 5.74615 32.8584 8.44948C30.4175 5.17109 26.5318 4.43121 23.7336 5.38785C19.8165 6.72608 18.0026 9.60857 17.8763 13.6806C17.7232 13.7155 17.5664 13.754 17.4079 13.789C13.7407 14.5978 11.041 17.9192 11.0034 21.6679C10.9648 25.5401 13.5571 28.9278 17.2619 29.7895C17.9668 29.9534 18.7049 30.0152 19.4295 30.0367C20.7508 30.0752 22.0738 30.0475 23.4209 30.0475C23.4209 30.0493 23.4209 30.052 23.4218 30.0537H38.6431V30.0475C40.0082 30.0475 41.3321 30.0546 42.6569 30.0457C47.3801 30.0134 50.7875 26.7646 51.0087 22.0907C51.1941 18.1745 48.6915 14.8056 44.8855 13.8785ZM43.8831 28.5274C43.5016 28.5874 43.1119 28.6125 42.7259 28.6125C34.9329 28.6179 27.1409 28.6215 19.348 28.6143C15.3683 28.6107 12.3129 25.4667 12.4383 21.5263C12.5342 18.4835 14.9034 15.7041 17.8763 15.146C17.9471 15.1326 18.0223 15.1362 18.1361 15.1299C18.5114 16.5935 19.1823 17.8547 20.2035 18.9215C20.6513 19.3909 21.0544 19.4626 21.3957 19.1419C21.7432 18.814 21.694 18.419 21.2452 17.9398C19.0668 15.6118 18.7094 12.1704 20.4113 9.57453C22.8871 5.799 28.8957 5.09674 31.8077 9.48585C31.8901 9.60946 31.9609 9.74113 32.0478 9.86206C32.3595 10.2938 32.7393 10.3296 33.1889 9.97403C35.1712 8.40738 37.9265 8.49158 39.7825 10.2015C40.8923 11.2245 41.4351 12.509 41.4172 14.0236C41.4082 14.8209 41.6617 15.0627 42.4598 15.0215C46.1341 14.8307 49.2119 17.4919 49.6096 21.2048C49.9813 24.6838 47.4141 27.973 43.8831 28.5274Z" fill="#AEBAA8"/>
<path d="M48.6874 36.3758C47.2703 36.0597 45.8255 36.8452 45.2818 38.2596C45.1815 38.5193 45.0587 38.5892 44.7999 38.5874C43.355 38.5767 41.9093 38.5847 40.4636 38.5811C39.2687 38.5785 38.622 37.9273 38.6202 36.7225C38.6175 34.6507 38.6193 32.5788 38.6211 30.507C38.6211 30.3655 38.6345 30.2239 38.6435 30.0537H23.4222C23.4321 30.1953 23.4455 30.2947 23.4455 30.3932C23.4455 32.5403 23.4518 34.6865 23.4437 36.8327C23.4392 37.9058 22.7549 38.5758 21.6702 38.5811C20.2092 38.5874 18.7492 38.5758 17.2882 38.5883C17.0105 38.591 16.8816 38.5167 16.775 38.2399C16.242 36.8524 14.8026 36.0704 13.3998 36.3714C11.9622 36.6804 10.9858 37.8932 11.0002 39.3524C11.0145 40.7569 12.0338 41.9832 13.4025 42.2384C14.8626 42.5107 16.2483 41.761 16.7741 40.3717C16.8878 40.0717 17.0303 40.0045 17.3214 40.0072C18.7366 40.0206 20.1528 40.0161 21.5689 40.0125C23.5817 40.009 24.8706 38.7289 24.876 36.7243C24.8805 34.6668 24.8769 32.6102 24.8769 30.5527V30.0869H30.1134V39.0801C29.9889 39.1284 29.8644 39.1759 29.7416 39.2261C28.3756 39.7752 27.6241 41.1725 27.9108 42.6281C28.1759 43.9753 29.438 44.9991 30.8327 45C32.2694 45.0009 33.5002 43.9762 33.7769 42.5475C34.0448 41.1689 33.2735 39.7528 31.9299 39.2386C31.611 39.1168 31.551 38.9583 31.5519 38.6564C31.5618 35.9432 31.5573 33.23 31.5591 30.5177C31.5591 30.3735 31.5725 30.2293 31.5797 30.0726H37.1888V30.576C37.1888 32.6182 37.1861 34.6596 37.1888 36.7019C37.1924 38.7361 38.4751 40.0098 40.5183 40.0125C42.0526 40.0152 43.587 40.0134 45.1331 40.0134C45.2012 40.1782 45.2612 40.3287 45.3248 40.4783C45.8255 41.6526 47.0634 42.4131 48.287 42.2994C49.7882 42.1587 50.9661 40.9925 51.0593 39.5539C51.1596 38.0133 50.1877 36.7117 48.6865 36.3758H48.6874ZM14.0179 40.8742C13.184 40.8877 12.4548 40.163 12.4486 39.3148C12.4423 38.462 13.1499 37.7499 14.0018 37.7517C14.8527 37.7526 15.5595 38.4701 15.5496 39.321C15.5389 40.1505 14.8384 40.8608 14.0179 40.8742ZM32.3877 41.9832C32.3966 42.8386 31.697 43.5471 30.8407 43.5525C29.9969 43.5579 29.2642 42.8332 29.2678 41.9966C29.2723 41.1707 29.971 40.4694 30.8049 40.4523C31.6603 40.4344 32.3796 41.1313 32.3877 41.9832ZM48.063 40.8742C47.2452 40.8715 46.5385 40.1684 46.5188 39.3363C46.4973 38.4871 47.2004 37.7598 48.0496 37.7517C48.9023 37.7445 49.6127 38.4459 49.6171 39.2995C49.6207 40.1433 48.897 40.8769 48.063 40.8742Z" fill="#618260"/>
<path d="M32.3874 41.9832C32.3964 42.8386 31.6968 43.5471 30.8405 43.5525C29.9967 43.5579 29.264 42.8332 29.2676 41.9966C29.2721 41.1707 29.9707 40.4694 30.8047 40.4523C31.6601 40.4344 32.3794 41.1313 32.3874 41.9832Z" fill="#FFF000"/>
<path d="M15.5493 39.321C15.5386 40.1505 14.8381 40.8608 14.0176 40.8742C13.1837 40.8877 12.4546 40.163 12.4483 39.3148C12.442 38.462 13.1496 37.7499 14.0015 37.7517C14.8524 37.7526 15.5592 38.4701 15.5493 39.321Z" fill="#FFF000"/>
<path d="M49.6169 39.2995C49.6205 40.1433 48.8967 40.8769 48.0628 40.8742C47.245 40.8716 46.5383 40.1684 46.5185 39.3363C46.497 38.4871 47.2002 37.7598 48.0494 37.7517C48.9021 37.7445 49.6124 38.4459 49.6169 39.2995Z" fill="#FFF000"/>
</g>
<defs>
<clipPath id="clip0_782_43">
<rect width="40.0672" height="40" fill="white" transform="translate(11 5)"/>
</clipPath>
</defs>
</svg>
