<svg width="62" height="50" viewBox="0 0 62 50" fill="none" xmlns="http://www.w3.org/2000/svg">
<rect width="62" height="50" fill="white"/>
<g clip-path="url(#clip0_789_277)">
<path d="M29.3126 11.0454C30.6924 10.6857 30.8303 10.6857 32.0838 11.0454C33.3192 8.97871 36.044 8.77042 37.6011 10.3002C39.1054 11.7781 39.0466 14.3206 37.1591 15.7124C37.2183 15.7513 37.272 15.7884 37.3271 15.8231C38.662 16.665 39.353 17.8773 39.4003 19.4524C39.4146 19.9227 39.404 20.3934 39.4021 20.8641C39.4003 21.3057 39.1906 21.5177 38.7509 21.5186C37.5784 21.52 36.406 21.5191 35.2331 21.5191C35.1502 21.5191 35.0669 21.5191 34.9586 21.5191C34.9586 21.8056 34.9595 22.0731 34.9586 22.3406C34.9563 22.785 34.7489 22.9993 34.312 22.9993C31.9051 23.0002 29.4987 23.0002 27.0918 22.9993C26.6548 22.9993 26.4452 22.7841 26.4424 22.3425C26.441 22.0958 26.4415 21.8486 26.441 21.6019C26.441 21.5866 26.4373 21.5714 26.4299 21.5186C26.3549 21.5186 26.2739 21.5186 26.1934 21.5186C25.0209 21.5186 23.8485 21.5191 22.6756 21.5186C22.2049 21.5186 21.992 21.3131 22.0007 20.8428C22.0137 20.142 21.9716 19.4306 22.0767 18.7433C22.2729 17.4621 22.9806 16.4877 24.0929 15.8138C24.1322 15.7897 24.1711 15.7647 24.21 15.7398C24.216 15.7356 24.2206 15.7286 24.2387 15.7092C23.2019 14.9172 22.6668 13.874 22.7515 12.5608C22.8145 11.5846 23.2417 10.7714 23.9869 10.1345C25.5805 8.77181 28.1272 9.07915 29.3126 11.0463V11.0454ZM33.8477 21.8792C33.8477 21.5492 33.8505 21.2413 33.8477 20.934C33.8218 18.5678 31.2784 17.0524 29.2098 18.1994C27.6792 19.0483 27.4334 20.3906 27.581 21.8792H33.8482H33.8477ZM33.1067 14.2947C33.1053 12.976 32.0273 11.8952 30.7091 11.8915C29.3802 11.8873 28.2929 12.9723 28.2943 14.3007C28.2957 15.6189 29.3737 16.6997 30.6919 16.7039C32.0204 16.7081 33.1081 15.6231 33.1067 14.2952V14.2947ZM35.0623 15.2417C35.2664 15.2172 35.4048 15.2051 35.5414 15.1834C36.6161 15.0103 37.4405 14.1216 37.5432 13.0269C37.6451 11.942 36.9739 10.9098 35.9269 10.5436C34.9045 10.1859 33.7584 10.57 33.1516 11.4666C33.0595 11.6027 33.0539 11.6841 33.1808 11.8137C33.9903 12.6427 34.3333 13.6365 34.1764 14.7904C34.1542 14.9547 34.1805 15.0543 34.3569 15.0894C34.6124 15.1399 34.866 15.1991 35.0623 15.2422V15.2417ZM26.2434 15.2297C26.3581 15.219 26.4748 15.2167 26.5882 15.1964C26.7317 15.1709 26.8719 15.126 27.0154 15.0987C27.2033 15.0626 27.2505 14.9677 27.2242 14.7742C27.07 13.6388 27.4065 12.6552 28.2003 11.8364C28.3498 11.6823 28.3369 11.5893 28.2277 11.4342C27.5722 10.5052 26.3549 10.1558 25.3079 10.6052C24.2586 11.0556 23.6717 12.1877 23.9027 13.3167C24.1253 14.4058 25.1172 15.2135 26.2438 15.2297H26.2434ZM38.2917 20.3966C38.2917 20.0981 38.2926 19.8143 38.2917 19.5306C38.2852 17.5144 36.593 16.0675 34.5985 16.3841C33.9343 16.4896 33.3682 16.7974 32.8841 17.2982C34.0292 18.0337 34.7138 19.0571 34.9262 20.3962H38.2917V20.3966ZM28.5114 17.3047C27.5324 16.2059 25.7583 16.0147 24.5007 16.8696C23.2417 17.7254 22.9941 18.984 23.1325 20.3929H26.4757C26.69 19.0557 27.3695 18.0379 28.5119 17.3042L28.5114 17.3047Z" fill="#618260"/>
</g>
<path d="M52.1507 19.7213C51.1615 21.9184 50.1724 24.1146 49.1849 26.3126C48.766 27.2451 48.195 28.0704 47.4694 28.7917C46.1347 30.1188 44.8077 31.4542 43.4722 32.7821C43.3641 32.8894 43.2188 32.9595 43.0904 33.0474L43.2805 33.1149C43.3607 33.5846 43.5026 34.0534 43.5102 34.5247C43.5381 36.2099 43.5229 37.8959 43.5212 39.582C43.5195 40.7679 42.9806 41.306 41.7963 41.306C39.3374 41.306 36.8785 41.306 34.4196 41.306C33.275 41.306 32.7302 40.773 32.7285 39.6445C32.7259 37.8748 32.7259 36.1043 32.7285 34.3347C32.7293 33.3683 33.0351 32.9781 33.9541 32.6816C34.0546 32.6495 34.1492 32.4468 34.1602 32.315C34.2354 31.4078 34.1746 30.4744 34.3689 29.5959C34.8622 27.365 36.049 25.6528 38.2832 24.7912C39.5891 24.2878 40.7785 23.547 41.8082 22.6018C43.1352 21.3846 44.556 21.1151 46.1998 21.9843C46.5731 21.1176 46.9431 20.2603 47.3131 19.4029C47.4575 19.0684 47.5944 18.7297 47.7473 18.3994C48.189 17.4415 49.016 16.9406 50.0322 17.0056C50.9867 17.0664 51.7419 17.678 52.0603 18.6452C52.0865 18.7246 52.1203 18.8015 52.1498 18.8792V19.7222L52.1507 19.7213ZM35.641 32.647C35.7187 32.6588 35.7719 32.674 35.826 32.674C37.6522 32.6757 39.4785 32.6824 41.3047 32.6656C41.472 32.6639 41.6713 32.5397 41.798 32.4138C43.3742 30.852 44.9597 29.2977 46.4979 27.6987C46.9777 27.2003 47.4178 26.62 47.7169 26C48.7144 23.9288 49.6436 21.8238 50.5863 19.7264C50.6682 19.5448 50.7096 19.3125 50.6758 19.1199C50.61 18.7415 50.3549 18.5033 49.9604 18.4526C49.5406 18.3994 49.2272 18.5878 49.0363 19.0262C48.5328 20.1834 48.0277 21.3398 47.5437 22.5055C47.063 23.6644 46.3729 24.673 45.4818 25.5523C44.5019 26.5187 43.5339 27.4977 42.5599 28.4708C42.4907 28.54 42.4231 28.6127 42.3471 28.6752C42.0261 28.9404 41.6308 28.937 41.3562 28.6693C41.08 28.3998 41.0648 28.0011 41.325 27.6801C41.4044 27.5821 41.4982 27.496 41.5877 27.4064C42.5802 26.4131 43.5803 25.4256 44.5636 24.423C44.9023 24.0775 45.2013 23.6931 45.5206 23.3248C44.7325 22.7192 43.8312 22.758 43.087 23.4186C41.7076 24.6417 40.1686 25.5996 38.4606 26.2914C37.7798 26.5668 37.2392 27.017 36.7982 27.6058C35.6739 29.1051 35.4906 30.8173 35.6418 32.6478L35.641 32.647ZM42.0573 34.1455H34.1966V39.8438H42.0573V34.1455Z" fill="#AEBAA8"/>
<path d="M14.9349 21.9944C16.5457 21.1413 17.9521 21.366 19.2623 22.5587C20.3283 23.5301 21.5489 24.2954 22.892 24.8166C25.0983 25.6731 26.2505 27.3769 26.7514 29.5672C26.9491 30.4296 26.9068 31.3495 26.9516 32.244C26.9651 32.505 26.9693 32.6664 27.3038 32.7264C27.9264 32.837 28.3766 33.3726 28.3834 34.0103C28.402 35.9903 28.4062 37.9711 28.3834 39.9511C28.3749 40.7206 27.7642 41.2959 26.9871 41.2992C24.3322 41.3111 21.6773 41.3127 19.0215 41.2992C18.176 41.295 17.6117 40.6564 17.6067 39.7382C17.5974 38.1933 17.6041 36.6483 17.6041 35.1033C17.6041 34.8508 17.5746 34.5931 17.6109 34.3456C17.67 33.941 17.7714 33.5423 17.855 33.1419C17.8981 33.1403 17.9403 33.1386 17.9834 33.1369C17.8803 33.0271 17.779 32.9147 17.6726 32.8074C16.3421 31.4754 15.0143 30.1424 13.6796 28.8145C12.965 28.1041 12.3906 27.3 11.975 26.3801C11.0577 24.3478 10.1159 22.3264 9.21455 20.2873C8.49233 18.6536 9.68421 16.9135 11.4327 17.0326C12.3889 17.0977 13.0487 17.6206 13.4271 18.494C13.8621 19.4975 14.2861 20.5052 14.7161 21.5113C14.782 21.665 14.8538 21.8162 14.934 21.9953L14.9349 21.9944ZM15.6073 23.3383C15.9299 23.7075 16.2366 24.0893 16.5761 24.4398C17.251 25.135 17.9445 25.8125 18.6296 26.4984C19.0165 26.8861 19.4169 27.262 19.7852 27.6666C20.1906 28.1126 19.987 28.8069 19.4169 28.861C19.1803 28.8838 18.8619 28.7419 18.6828 28.5696C17.572 27.496 16.4866 26.3962 15.3986 25.2989C14.6282 24.5218 14.0505 23.6146 13.6222 22.6102C13.1162 21.4234 12.6052 20.2391 12.0992 19.0523C11.9641 18.7347 11.7546 18.4492 11.4023 18.4729C11.1244 18.4914 10.8034 18.6165 10.5999 18.8023C10.3279 19.0506 10.3819 19.4088 10.5348 19.7424C11.4682 21.7824 12.3644 23.8409 13.3435 25.8589C13.6746 26.5406 14.1425 27.1876 14.6671 27.7367C16.18 29.3214 17.757 30.8435 19.2994 32.4011C19.5056 32.6089 19.715 32.6858 20.0022 32.6841C21.6739 32.6723 23.3456 32.6782 25.0172 32.6782H25.4894C25.5883 31.118 25.5401 29.6356 24.7537 28.2689C24.2959 27.4732 23.7502 26.7543 22.8827 26.3962C21.0488 25.6385 19.3848 24.6257 17.8964 23.3088C17.2494 22.7361 16.2974 22.7741 15.6073 23.3392V23.3383ZM26.9381 34.1531H19.0824V39.8379H26.9381V34.1531Z" fill="#AEBAA8"/>
<path d="M42.0576 34.1454V39.8438H34.1968V34.1454H42.0576ZM36.6701 37.6983C36.7824 37.6983 36.8948 37.7033 37.0063 37.6974C37.4615 37.6729 37.7361 37.4153 37.7454 37.0065C37.7547 36.6018 37.4835 36.3062 37.0451 36.2682C36.823 36.2488 36.5966 36.253 36.3736 36.2648C35.9005 36.2893 35.6117 36.5697 35.6125 36.9879C35.6125 37.4128 35.8963 37.6771 36.3761 37.6983C36.4741 37.7025 36.5721 37.6983 36.6701 37.6983Z" fill="#FFF000"/>
<path d="M26.9382 34.1531V39.8379H19.0825V34.1531H26.9382ZM24.4345 37.6991C24.5469 37.6991 24.6592 37.7042 24.7707 37.6983C25.226 37.6746 25.5023 37.417 25.5132 37.0099C25.5242 36.6061 25.2522 36.3071 24.8155 36.2699C24.579 36.2496 24.3391 36.2513 24.1017 36.2682C23.6574 36.2995 23.3812 36.5833 23.3804 36.9862C23.3795 37.4111 23.6633 37.678 24.1406 37.7C24.2386 37.7042 24.3366 37.7 24.4345 37.7V37.6991Z" fill="#FFF000"/>
<path d="M36.6699 37.6991C36.5719 37.6991 36.4739 37.7033 36.3759 37.6991C35.8961 37.678 35.6131 37.4128 35.6123 36.9887C35.6123 36.5706 35.9012 36.2902 36.3734 36.2657C36.5964 36.2538 36.8228 36.2505 37.0449 36.269C37.4833 36.3062 37.7545 36.6019 37.7452 37.0073C37.7359 37.4161 37.4614 37.6738 37.0061 37.6983C36.8946 37.7042 36.7822 37.6991 36.6699 37.7V37.6991Z" fill="#AEBAA8"/>
<path d="M24.4346 37.6991C24.3366 37.6991 24.2386 37.7034 24.1406 37.6991C23.6633 37.678 23.3795 37.4102 23.3804 36.9854C23.3804 36.5824 23.6574 36.2986 24.1017 36.2674C24.3383 36.2505 24.579 36.2488 24.8155 36.2691C25.2531 36.3062 25.5242 36.6052 25.5132 37.009C25.5023 37.417 25.226 37.6738 24.7708 37.6974C24.6593 37.7034 24.5469 37.6983 24.4346 37.6983V37.6991Z" fill="#AEBAA8"/>
<defs>
<clipPath id="clip0_789_277">
<rect width="17.4997" height="14" fill="white" transform="translate(22 9)"/>
</clipPath>
</defs>
</svg>
