<svg width="62" height="50" viewBox="0 0 62 50" fill="none" xmlns="http://www.w3.org/2000/svg">
<rect width="62" height="50" fill="white"/>
<g clip-path="url(#clip0_749_51)">
<path d="M28.5358 24.5064C30.9012 23.8899 31.1376 23.8899 33.2864 24.5064C35.4042 20.9635 40.0755 20.6064 42.7448 23.2289C45.3237 25.7625 45.2229 30.1212 41.9871 32.5072C42.0886 32.5739 42.1807 32.6374 42.2751 32.6969C44.5635 34.1402 45.7482 36.2184 45.8291 38.9187C45.8537 39.7249 45.8355 40.5318 45.8323 41.3388C45.8291 42.0958 45.4697 42.4592 44.7159 42.4608C42.706 42.4632 40.696 42.4616 38.6853 42.4616C38.5433 42.4616 38.4005 42.4616 38.2148 42.4616C38.2148 42.9528 38.2164 43.4114 38.2148 43.8701C38.2108 44.6318 37.8553 44.9992 37.1063 44.9992C32.9801 45.0008 28.8547 45.0008 24.7286 44.9992C23.9795 44.9992 23.6201 44.6302 23.6153 43.8732C23.6129 43.4503 23.6137 43.0266 23.6129 42.6037C23.6129 42.5775 23.6066 42.5513 23.5939 42.4608C23.4653 42.4608 23.3265 42.4608 23.1884 42.4608C21.1785 42.4608 19.1686 42.4616 17.1578 42.4608C16.3509 42.4608 15.9859 42.1085 16.0009 41.3023C16.0232 40.101 15.9509 38.8814 16.1311 37.703C16.4675 35.5066 17.6808 33.8363 19.5875 32.681C19.655 32.6398 19.7216 32.5969 19.7883 32.5541C19.7986 32.5469 19.8065 32.535 19.8375 32.5017C18.0601 31.144 17.1428 29.3555 17.288 27.1043C17.3959 25.4309 18.1283 24.0367 19.4058 22.9449C22.1378 20.6088 26.5036 21.1357 28.5358 24.508V24.5064ZM36.3104 43.079C36.3104 42.5132 36.3152 41.9855 36.3104 41.4586C36.266 37.4023 31.9057 34.8044 28.3596 36.7707C25.7355 38.2259 25.3142 40.5271 25.5673 43.079H36.3112H36.3104ZM35.04 30.0768C35.0376 27.8161 33.1896 25.9633 30.9297 25.957C28.6516 25.9498 26.7877 27.8098 26.7901 30.0871C26.7924 32.347 28.6405 34.1998 30.9004 34.2069C33.1777 34.214 35.0424 32.3541 35.04 30.0776V30.0768ZM38.3925 31.7003C38.7425 31.6582 38.9797 31.6376 39.2138 31.6003C41.0563 31.3035 42.4695 29.78 42.6456 27.9034C42.8202 26.0434 41.6697 24.274 39.8748 23.6463C38.1219 23.0329 36.1573 23.6915 35.117 25.2285C34.9591 25.4618 34.9496 25.6015 35.167 25.8236C36.5548 27.2448 37.1428 28.9484 36.8738 30.9266C36.8357 31.2083 36.8809 31.3789 37.1832 31.4392C37.6212 31.5257 38.0561 31.6273 38.3925 31.7011V31.7003ZM23.2741 31.6796C23.4709 31.6614 23.6708 31.6574 23.8652 31.6225C24.1112 31.5789 24.3517 31.5019 24.5976 31.4551C24.9198 31.3932 25.0007 31.2305 24.9555 30.8988C24.6913 28.9524 25.2681 27.2662 26.629 25.8625C26.8853 25.5983 26.8631 25.4388 26.6758 25.173C25.5522 23.5804 23.4653 22.9814 21.6704 23.7518C19.8716 24.5239 18.8654 26.4648 19.2614 28.4001C19.6431 30.2672 21.3435 31.6519 23.2749 31.6796H23.2741ZM43.9287 40.5374C43.9287 40.0256 43.9303 39.5392 43.9287 39.0528C43.9176 35.5963 41.0166 33.1159 37.5974 33.6586C36.4588 33.8395 35.4883 34.3672 34.6583 35.2258C36.6214 36.4866 37.795 38.241 38.1592 40.5366H43.9287V40.5374ZM27.1622 35.2369C25.484 33.3531 22.4425 33.0254 20.2866 34.491C18.1283 35.9581 17.7038 38.1157 17.941 40.531H23.6724C24.0398 38.2386 25.2047 36.4938 27.163 35.2361L27.1622 35.2369Z" fill="#AEBAA8"/>
<path d="M34.7486 20.1303C34.4669 20.0272 34.171 19.9518 33.9052 19.8169C32.999 19.3567 32.0992 18.8822 31.2065 18.3958C30.9946 18.2807 30.8383 18.2831 30.628 18.3973C29.7346 18.8822 28.8276 19.3424 27.9309 19.8217C27.32 20.1486 26.7153 20.1922 26.1392 19.7756C25.5695 19.3646 25.3814 18.7941 25.5068 18.1006C25.6909 17.0873 25.8425 16.0676 26.0329 15.0551C26.0789 14.8123 26.0226 14.6663 25.852 14.5045C25.1148 13.8022 24.3935 13.0833 23.6604 12.3771C23.1486 11.8843 22.928 11.3091 23.1676 10.6195C23.4064 9.93235 23.9405 9.6213 24.6395 9.53005C25.6219 9.40071 26.601 9.24995 27.5826 9.11585C27.8214 9.08332 27.9746 8.99445 28.0873 8.75402C28.5126 7.84547 28.976 6.95437 29.4092 6.04979C29.7163 5.41024 30.1876 5.01349 30.9137 5.01111C31.6413 5.00952 32.1127 5.40786 32.4197 6.04662C32.8546 6.95041 33.3164 7.84229 33.7425 8.75084C33.8544 8.98968 34.0043 9.08173 34.2448 9.11506C35.2263 9.24836 36.2055 9.40071 37.1878 9.52847C37.8869 9.61972 38.4217 9.92918 38.6614 10.6156C38.9081 11.3218 38.6677 11.9034 38.1456 12.4033C37.4195 13.0984 36.7086 13.8086 35.9809 14.5013C35.8119 14.6624 35.7508 14.8068 35.796 15.0512C35.9944 16.1153 36.1745 17.1841 36.342 18.2537C36.4919 19.2146 35.7334 20.0795 34.7486 20.1264V20.1303ZM30.9153 7.31859C30.4757 8.2073 30.0583 9.00079 29.6869 9.81492C29.364 10.5235 28.8411 10.883 28.073 10.9702C27.1874 11.071 26.3082 11.2234 25.5044 11.3424C26.1345 12.0137 26.7558 12.7135 27.4191 13.3706C27.9063 13.853 28.0825 14.4005 27.9643 15.0599C27.8992 15.4233 27.8318 15.7867 27.7707 16.1518C27.6762 16.7112 27.5858 17.2714 27.4818 17.903C28.138 17.5602 28.7102 17.2634 29.2807 16.9627C30.3736 16.3861 31.4644 16.385 32.553 16.9595C33.1299 17.2642 33.7092 17.5626 34.3511 17.8974C34.1964 16.9746 34.0908 16.1232 33.9044 15.2892C33.7131 14.4362 33.9432 13.7871 34.5812 13.1968C35.2073 12.6175 35.7572 11.9566 36.3324 11.3408C35.5215 11.2218 34.6399 11.0694 33.7536 10.9687C33.0022 10.8838 32.4808 10.5426 32.1611 9.84745C31.7818 9.02301 31.3604 8.21841 30.9153 7.32017V7.31859Z" fill="#618260"/>
<path d="M18.2685 18.03C17.7987 18.0292 17.4528 17.7665 17.3266 17.3428C17.2108 16.9516 17.3377 16.5041 17.7075 16.3097C18.5351 15.8756 19.377 15.4638 20.2308 15.0845C20.6521 14.8972 21.1235 15.117 21.3433 15.517C21.5655 15.9216 21.5147 16.4668 21.1179 16.6858C20.2435 17.169 19.3294 17.5785 18.4288 18.0133C18.3732 18.0403 18.2986 18.0276 18.2677 18.03H18.2685Z" fill="#FFF000"/>
<path d="M43.4978 18.0292C43.4431 18.0141 43.309 17.9982 43.1931 17.9427C42.4203 17.5729 41.6466 17.2047 40.8833 16.8159C40.4945 16.6175 40.3064 16.2152 40.3731 15.8288C40.4429 15.4249 40.7476 15.0996 41.1602 15.0456C41.3348 15.0226 41.5411 15.0401 41.6982 15.1131C42.4869 15.4797 43.2701 15.8582 44.0422 16.2581C44.4635 16.4763 44.6262 16.9048 44.5088 17.3269C44.3866 17.7657 44.0263 18.0371 43.4978 18.0284V18.0292Z" fill="#FFF000"/>
<path d="M18.3473 5.0119C18.4195 5.03729 18.5861 5.07935 18.7377 5.15156C19.4399 5.48641 20.1406 5.82285 20.8365 6.1712C21.4149 6.46082 21.6189 7.00516 21.357 7.51141C21.1063 7.99623 20.5635 8.1462 19.9946 7.87403C19.2693 7.52728 18.5441 7.17973 17.8276 6.81551C17.3864 6.59095 17.1999 6.15929 17.3197 5.72684C17.4395 5.29121 17.8141 5.00238 18.3473 5.0119Z" fill="#FFF000"/>
<path d="M41.3464 8.02162C40.8853 8.01924 40.5275 7.74469 40.4029 7.32652C40.287 6.93771 40.4164 6.49018 40.7893 6.29339C41.6169 5.85856 42.4588 5.44753 43.3118 5.06586C43.7276 4.87939 44.2037 5.10236 44.4235 5.50308C44.6433 5.90379 44.5886 6.45447 44.1942 6.67189C43.319 7.15513 42.4049 7.56616 41.5043 8.00179C41.4487 8.02876 41.3749 8.01766 41.3456 8.02083L41.3464 8.02162Z" fill="#FFF000"/>
<path d="M18.2186 12.4707C17.7965 12.4707 17.3743 12.4803 16.953 12.4684C16.4134 12.4533 16.0167 12.0629 16 11.5527C15.9841 11.048 16.3634 10.5973 16.8951 10.5806C17.7774 10.5529 18.6622 10.5529 19.5445 10.5806C20.0762 10.5973 20.4547 11.0488 20.4372 11.5543C20.4197 12.0661 20.0246 12.4453 19.4834 12.4699C19.4572 12.4707 19.4311 12.4715 19.4041 12.4715C19.0081 12.4715 18.613 12.4715 18.217 12.4715C18.217 12.4715 18.217 12.4707 18.217 12.4699L18.2186 12.4707Z" fill="#FFF000"/>
<path d="M43.5977 12.4715C43.189 12.4715 42.7796 12.4787 42.3709 12.4692C41.8076 12.4565 41.4013 12.0645 41.3918 11.54C41.3822 11.0202 41.7814 10.5886 42.3384 10.5751C43.1819 10.5552 44.0262 10.556 44.8704 10.5743C45.4306 10.5862 45.8322 11.0075 45.8298 11.5281C45.8274 12.07 45.4164 12.4557 44.8236 12.4715C44.7974 12.4715 44.7713 12.4715 44.7443 12.4715C44.3618 12.4715 43.9794 12.4715 43.5969 12.4715H43.5977Z" fill="#FFF000"/>
<path d="M30.9152 7.31859C31.3604 8.21682 31.7817 9.02143 32.161 9.84586C32.4816 10.5418 33.0029 10.8822 33.7536 10.9671C34.6407 11.0678 35.5215 11.2202 36.3324 11.3392C35.7571 11.9558 35.2072 12.6167 34.5812 13.1952C33.9424 13.7864 33.7131 14.4346 33.9043 15.2876C34.0908 16.1216 34.1963 16.973 34.3511 17.8959C33.7091 17.561 33.1299 17.2626 32.553 16.9579C31.4638 16.3835 30.373 16.3845 29.2806 16.9611C28.7101 17.2619 28.1372 17.5586 27.4818 17.9014C27.5857 17.2698 27.6762 16.7096 27.7706 16.1502C27.8325 15.786 27.9 15.4225 27.9642 15.0583C28.0817 14.3981 27.9063 13.8514 27.4191 13.369C26.7557 12.712 26.1336 12.0121 25.5044 11.3408C26.3082 11.2226 27.1874 11.0694 28.0729 10.9687C28.841 10.8814 29.3639 10.5227 29.6869 9.81333C30.0583 8.99921 30.4748 8.20651 30.9152 7.317V7.31859Z" fill="#FFF000"/>
</g>
<defs>
<clipPath id="clip0_749_51">
<rect width="29.8409" height="40" fill="white" transform="translate(16 5)"/>
</clipPath>
</defs>
</svg>
