<svg width="62" height="50" viewBox="0 0 62 50" fill="none" xmlns="http://www.w3.org/2000/svg">
<rect width="62" height="50" fill="white"/>
<g clip-path="url(#clip0_789_341)">
<path d="M51.7051 44.6169C51.4685 44.9299 51.1515 45 50.7699 45C37.8269 44.9928 24.8847 44.9944 11.9416 44.9936C11.1706 44.9936 11.0025 44.8271 11.0025 44.068C11.0025 43.2866 10.9993 42.5044 11.0041 41.723C11.0073 41.1973 11.2271 40.9774 11.756 40.9711C12.2985 40.9647 12.8409 40.9695 13.4511 40.9695C13.4511 40.6501 13.4511 40.353 13.4511 40.0551C13.4511 39.5915 13.4447 39.1279 13.4535 38.6643C13.4622 38.1991 13.6685 37.9864 14.1385 37.9769C14.7606 37.9641 15.3835 37.9729 16.0064 37.9729C16.149 37.9729 16.2916 37.9729 16.4819 37.9729C16.4819 37.5117 16.4803 37.0911 16.4819 36.6713C16.4851 36.0867 16.6874 35.8836 17.2673 35.878C17.4521 35.8764 17.6361 35.878 17.8536 35.878V21.3873C17.6258 21.3873 17.394 21.396 17.163 21.3857C16.701 21.3642 16.4875 21.1475 16.4795 20.6895C16.4716 20.241 16.4779 19.7926 16.4779 19.3043C16.3083 19.2963 16.1665 19.2844 16.0255 19.2844C14.8864 19.2828 13.7466 19.2868 12.6075 19.282C12.0213 19.2796 11.8229 19.0773 11.8166 18.4902C11.8118 18.0792 11.8293 17.6682 11.8118 17.2588C11.7943 16.8549 11.9655 16.5993 12.3104 16.3914C16.1641 14.0678 20.0114 11.734 23.8611 9.40408C26.1934 7.99181 28.5288 6.58511 30.8555 5.16408C31.1885 4.96096 31.4721 4.93946 31.8106 5.14417C38.0125 8.90465 44.2168 12.6603 50.4234 16.4121C50.7253 16.5945 50.883 16.8287 50.8743 17.1863C50.8639 17.6364 50.8782 18.0872 50.8703 18.5372C50.8599 19.0765 50.6584 19.2788 50.1167 19.2812C48.9777 19.2868 47.8378 19.2828 46.6988 19.2836C46.5562 19.2836 46.4128 19.2836 46.2209 19.2836C46.2209 19.7408 46.2225 20.1598 46.2209 20.5788C46.2177 21.1794 46.013 21.3817 45.4036 21.3889C45.2204 21.3913 45.0372 21.3889 44.8301 21.3889V35.8788C45.0507 35.8788 45.2586 35.8764 45.4657 35.8788C45.997 35.8867 46.2137 36.1002 46.2209 36.6251C46.2264 37.0354 46.2256 37.4464 46.2304 37.8566C46.2304 37.8797 46.2503 37.9036 46.283 37.9737C46.9593 37.9737 47.657 37.9729 48.3556 37.9737C49.0836 37.9753 49.2501 38.1386 49.2509 38.8547C49.2517 39.5413 49.2509 40.2271 49.2509 40.9695C49.7941 40.9695 50.3063 40.9854 50.8161 40.9639C51.1889 40.948 51.4884 41.0444 51.7051 41.3566V44.6161V44.6169ZM49.634 18.0434C49.6093 17.7224 49.7503 17.438 49.3823 17.2158C43.4553 13.6409 37.5369 10.0525 31.6202 6.46085C31.4235 6.34137 31.2817 6.34456 31.0857 6.46324C25.2152 10.0278 19.3423 13.5907 13.459 17.1345C13.056 17.3775 13.0098 17.6467 13.1038 18.0442H49.634V18.0434ZM22.816 21.3881V35.878C22.9913 35.878 23.1362 35.878 23.2804 35.878C24.03 35.8796 24.1996 36.0453 24.2012 36.7773C24.2012 37.1684 24.2012 37.5587 24.2012 37.9386H27.4519C27.4686 37.8781 27.4806 37.8534 27.4814 37.8279C27.4854 37.444 27.4846 37.0601 27.4909 36.6753C27.5005 36.0899 27.706 35.8836 28.2811 35.878C28.4755 35.8756 28.6698 35.878 28.8769 35.878V21.3881C28.6467 21.3881 28.438 21.3936 28.2293 21.3873C27.7235 21.3713 27.5077 21.1595 27.4925 20.6529C27.4822 20.3088 27.4766 19.9631 27.4941 19.6197C27.5069 19.3609 27.4177 19.2717 27.1548 19.278C26.5327 19.294 25.9098 19.2828 25.2869 19.2828C24.934 19.2828 24.5804 19.2828 24.2012 19.2828C24.2012 19.7759 24.2052 20.2124 24.2004 20.6481C24.1941 21.1515 23.9782 21.3697 23.474 21.3865C23.2637 21.3936 23.0526 21.3873 22.8168 21.3873L22.816 21.3881ZM39.8995 21.3889C39.6876 21.3889 39.5044 21.3905 39.3212 21.3889C38.7103 21.3817 38.5079 21.1818 38.5047 20.5796C38.5024 20.1606 38.5047 19.7416 38.5047 19.3115H35.2166C35.2166 19.7074 35.2166 20.0762 35.2166 20.445C35.215 21.216 35.047 21.3865 34.2886 21.3889C34.1365 21.3889 33.9836 21.3889 33.8362 21.3889V35.8788C34.0218 35.8788 34.1795 35.8788 34.3364 35.8788C35.0262 35.8804 35.2118 36.0628 35.2158 36.747C35.2182 37.1405 35.2158 37.534 35.2158 37.9506H38.5047C38.5047 37.483 38.4992 37.0362 38.5063 36.5893C38.5135 36.1106 38.7341 35.8931 39.2169 35.8804C39.4375 35.8748 39.6589 35.8796 39.8995 35.8796V21.3897V21.3889ZM14.7024 39.2251V40.948H48.0027V39.2251H14.7024ZM50.4537 42.2527H12.2579V43.7231H50.4537V42.2527ZM21.5368 35.8676V21.4223H19.1448V35.8676H21.5368ZM41.1708 21.4048V35.8485H43.5596V21.4048H41.1708ZM30.161 35.8541H32.5442V21.4207H30.161V35.8541ZM22.9514 19.2836C21.3966 19.2836 19.8911 19.2836 18.3865 19.2836C17.8947 19.2836 17.6714 19.5308 17.7166 20.0252C17.719 20.0491 17.7373 20.0722 17.754 20.1096H22.9514V19.2844V19.2836ZM44.979 19.3258H39.7545V20.1216H44.979V19.3258ZM33.9644 19.3115H28.7503V20.1152H33.9644V19.3115ZM17.7349 37.1493C17.7237 37.2353 17.7102 37.299 17.7078 37.3627C17.6908 37.7706 17.8817 37.9747 18.2805 37.9753C19.696 37.9753 21.1114 37.9753 22.5269 37.9745C22.6655 37.9745 22.8041 37.9585 22.9499 37.949V37.1501H17.7349V37.1493ZM44.9767 37.1548H39.7553V37.949H44.9767V37.1548ZM33.9589 37.154H28.7567V37.9506H33.9589V37.154Z" fill="#AEBAA8"/>
<path d="M14.7021 39.2251H48.0024V40.948H14.7021V39.2251Z" fill="#FFF000"/>
<path d="M28.3638 13.1271C28.3663 11.4623 29.715 10.1251 31.3798 10.1367C33.0215 10.1482 34.3455 11.4904 34.3422 13.1403C34.3389 14.7854 33.0067 16.1267 31.3666 16.1366C29.7166 16.1465 28.3605 14.7878 28.3638 13.1271ZM31.3567 14.844C32.3092 14.8423 33.0843 14.0648 33.0752 13.1181C33.0661 12.1853 32.3059 11.4284 31.3691 11.4185C30.4174 11.4086 29.6341 12.1779 29.6299 13.1263C29.6258 14.073 30.4025 14.8448 31.3567 14.8431V14.844Z" fill="#618260"/>
<path d="M31.3566 14.844C30.4025 14.8456 29.6258 14.0739 29.6299 13.1271C29.634 12.1787 30.4165 11.4095 31.369 11.4194C32.3059 11.4284 33.0661 12.1862 33.0751 13.1189C33.0842 14.0648 32.3092 14.8431 31.3566 14.8448V14.844Z" fill="#FFF000"/>
</g>
<defs>
<clipPath id="clip0_789_341">
<rect width="40.7049" height="40" fill="white" transform="translate(11 5)"/>
</clipPath>
</defs>
</svg>
