<svg width="62" height="50" viewBox="0 0 62 50" fill="none" xmlns="http://www.w3.org/2000/svg">
<rect width="62" height="50" fill="white"/>
<g clip-path="url(#clip0_749_69)">
<path d="M37.1513 39.666C37.5894 40.5414 37.9834 41.3502 38.4065 42.1439C38.4623 42.248 38.6689 42.3238 38.8063 42.3247C40.1948 42.338 41.5833 42.3297 42.9717 42.3347C43.5015 42.3363 43.9054 42.5712 44.1603 43.0393C44.4077 43.4941 44.3802 43.9472 44.1087 44.3828C43.8804 44.7493 43.5373 44.9392 43.1158 44.9917C43.0059 45.005 42.8943 44.9992 42.7826 44.9992C34.9241 44.9992 27.0647 45.0042 19.2061 44.985C18.8446 44.9842 18.4357 44.8492 18.1325 44.6493C17.6769 44.3495 17.5628 43.744 17.7452 43.2259C17.9359 42.6828 18.4132 42.3388 19.0229 42.3355C20.3839 42.328 21.7448 42.3222 23.105 42.3405C23.4157 42.3447 23.5698 42.2447 23.6997 41.9657C24.0495 41.2136 24.4343 40.4781 24.83 39.6877C24.6426 39.6793 24.4985 39.6668 24.3535 39.6668C22.1738 39.666 19.994 39.6685 17.8135 39.6652C13.9154 39.6593 11.0027 36.7391 11.0019 32.8328C10.9994 25.8329 10.9994 18.8339 11.0019 11.8341C11.0027 7.92687 13.9146 5.00333 17.811 5.0025C26.5999 5 35.3897 5 44.1786 5.0025C48.0767 5.00333 50.9877 7.9252 50.9894 11.8333C50.9919 18.8331 50.9919 25.8321 50.9894 32.8319C50.9877 36.755 48.0708 39.6618 44.137 39.6652C41.9847 39.6668 39.8325 39.6652 37.6802 39.6652H37.1505L37.1513 39.666ZM48.324 28.0776V27.6229C48.324 22.3746 48.3257 17.1264 48.324 11.8782C48.3232 9.37531 46.6166 7.6695 44.1145 7.66867C35.3697 7.667 26.6249 7.667 17.8793 7.66867C15.378 7.66867 13.6689 9.37698 13.668 11.8766C13.6664 17.1248 13.668 22.373 13.668 27.6212C13.668 27.7686 13.668 27.916 13.668 28.0776H48.3249H48.324ZM13.6672 30.7804C13.6672 31.4559 13.6672 32.1048 13.6672 32.7536C13.6697 35.3048 15.3664 36.9982 17.9251 36.9982C22.1163 36.999 26.3076 36.9982 30.4996 36.9982C35.0798 36.9982 39.6592 37.0023 44.2394 36.9957C46.1876 36.9932 47.8543 35.7471 48.1958 33.8981C48.3824 32.8902 48.3199 31.8366 48.3707 30.7788H13.6672V30.7804ZM26.5 42.3122H35.4888C35.0573 41.4468 34.65 40.6164 34.2228 39.7968C34.1828 39.7193 34.017 39.6718 33.9096 39.671C31.9664 39.6635 30.0232 39.6635 28.0792 39.671C27.9717 39.671 27.8068 39.7201 27.7668 39.7976C27.3395 40.6172 26.9314 41.4468 26.5 42.3122Z" fill="#AEBAA8"/>
<path d="M48.3241 28.0776H13.6672C13.6672 27.916 13.6672 27.7686 13.6672 27.6212C13.6672 22.373 13.6656 17.1248 13.6672 11.8766C13.6681 9.37698 15.3772 7.66867 17.8785 7.66867C26.6233 7.667 35.3681 7.667 44.1137 7.66867C46.6158 7.66867 48.3224 9.37531 48.3233 11.8782C48.3258 17.1264 48.3233 22.3746 48.3233 27.6229V28.0776H48.3241ZM37.9468 14.3162C36.6591 15.7205 35.4613 17.0298 34.2603 18.3358C33.6223 19.0297 32.9026 19.0297 32.2496 18.34C31.5908 17.6445 30.9553 16.9257 30.2731 16.2544C28.7114 14.7176 26.231 14.7301 24.755 16.3418C22.8901 18.3783 21.081 20.4673 19.2828 22.5646C19.0595 22.8244 18.9613 23.275 18.9721 23.6324C18.9879 24.1737 19.3527 24.5527 19.8783 24.7043C20.4514 24.8701 20.9369 24.6943 21.3334 24.242C23.0634 22.2697 24.7958 20.299 26.5325 18.3333C27.1763 17.6045 27.8985 17.6062 28.5681 18.3175C29.1195 18.9039 29.6709 19.4903 30.2223 20.0775C32.0306 22.0048 34.5085 21.9948 36.3059 20.0475C37.4828 18.7723 38.6539 17.4921 39.8233 16.2102C39.915 16.1103 39.9791 15.9862 40.0557 15.8729C40.0949 15.8971 40.1348 15.9204 40.174 15.9445C40.2498 16.6425 40.3231 17.3405 40.4014 18.0385C40.4913 18.8389 41.1094 19.3437 41.8931 19.2604C42.6019 19.1854 43.125 18.5307 43.0517 17.7861C42.8935 16.1844 42.7327 14.5827 42.5603 12.9827C42.4429 11.8891 41.5883 11.2385 40.493 11.3701C39.8042 11.4526 39.1129 11.5134 38.4232 11.5834C37.5403 11.6725 36.6549 11.75 35.7737 11.8541C35.0849 11.9357 34.6009 12.4404 34.5601 13.0743C34.5177 13.724 34.9033 14.322 35.5205 14.4544C35.837 14.5219 36.181 14.4794 36.5108 14.4578C36.9506 14.4286 37.3896 14.3711 37.9459 14.3145L37.9468 14.3162Z" fill="white"/>
<path d="M13.667 30.7804H48.3705C48.3197 31.8382 48.3821 32.8919 48.1956 33.8997C47.8541 35.748 46.1882 36.994 44.2392 36.9973C39.659 37.004 35.0796 36.999 30.4994 36.9998C26.3082 36.9998 22.1169 36.9998 17.9249 36.9998C15.3661 36.9998 13.6687 35.3065 13.667 32.7553C13.667 32.1064 13.667 31.4568 13.667 30.7821V30.7804ZM32.3268 33.8856C32.3285 33.1609 31.7355 32.5646 31.0075 32.5587C30.2712 32.5529 29.6757 33.1284 29.6632 33.8581C29.6507 34.596 30.267 35.2207 31.0017 35.2157C31.7238 35.2107 32.3243 34.6077 32.326 33.8856H32.3268Z" fill="#FFF000"/>
<path d="M37.9467 14.3162C37.3903 14.3736 36.9522 14.4303 36.5116 14.4594C36.1818 14.4811 35.8369 14.5244 35.5212 14.4561C34.9041 14.3245 34.5193 13.7256 34.5609 13.076C34.6025 12.4413 35.0856 11.9374 35.7745 11.8557C36.6557 11.7516 37.5402 11.6742 38.424 11.585C39.1145 11.5151 39.8049 11.4551 40.4938 11.3718C41.5891 11.2402 42.4436 11.8907 42.5611 12.9843C42.7335 14.5844 42.8942 16.1861 43.0525 17.7878C43.1258 18.5324 42.6027 19.1871 41.8939 19.262C41.1101 19.3453 40.4921 18.8406 40.4021 18.0401C40.3239 17.3422 40.2506 16.6442 40.1748 15.9462C40.1356 15.922 40.0956 15.8987 40.0565 15.8746C39.9799 15.9878 39.9149 16.1119 39.8241 16.2119C38.6539 17.4929 37.4836 18.7739 36.3067 20.0491C34.5093 21.9965 32.0313 22.0057 30.2231 20.0791C29.6725 19.4919 29.1211 18.9055 28.5689 18.3192C27.8992 17.6079 27.1771 17.6062 26.5332 18.335C24.7958 20.3007 23.0641 22.2714 21.3342 24.2437C20.9377 24.696 20.4521 24.8709 19.8791 24.706C19.3535 24.5544 18.9887 24.1754 18.9729 23.634C18.9629 23.2767 19.0611 22.8261 19.2835 22.5662C21.081 20.4689 22.8909 18.3808 24.7558 16.3435C26.2317 14.731 28.7122 14.7193 30.2739 16.256C30.956 16.9274 31.5915 17.6462 32.2504 18.3417C32.9034 19.0313 33.623 19.0313 34.261 18.3375C35.4621 17.0315 36.6598 15.7221 37.9475 14.3178L37.9467 14.3162Z" fill="#618260"/>
<path d="M32.3266 33.8856C32.325 34.6077 31.7236 35.2107 31.0023 35.2157C30.2677 35.2207 29.6505 34.596 29.6638 33.8581C29.6763 33.1284 30.2718 32.5529 31.0081 32.5587C31.7361 32.5646 32.3291 33.1609 32.3275 33.8856H32.3266Z" fill="#618260"/>
</g>
<defs>
<clipPath id="clip0_749_69">
<rect width="39.9908" height="40" fill="white" transform="translate(11 5)"/>
</clipPath>
</defs>
</svg>
