<svg width="62" height="50" viewBox="0 0 62 50" fill="none" xmlns="http://www.w3.org/2000/svg">
<rect width="62" height="50" fill="white"/>
<g clip-path="url(#clip0_789_254)">
<path d="M48.2475 41.2738C48.723 41.2738 49.1416 41.2681 49.5601 41.2747C50.4738 41.2893 50.9884 41.8121 50.9933 42.7257C50.9949 43.0644 51.0039 43.404 50.9892 43.7419C50.9591 44.4324 50.4282 44.9593 49.7376 44.9959C49.6163 45.0024 49.4942 44.9984 49.372 44.9984C37.1277 44.9984 24.8825 44.9984 12.6381 44.9984C11.4468 44.9984 11.0006 44.5497 11.0006 43.3519C11.0006 43.1214 10.9982 42.891 11.0006 42.6606C11.0112 41.8495 11.5258 41.308 12.336 41.2779C12.7912 41.2608 13.248 41.2747 13.7464 41.2747V40.7038C13.7464 32.399 13.7488 24.0941 13.7407 15.7892C13.7407 15.1631 13.9165 14.6606 14.5069 14.3944C14.7194 14.2983 14.9784 14.2706 15.2161 14.2698C17.3292 14.2608 19.4423 14.2641 21.5553 14.2641C21.7011 14.2641 21.8468 14.2641 22.0406 14.2641C22.0406 13.4319 22.0773 12.6347 22.0317 11.8424C21.9649 10.6861 22.7108 10.1568 23.6668 10.2195C24.2017 10.2554 24.7408 10.2261 25.3214 10.2261C25.3214 9.80263 25.3214 9.42725 25.3214 9.05105C25.3238 7.97946 25.8083 7.4974 26.8889 7.49577C27.932 7.49414 28.9751 7.49577 30.0182 7.49577C30.1647 7.49577 30.3113 7.49577 30.51 7.49577C30.51 6.82887 30.5043 6.19699 30.5124 5.56592C30.5173 5.19461 30.7461 4.95684 31.049 5.00407C31.3731 5.05537 31.4888 5.27767 31.4863 5.58791C31.4822 6.20758 31.4847 6.82806 31.4847 7.49496C31.8438 7.49496 32.1654 7.49496 32.4863 7.49496C33.4211 7.49496 34.3558 7.48763 35.2898 7.4974C36.1318 7.50636 36.6529 8.02913 36.67 8.87028C36.679 9.30104 36.6717 9.73261 36.6717 10.2252C37.2514 10.2252 37.8011 10.2252 38.3507 10.2252C39.4932 10.2261 39.9516 10.6837 39.9524 11.8245C39.9524 12.6209 39.9524 13.4172 39.9524 14.2633C40.1332 14.2633 40.2773 14.2633 40.4214 14.2633C42.4799 14.2633 44.5393 14.2633 46.5978 14.2633C47.8037 14.2633 48.2459 14.7005 48.2459 15.8935C48.2459 24.1576 48.2459 32.4218 48.2459 40.6859V41.2714L48.2475 41.2738ZM38.9785 41.2535V40.8073C38.9785 31.1613 38.9785 21.5145 38.9785 11.8685C38.9785 11.2341 38.9484 11.204 38.3133 11.204C33.4365 11.204 28.5606 11.204 23.6839 11.204C23.0471 11.204 23.017 11.2341 23.017 11.8677C23.017 21.5136 23.017 31.1605 23.017 40.8064V41.2405H24.8515C24.8515 41.0458 24.8515 40.8838 24.8515 40.7218C24.8515 38.1747 24.8515 35.6276 24.8515 33.0805C24.8515 32.3851 24.9566 32.2801 25.6528 32.2801C29.2153 32.2801 32.7778 32.2801 36.3403 32.2801C37.0373 32.2801 37.1423 32.3851 37.1423 33.0797C37.1431 35.6406 37.1423 38.2007 37.1423 40.7617C37.1423 40.9188 37.1423 41.0768 37.1423 41.2535H38.9769H38.9785ZM39.9809 15.2412V41.2388H47.272V40.6786C47.272 34.8679 47.272 29.0563 47.272 23.2456C47.272 20.7669 47.272 18.2883 47.272 15.8088C47.272 15.2958 47.2183 15.242 46.7167 15.2412C44.983 15.2396 43.2494 15.2412 41.5158 15.2412C41.0159 15.2412 40.5151 15.2412 39.9809 15.2412ZM22.0219 15.2412H21.5301C19.4854 15.2412 17.4399 15.2412 15.3953 15.2412C14.7463 15.2412 14.7227 15.264 14.7227 15.8959C14.7227 24.1991 14.7227 32.5032 14.7227 40.8064C14.7227 40.9506 14.7227 41.0939 14.7227 41.2372H22.0219V15.2412ZM30.9758 44.0237C36.977 44.0237 42.9791 44.0237 48.9804 44.0237C50.0927 44.0237 50.0226 44.1108 50.0186 43.0001C50.0161 42.2673 50.0007 42.2494 49.2678 42.2494C37.2107 42.2494 25.1528 42.2494 13.0957 42.2485C11.8426 42.2485 11.9786 42.1924 11.9769 43.3633C11.9761 43.9968 12.003 44.0229 12.6463 44.0229C18.7566 44.0229 24.8662 44.0229 30.9766 44.0229L30.9758 44.0237ZM25.8751 33.2825V41.2429H30.4782V33.2825H25.8751ZM36.1432 41.2567V33.2833H31.5116V41.2567H36.1432ZM35.6978 10.2041C35.6978 9.80345 35.6986 9.44028 35.6978 9.07792C35.6953 8.52584 35.6457 8.47372 35.092 8.47372C32.4244 8.47291 29.7568 8.47372 27.0892 8.47372C26.954 8.47372 26.7985 8.43301 26.6877 8.48594C26.5404 8.55678 26.3311 8.69114 26.3189 8.81491C26.2749 9.26765 26.3018 9.72691 26.3018 10.2057H35.6978V10.2041Z" fill="#AEBAA9"/>
<path d="M25.8755 33.2825H30.4786V41.2429H25.8755V33.2825Z" fill="#FFF000"/>
<path d="M36.1434 41.2568H31.5117V33.2833H36.1434V41.2568Z" fill="#FFF000"/>
<path d="M30.9559 16.7924C29.1547 16.7924 27.3535 16.7924 25.5523 16.7924C24.9929 16.7924 24.8561 16.6589 24.8528 16.0987C24.8487 15.3129 24.8471 14.5271 24.8528 13.7413C24.8569 13.2348 25.0059 13.0842 25.5124 13.0834C29.1693 13.0801 32.8255 13.0801 36.4824 13.0834C36.9881 13.0834 37.1363 13.2356 37.1403 13.7429C37.1468 14.5418 37.1468 15.3414 37.1403 16.1402C37.1363 16.6483 36.9872 16.7908 36.4808 16.7916C34.6389 16.7932 32.797 16.7916 30.955 16.7916L30.9559 16.7924ZM36.1347 15.7982V14.0939H25.8519V15.7982H36.1347Z" fill="#618260"/>
<path d="M30.9961 19.2719C32.7973 19.2719 34.5985 19.2711 36.3997 19.2719C37.0153 19.2719 37.1407 19.3973 37.1432 20.0072C37.1456 20.7792 37.1489 21.5511 37.1415 22.3231C37.1366 22.8344 36.9933 22.9745 36.4836 22.9745C32.8275 22.9761 29.1705 22.9761 25.5144 22.9745C25.003 22.9745 24.8581 22.8344 24.854 22.3255C24.8475 21.5267 24.8475 20.7271 24.854 19.9282C24.8581 19.4185 25.0014 19.2744 25.5119 19.2736C27.34 19.2695 29.1681 19.2719 30.997 19.2719H30.9961ZM25.8442 21.9672H36.1391V20.2841H25.8442V21.9672Z" fill="#618260"/>
<path d="M30.9819 29.1598C29.1807 29.1598 27.3795 29.1598 25.5783 29.1598C24.9847 29.1598 24.8552 29.0344 24.8528 28.453C24.8495 27.6672 24.8471 26.8814 24.8544 26.0964C24.8593 25.6095 25.0059 25.4621 25.4887 25.4621C29.1587 25.4597 32.8287 25.4597 36.4986 25.4621C37.0011 25.4621 37.1395 25.6079 37.1427 26.1282C37.1484 26.914 37.1484 27.6997 37.1427 28.4847C37.1395 29.0213 37.0002 29.1589 36.4669 29.1598C34.6388 29.1622 32.8108 29.1598 30.9827 29.1598H30.9819ZM36.1509 26.4702H25.856V28.1509H36.1509V26.4702Z" fill="#618260"/>
<path d="M43.6559 35.6439C44.0883 35.6439 44.5207 35.6455 44.9531 35.6439C45.3195 35.6415 45.5141 35.8328 45.5182 36.187C45.528 37.0925 45.5272 37.998 45.5182 38.9043C45.5149 39.2422 45.3187 39.436 44.9816 39.4393C44.0761 39.4482 43.1706 39.4499 42.2651 39.4393C41.9126 39.4352 41.722 39.2406 41.7236 38.8725C41.7269 37.9801 41.7236 37.0884 41.7253 36.196C41.7253 35.8312 41.9142 35.648 42.2774 35.6455C42.7366 35.6431 43.1967 35.6455 43.6559 35.6455V35.6439ZM42.7171 38.4662C43.2692 38.4662 43.7927 38.4752 44.3155 38.4572C44.3945 38.4548 44.5329 38.3302 44.5354 38.2586C44.5541 37.7236 44.5459 37.187 44.5459 36.643H42.7171V38.467V38.4662Z" fill="#618260"/>
<path d="M41.7243 31.3396C41.7243 30.9072 41.7186 30.4748 41.7259 30.0425C41.7324 29.6378 41.8904 29.4668 42.2861 29.4635C43.1778 29.4554 44.0694 29.4619 44.9619 29.4611C45.3316 29.4611 45.5156 29.6589 45.5188 30.0115C45.5278 30.9031 45.5262 31.7956 45.5205 32.6872C45.518 33.0675 45.3088 33.2548 44.9326 33.2548C44.0539 33.2556 43.1761 33.2629 42.2975 33.2515C41.8798 33.2458 41.73 33.0716 41.7251 32.6376C41.7202 32.2052 41.7243 31.7728 41.7243 31.3404V31.3396ZM42.7161 30.4594V32.2443H44.5262V30.4594H42.7161Z" fill="#618260"/>
<path d="M43.594 20.8777C43.1608 20.8777 42.7268 20.8858 42.2936 20.8753C41.8897 20.8655 41.7293 20.7043 41.7269 20.3012C41.7204 19.4201 41.7195 18.5399 41.7269 17.6588C41.7301 17.2598 41.8946 17.1019 42.3042 17.0986C43.1844 17.0929 44.0655 17.0921 44.9457 17.0986C45.3464 17.1019 45.5141 17.2623 45.519 17.6694C45.5296 18.5497 45.5263 19.4307 45.5206 20.3118C45.5182 20.6896 45.3219 20.8826 44.9351 20.8785C44.4881 20.8736 44.0411 20.8777 43.594 20.8769V20.8777ZM42.7227 19.8761H44.5134V18.1051H42.7227V19.8761Z" fill="#618260"/>
<path d="M41.7247 25.1779C41.7247 24.7309 41.7247 24.2838 41.7247 23.8368C41.7247 23.4753 41.899 23.2815 42.2695 23.2815C43.1636 23.2815 44.0577 23.2847 44.9517 23.2798C45.3239 23.2774 45.5136 23.4655 45.5177 23.8205C45.5283 24.7146 45.5258 25.6095 45.5193 26.5036C45.5169 26.8578 45.3361 27.063 44.9688 27.0646C44.0748 27.0679 43.1807 27.0736 42.2866 27.0622C41.8868 27.0573 41.7321 26.8847 41.7256 26.48C41.719 26.0468 41.7239 25.6127 41.7239 25.1787L41.7247 25.1779ZM44.512 26.0712V24.2895H42.7231V26.0712H44.512Z" fill="#618260"/>
<path d="M18.3667 35.6431C18.8129 35.6431 19.2591 35.6358 19.7045 35.6455C20.0995 35.6537 20.2656 35.8206 20.2688 36.222C20.2753 37.1006 20.268 37.9793 20.2721 38.8579C20.2737 39.2471 20.0734 39.4368 19.7021 39.4393C18.8104 39.4466 17.918 39.4466 17.0264 39.4393C16.6689 39.436 16.4767 39.2333 16.4751 38.8758C16.4702 37.9833 16.4678 37.0917 16.4767 36.1992C16.48 35.8214 16.6868 35.6366 17.0703 35.6423C17.5027 35.6488 17.9351 35.6439 18.3675 35.6439L18.3667 35.6431ZM17.4482 36.6324C17.4482 37.2024 17.4408 37.7268 17.4563 38.2504C17.4587 38.3229 17.5679 38.4524 17.6306 38.454C18.1777 38.4703 18.7258 38.4638 19.2664 38.4638V36.6324H17.4482Z" fill="#618260"/>
<path d="M20.2708 31.3428C20.2708 31.7752 20.2748 32.2076 20.2691 32.64C20.2634 33.0708 20.1128 33.245 19.6934 33.2507C18.8156 33.2621 17.937 33.2556 17.0584 33.254C16.6814 33.254 16.4762 33.0634 16.4738 32.6832C16.4689 31.8045 16.4648 30.9259 16.4754 30.0473C16.4803 29.6247 16.6505 29.4651 17.0772 29.4619C17.9419 29.4553 18.8067 29.4553 19.6715 29.4619C20.1152 29.4651 20.2651 29.628 20.27 30.0856C20.2748 30.5041 20.2708 30.9235 20.2708 31.3428ZM19.2692 32.2597V30.4618H17.4778V32.2597H19.2692Z" fill="#618260"/>
<path d="M20.2699 19.013C20.2699 19.4462 20.2691 19.8802 20.2699 20.3134C20.2716 20.6774 20.0949 20.8736 19.7293 20.8753C18.8213 20.8793 17.9142 20.8785 17.0063 20.8753C16.6553 20.8744 16.4786 20.6741 16.4754 20.3403C16.4664 19.4323 16.4648 18.5244 16.477 17.6165C16.4811 17.2826 16.6667 17.0945 17.0193 17.0954C17.9273 17.0978 18.8344 17.0954 19.7423 17.0978C20.0908 17.0986 20.2651 17.2867 20.2683 17.6295C20.2724 18.0904 20.2691 18.5513 20.2699 19.0114V19.013ZM17.4729 19.8745H19.2635V18.092H17.4729V19.8745Z" fill="#618260"/>
<path d="M20.2697 25.1844C20.2697 25.6307 20.2713 26.0761 20.2697 26.5223C20.2681 26.8676 20.0873 27.0573 19.7478 27.0597C18.8292 27.0679 17.9107 27.0662 16.9922 27.0597C16.6665 27.0581 16.4825 26.8676 16.4784 26.5524C16.467 25.6339 16.4654 24.7146 16.4784 23.7961C16.4833 23.4639 16.6714 23.2782 17.0223 23.279C17.9278 23.2823 18.8325 23.279 19.738 23.2806C20.0849 23.2806 20.264 23.463 20.2689 23.805C20.2754 24.2643 20.2705 24.7235 20.2705 25.1836L20.2697 25.1844ZM17.4718 26.059H19.2624V24.2765H17.4718V26.059Z" fill="#618260"/>
</g>
<defs>
<clipPath id="clip0_789_254">
<rect width="39.9984" height="40" fill="white" transform="translate(11 5)"/>
</clipPath>
</defs>
</svg>
