<svg width="62" height="50" viewBox="0 0 62 50" fill="none" xmlns="http://www.w3.org/2000/svg">
<rect width="62" height="50" fill="white"/>
<g clip-path="url(#clip0_689_43)">
<path d="M51.0172 10.8412C50.8512 11.3001 50.7385 11.7887 50.5091 12.2139C49.2531 14.5441 46.1845 15.0131 44.256 13.1903C44.1902 13.1284 44.1213 13.0697 44.0367 12.9945C43.9576 13.0345 43.8762 13.0681 43.8026 13.1143C42.6437 13.8378 41.4888 14.5684 40.3253 15.2833C40.1123 15.414 40.0582 15.526 40.1365 15.7789C40.9517 18.4153 39.0333 20.9984 36.2802 20.9906C33.5381 20.982 31.6049 18.0966 32.6338 15.5479C32.6823 15.4281 32.7238 15.306 32.7755 15.1674C32.6839 15.0914 32.5977 15.0147 32.5061 14.9458C31.2361 13.9921 29.9621 13.0439 28.6991 12.0815C28.4971 11.9281 28.3711 11.9273 28.1675 12.0855C26.8669 13.0963 25.4544 13.2482 23.9557 12.5733C23.7615 12.4856 23.6307 12.437 23.4577 12.6445C21.6904 14.7649 19.9099 16.8743 18.134 18.9877C18.1176 19.0072 18.1105 19.0339 18.1442 18.9657C18.4182 19.6485 18.7416 20.2483 18.9006 20.888C19.4283 23.0037 17.8185 25.3097 15.6589 25.6025C13.1408 25.9447 11.0666 24.1751 11.0149 21.6405C10.975 19.7127 12.5786 17.9173 14.4993 17.7098C15.2846 17.6252 16.0308 17.72 16.7332 18.077C16.9564 18.1906 17.0832 18.171 17.2508 17.9705C18.9695 15.9104 20.696 13.8582 22.4304 11.8114C22.5862 11.6282 22.5909 11.5092 22.4562 11.3118C21.3764 9.72938 21.4289 7.96761 22.5862 6.4611C24.2078 4.35011 27.6953 4.56309 29.0538 6.85495C29.7492 8.0279 29.8697 9.24704 29.3537 10.5179C29.2903 10.6737 29.2026 10.8013 29.4046 10.9509C30.7945 11.9805 32.1757 13.0235 33.5867 14.0837C34.4253 13.3422 35.3915 12.9483 36.5104 12.9961C37.6176 13.0431 38.5423 13.4972 39.3144 14.3115C39.413 14.2622 39.5062 14.2246 39.5908 14.1722C40.7395 13.4565 41.8827 12.733 43.0368 12.0259C43.2545 11.8928 43.2968 11.7777 43.2169 11.5295C42.502 9.29794 43.8316 6.96301 46.1086 6.42665C48.3401 5.90125 50.5576 7.38035 50.946 9.65264C50.9562 9.71215 50.9937 9.76696 51.018 9.82412V10.8405L51.0172 10.8412ZM47.0208 12.9773C48.4787 12.9718 49.6744 11.7785 49.6814 10.3221C49.6885 8.88373 48.4764 7.6638 47.0255 7.65127C45.5644 7.63796 44.3484 8.86259 44.3593 10.337C44.3695 11.8075 45.555 12.9828 47.0208 12.9773ZM25.665 11.643C27.119 11.6509 28.3178 10.4717 28.3444 9.00666C28.3711 7.56279 27.1222 6.30763 25.6681 6.31702C24.2102 6.32642 23.0239 7.52286 23.0223 8.98395C23.0208 10.4537 24.1953 11.6352 25.665 11.643ZM36.3938 14.335C34.9319 14.2974 33.6979 15.4939 33.6775 16.9699C33.6579 18.4051 34.8567 19.6258 36.3163 19.6571C37.739 19.6877 38.9511 18.5155 38.9965 17.0662C39.0435 15.5816 37.8924 14.3734 36.3938 14.3343V14.335ZM15.0075 24.3153C16.4693 24.3168 17.6579 23.1314 17.6634 21.6671C17.6689 20.2068 16.4944 19.0135 15.0286 18.9885C13.5839 18.9642 12.3327 20.2107 12.3405 21.6663C12.3491 23.1204 13.5503 24.3137 15.0075 24.3153Z" fill="#618260"/>
<path d="M43.5154 45C43.1286 44.8317 43.0119 44.5231 43.0127 44.1191C43.0182 37.8026 43.0127 31.4868 43.019 25.1703C43.0197 23.8823 43.7346 23.0601 44.9843 23.0092C46.3358 22.9536 47.692 22.9693 49.045 23.0053C50.005 23.0303 50.6447 23.5487 50.9407 24.4726C50.9555 24.5181 50.9916 24.5572 51.0182 24.5987V45H43.5162H43.5154ZM49.6847 43.6517V43.3126C49.6847 37.2842 49.6847 31.2566 49.6847 25.2282C49.6847 24.5627 49.4592 24.3301 48.7984 24.327C47.6395 24.3215 46.4814 24.3239 45.3226 24.3254C44.5388 24.327 44.3548 24.5102 44.3548 25.2932C44.3548 31.2692 44.3548 37.2451 44.3548 43.221C44.3548 43.3596 44.3665 43.4982 44.3736 43.6509H49.6839L49.6847 43.6517Z" fill="#AEBAA8"/>
<path d="M22.1804 45C21.7921 44.8324 21.677 44.5239 21.6777 44.1199C21.6832 38.2465 21.6777 32.3732 21.684 26.4998C21.6856 25.1413 22.485 24.3434 23.8459 24.3278C25.0697 24.3145 26.2936 24.3137 27.5174 24.3278C28.8689 24.3434 29.6785 25.164 29.6785 26.5085C29.6817 32.3693 29.6777 38.2293 29.6848 44.0901C29.6848 44.4926 29.5634 44.7964 29.2134 45H22.1804ZM28.3349 43.6493C28.3411 43.5373 28.3474 43.4723 28.3474 43.4074C28.3474 37.7799 28.349 32.1516 28.3474 26.5241C28.3474 25.9087 28.1125 25.6691 27.4994 25.6652C26.3272 25.6589 25.1551 25.662 23.9829 25.6636C23.1983 25.6644 23.0175 25.8453 23.0175 26.6314C23.0175 32.1681 23.0175 37.7047 23.0175 43.2414C23.0175 43.3776 23.0308 43.5138 23.0378 43.6493H28.3349Z" fill="#AEBAA8"/>
<path d="M32.8086 45C32.4445 44.7862 32.3349 44.4668 32.3364 44.051C32.3458 39.5573 32.3419 35.0636 32.3427 30.5692C32.3427 29.1425 33.1429 28.3376 34.5625 28.3329C35.7605 28.329 36.9585 28.3274 38.1565 28.3329C39.5346 28.3391 40.3372 29.1362 40.3388 30.5198C40.3443 35.0393 40.3388 39.5597 40.3451 44.0792C40.3451 44.4918 40.2534 44.8254 39.8416 44.9984H32.8086V45ZM38.9842 43.6501C38.9944 43.5546 39.0045 43.5029 39.0045 43.452C39.0053 39.1173 39.0077 34.7825 39.0038 30.4478C39.0038 29.9005 38.7626 29.671 38.209 29.6687C37.0118 29.6632 35.8146 29.6656 34.6173 29.6671C33.8805 29.6679 33.6762 29.877 33.6754 30.6263C33.6754 34.8311 33.6754 39.035 33.6754 43.2398V43.6509H38.985L38.9842 43.6501Z" fill="#AEBAA8"/>
<path d="M11.4737 45C11.1081 44.7878 10.9985 44.4683 11 44.0526C11.0118 41.3308 11.0047 38.6083 11.0071 35.8866C11.0086 34.474 11.8237 33.6659 13.2441 33.6636C14.4288 33.662 15.6143 33.6613 16.799 33.6636C18.1763 33.6667 18.9969 34.4654 19.0008 35.8349C19.0086 38.5958 18.9992 41.3567 19.0071 44.1183C19.0078 44.5224 18.8935 44.8309 18.5075 45H11.4737ZM17.6681 43.6517V43.3001C17.6681 40.8273 17.6697 38.3554 17.6673 35.8826C17.6673 35.214 17.4457 34.9971 16.7771 34.9955C15.6065 34.9931 14.4351 34.9939 13.2645 34.9955C12.5566 34.9963 12.339 35.2171 12.339 35.9367C12.3382 38.3828 12.339 40.8297 12.339 43.2758V43.6517H17.6689H17.6681Z" fill="#AEBAA8"/>
<path d="M47.0209 12.9773C45.5551 12.9828 44.3696 11.8067 44.3594 10.337C44.3493 8.86258 45.5645 7.63796 47.0256 7.65127C48.4765 7.66458 49.6886 8.88372 49.6815 10.3221C49.6745 11.7793 48.4788 12.9726 47.0209 12.9773Z" fill="#FFF000"/>
<path d="M25.6651 11.643C24.1954 11.6352 23.0209 10.4537 23.0225 8.98395C23.024 7.52207 24.2103 6.32642 25.6682 6.31702C27.1223 6.30763 28.3712 7.56279 28.3446 9.00666C28.318 10.4717 27.1192 11.6509 25.6651 11.643Z" fill="#FFF000"/>
<path d="M36.3937 14.335C37.8924 14.3742 39.0434 15.5816 38.9965 17.0669C38.951 18.5163 37.7389 19.6877 36.3162 19.6579C34.8567 19.6266 33.6579 18.4051 33.6775 16.9706C33.6978 15.4947 34.9311 14.2982 36.3937 14.3358V14.335Z" fill="#FFF000"/>
<path d="M15.0073 24.3153C13.5501 24.3137 12.349 23.1212 12.3404 21.6663C12.3318 20.2107 13.5838 18.9642 15.0284 18.9884C16.495 19.0135 17.6688 20.2068 17.6633 21.6671C17.6578 23.1306 16.4684 24.3168 15.0073 24.3153Z" fill="#FFF000"/>
</g>
<defs>
<clipPath id="clip0_689_43">
<rect width="40.0172" height="40" fill="white" transform="translate(11 5)"/>
</clipPath>
</defs>
</svg>
