<svg width="62" height="50" viewBox="0 0 62 50" fill="none" xmlns="http://www.w3.org/2000/svg">
<rect width="62" height="50" fill="white"/>
<g clip-path="url(#clip0_749_90)">
<path d="M23.9476 22.4362C23.0305 22.4362 22.1261 22.4362 21.221 22.4362C20.1416 22.4362 19.0614 22.4458 17.982 22.429C17.7149 22.425 17.5934 22.5065 17.4855 22.7544C17.0321 23.7954 15.9751 24.3296 14.8669 24.1113C13.8202 23.9058 13.0191 22.9375 12.9999 21.8565C12.9807 20.7451 13.7227 19.7856 14.8085 19.517C15.9055 19.2451 17.0177 19.8032 17.4974 20.8762C17.5782 21.0569 17.6406 21.1825 17.8868 21.1809C19.7794 21.1681 21.672 21.1737 23.5654 21.1721C23.6173 21.1721 23.6693 21.1585 23.7685 21.1441C23.6901 19.4434 24.1634 17.8946 25.1861 16.437C24.9926 16.437 24.8663 16.437 24.7407 16.437C23.5542 16.437 22.3676 16.4554 21.1827 16.4218C20.938 16.4146 20.6398 16.2699 20.4686 16.0908C20.0193 15.6199 19.6179 15.1009 19.2141 14.5876C19.0566 14.3877 18.9311 14.315 18.6536 14.4013C17.651 14.7116 16.6051 14.3078 16.0358 13.4378C15.4745 12.5807 15.5289 11.4701 16.171 10.6769C16.8162 9.88056 17.8852 9.59032 18.8391 9.95412C19.8066 10.3227 20.4391 11.2678 20.3431 12.3057C20.3047 12.7174 20.1272 13.1172 19.9969 13.5802C20.3639 14.0255 20.7749 14.5324 21.197 15.029C21.2578 15.1001 21.3706 15.1657 21.4601 15.1673C22.0574 15.1793 22.6547 15.1737 23.2983 15.1737C23.2983 14.1814 23.3063 13.2252 23.2847 12.2705C23.2831 12.1865 23.0952 12.0874 22.9769 12.029C22.0998 11.5956 21.5888 10.9016 21.572 9.91894C21.5553 8.94027 22.019 8.20307 22.8961 7.76251C24.0635 7.17722 25.4819 7.68655 26.0448 8.87071C26.6013 10.0421 26.12 11.4357 24.9318 11.9754C24.6072 12.1226 24.5193 12.2905 24.5296 12.6271C24.5552 13.4626 24.5384 14.299 24.5384 15.1905C25.1445 15.1905 25.7018 15.1929 26.2583 15.1873C26.3191 15.1873 26.391 15.1577 26.439 15.1185C27.596 14.1726 28.9265 13.6465 30.4449 13.4786V12.7934C30.4449 12.0738 30.4209 11.3526 30.4521 10.6338C30.4784 10.0317 30.4361 9.59512 29.7668 9.2545C28.8249 8.77476 28.5067 7.56581 28.8641 6.56475C29.2199 5.56769 30.2138 4.92324 31.2668 5.00719C32.2967 5.08875 33.1946 5.88832 33.3841 6.89178C33.5832 7.94641 33.077 9.00583 32.104 9.444C31.7809 9.58952 31.689 9.75023 31.6962 10.09C31.7202 11.207 31.705 12.3256 31.705 13.4682C32.8228 13.6089 33.863 13.9088 34.8081 14.4885C34.9104 14.5508 35.032 14.5964 35.1095 14.682C35.81 15.4504 36.7119 15.1769 37.6146 15.2065C37.6146 14.2118 37.6242 13.2571 37.6002 12.3025C37.5978 12.2065 37.4099 12.085 37.2836 12.0258C36.384 11.6044 35.8283 10.7145 35.8803 9.75023C35.9315 8.80114 36.5727 7.9536 37.4731 7.64577C38.6444 7.24519 39.9437 7.83687 40.4147 8.98425C40.892 10.1492 40.3707 11.4837 39.2041 11.9978C38.9227 12.1218 38.8387 12.2593 38.8459 12.5535C38.8659 13.4171 38.8531 14.2822 38.8531 15.2049C39.5072 15.2049 40.1284 15.2145 40.7481 15.1945C40.8376 15.1913 40.936 15.061 41.0087 14.9722C41.3302 14.5812 41.6364 14.1766 41.965 13.7913C42.1361 13.5906 42.1833 13.441 42.0466 13.1716C41.4269 11.9466 42.0146 10.4642 43.2867 9.95972C44.5428 9.46159 45.9693 10.1244 46.3842 11.4149C46.6705 12.3049 46.4826 13.1132 45.8381 13.7801C45.1937 14.4461 44.3901 14.6684 43.4954 14.3957C43.2323 14.3158 43.098 14.3454 42.9349 14.562C42.5431 15.0842 42.1162 15.5791 41.7172 16.0964C41.5197 16.3523 41.283 16.4546 40.9616 16.4522C39.6823 16.4434 38.403 16.4522 37.1229 16.4538C37.1101 16.4538 37.0973 16.4594 37.0093 16.481C37.976 17.8874 38.4613 19.4282 38.391 21.1473C38.5301 21.1569 38.646 21.1713 38.7628 21.1713C40.509 21.1729 42.2553 21.1665 44.0007 21.1785C44.263 21.1801 44.3925 21.1097 44.5013 20.8578C44.953 19.8176 46.0388 19.2683 47.1206 19.4986C48.1953 19.7272 48.9844 20.6979 48.9876 21.7957C48.9908 22.8991 48.2025 23.8858 47.1398 24.1073C46.026 24.34 44.9586 23.7914 44.4885 22.7368C44.4093 22.5593 44.3549 22.4266 44.1047 22.4282C42.1857 22.4418 40.266 22.4362 38.3462 22.4378C38.307 22.4378 38.2686 22.4506 38.3254 22.5121C37.8896 23.3573 37.4835 24.2192 37.0069 25.0404C36.6823 25.6001 36.2849 25.712 35.9403 25.4673C35.5957 25.2227 35.6149 24.8501 35.9987 24.32C37.4643 22.2931 37.5346 19.5817 36.1762 17.4821C34.8001 15.356 32.3078 14.3246 29.7908 14.8387C27.4233 15.3224 25.4995 17.3109 25.0949 19.728C24.8079 21.4423 25.1989 23.0079 26.2239 24.4119C26.5941 24.9188 26.6245 25.2762 26.2999 25.5305C25.9633 25.7944 25.5955 25.6672 25.2125 25.1547C24.6064 24.344 24.2066 23.4348 23.946 22.437L23.9476 22.4362ZM47.7283 21.7997C47.7259 21.1992 47.2422 20.7075 46.6457 20.6995C46.0388 20.6915 45.5367 21.1985 45.5399 21.8165C45.5431 22.4258 46.0164 22.9055 46.6201 22.9127C47.2318 22.9199 47.7299 22.4194 47.7275 21.7997H47.7283ZM16.4484 21.8005C16.446 21.1976 15.9543 20.7019 15.3578 20.6987C14.7637 20.6963 14.2656 21.1929 14.2608 21.7933C14.2552 22.417 14.7573 22.9231 15.3706 22.9127C15.9703 22.9023 16.4508 22.4058 16.4484 21.8005ZM37.1412 9.84938C37.13 10.4698 37.6298 10.9864 38.2382 10.984C38.8171 10.9816 39.3073 10.5026 39.3273 9.92134C39.348 9.29528 38.8667 8.77956 38.2502 8.76916C37.6554 8.75877 37.1516 9.2481 37.1404 9.84938H37.1412ZM19.0974 12.1441C19.095 11.5317 18.6192 11.0575 18.0052 11.0559C17.3911 11.0543 16.9138 11.5261 16.9082 12.1377C16.9026 12.7678 17.3903 13.2539 18.0196 13.2467C18.628 13.2395 19.0998 12.7566 19.0974 12.1441ZM43.058 12.1425C43.054 12.7566 43.5234 13.2387 44.1327 13.2475C44.7627 13.2563 45.2497 12.771 45.2457 12.1409C45.2417 11.5293 44.7635 11.0559 44.1503 11.0567C43.5362 11.0567 43.0612 11.5301 43.0572 12.1433L43.058 12.1425ZM23.9164 8.76916C23.3079 8.77156 22.8162 9.28169 22.8266 9.89975C22.8362 10.4946 23.3351 10.9872 23.9244 10.984C24.5336 10.9808 25.0254 10.4706 25.0142 9.85178C25.0038 9.2537 24.5097 8.76596 23.9164 8.76836V8.76916ZM31.0941 6.26411C30.4904 6.25612 29.9939 6.72866 29.9755 7.32914C29.9571 7.92002 30.4457 8.43254 31.0413 8.44694C31.661 8.46213 32.1791 7.96879 32.1823 7.36192C32.1855 6.76944 31.693 6.27211 31.0941 6.26411Z" fill="#618260"/>
<path d="M28.594 32.6571C28.594 32.3932 28.594 32.2509 28.594 32.1086C28.5972 28.0036 28.598 23.8986 28.6044 19.7936C28.6068 18.4919 29.4256 17.53 30.6393 17.3773C32.0058 17.2054 33.2187 18.2377 33.2315 19.6217C33.2499 21.5143 33.2363 23.4069 33.2371 25.2994C33.2371 25.441 33.2371 25.5825 33.2371 25.7328C34.873 25.3514 35.5942 25.6033 36.4234 26.8474C37.0151 26.51 37.6523 26.3964 38.3248 26.5843C38.99 26.7698 39.4546 27.2048 39.7928 27.8133C40.4045 27.4631 41.0337 27.3567 41.6926 27.5414C42.6544 27.8109 43.3716 28.6448 43.374 29.6395C43.3804 32.5579 43.3884 35.4771 43.2909 38.3932C43.2637 39.2023 42.9487 40.0331 42.6265 40.7951C42.1307 41.9656 41.643 43.1218 41.543 44.4075C41.5127 44.7993 41.256 44.9944 40.8242 44.9976C39.9183 45.004 39.0124 45 38.1057 45C35.8141 45 33.5218 45 31.2302 45C30.6185 45 30.4466 44.8601 30.3475 44.2676C30.2084 43.432 29.8278 42.7116 29.3312 42.0368C26.9637 38.8177 24.601 35.5947 22.2391 32.3716C21.5139 31.3826 21.6778 30.0377 22.6133 29.2413C23.5464 28.4473 24.912 28.4897 25.7556 29.3996C26.5975 30.3079 27.3851 31.2666 28.1966 32.2029C28.3006 32.3228 28.4061 32.4428 28.594 32.6587V32.6571ZM31.969 26.1278H31.9866C31.9866 24.0617 31.9866 21.9956 31.9866 19.9295C31.9866 19.0988 31.598 18.6127 30.9344 18.6047C30.2707 18.5967 29.8669 19.0876 29.8637 19.908C29.8629 20.1478 29.8637 20.3877 29.8629 20.6276C29.8557 25.0932 29.8485 29.5579 29.843 34.0235C29.843 34.3913 29.8525 34.7687 29.42 34.9206C29.013 35.0638 28.7803 34.7991 28.5461 34.5257C27.3667 33.1496 26.1849 31.7759 24.996 30.4071C24.5346 29.8754 23.9158 29.7946 23.4432 30.18C22.9675 30.5678 22.9155 31.1787 23.3313 31.7472C25.6284 34.8863 27.928 38.0238 30.2331 41.1565C30.7577 41.8697 31.2254 42.6101 31.4437 43.4776C31.4981 43.6951 31.6004 43.7455 31.8027 43.7431C32.4823 43.7343 33.162 43.7399 33.8416 43.7399C35.8941 43.7399 37.9458 43.7399 39.9983 43.7399C40.1846 43.7399 40.3701 43.7727 40.4084 43.4976C40.5748 42.3222 41.0465 41.2508 41.5486 40.1898C41.9364 39.3702 42.1147 38.5051 42.1139 37.5976C42.1123 35.4116 42.1211 33.2256 42.1251 31.0395C42.1251 30.5998 42.1363 30.16 42.1195 29.7203C42.1019 29.2597 41.8189 28.8975 41.4031 28.7592C40.7107 28.5297 40.0343 28.995 40.0151 29.7498C39.9927 30.6422 40.0111 31.5361 40.0103 32.4292C40.0103 32.7786 39.9055 33.068 39.5281 33.1616C39.0892 33.2703 38.7573 32.9673 38.7549 32.4508C38.7493 31.2778 38.7549 30.1048 38.7501 28.9319C38.7477 28.2259 38.3048 27.7373 37.6827 27.7389C37.0623 27.7405 36.6201 28.2267 36.6137 28.9375C36.6057 29.7634 36.6137 30.5902 36.6137 31.4169C36.6137 31.8303 36.6249 32.2437 36.6017 32.6563C36.5833 32.9897 36.3067 33.228 35.9932 33.2272C35.6798 33.2264 35.4207 32.9849 35.3856 32.6523C35.3728 32.5331 35.3776 32.4124 35.3776 32.2925C35.3776 30.9196 35.3776 29.5467 35.3776 28.1739C35.3776 28.0675 35.3816 27.9604 35.3736 27.8541C35.3296 27.2264 34.8818 26.777 34.3053 26.7762C33.7161 26.7762 33.2451 27.2504 33.2387 27.8932C33.2259 29.2261 33.2315 30.559 33.2291 31.8919C33.2291 32.1453 33.2411 32.3996 33.2211 32.6515C33.1923 33.0177 32.9381 33.2535 32.5967 33.2471C32.2313 33.2408 32.0386 33.0281 31.9794 32.6859C31.957 32.5563 31.9682 32.4204 31.9682 32.2869C31.9682 30.2344 31.9682 28.1811 31.9682 26.1286L31.969 26.1278Z" fill="#AEBAA8"/>
<path d="M47.7287 21.7997C47.7311 22.4194 47.2321 22.9199 46.6213 22.9127C46.0176 22.9055 45.5442 22.425 45.541 21.8165C45.537 21.1993 46.04 20.6915 46.6468 20.6995C47.2425 20.7075 47.7271 21.1993 47.7295 21.7997H47.7287Z" fill="#FFF000"/>
<path d="M16.4484 21.8005C16.4508 22.4066 15.9703 22.9023 15.3706 22.9127C14.7573 22.9231 14.2552 22.417 14.2608 21.7933C14.2656 21.1921 14.7637 20.6955 15.3578 20.6987C15.9551 20.7011 16.446 21.1977 16.4484 21.8005Z" fill="#FFF000"/>
<path d="M37.1416 9.84938C37.1528 9.24891 37.6557 8.75877 38.2514 8.76917C38.8679 8.78036 39.3492 9.29528 39.3284 9.92134C39.3092 10.5026 38.8183 10.9816 38.2394 10.984C37.6301 10.9864 37.1304 10.4698 37.1424 9.84938H37.1416Z" fill="#FFF000"/>
<path d="M19.0975 12.1441C19.0999 12.7566 18.6281 13.2395 18.0197 13.2467C17.3904 13.2547 16.9027 12.7678 16.9083 12.1377C16.9138 11.5261 17.3912 11.0543 18.0053 11.0559C18.6185 11.0575 19.0943 11.5317 19.0975 12.1441Z" fill="#FFF000"/>
<path d="M43.0581 12.1425C43.0613 11.5293 43.537 11.0567 44.1511 11.0559C44.7644 11.0559 45.2425 11.5285 45.2465 12.1401C45.2505 12.7702 44.7628 13.2555 44.1335 13.2467C43.5243 13.2388 43.0549 12.7566 43.0589 12.1417L43.0581 12.1425Z" fill="#FFF000"/>
<path d="M23.9166 8.76917C24.5099 8.76677 25.004 9.2545 25.0144 9.85258C25.0248 10.4714 24.5339 10.9816 23.9246 10.9848C23.3353 10.988 22.8364 10.4954 22.8268 9.90056C22.8164 9.28249 23.3082 8.77236 23.9166 8.76997V8.76917Z" fill="#FFF000"/>
<path d="M31.0942 6.26412C31.6931 6.27211 32.1864 6.76864 32.1824 7.36192C32.1792 7.96959 31.6603 8.46213 31.0414 8.44694C30.4449 8.43254 29.9572 7.92002 29.9756 7.32914C29.994 6.72866 30.4913 6.25612 31.0942 6.26412Z" fill="#FFF000"/>
</g>
<defs>
<clipPath id="clip0_749_90">
<rect width="35.9894" height="40" fill="white" transform="translate(13 5)"/>
</clipPath>
</defs>
</svg>
