<svg width="62" height="50" viewBox="0 0 62 50" fill="none" xmlns="http://www.w3.org/2000/svg">
<rect width="62" height="50" fill="white"/>
<g clip-path="url(#clip0_789_357)">
<path d="M52.1427 36.8483C51.9843 36.829 51.8225 36.8387 51.6632 36.8387H25.7373C25.4189 35.633 25.1144 34.4807 24.8117 33.3284C24.802 33.29 24.8169 33.2453 24.8239 33.1701H25.3454C32.2451 33.1701 39.1448 33.1675 46.0444 33.1753C46.5799 33.1753 46.9692 33.0292 47.181 32.4964C49.07 27.7429 50.9686 22.9929 52.8584 18.2394C53.19 17.4074 52.8391 16.9052 51.9406 16.9017C50.7901 16.8973 49.6404 16.8938 48.4908 16.9052C48.2116 16.9087 48.0865 16.8509 48.055 16.5351C47.4741 10.7947 43.0224 6.27127 37.2435 5.53371C31.8566 4.84601 26.53 7.97388 24.4897 13.0161C23.9901 14.2506 23.7075 15.535 23.585 16.9008C22.6051 16.9008 21.6479 16.8842 20.6908 16.9095C20.3592 16.9174 20.2542 16.7967 20.1728 16.4922C19.2279 12.9697 18.2655 9.45076 17.3083 5.93092C17.1158 5.22573 16.9023 5.0105 16.2899 5.00787C14.5146 4.99738 12.7385 4.99738 10.9624 5.00787C10.343 5.01137 10 5.34735 10 5.89418C10.0009 6.45151 10.3648 6.78048 11.0088 6.78311C12.4209 6.78835 13.8331 6.78485 15.2443 6.78485H15.715C15.7632 6.94934 15.8025 7.07358 15.8367 7.19957C18.6067 17.3505 21.3758 27.5005 24.1459 37.6515C24.3383 38.354 24.5842 38.5404 25.3305 38.5448C25.8213 38.5483 26.3122 38.5456 26.894 38.5456C26.8144 38.6681 26.7418 38.7906 26.677 38.9131C26.6674 38.9306 26.6578 38.9481 26.6481 38.9665C26.2159 39.8055 26.1048 40.6691 26.2588 41.5668C26.3218 41.9369 26.4303 42.2833 26.5808 42.6036C26.5878 42.6202 26.5957 42.6359 26.6044 42.6517C26.789 43.034 27.0349 43.3788 27.3376 43.6876C27.3463 43.6972 27.356 43.7077 27.3665 43.7174C27.5248 43.8766 27.6981 44.0253 27.8862 44.1644C29.3508 45.2485 31.2774 45.2467 32.7245 44.1679C33.4595 43.6202 33.9704 42.9072 34.2399 42.034C34.596 40.8756 34.4096 39.7819 33.8191 38.7233C33.8182 38.7215 33.8173 38.7198 33.8164 38.718C33.7902 38.6716 33.7631 38.6253 33.7359 38.5789H43.3672C43.3287 38.669 43.2919 38.7583 43.2578 38.8466C42.7145 40.2308 42.6322 41.3857 43.0154 42.3752C43.0251 42.3997 43.0347 42.4242 43.0461 42.4478C43.1581 42.7217 43.3068 42.9824 43.4932 43.2309C43.5185 43.2659 43.5439 43.3 43.5702 43.3333C43.7268 43.5301 43.9061 43.7191 44.1082 43.9028C44.8633 44.5862 45.8205 44.972 46.7759 44.9983C46.8056 45 46.8354 45 46.866 45H46.8818C46.9692 45 47.0576 44.9974 47.1451 44.9895C47.1547 44.9895 47.1644 44.9886 47.1731 44.9878C47.2064 44.9851 47.2396 44.9825 47.272 44.979C47.3052 44.9755 47.3376 44.972 47.37 44.9676C47.8556 44.9038 48.3298 44.7419 48.7655 44.4733C49.6833 43.9072 50.3019 43.2484 50.6422 42.5091C50.6439 42.5047 50.6457 42.5003 50.6483 42.496C50.7621 42.2483 50.8434 41.9929 50.8942 41.7278C50.8968 41.7146 50.9003 41.7024 50.9021 41.6893C51.0543 40.873 50.9204 39.9762 50.5285 39.0137C50.5276 39.0102 50.5258 39.0076 50.5241 39.005C50.4655 38.8606 50.4007 38.7145 50.3299 38.5666C50.4698 38.5579 50.5705 38.5474 50.6711 38.5465C51.1654 38.5395 51.6624 38.5623 52.1541 38.5229C52.6449 38.4827 52.9494 38.1021 52.9328 37.634C52.9179 37.2114 52.616 36.9043 52.1427 36.8483ZM36.8629 21.2614V18.6104H40.7923C40.6995 19.5116 40.6103 20.3804 40.5201 21.2614H36.8629ZM39.9856 23.0953C39.8202 24.9055 38.017 27.6125 36.7658 27.903V23.0953H39.9856ZM41.4458 24.4357C41.5911 24.0909 41.6567 23.7121 41.7774 23.356C41.8133 23.2493 41.9122 23.083 41.9848 23.0822C42.893 23.0629 43.8011 23.069 44.788 23.069C43.6541 24.986 42.102 26.2896 40.2244 27.1899C40.633 26.2739 41.0547 25.3613 41.4458 24.4357ZM42.2385 21.2789C42.3339 20.3681 42.424 19.5054 42.5167 18.6148H46.3052C46.0891 19.4661 45.8913 20.2754 45.6709 21.0786C45.6472 21.1643 45.4897 21.2684 45.3926 21.2702C44.3497 21.2833 43.3059 21.2789 42.2385 21.2789ZM46.2816 16.7818H42.5176C42.4266 15.9016 42.3365 15.0284 42.2446 14.1378H45.6761C45.8721 14.9943 46.0716 15.8631 46.2816 16.7818ZM44.7994 12.3389C43.8204 12.3389 42.9525 12.3485 42.0854 12.3275C41.9778 12.3249 41.8107 12.1762 41.7783 12.0642C41.3846 10.7238 40.8771 9.43326 40.1597 8.21624C42.1405 9.04567 43.6419 10.4149 44.7994 12.3389ZM36.7798 7.5058C38.0738 7.7464 39.6513 10.4044 39.9943 12.3162H36.7798V7.5058ZM36.6836 14.1194H37.7029C38.5034 14.1194 39.3031 14.1106 40.1028 14.129C40.2218 14.1316 40.4274 14.2515 40.4397 14.3381C40.5525 15.1387 40.6321 15.9436 40.7266 16.7975H36.6836V14.1194ZM29.5967 23.0769C29.6728 23.0769 29.7918 23.1968 29.8163 23.2825C30.2091 24.6352 30.7139 25.9397 31.4331 27.1672C29.5057 26.2721 27.9868 24.9388 26.8161 23.0673C27.8057 23.0673 28.7016 23.062 29.5967 23.0769ZM26.1844 21.2711C26.1109 21.2702 25.9911 21.1836 25.9727 21.1162C25.7548 20.3086 25.5519 19.4967 25.3253 18.6086H29.0945C29.1828 19.4906 29.2703 20.3638 29.3613 21.2772C28.3018 21.2772 27.2431 21.2807 26.1844 21.2711ZM31.1532 21.2562C31.0665 20.3865 30.9799 19.5159 30.8898 18.6121H34.9206V21.2562H31.1532ZM30.9021 16.78C30.9939 15.8981 31.0849 15.0284 31.1785 14.1413H34.855V16.78H30.9021ZM34.9372 23.0909V28.001C32.9791 26.9108 32.2914 25.0577 31.6361 23.0909H34.9372ZM34.9337 7.38768V12.303H31.644C32.2731 10.3519 32.9791 8.51459 34.9337 7.38768ZM31.4603 8.08062C31.1129 8.76482 30.7656 9.36327 30.4996 9.99672C30.2371 10.6223 30.0656 11.2855 29.8355 11.9259C29.7918 12.0476 29.6597 12.2252 29.5652 12.2278C28.6841 12.2505 27.8022 12.2418 26.8161 12.2418C27.9894 10.3686 29.5065 9.03692 31.4603 8.08062ZM25.9211 14.3652C25.9482 14.2646 26.1118 14.1325 26.2133 14.1308C27.2553 14.1133 28.2983 14.1203 29.3692 14.1203C29.2878 15.0319 29.2091 15.9042 29.1303 16.7914H25.3104C25.5239 15.9279 25.7093 15.1431 25.9211 14.3652ZM24.2255 31.3957C23.0627 27.1313 21.906 22.8888 20.7398 18.6121H23.5868C23.7093 19.9263 23.9542 21.1949 24.4818 22.3866C26.3935 26.7105 29.6955 29.3047 34.3729 29.9145C40.9812 30.7745 46.9325 26.1313 47.9045 19.5159C47.9955 18.8965 48.3656 18.5868 49.0148 18.5868H50.6964C50.0499 20.2133 49.4348 21.7645 48.8171 23.314C47.8066 25.8513 46.789 28.3851 45.7916 30.9276C45.6569 31.2706 45.5046 31.408 45.1109 31.4071C38.3153 31.3914 31.5206 31.3957 24.7259 31.3957H24.2255ZM30.2275 43.2843C28.9763 43.2913 27.8853 42.2011 27.8888 40.9491C27.8932 39.7041 28.951 38.6489 30.2004 38.6419C31.4576 38.6349 32.5145 39.6708 32.5294 40.922C32.5434 42.1941 31.4883 43.2764 30.2275 43.2843ZM46.684 43.2843C45.4241 43.2869 44.3383 42.1985 44.3488 40.943C44.3593 39.6918 45.418 38.6419 46.6691 38.6419C47.9203 38.6419 49.0166 39.7259 49 40.9815C48.9833 42.2527 47.9492 43.2816 46.684 43.2843Z" fill="#AEBAA8"/>
<path d="M48.9998 40.9815C48.9832 42.2527 47.949 43.2816 46.6839 43.2843C45.424 43.2869 44.3382 42.1985 44.3487 40.943C44.3592 39.6918 45.4179 38.6419 46.669 38.6419C47.9202 38.6419 49.0165 39.7259 48.9998 40.9815Z" fill="#FFF000"/>
<path d="M50.5286 39.0137C50.5286 39.0137 50.5259 39.0076 50.5242 39.005C49.9581 37.9323 48.9274 37.1125 47.7218 36.8387C47.4366 36.773 47.1408 36.7389 46.8399 36.7389C46.5389 36.7389 46.2423 36.773 45.9571 36.8387C44.8144 37.0985 43.8336 37.8483 43.2579 38.8466C42.9167 39.439 42.7172 40.1179 42.7111 40.8336C42.7067 41.3725 42.8152 41.894 43.0155 42.3752C43.0252 42.3997 43.0348 42.4242 43.0462 42.4478C43.1669 42.7243 43.3174 42.9868 43.4933 43.2309C43.5186 43.2659 43.544 43.3 43.5702 43.3333C44.2868 44.2668 45.3857 44.9073 46.5957 44.9886C46.6561 44.993 46.7165 44.9965 46.776 44.9983C46.8057 45 46.8355 45 46.8661 45H46.8819C46.9702 44.9991 47.0586 44.9956 47.1452 44.9895C47.1548 44.9895 47.1645 44.9886 47.1732 44.9878C47.2064 44.9851 47.2397 44.9825 47.2721 44.979C47.3053 44.9755 47.3377 44.972 47.3701 44.9676C47.4339 44.9589 47.4969 44.9493 47.5599 44.937C48.9414 44.6973 50.0928 43.7664 50.6423 42.5091C50.644 42.5047 50.6458 42.5003 50.6484 42.496C50.7543 42.251 50.8374 41.9937 50.8943 41.7278C50.8969 41.7146 50.9004 41.7024 50.9021 41.6893C50.9555 41.4347 50.9844 41.1713 50.9879 40.9018C50.9966 40.2299 50.8295 39.5859 50.5286 39.0137ZM46.6841 43.2843C45.4242 43.2869 44.3384 42.1985 44.3489 40.943C44.3594 39.6918 45.4181 38.6419 46.6692 38.6419C47.9204 38.6419 49.0167 39.7259 49.0001 40.9815C48.9834 42.2527 47.9493 43.2816 46.6841 43.2843Z" fill="#618260"/>
<path d="M32.5293 40.922C32.5433 42.1941 31.4881 43.2764 30.2274 43.2843C28.9762 43.2913 27.8852 42.2011 27.8887 40.9491C27.8931 39.7041 28.9508 38.6489 30.2002 38.6419C31.4575 38.6349 32.5144 39.6708 32.5293 40.922Z" fill="#FFF000"/>
<path d="M33.8192 38.7233C33.8192 38.7233 33.8175 38.7198 33.8166 38.718C33.2365 37.7827 32.2916 37.0871 31.1936 36.8387C30.8996 36.7713 30.5934 36.7372 30.281 36.7389C29.987 36.7407 29.6992 36.7748 29.421 36.8387C28.2512 37.1038 27.2485 37.8825 26.6772 38.9131C26.6676 38.9306 26.6579 38.9481 26.6483 38.9665C26.3447 39.5334 26.1697 40.173 26.168 40.8441C26.1662 41.4653 26.315 42.0637 26.581 42.6036C26.588 42.6202 26.5958 42.6359 26.6046 42.6517C26.7953 43.0305 27.0447 43.3805 27.3378 43.6876C27.3465 43.6972 27.3561 43.7077 27.3666 43.7174C28.1331 44.5057 29.1935 45.007 30.3283 45C32.5733 44.9869 34.4518 43.0603 34.4256 40.7968C34.4168 40.0427 34.1955 39.3322 33.8192 38.7233ZM30.2005 38.6419C31.4578 38.6349 32.5147 39.6708 32.5296 40.922C32.5436 42.1941 31.4884 43.2764 30.2277 43.2843C28.9765 43.2913 27.8855 42.2011 27.889 40.9491C27.8933 39.7041 28.9511 38.6489 30.2005 38.6419Z" fill="#618260"/>
</g>
<defs>
<clipPath id="clip0_789_357">
<rect width="42.9809" height="40" fill="white" transform="translate(10 5)"/>
</clipPath>
</defs>
</svg>
