<svg width="62" height="50" viewBox="0 0 62 50" fill="none" xmlns="http://www.w3.org/2000/svg">
<rect width="62" height="50" fill="white"/>
<g clip-path="url(#clip0_749_125)">
<path d="M28.4368 45C27.8431 44.843 27.3673 44.5 26.9165 44.0922C25.9321 43.2031 24.736 42.7602 23.4306 42.4961C23.4048 42.6125 23.3821 42.7094 23.3618 42.8062C23.2352 43.3914 22.747 43.8258 22.1446 43.8289C19.9181 43.8391 17.6915 43.8414 15.4649 43.8273C14.7501 43.8227 14.2321 43.2437 14.2259 42.4859C14.2165 41.3141 14.2227 40.1422 14.2227 38.9703C14.2227 35.8711 14.2227 32.7727 14.2227 29.6734C14.2227 28.6391 14.7243 28.1359 15.7532 28.1359C17.7321 28.1352 19.7118 28.1359 21.6907 28.1359C22.7977 28.1359 23.1274 28.3758 23.4438 29.4484C23.7985 29.125 24.1212 28.7922 24.4829 28.5086C25.3392 27.8367 26.2282 27.2047 27.079 26.5258C28.3392 25.5195 29.129 24.2148 29.3665 22.6133C29.4673 21.9328 29.5407 21.2352 29.5102 20.5508C29.4618 19.4578 30.5235 18.6008 31.3727 18.4461C32.5876 18.225 33.7087 18.857 34.1391 20.0203C35.0641 22.5227 35.0696 25.032 34.1759 27.5445C34.1337 27.6641 34.0954 27.7852 34.0376 27.9602H34.4931C36.8626 27.9602 39.2329 27.9602 41.6024 27.9602C43.0806 27.9602 44.1017 28.6711 44.4063 29.943C44.722 31.2602 44.0243 32.4742 42.8907 32.9578C42.8681 32.9672 42.8509 32.9898 42.8313 33.007C43.7673 34.6336 43.1032 36.0062 41.8806 36.8641C42.2946 37.5016 42.5243 38.1914 42.3407 38.9609C42.1602 39.7211 41.7001 40.2852 41.0845 40.7016C41.2462 41.1055 41.4634 41.4828 41.5477 41.8883C41.8337 43.2648 41.0227 44.5367 39.6642 44.9187C39.5915 44.9391 39.5227 44.9734 39.4524 45.0008H28.4368V45ZM33.9446 43.7492C35.6235 43.7492 37.3032 43.7555 38.9821 43.7461C39.7032 43.7422 40.2337 43.2758 40.3399 42.5914C40.4368 41.9664 40.079 41.3531 39.4727 41.1414C39.2915 41.0781 39.0915 41.068 38.9009 41.0281C38.5548 40.9562 38.3798 40.725 38.3977 40.3875C38.4157 40.0461 38.6267 39.8328 38.9743 39.8133C39.1798 39.8016 39.3884 39.843 39.5954 39.8648C40.4274 39.9547 41.2915 39.0109 41.1204 38.1977C40.9852 37.5555 40.554 37.1906 39.8282 37.1047C39.4009 37.0539 39.1595 36.7953 39.1907 36.4203C39.2204 36.0641 39.4829 35.8484 39.8993 35.8594C40.0665 35.8641 40.2329 35.9062 40.4001 35.9242C40.5274 35.9375 40.6602 35.9625 40.7845 35.9422C41.4446 35.8344 42.0563 35.0805 42.0235 34.4312C41.986 33.7008 41.4095 33.1719 40.6149 33.1461C40.3024 33.1359 39.9892 33.1578 39.6782 33.1344C39.2063 33.0992 38.9165 32.6008 39.1876 32.2367C39.3196 32.0602 39.6087 31.9234 39.8352 31.9094C40.536 31.8664 41.2407 31.9078 41.9431 31.8859C42.686 31.8625 43.2251 31.2719 43.2173 30.5312C43.2087 29.7531 42.6298 29.2102 41.7876 29.2094C38.9368 29.2062 36.086 29.2094 33.2352 29.207C32.5056 29.2062 32.2407 28.7875 32.5634 28.1359C33.1431 26.9672 33.4821 25.7336 33.5681 24.4336C33.661 23.0234 33.4446 21.657 32.9235 20.343C32.7204 19.8305 32.1798 19.5734 31.6063 19.6805C31.0798 19.7789 30.8063 20.1094 30.7704 20.6836C30.7454 21.0859 30.7048 21.4883 30.6884 21.8914C30.5993 24.1562 29.6548 25.9992 27.9267 27.4414C27.5821 27.7289 27.129 27.8891 26.7907 28.1828C25.7001 29.1289 24.6345 30.1047 23.5727 31.0836C23.4673 31.1812 23.4001 31.375 23.3993 31.5242C23.3892 34.6352 23.3938 37.7469 23.3876 40.8578C23.3876 41.1023 23.4392 41.2187 23.711 41.2734C25.361 41.6055 26.8462 42.2703 28.0977 43.4344C28.3079 43.6305 28.6821 43.7305 28.9829 43.7359C30.636 43.7641 32.2892 43.7492 33.9423 43.7492H33.9446ZM15.5032 29.4078V42.5562H22.1165V29.4078H15.5032Z" fill="#AEBAA8"/>
<path d="M31.6398 5C31.793 5.21719 31.9867 5.41563 32.093 5.65391C32.618 6.82812 33.125 8.01016 33.625 9.19453C33.7219 9.42266 33.8359 9.52266 34.1023 9.54453C35.4633 9.65391 36.8219 9.79453 38.1812 9.92266C38.4844 9.95156 38.6953 10.0969 38.7836 10.393C38.875 10.7008 38.7195 10.9172 38.5031 11.1078C37.4969 11.993 36.4953 12.8828 35.4828 13.7609C35.2961 13.9227 35.2281 14.0602 35.2906 14.3219C35.5906 15.5727 35.8601 16.8305 36.1398 18.0852C36.157 18.1609 36.1648 18.2398 36.1851 18.3148C36.2648 18.6117 36.207 18.9078 35.932 19.0203C35.725 19.1047 35.4039 19.1086 35.214 19.0023C34.1133 18.3891 33.0219 17.7539 31.9586 17.0789C31.5492 16.8188 31.2562 16.8273 30.8523 17.0836C29.8211 17.7375 28.7539 18.3352 27.7047 18.9617C27.4336 19.1234 27.164 19.2375 26.8703 19.0359C26.5609 18.8242 26.5687 18.5234 26.643 18.1984C26.9359 16.9062 27.2117 15.6102 27.5203 14.3211C27.5836 14.0586 27.514 13.9219 27.3281 13.7602C26.3359 12.8984 25.3555 12.0242 24.3672 11.1578C24.1211 10.9422 23.9117 10.7188 24.0398 10.3562C24.1648 10.0031 24.4515 9.94062 24.7851 9.91172C26.1195 9.79531 27.4515 9.65391 28.7859 9.53984C29.0133 9.52031 29.0898 9.40937 29.1672 9.22969C29.6773 8.03516 30.1875 6.84063 30.7187 5.65469C30.825 5.41641 31.018 5.21719 31.1711 5C31.3273 5 31.4836 5 31.6398 5ZM28.1484 17.2414C29.0476 16.7109 29.8656 16.2789 30.6265 15.7633C31.182 15.3867 31.6312 15.3883 32.1859 15.7609C32.9578 16.2797 33.7828 16.7195 34.6476 17.2297C34.6101 17.0273 34.5898 16.9016 34.5625 16.7781C34.364 15.8766 34.1781 14.9727 33.957 14.0766C33.8625 13.6938 33.9664 13.4281 34.2523 13.182C34.9523 12.5789 35.6422 11.9633 36.3344 11.3508C36.432 11.2648 36.5203 11.1688 36.6523 11.0383C35.5312 10.9297 34.4961 10.8164 33.4594 10.7352C33.0531 10.7031 32.825 10.5125 32.675 10.15C32.3156 9.28594 31.9383 8.42969 31.5656 7.57187C31.5242 7.47656 31.468 7.38672 31.3906 7.24219C30.9414 8.27734 30.5172 9.23984 30.107 10.2086C29.9703 10.5305 29.7601 10.7039 29.4039 10.7266C28.9234 10.757 28.4453 10.8148 27.9664 10.8625C27.3844 10.9203 26.8023 10.9789 26.1367 11.0453C26.8164 11.6453 27.4219 12.1773 28.025 12.7109C29.107 13.6695 28.9922 13.4187 28.6976 14.75C28.5211 15.5461 28.3476 16.343 28.15 17.2422L28.1484 17.2414Z" fill="#618260"/>
<path d="M40.5998 19.8937C40.7647 19.1508 40.9022 18.3258 41.1405 17.5312C41.3115 16.9602 41.1905 16.6039 40.7162 16.2492C40.124 15.8062 39.5983 15.275 39.0365 14.7898C38.7905 14.5773 38.6311 14.3422 38.7483 14.0086C38.8584 13.6945 39.1115 13.6055 39.4225 13.5797C40.3045 13.507 41.1842 13.4109 42.0662 13.3359C42.3256 13.3141 42.4772 13.2211 42.5811 12.9625C42.9053 12.1547 43.2662 11.3617 43.6061 10.5594C43.7295 10.2672 43.8897 10.0187 44.2412 10.0102C44.6131 10.0008 44.7834 10.2547 44.9139 10.5617C45.2537 11.3633 45.6147 12.1562 45.9397 12.9641C46.0444 13.2234 46.1975 13.3141 46.4561 13.3352C47.3506 13.4109 48.2436 13.5062 49.1381 13.582C49.4381 13.6078 49.667 13.7156 49.7717 14.0102C49.8772 14.3078 49.7623 14.5406 49.5381 14.7375C48.8631 15.3305 48.1959 15.932 47.5123 16.5148C47.2998 16.6961 47.2264 16.8625 47.299 17.1492C47.5131 17.993 47.6905 18.8469 47.8803 19.6961C47.949 20.0023 47.9592 20.2992 47.6686 20.5078C47.4147 20.6906 47.1608 20.6492 46.903 20.4953C46.1108 20.0211 45.31 19.5602 44.5217 19.0789C44.328 18.9609 44.185 18.9633 43.9928 19.0805C43.1936 19.568 42.3889 20.0477 41.5764 20.5133C41.0819 20.7969 40.5803 20.5047 40.599 19.8922L40.5998 19.8937ZM47.6865 14.7031C47.0178 14.6391 46.4498 14.5656 45.8803 14.5367C45.4397 14.5141 45.1553 14.3422 44.992 13.9187C44.778 13.3633 44.5233 12.8234 44.2592 12.2164C43.9959 12.8211 43.7389 13.3586 43.5272 13.9133C43.3655 14.3367 43.0858 14.5133 42.6436 14.5367C42.0678 14.5672 41.4944 14.6414 40.8373 14.7055C41.3303 15.1406 41.7412 15.5359 42.1865 15.8883C42.5655 16.1883 42.66 16.5266 42.5342 16.9852C42.385 17.5297 42.2873 18.0883 42.1483 18.7258C42.6881 18.4086 43.1639 18.1664 43.5975 17.8633C44.0545 17.543 44.453 17.5336 44.9139 17.8562C45.3498 18.1617 45.8303 18.4039 46.3772 18.7242C46.2225 18.0367 46.0959 17.4555 45.9592 16.8766C45.8733 16.5148 45.942 16.2227 46.2436 15.9734C46.7115 15.5859 47.1584 15.1719 47.6873 14.7039L47.6865 14.7031Z" fill="#618260"/>
<path d="M14.8914 19.9031C15.0844 19.0305 15.2773 18.1008 15.5023 17.1789C15.5734 16.8883 15.5297 16.7047 15.2945 16.5078C14.6258 15.9477 13.9836 15.3578 13.325 14.7852C13.0812 14.5734 12.9187 14.3398 13.0414 14.0039C13.1554 13.6906 13.4094 13.6047 13.7187 13.5789C14.6133 13.5039 15.5062 13.4055 16.4008 13.3305C16.6367 13.3102 16.7664 13.2164 16.8578 12.9938C17.1945 12.1766 17.5547 11.3695 17.9 10.5555C18.0242 10.2625 18.1859 10.0164 18.5375 10.0102C18.9101 10.0031 19.0781 10.2594 19.2078 10.5656C19.543 11.3555 19.9039 12.1344 20.2187 12.932C20.3336 13.2227 20.5031 13.3195 20.7914 13.3422C21.6734 13.4133 22.5531 13.5086 23.4351 13.5836C23.7367 13.6094 23.9648 13.7203 24.0648 14.0156C24.1648 14.3117 24.0515 14.5453 23.8258 14.743C23.1406 15.3438 22.4648 15.9555 21.7703 16.5453C21.5726 16.7133 21.525 16.8742 21.5836 17.1188C21.7836 17.9531 21.9656 18.7914 22.1562 19.6281C22.2312 19.9563 22.2804 20.2828 21.9555 20.5141C21.632 20.7445 21.3453 20.5914 21.0539 20.4156C20.3297 19.9789 19.5914 19.5664 18.8758 19.1164C18.6273 18.9609 18.4523 18.9773 18.2125 19.1258C17.439 19.6055 16.6539 20.068 15.8633 20.5188C15.375 20.7969 14.8664 20.4938 14.8906 19.9031H14.8914ZM21.982 14.7016C21.293 14.6367 20.7117 14.5688 20.1281 14.5328C19.7179 14.5078 19.4531 14.3383 19.2992 13.9484C19.0758 13.3844 18.8211 12.8328 18.5531 12.2141C18.289 12.8234 18.0328 13.3633 17.8195 13.9188C17.6562 14.343 17.3719 14.5133 16.9312 14.5367C16.357 14.5672 15.7851 14.6422 15.132 14.7055C15.6273 15.1438 16.0398 15.5398 16.4851 15.893C16.8664 16.1945 16.9508 16.5344 16.825 16.9922C16.6758 17.5328 16.5812 18.0883 16.4445 18.725C17.0133 18.3898 17.5094 18.1313 17.9679 17.818C18.3828 17.5344 18.743 17.5531 19.1508 17.8211C19.6148 18.1273 20.1047 18.3938 20.6672 18.7273C20.5234 18.0734 20.4156 17.5039 20.2687 16.9445C20.1562 16.5156 20.2492 16.1961 20.6 15.9133C21.0523 15.5492 21.475 15.1492 21.9828 14.7008L21.982 14.7016Z" fill="#618260"/>
<path d="M15.5029 29.4078H22.1162V42.5562H15.5029V29.4078ZM20.017 31.4844C20.0186 31.1023 19.7631 30.8258 19.4061 30.8234C19.0506 30.8211 18.7771 31.1023 18.774 31.4742C18.7709 31.8469 19.0365 32.1273 19.3951 32.1305C19.7584 32.1336 20.0154 31.8664 20.017 31.4844Z" fill="#FFF000"/>
<path d="M20.0174 31.4844C20.0158 31.8664 19.758 32.1336 19.3955 32.1305C19.0369 32.1273 18.7713 31.8461 18.7744 31.4742C18.7776 31.1023 19.051 30.8211 19.4065 30.8234C19.7643 30.8258 20.0198 31.1023 20.0174 31.4844Z" fill="#AEBAA8"/>
</g>
<defs>
<clipPath id="clip0_749_125">
<rect width="36.8102" height="40" fill="white" transform="translate(13 5)"/>
</clipPath>
</defs>
</svg>
