<svg width="62" height="50" viewBox="0 0 62 50" fill="none" xmlns="http://www.w3.org/2000/svg">
<rect width="62" height="50" fill="white"/>
<g clip-path="url(#clip0_782_60)">
<path d="M13.5396 25.0098C13.0797 24.491 12.6332 23.9865 12.1858 23.4824C10.2408 21.2908 8.29675 19.0982 6.34957 16.9084C6.08192 16.6073 5.94497 16.2754 6.03062 15.8694C6.12162 15.4394 6.47046 15.1004 6.90718 15.0312C7.0312 15.0116 7.15788 15.0045 7.28368 15.0045C10.1993 15.0031 13.115 15.0071 16.0311 15C16.495 14.9987 16.8505 15.1579 17.1583 15.5094C19.706 18.4162 22.2629 21.314 24.8164 24.2158C25.2758 24.7381 25.2732 25.2868 24.8097 25.8119C22.238 28.7266 19.664 31.64 17.0945 34.557C16.8313 34.8555 16.5204 35.0009 16.1207 35C13.1458 34.9955 10.1703 34.9951 7.19536 35C6.69306 35.0009 6.30898 34.8126 6.10154 34.35C5.89411 33.8861 6.01812 33.4735 6.34957 33.1014C8.64292 30.5248 10.9336 27.9451 13.2247 25.3662C13.3233 25.2556 13.421 25.1445 13.5401 25.0098H13.5396ZM24.0477 25.017C24.0121 24.9692 23.996 24.9442 23.9764 24.9224C21.4091 22.0326 18.8423 19.1424 16.2702 16.2571C16.2126 16.1928 16.0935 16.1527 16.003 16.1527C13.1016 16.1473 10.2007 16.1482 7.2993 16.1491C7.24576 16.1491 7.19223 16.1603 7.11818 16.1683C7.15967 16.2187 7.18197 16.2482 7.20606 16.2749C9.56811 18.8904 11.9293 21.5067 14.2926 24.1208C14.848 24.7355 14.8538 25.261 14.2998 25.8837C11.9779 28.4951 9.65554 31.1061 7.3332 33.7175C7.27699 33.7808 7.22346 33.8464 7.13603 33.9495C7.24666 33.9495 7.30331 33.9495 7.35952 33.9495C10.2457 33.9236 13.1315 33.8959 16.0177 33.875C16.1604 33.8741 16.2461 33.8232 16.3357 33.7215C18.3659 31.4264 20.3992 29.1344 22.432 26.841C22.9678 26.2366 23.5026 25.6317 24.0473 25.0165L24.0477 25.017Z" fill="#AEBAA8"/>
</g>
<g clip-path="url(#clip1_782_60)">
<path d="M28.5396 25.0098C28.0797 24.491 27.6332 23.9865 27.1858 23.4824C25.2408 21.2908 23.2968 19.0982 21.3496 16.9084C21.0819 16.6073 20.945 16.2754 21.0306 15.8694C21.1216 15.4394 21.4705 15.1004 21.9072 15.0312C22.0312 15.0116 22.1579 15.0045 22.2837 15.0045C25.1993 15.0031 28.115 15.0071 31.0311 15C31.495 14.9987 31.8505 15.1579 32.1583 15.5094C34.706 18.4162 37.2629 21.314 39.8164 24.2158C40.2758 24.7381 40.2732 25.2868 39.8097 25.8119C37.238 28.7266 34.664 31.64 32.0945 34.557C31.8313 34.8555 31.5204 35.0009 31.1207 35C28.1458 34.9955 25.1703 34.9951 22.1954 35C21.6931 35.0009 21.309 34.8126 21.1015 34.35C20.8941 33.8861 21.0181 33.4735 21.3496 33.1014C23.6429 30.5248 25.9336 27.9451 28.2247 25.3662C28.3233 25.2556 28.421 25.1445 28.5401 25.0098H28.5396ZM39.0477 25.017C39.0121 24.9692 38.996 24.9442 38.9764 24.9224C36.4091 22.0326 33.8423 19.1424 31.2702 16.2571C31.2126 16.1928 31.0935 16.1527 31.003 16.1527C28.1016 16.1473 25.2007 16.1482 22.2993 16.1491C22.2458 16.1491 22.1922 16.1603 22.1182 16.1683C22.1597 16.2187 22.182 16.2482 22.2061 16.2749C24.5681 18.8904 26.9293 21.5067 29.2926 24.1208C29.848 24.7355 29.8538 25.261 29.2998 25.8837C26.9779 28.4951 24.6555 31.1061 22.3332 33.7175C22.277 33.7808 22.2235 33.8464 22.136 33.9495C22.2467 33.9495 22.3033 33.9495 22.3595 33.9495C25.2457 33.9236 28.1315 33.8959 31.0177 33.875C31.1604 33.8741 31.2461 33.8232 31.3357 33.7215C33.3659 31.4264 35.3992 29.1344 37.432 26.841C37.9678 26.2366 38.5026 25.6317 39.0473 25.0165L39.0477 25.017Z" fill="#AEBAA8"/>
</g>
<g clip-path="url(#clip2_782_60)">
<path d="M43.5396 25.0098C43.0797 24.491 42.6332 23.9865 42.1858 23.4824C40.2408 21.2908 38.2968 19.0982 36.3496 16.9084C36.0819 16.6073 35.945 16.2754 36.0306 15.8694C36.1216 15.4394 36.4705 15.1004 36.9072 15.0312C37.0312 15.0116 37.1579 15.0045 37.2837 15.0045C40.1993 15.0031 43.115 15.0071 46.0311 15C46.495 14.9987 46.8505 15.1579 47.1583 15.5094C49.706 18.4162 52.2629 21.314 54.8164 24.2158C55.2758 24.7381 55.2732 25.2868 54.8097 25.8119C52.238 28.7266 49.664 31.64 47.0945 34.557C46.8313 34.8555 46.5204 35.0009 46.1207 35C43.1458 34.9955 40.1703 34.9951 37.1954 35C36.6931 35.0009 36.309 34.8126 36.1015 34.35C35.8941 33.8861 36.0181 33.4735 36.3496 33.1014C38.6429 30.5248 40.9336 27.9451 43.2247 25.3662C43.3233 25.2556 43.421 25.1445 43.5401 25.0098H43.5396ZM54.0477 25.017C54.0121 24.9692 53.996 24.9442 53.9764 24.9224C51.4091 22.0326 48.8423 19.1424 46.2702 16.2571C46.2126 16.1928 46.0935 16.1527 46.003 16.1527C43.1016 16.1473 40.2007 16.1482 37.2993 16.1491C37.2458 16.1491 37.1922 16.1603 37.1182 16.1683C37.1597 16.2187 37.182 16.2482 37.2061 16.2749C39.5681 18.8904 41.9293 21.5067 44.2926 24.1208C44.848 24.7355 44.8538 25.261 44.2998 25.8837C41.9779 28.4951 39.6555 31.1061 37.3332 33.7175C37.277 33.7808 37.2235 33.8464 37.136 33.9495C37.2467 33.9495 37.3033 33.9495 37.3595 33.9495C40.2457 33.9236 43.1315 33.8959 46.0177 33.875C46.1604 33.8741 46.2461 33.8232 46.3357 33.7215C48.3659 31.4264 50.3992 29.1344 52.432 26.841C52.9678 26.2366 53.5026 25.6317 54.0473 25.0165L54.0477 25.017Z" fill="#618260"/>
<path d="M54.0478 25.0169C53.5031 25.6321 52.9682 26.237 52.4325 26.8415C50.4001 29.1344 48.3664 31.4268 46.3362 33.722C46.2465 33.8237 46.1609 33.8741 46.0181 33.8754C43.1319 33.8964 40.2462 33.924 37.36 33.9499C37.3033 33.9503 37.2471 33.9499 37.1365 33.9499C37.2239 33.8469 37.2775 33.7813 37.3337 33.7179C39.6556 31.1065 41.9779 28.4956 44.3003 25.8841C44.8543 25.261 44.8485 24.7355 44.2931 24.1212C41.9297 21.5067 39.5686 18.8904 37.2065 16.2749C37.182 16.2477 37.1601 16.2187 37.1187 16.1683C37.1927 16.1603 37.2462 16.1491 37.2998 16.1491C40.2011 16.1482 43.1021 16.1473 46.0034 16.1527C46.094 16.1527 46.2131 16.1928 46.2706 16.2571C48.8428 19.1424 51.4096 22.0326 53.9768 24.9224C53.9965 24.9442 54.0125 24.9692 54.0482 25.0169H54.0478Z" fill="#FFF000"/>
</g>
<defs>
<clipPath id="clip0_782_60">
<rect width="19.1591" height="20" fill="white" transform="translate(6 15)"/>
</clipPath>
<clipPath id="clip1_782_60">
<rect width="19.1591" height="20" fill="white" transform="translate(21 15)"/>
</clipPath>
<clipPath id="clip2_782_60">
<rect width="19.1591" height="20" fill="white" transform="translate(36 15)"/>
</clipPath>
</defs>
</svg>
