<svg width="62" height="50" viewBox="0 0 62 50" fill="none" xmlns="http://www.w3.org/2000/svg">
<rect width="62" height="50" fill="white"/>
<g clip-path="url(#clip0_676_20)">
<path d="M22.4961 45C21.881 44.7371 21.204 44.5657 20.6641 44.1939C19.4878 43.3832 19.0003 42.1827 19.0042 40.7615C19.0128 37.4559 19.0073 34.1495 19.0073 30.8431C19.0073 23.6583 19.012 16.4734 19.0034 9.28854C19.0011 7.87128 19.48 6.69663 20.6163 5.82249C21.3645 5.24729 22.2183 4.99843 23.1628 5C27.2769 5.00783 31.3901 5.00313 35.5041 5.00313C36.624 5.00313 37.7431 5.00078 38.863 5.00313C41.2263 5.00861 42.9519 6.69115 43.0169 9.05455C43.0263 9.40592 43.0192 9.7573 43.0192 10.1087C43.0192 20.3127 43.0161 30.5176 43.0231 40.7216C43.0239 42.1569 42.5513 43.3722 41.3617 44.1932C40.8225 44.5649 40.1448 44.7371 39.5297 44.9992H22.4961V45ZM21.0115 24.962C21.0115 30.2085 21.0115 35.4541 21.0115 40.7005C21.0115 42.2078 21.7894 42.9942 23.2873 42.995C28.4429 42.9966 33.5993 42.9966 38.755 42.995C40.2286 42.995 41.0127 42.2015 41.0127 40.7216C41.0127 30.2421 41.0127 19.7634 41.0127 9.28384C41.0127 7.80398 40.2286 7.00966 38.7565 7.00888C33.5876 7.00653 28.4186 7.00732 23.2497 7.01123C23.004 7.01123 22.7504 7.01984 22.5149 7.0801C21.5593 7.32583 21.0123 8.09823 21.0123 9.18524C21.0107 14.4442 21.0115 19.7039 21.0115 24.9628V24.962Z" fill="#AEBAA8"/>
<path d="M31.026 41.6553C29.9249 41.6615 29.0383 40.7936 29.0179 39.6902C28.9976 38.5938 29.9194 37.6618 31.019 37.6672C32.106 37.6719 33.0059 38.575 33.0091 39.6636C33.0122 40.7561 32.1232 41.6498 31.026 41.656V41.6553Z" fill="#618260"/>
<path d="M32.6523 8.3424C33.3026 8.3424 33.9521 8.33457 34.6024 8.34475C35.2316 8.35414 35.6824 8.77829 35.6808 9.33862C35.6793 9.89973 35.2277 10.3247 34.5985 10.3278C33.312 10.3348 32.0246 10.3356 30.7381 10.327C30.1324 10.3231 29.6941 9.90364 29.6847 9.35427C29.6753 8.7869 30.1159 8.35648 30.742 8.34553C31.379 8.33457 32.016 8.34318 32.653 8.34318L32.6523 8.3424Z" fill="#618260"/>
<path d="M27.3462 8.34788C27.8792 8.34866 28.3479 8.81195 28.3464 9.33706C28.3456 9.86217 27.876 10.3255 27.3447 10.3255C26.8141 10.3255 26.3438 9.86139 26.3438 9.33628C26.3438 8.81038 26.8133 8.34788 27.3455 8.34866L27.3462 8.34788Z" fill="#618260"/>
<path d="M27.6109 18.8751C28.2886 18.8751 28.9656 18.8728 29.6433 18.8759C30.1222 18.8783 30.3586 19.1052 30.3601 19.5787C30.3648 20.9435 30.3648 22.3075 30.3601 23.6724C30.3586 24.1302 30.1261 24.3696 29.6691 24.372C28.2941 24.3782 26.9191 24.379 25.5441 24.372C25.0887 24.3696 24.8586 24.1294 24.857 23.6684C24.8523 22.3036 24.8523 20.9396 24.857 19.5748C24.8586 19.1029 25.0981 18.8783 25.5786 18.8759C26.2563 18.8728 26.9332 18.8759 27.6109 18.8759V18.8751ZM26.0943 20.103V23.1339H29.1291V20.103H26.0943Z" fill="#618260"/>
<path d="M30.3617 28.3937C30.3617 29.0612 30.3648 29.728 30.3609 30.3955C30.3578 30.8948 30.1316 31.1264 29.6402 31.1272C28.2855 31.1303 26.9309 31.1303 25.5754 31.1272C25.0973 31.1264 24.8594 30.8963 24.857 30.4237C24.8523 29.0589 24.8523 27.694 24.857 26.33C24.8586 25.873 25.0918 25.6304 25.5473 25.6272C26.9223 25.6194 28.2973 25.6194 29.6723 25.6272C30.1269 25.6296 30.3562 25.8745 30.3601 26.3323C30.3656 27.0194 30.3617 27.7073 30.3617 28.3944V28.3937ZM29.1268 29.9025V26.859H26.0896V29.9025H29.1268Z" fill="#618260"/>
<path d="M37.1701 28.4124C37.1701 29.0792 37.1724 29.7467 37.1701 30.4135C37.1677 30.8956 36.9447 31.1256 36.4689 31.1272C35.1041 31.1311 33.7392 31.1311 32.3744 31.1272C31.9127 31.1256 31.6842 30.9018 31.6818 30.4362C31.6764 29.062 31.6764 27.687 31.6818 26.3128C31.6834 25.8644 31.9064 25.6312 32.3517 25.628C33.7369 25.6194 35.1213 25.6186 36.5064 25.628C36.9478 25.6312 37.1669 25.8745 37.1693 26.3206C37.1732 27.0179 37.1701 27.7152 37.1701 28.4124ZM32.9175 26.8551V29.8993H35.9406V26.8551H32.9175Z" fill="#618260"/>
<path d="M37.17 21.6181C37.17 22.295 37.1723 22.9719 37.17 23.6497C37.1684 24.1482 36.9501 24.372 36.4477 24.3735C35.1032 24.3782 33.7587 24.3775 32.4142 24.3735C31.9056 24.372 31.6833 24.1576 31.6817 23.6598C31.677 22.306 31.677 20.9513 31.6817 19.5975C31.6833 19.0919 31.9024 18.8767 32.4041 18.8759C33.7485 18.8736 35.093 18.8744 36.4375 18.8759C36.9563 18.8759 37.1692 19.0927 37.1708 19.617C37.1731 20.2838 37.1708 20.9513 37.1708 21.6181H37.17ZM32.919 20.0983V23.141H35.9343V20.0983H32.919Z" fill="#618260"/>
<path d="M32.9175 26.8551H35.9406V29.8993H32.9175V26.8551Z" fill="#FFF000"/>
</g>
<defs>
<clipPath id="clip0_676_20">
<rect width="24.0197" height="40" fill="white" transform="translate(19.0024 5)"/>
</clipPath>
</defs>
</svg>
