<svg width="56" height="56" viewBox="0 0 56 56" fill="none" xmlns="http://www.w3.org/2000/svg">
<path fill-rule="evenodd" clip-rule="evenodd" d="M48.9999 0H20.9998C17.0799 0 13.9998 3.08011 13.9998 7.00001V11.2H19.5998V7.00001C19.5998 6.16017 20.16 5.60001 20.9998 5.60001H48.9999C49.8397 5.60001 50.3999 6.16017 50.3999 7.00001V23.8C50.3999 24.6399 49.8397 25.2 48.9999 25.2H44.7999V32.7603L35.8397 25.2H30.7998V30.8001H33.88L50.4 44.8001V30.8001C53.4801 30.2399 56 27.4399 56 24.0801V7.28011C56 3.08011 52.9198 0 48.9999 0ZM25.1999 25.2001C25.1999 29.9603 21.5601 33.6001 16.7999 33.6001C12.0396 33.6001 8.39984 29.9603 8.39984 25.2001C8.39984 20.4399 12.0396 16.8 16.7999 16.8C21.5601 16.8 25.1999 20.4399 25.1999 25.2001ZM19.5999 25.2001C19.5999 23.52 18.48 22.4001 16.7999 22.4001C15.1198 22.4001 13.9999 23.52 13.9999 25.2001C13.9999 26.8802 15.1198 28.0001 16.7999 28.0001C18.48 28.0001 19.5999 26.8802 19.5999 25.2001ZM3.63981 40.6001C11.4798 35.0001 22.4 35.0001 30.2399 40.6001C32.2001 42.2802 33.6001 44.8001 33.6001 47.32V56.0001H0V47.32C0 44.8001 1.4 42.2802 3.63981 40.6001ZM5.60001 50.4001H28L27.9998 47.32C27.9998 46.4802 27.7198 45.6404 26.8799 45.0802C20.9999 40.8802 12.6 40.8802 6.71991 45.0802C6.16017 45.6399 5.60001 46.4802 5.60001 47.32V50.4001ZM33.4445 21.8336L43.3891 11.8891L39.5 8L33.4445 14.0555L30.8891 11.5L27 15.3891L33.4445 21.8336Z" fill="#00582E"/>
</svg>
