<svg xmlns="http://www.w3.org/2000/svg" xmlns:xlink="http://www.w3.org/1999/xlink" width="54" height="54" viewBox="0 0 54 54">
  <defs>
    <linearGradient id="linear-gradient" x1="0.145" y1="0.112" x2="0.922" y2="0.876" gradientUnits="objectBoundingBox">
      <stop offset="0" stop-color="#fde159"/>
      <stop offset="1" stop-color="#fe0817"/>
    </linearGradient>
  </defs>
  <g id="Group_652" data-name="Group 652" transform="translate(-278 -5070)">
    <circle id="Ellipse_8703" data-name="Ellipse 8703" cx="27" cy="27" r="27" transform="translate(278 5070)" fill="url(#linear-gradient)"/>
    <g id="Group_150" data-name="Group 150" transform="translate(672.946 -11520.314)">
      <path id="Path_382" data-name="Path 382" d="M267.68,255.366h1.63l.936-2.809h-1.665Z" transform="translate(-641.183 16362.957)" fill="#fff"/>
      <path id="Path_383" data-name="Path 383" d="M108.157,80.727a12.916,12.916,0,1,0,0,7.732l7.8-3.883Zm-6.623,2.15H99.593l-.936,2.808H100.6l-.728,2.323H97.859l-1.11,3.363h-2.7l1.144-3.363h-1.7l-1.11,3.363H89.711l1.144-3.363H89.017l.728-2.323h1.872l.9-2.809H90.681l.728-2.289h1.907l1.144-3.4h2.7l-1.144,3.4h1.664l1.144-3.4h2.67l-1.144,3.4h1.872Z" transform="translate(-467.826 16532.637)" fill="#fff"/>
    </g>
  </g>
</svg>
