<svg width="47" height="47" viewBox="0 0 47 47" fill="none" xmlns="http://www.w3.org/2000/svg">
<g clip-path="url(#clip0_1579_1833)">
<path d="M42.0055 24C42.0055 18.1121 41.9824 12.2243 42.0055 6.3249C42.0286 4.11985 40.343 3 38.6921 3C30.2298 3.04618 21.7675 3.04618 13.3051 3C11.6196 3 9.93403 4.16603 9.98021 6.33645C10.0148 8.19516 9.98021 10.0423 9.98021 11.901C9.98021 13.0209 9.98021 13.0093 8.86036 13.0209C8.08686 13.0209 7.29027 12.9747 6.52831 13.0555C5.08521 13.2172 4 14.5679 4 16.1611C4 20.0401 4 23.9192 4 27.7982C4 32.1506 4 36.4915 4 40.8439C4 43.199 5.74327 44.9885 8.02914 45C18.3386 45 28.6597 45 38.9692 45C39.6273 45 40.2276 44.8037 40.7587 44.4112C41.6707 43.7301 42.0055 42.7949 42.0055 41.6866C42.0055 35.7988 42.0055 29.9109 42.0055 24.0115V24ZM9.99175 25.8818C9.99175 26.6899 9.99175 27.4981 9.99175 28.3178C9.99175 32.497 9.99175 36.6646 9.99175 40.8439C9.99175 42.1715 9.18362 42.9912 7.92523 42.9681C6.92084 42.945 6.08961 42.1484 6.03189 41.1325C6.03189 40.994 6.03189 40.8554 6.03189 40.7169C6.03189 32.6009 6.03189 24.4849 6.03189 16.3689C6.03189 15.3183 6.32051 15.0297 7.35954 15.0297C8.07532 15.0297 8.79109 15.0528 9.50687 15.0297C9.89939 15.0066 10.0033 15.1451 9.99175 15.5261C9.98021 18.9896 9.99175 22.4415 9.99175 25.9049V25.8818ZM39.9852 41.6405C39.9852 42.6564 39.685 42.9681 38.6921 42.9681C29.8142 42.9681 20.9247 42.9681 12.0467 42.9681H11.5041C12.2314 41.6866 12.0236 40.3359 12.0236 39.0313C12.0236 28.1561 12.0236 17.2809 12.0236 6.40572C12.0236 5.33205 12.3007 5.05498 13.3744 5.05498C21.7905 5.05498 30.2067 5.05498 38.6229 5.05498C39.6965 5.05498 39.9852 5.3436 39.9852 6.40572C39.9852 18.1583 39.9852 29.8994 39.9852 41.652V41.6405Z" fill="#AEBAA9"/>
<path d="M9.50672 15.0066C8.79095 15.0412 8.07517 15.0066 7.35939 15.0066C6.32036 15.0066 6.03174 15.2952 6.03174 16.3458C6.03174 24.4618 6.03174 32.5778 6.03174 40.6938C6.03174 40.8323 6.03174 40.9709 6.03174 41.1094C6.08946 42.1254 6.90914 42.9219 7.92509 42.945C9.17193 42.9797 9.99161 42.1484 9.99161 40.8208C9.99161 36.6416 9.99161 32.4739 9.99161 28.2947C9.99161 27.4865 9.99161 26.6784 9.99161 25.8587C9.99161 22.3953 9.99161 18.9434 9.99161 15.48C9.99161 15.099 9.89925 14.9604 9.50672 14.9835V15.0066Z" fill="#FDEE0E"/>
<path d="M18.6966 17.9852C19.5509 18.0544 20.4052 18.0544 21.2595 17.9852C22.5064 17.8928 23.5569 17.0154 23.8917 15.8032C24.0534 15.2144 23.961 14.6256 23.9841 14.1869C23.9841 13.6559 23.9841 13.2864 23.9841 12.9054C23.9495 11.3354 22.7142 10.0654 21.1441 10.0077C20.3706 9.97306 19.5855 9.98461 18.812 10.0077C17.3805 10.0654 16.1683 11.1968 16.0297 12.6168C15.9374 13.5289 15.9374 14.4524 16.0297 15.3645C16.1683 16.7268 17.3227 17.8466 18.685 17.9505L18.6966 17.9852ZM18.0154 13.0555C18.0385 12.4321 18.3849 12.0627 19.0083 12.028C19.6779 11.9934 20.3475 11.9934 21.0171 12.028C21.6289 12.0511 21.9637 12.3975 21.9868 13.0093C22.0215 13.6789 22.0215 14.3485 21.9868 15.0181C21.9637 15.6531 21.6059 15.9879 20.9709 15.9995C20.3359 16.0225 19.6894 16.0225 19.0545 15.9995C18.3964 15.9764 18.0385 15.5838 18.027 14.9142C18.027 14.6025 18.027 14.2908 18.027 13.9791C18.027 13.6674 18.027 13.3557 18.027 13.044L18.0154 13.0555Z" fill="#638162"/>
<path d="M18.8696 27.983C19.62 28.006 20.3704 28.006 21.1092 27.983C22.4369 27.9483 23.5452 27.0478 23.9031 25.7664C24.0647 25.1776 23.9608 24.5888 23.9954 24.1616C23.9954 23.6306 23.9954 23.2496 23.9954 22.8802C23.9608 21.3909 22.7948 20.144 21.3055 20.017C20.4512 19.9478 19.5969 19.9478 18.7426 20.017C17.311 20.1325 16.1796 21.2408 16.0411 22.6608C15.9603 23.5498 15.9603 24.4387 16.0411 25.3161C16.1796 26.7938 17.4034 27.9368 18.8696 27.9714V27.983ZM18.0152 23.0418C18.0383 22.4299 18.3962 22.0489 19.0081 22.0143C19.6777 21.9912 20.3473 21.9912 21.0169 22.0143C21.6057 22.0374 21.952 22.3722 21.9751 22.9494C22.0097 23.6537 22.0097 24.3463 21.9751 25.0506C21.952 25.6163 21.6172 25.9395 21.0515 25.9742C20.3704 26.0088 19.6777 26.0088 18.9965 25.9742C18.3731 25.9511 18.0383 25.5701 18.0152 24.9467C18.0037 24.6234 18.0152 24.2886 18.0152 23.9654C18.0152 23.6537 18.0037 23.3419 18.0152 23.0302V23.0418Z" fill="#638162"/>
<path d="M23.43 31.0769C22.9913 30.8807 22.6103 30.9846 22.2755 31.3078C21.2826 32.2891 20.2783 33.282 19.3085 34.2748C19.0891 34.4942 18.9621 34.5519 18.7312 34.2864C18.4311 33.9285 18.0847 33.6168 17.7384 33.2935C17.2535 32.8317 16.7224 32.8317 16.2953 33.2589C15.8566 33.6861 15.845 34.2287 16.3068 34.702C16.9418 35.3601 17.5883 36.0181 18.2579 36.6531C18.7428 37.1149 19.3085 37.1149 19.7934 36.63C21.0979 35.337 22.3909 34.0324 23.6955 32.7394C23.9033 32.5316 24.0419 32.3007 24.0303 32.0698C24.0303 31.5618 23.834 31.2386 23.4415 31.0654L23.43 31.0769Z" fill="#638162"/>
<path d="M30.957 23.0187C29.664 23.0187 28.371 23.0187 27.078 23.0187C26.3391 23.0187 25.9466 22.6724 25.9351 22.0258C25.9351 21.3562 26.3276 20.9868 27.0895 20.9868C29.6871 20.9868 32.2847 20.9868 34.8823 20.9868C35.6442 20.9868 36.0599 21.3562 36.0599 22.0028C36.0599 22.6262 35.6558 23.0072 34.9746 23.0187C33.6354 23.0187 32.2962 23.0187 30.957 23.0187Z" fill="#AEBAA9"/>
<path d="M30.9689 13.0208C29.6874 13.0208 28.4175 13.0208 27.136 13.0208C26.4087 13.0208 25.9815 12.6514 25.97 12.0395C25.9584 11.4046 26.3856 11.0005 27.136 11.0005C29.722 11.0005 32.3081 11.0005 34.8941 11.0005C35.7599 11.0005 36.2333 11.6355 35.9678 12.3743C35.7946 12.8477 35.4251 13.0208 34.9403 13.0208C33.6126 13.0208 32.2965 13.0208 30.9689 13.0208Z" fill="#AEBAA9"/>
<path d="M31.0149 30.9846C32.2964 30.9846 33.5663 30.9846 34.8478 30.9846C35.5866 30.9846 35.9907 31.3425 36.0022 31.9775C36.0138 32.624 35.5982 33.0165 34.8478 33.0165C32.2848 33.0165 29.7103 33.0165 27.1474 33.0165C26.2931 33.0165 25.8082 32.3815 26.0737 31.6311C26.2469 31.1578 26.6163 30.9846 27.1012 30.9846C28.4058 30.9846 29.7219 30.9846 31.0264 30.9846H31.0149Z" fill="#AEBAA9"/>
<path d="M29.0062 17.0269C28.3712 17.0269 27.7247 17.0269 27.0897 17.0269C26.4086 17.0153 25.993 16.6113 25.9814 16.0109C25.9814 15.4106 26.4086 14.995 27.0782 14.995C28.3597 14.995 29.6296 14.995 30.9111 14.995C31.5807 14.995 32.0078 15.3991 32.0194 15.9994C32.0194 16.5997 31.5922 17.0038 30.9226 17.0153C30.2877 17.0269 29.6411 17.0153 29.0062 17.0153V17.0269Z" fill="#AEBAA9"/>
<path d="M29.0523 24.9928C29.6872 24.9928 30.3222 24.9928 30.9687 24.9928C31.5921 24.9928 31.9962 25.3622 32.0308 25.9279C32.0655 26.5167 31.696 26.9785 31.0495 26.9901C29.6988 27.0247 28.348 27.0247 26.9857 26.9901C26.3392 26.9785 25.9813 26.5167 26.016 25.9164C26.0506 25.3391 26.4316 24.9928 27.0781 24.9928C27.7361 24.9928 28.3827 24.9928 29.0407 24.9928H29.0523Z" fill="#AEBAA9"/>
<path d="M28.9946 37.011C28.3712 37.011 27.7478 37.0225 27.1244 37.011C26.4086 36.9879 25.9814 36.5954 25.9814 35.9951C25.9814 35.3832 26.4201 35.0137 27.1359 35.0022C28.3943 35.0022 29.6527 35.0022 30.9111 35.0022C31.5691 35.0022 31.9732 35.3716 32.0078 35.9604C32.0309 36.5377 31.6384 36.9417 30.9919 36.9995C30.9457 36.9995 30.8995 36.9995 30.8534 36.9995C30.2299 36.9995 29.6065 36.9995 28.9831 36.9995L28.9946 37.011Z" fill="#AEBAA9"/>
</g>
<defs>
<clipPath id="clip0_1579_1833">
<rect width="38.017" height="42" fill="white" transform="translate(4 3)"/>
</clipPath>
</defs>
</svg>
