<svg xmlns="http://www.w3.org/2000/svg" width="53" height="54" viewBox="0 0 53 54">
  <g id="Group_285" data-name="Group 285" transform="translate(-271 -1796)">
    <g id="Group_89" data-name="Group 89" transform="translate(271 1796)">
      <ellipse id="Ellipse_19" data-name="Ellipse 19" cx="26.5" cy="27" rx="26.5" ry="27" transform="translate(0 0)" fill="#606060"/>
    </g>
    <g id="Group_125" data-name="Group 125" transform="translate(450.065 -11144.318)">
      <path id="Path_330" data-name="Path 330" d="M142.373,247.867a3.706,3.706,0,1,1-3.706-3.706,3.706,3.706,0,0,1,3.706,3.706" transform="translate(-301.087 12721.13)" fill="#fff"/>
      <path id="Path_331" data-name="Path 331" d="M113.365,384.909a3.928,3.928,0,0,0-3.366-1.87h-2.754a3.926,3.926,0,0,0-3.876,3.468L103,389.7a.827.827,0,0,0,.612.884,24.042,24.042,0,0,0,5.032.51,21.551,21.551,0,0,0,2.584-.136l.34-2.754a5.066,5.066,0,0,1,1.8-3.3Z" transform="translate(-271.058 12590.684)" fill="#fff"/>
      <path id="Path_332" data-name="Path 332" d="M450.373,247.867a3.706,3.706,0,1,1-3.706-3.706,3.706,3.706,0,0,1,3.706,3.706" transform="translate(-590.388 12721.13)" fill="#fff"/>
      <path id="Path_333" data-name="Path 333" d="M436.683,385.947a3.926,3.926,0,0,0-3.876-3.468h-2.754a3.913,3.913,0,0,0-3.332,1.87,5.232,5.232,0,0,1,1.8,3.3l.34,2.754a21.556,21.556,0,0,0,2.584.136,24.059,24.059,0,0,0,5.032-.51.787.787,0,0,0,.612-.884Z" transform="translate(-575.134 12591.21)" fill="#fff"/>
      <path id="Path_334" data-name="Path 334" d="M264.523,413.28H261.8a3.926,3.926,0,0,0-3.876,3.468l-.374,3.2a.8.8,0,0,0,.612.884,24.041,24.041,0,0,0,5.032.51,23.731,23.731,0,0,0,5-.51.787.787,0,0,0,.612-.884l-.374-3.2A3.934,3.934,0,0,0,264.523,413.28Z" transform="translate(-416.232 12562.278)" fill="#fff"/>
      <path id="Path_335" data-name="Path 335" d="M296.373,278.667a3.706,3.706,0,1,1-3.706-3.706,3.706,3.706,0,0,1,3.706,3.706" transform="translate(-445.737 12692.2)" fill="#fff"/>
      <path id="Path_336" data-name="Path 336" d="M196.8,25.971h16.013a1.364,1.364,0,0,0,1.36-1.36V15.364a1.364,1.364,0,0,0-1.36-1.36H196.8a1.364,1.364,0,0,0-1.36,1.36v9.247a1.364,1.364,0,0,0,1.36,1.36Zm9.689-9.519h4.76a.544.544,0,0,1,0,1.088h-4.76a.544.544,0,1,1,0-1.088Zm0,2.992h4.76a.544.544,0,0,1,0,1.088h-4.76a.544.544,0,1,1,0-1.088Zm0,2.992h4.76a.544.544,0,0,1,0,1.088h-4.76a.544.544,0,1,1,0-1.088ZM198.026,18.8l1.7-.136a.331.331,0,0,0,.34-.272l.646-1.6a.427.427,0,0,1,.782,0l.646,1.6a.54.54,0,0,0,.34.272l1.7.136a.43.43,0,0,1,.238.748l-1.224,1.088a.467.467,0,0,0-.136.408l.408,1.666a.4.4,0,0,1-.612.442l-1.462-.884a.5.5,0,0,0-.442,0l-1.462.884a.407.407,0,0,1-.612-.442l.408-1.666a.39.39,0,0,0-.136-.408l-1.292-1.122a.381.381,0,0,1,.17-.714Z" transform="translate(-357.895 12937.314)" fill="#fff"/>
    </g>
  </g>
</svg>
