<svg width="56" height="37" viewBox="0 0 56 37" fill="none" xmlns="http://www.w3.org/2000/svg">
<path fill-rule="evenodd" clip-rule="evenodd" d="M8.4 0H47.6C52.3602 0 56 3.6398 56 8.4V28.6C56 33.3602 52.3602 37 47.6 37H8.4C3.6398 37 0 33.3602 0 28.6V8.4C0 3.6398 3.6398 0 8.4 0ZM47.6 31.4C49.2801 31.4 50.4 30.2801 50.4 28.6V8.4C50.4 6.7199 49.2801 5.6 47.6 5.6H8.4C6.7199 5.6 5.6 6.7199 5.6 8.4V28.6C5.6 30.2801 6.7199 31.4 8.4 31.4H47.6ZM18.2001 18.2C20.4669 18.2 22.2001 16.4668 22.2001 14.2C22.2001 11.9333 20.4669 10.2 18.2001 10.2C15.9333 10.2 14.2001 11.9333 14.2001 14.2C14.2001 16.4668 15.9333 18.2 18.2001 18.2ZM23.4001 20.2C20.0668 19.2666 16.4668 19.2666 13.1334 20.2C11.4002 20.7333 10.2002 22.3334 10.2002 24.0666V26.2H12.8669H13.8003H22.6003H23.5337H26.2002V24.0666C26.2002 22.3334 25.0002 20.7333 23.4001 20.2ZM32 12H42V17H32V12ZM45 21H32V26H45V21Z" fill="#00582E"/>
</svg>
