<svg xmlns="http://www.w3.org/2000/svg" xmlns:xlink="http://www.w3.org/1999/xlink" width="53" height="54" viewBox="0 0 53 54">
  <defs>
    <linearGradient id="linear-gradient" x1="0.145" y1="0.112" x2="0.922" y2="0.876" gradientUnits="objectBoundingBox">
      <stop offset="0" stop-color="#fde159"/>
      <stop offset="1" stop-color="#fe0817"/>
    </linearGradient>
  </defs>
  <g id="Group_106" data-name="Group 106" transform="translate(-737 -1434)">
    <g id="Group_89" data-name="Group 89" transform="translate(737 1434)">
      <ellipse id="Ellipse_19" data-name="Ellipse 19" cx="26.5" cy="27" rx="26.5" ry="27" transform="translate(0 0)" fill="url(#linear-gradient)"/>
    </g>
    <g id="Group_90" data-name="Group 90" transform="translate(749.473 1442.129)">
      <path id="Path_267" data-name="Path 267" d="M213.494,357.713c-.573-3.327.191-10.31,7.6-10.47l.416.1a3.121,3.121,0,0,0,1.933,2.083c.124.053.258.106.393.159a.787.787,0,0,0,.09.032c.112.043.225.074.337.117a.664.664,0,0,1,.135.043c.1.032.213.064.315.085.056.011.112.032.169.043.1.021.214.043.315.074l.18.032c.1.021.213.032.315.053l.2.032c.112.011.225.032.337.043.067.011.135.011.2.021.124.011.247.021.371.021.056,0,.124.011.18.011.18.011.371.011.562.011s.371,0,.551-.011c.056,0,.124-.011.18-.011.124-.011.247-.011.36-.021.067-.011.135-.011.214-.021.1-.011.213-.021.315-.043l.214-.032a2.352,2.352,0,0,0,.292-.053,1.364,1.364,0,0,0,.2-.043l.281-.064c.067-.011.135-.032.191-.043.09-.021.18-.053.281-.074.056-.021.112-.032.169-.053.1-.032.2-.064.3-.106a.482.482,0,0,0,.112-.043c.135-.053.258-.106.382-.159.045-.021.079-.043.124-.064.079-.043.157-.074.236-.117.045-.021.09-.053.135-.074.067-.043.135-.074.191-.117l.124-.085.169-.128a.779.779,0,0,1,.112-.085.875.875,0,0,0,.146-.138l.09-.085a1.879,1.879,0,0,1,.135-.149c.022-.021.045-.053.067-.074a1.96,1.96,0,0,0,.124-.2.054.054,0,0,0,.022-.043c.09-.17.348-.159.371-.34l.517-.67c6.63,0,7.518,7.738,7.192,10.693-11.406,0-8.518-.011-13.574-.011-5.135-.011-.708,0-14.272-.021Z" transform="translate(-213.343 -323.282)" fill="#fff"/>
      <path id="Path_268" data-name="Path 268" d="M235.327,114.992l.584,2.541a1.343,1.343,0,0,0,.9.957,9.841,9.841,0,0,0,2.686,4.252,1.573,1.573,0,0,0,.045.287c.27,1.424,3.36,4.911,6.506,4.911h2.135c2.18.446,6.2-2.6,6.54-4.836a37.791,37.791,0,0,0,.438-5.421c.011-.011.011-.021.022-.032a1.354,1.354,0,0,0,1.011.84l.281.053a1.391,1.391,0,0,0,1.652-1.01l.584-2.541a1.316,1.316,0,0,0-1.068-1.563l-.225-.043a10.541,10.541,0,0,0-21.08.053,1.322,1.322,0,0,0-1.011,1.552Zm13.024-8.918h-2.438c-4.383,0-7.967,2.424-7.967,7.462,0,0,.023.085.056.234a1.4,1.4,0,0,0-.944-.425,9.834,9.834,0,0,1,19.665.032,1.384,1.384,0,0,0-.393.159c0-5.049-3.585-7.462-7.979-7.462ZM241.193,124a9.513,9.513,0,0,0,3.843,1.244.911.911,0,0,0,.854.574.862.862,0,1,0,0-1.722.92.92,0,0,0-.82.489,8.7,8.7,0,0,1-4.7-1.977c-.09-.765-.191-2.519-.281-4.209-.011-.255-.022-.5-.034-.744v-.011c-.011-.181-.022-.351-.022-.521,0-.085-.011-.17-.011-.244-.034-.67-.056-1.254-.079-1.69v-.043a.573.573,0,0,0-.011-.138c-.011-.351-.022-.574-.022-.574-.494-4.209,4.45-2.955,7.181-2.955s6.181-6.25,7.316,2.955c0,0,0,.159-.011.415-.011.659-.056,2.051-.112,3.518a32.558,32.558,0,0,1-.382,4.549c-.292,1.063-2.438,4.209-5.776,4.209H246.2c-2.068.053-3.7-1.743-5.012-3.125Zm-1.8-2.328a9.217,9.217,0,0,1-1.832-3.125h.011l.281-.053a1.322,1.322,0,0,0,1.068-1.563l-.112-.5a6.888,6.888,0,0,0,.337.808c.067,1.478.157,3.221.247,4.432Z" transform="translate(-233.041 -102.979)" fill="#fff"/>
      <path id="Path_269" data-name="Path 269" d="M248.24,127.535a2.114,2.114,0,0,1-.461-.043h-2.135c-3.2,0-6.293-3.518-6.563-4.953-.011-.064-.023-.149-.034-.266a9.89,9.89,0,0,1-2.686-4.241,1.382,1.382,0,0,1-.9-.989l-.584-2.541A1.372,1.372,0,0,1,235.9,112.9a10.87,10.87,0,0,1,3.225-7.366,10.418,10.418,0,0,1,14.721-.011,10.881,10.881,0,0,1,3.236,7.324l.18.043a1.423,1.423,0,0,1,.91.6,1.3,1.3,0,0,1,.2,1.031l-.584,2.541a1.449,1.449,0,0,1-1.719,1.052l-.281-.053a1.4,1.4,0,0,1-.966-.7,38.806,38.806,0,0,1-.438,5.272c-.18,1.169-1.416,2.7-3.079,3.795a6.119,6.119,0,0,1-3.068,1.116Zm-1.753-24.947A10.57,10.57,0,0,0,236,112.941v.043l-.045.011a1.259,1.259,0,0,0-.978,1.488l.584,2.54a1.281,1.281,0,0,0,.854.914l.022.011.011.021a9.79,9.79,0,0,0,2.674,4.231l.011.011v.021a1.31,1.31,0,0,0,.045.287c.258,1.414,3.315,4.858,6.45,4.858h2.158a5.058,5.058,0,0,0,3.427-1.063c1.641-1.084,2.866-2.583,3.034-3.731a39.451,39.451,0,0,0,.438-5.41v-.011l.011-.011a.037.037,0,0,0,.011-.021c0-.011.011-.011.011-.021l.056-.1.045.106a1.284,1.284,0,0,0,.966.808l.281.053a1.33,1.33,0,0,0,1.584-.967l.584-2.541a1.259,1.259,0,0,0-1.023-1.5l-.27-.053v-.043a10.539,10.539,0,0,0-10.462-10.29Zm-.843,24.065c-1.91,0-3.461-1.616-4.72-2.934l-.45-.468.337.2a9.2,9.2,0,0,0,3.809,1.233h.034l.011.032a.859.859,0,0,0,.8.531.809.809,0,1,0,0-1.616.864.864,0,0,0-.764.457l-.022.032h-.034a8.751,8.751,0,0,1-4.731-1.988l-.011-.011V122.1c-.079-.648-.169-2.073-.281-4.22l-.079-1.52c-.034-.606-.056-1.159-.079-1.573l-.045-.872a2.653,2.653,0,0,1,.618-2.349c1.045-1.02,3.146-.872,4.989-.733.584.043,1.135.085,1.629.085a5.276,5.276,0,0,0,2.472-1.052c1.068-.659,2.068-1.286,2.955-.9.955.425,1.573,2,1.944,4.953l-.011.415c-.011.542-.056,1.977-.112,3.518a32.066,32.066,0,0,1-.382,4.56c-.337,1.212-2.551,4.252-5.821,4.252h-1.922a.576.576,0,0,0-.135-.011Zm-4.562-2.923c1.259,1.307,2.809,2.891,4.7,2.817H247.7c3.427,0,5.473-3.285,5.72-4.167a30.427,30.427,0,0,0,.382-4.539c.067-1.531.1-2.966.112-3.508l.011-.415c-.36-2.87-.966-4.464-1.877-4.858-.82-.361-1.8.244-2.843.893a5.341,5.341,0,0,1-2.54,1.074c-.494,0-1.045-.043-1.629-.085-1.82-.128-3.9-.276-4.9.7a2.543,2.543,0,0,0-.584,2.264l.045.882c.022.425.045.967.079,1.573l.079,1.52c.112,2.126.2,3.529.281,4.188a8.591,8.591,0,0,0,4.607,1.945.98.98,0,0,1,.854-.489.916.916,0,1,1,0,1.828.982.982,0,0,1-.9-.574,9.2,9.2,0,0,1-3.517-1.052Zm-2.023-2.4-.112-.128a9.179,9.179,0,0,1-1.843-3.146l-.022-.064.067-.011.292-.053a1.264,1.264,0,0,0,1.023-1.5l-.112-.5.112-.032c.112.308.225.574.337.808v.021c.067,1.329.169,3.168.258,4.443Zm-1.832-3.242a9.08,9.08,0,0,0,1.7,2.923c-.09-1.265-.18-3.008-.247-4.273-.034-.064-.056-.128-.09-.191a1.4,1.4,0,0,1-1.135,1.5Zm.472-4.624-.146-.149a1.379,1.379,0,0,0-.9-.415H236.6v-.053a10.281,10.281,0,0,1,3.045-6.867,9.7,9.7,0,0,1,13.7.011,10.294,10.294,0,0,1,3.034,6.9v.043l-.045.011a1.342,1.342,0,0,0-.382.149l-.1.064.011-.117c0-5.464-4.09-7.409-7.911-7.409H245.51c-3.821,0-7.911,1.945-7.911,7.409a1.69,1.69,0,0,0,.056.223Zm-.989-.67a1.5,1.5,0,0,1,.787.319.283.283,0,0,1-.011-.064v-.011a7.191,7.191,0,0,1,2.36-5.666,8.571,8.571,0,0,1,5.664-1.85h2.438a8.55,8.55,0,0,1,5.664,1.85,7.149,7.149,0,0,1,2.36,5.581,2.165,2.165,0,0,1,.281-.106,9.773,9.773,0,0,0-19.542-.053Z" transform="translate(-232.638 -102.481)" fill="#fff"/>
    </g>
  </g>
</svg>
