<svg width="56" height="56" viewBox="0 0 56 56" fill="none" xmlns="http://www.w3.org/2000/svg">
<path fill-rule="evenodd" clip-rule="evenodd" d="M44.7998 16.7999H50.3998L50.4 16.7997C53.4801 16.7997 56 19.3196 56 22.3997V39.1997C56 42.2797 53.4801 44.7996 50.4 44.7996V55.9996L32.7601 44.7996H25.1999C22.1198 44.7996 19.5999 42.2797 19.5999 39.1997V35.2798L5.59998 44.7996V33.0397C2.23979 31.9198 0 28.8397 0 25.1999V8.39997C0 3.63979 3.63979 0 8.39997 0H36.3999C41.1601 0 44.7998 3.63979 44.7998 8.39997V16.7999ZM19.5999 28.28V22.3999C19.5999 20.0996 21.0054 18.1118 23 17.2527V8H28V16.7999H30V11H35V16.7999H39.1999V8.39997C39.1999 6.71988 38.08 5.59998 36.3999 5.59998H8.39997C6.71988 5.59998 5.59998 6.71988 5.59998 8.39997V25.1999C5.59998 26.88 6.71988 27.9999 8.39997 27.9999H11.2V34.1601L19.5999 28.28ZM44.7998 39.1999H50.3998L50.4 22.3999H25.2001V39.1999H34.4399L44.7998 45.9197V39.1999ZM33 28H28V33H33V28ZM35 28H40V33H35V28ZM47 28H42V33H47V28ZM9 10H14V21H9V10ZM21 13H16V18H21V13Z" fill="#00582E"/>
</svg>
