<svg width="47" height="47" viewBox="0 0 47 47" fill="none" xmlns="http://www.w3.org/2000/svg">
<g clip-path="url(#clip0_1598_873)">
<path d="M2.01179 26.9571C2.05799 26.1139 1.90782 25.0627 2.08109 24.0347C2.31212 22.6254 3.08604 21.5858 4.33357 20.9043C4.52994 20.8004 4.59924 20.6849 4.61079 20.4538C4.85337 16.2146 6.36657 12.4835 9.16195 9.28386C11.6686 6.43073 14.7758 4.46703 18.4722 3.58914C24.5596 2.14525 30.0926 3.38122 34.9095 7.40103C38.2478 10.1964 40.2923 13.7888 41.1124 18.0743C41.2626 18.8482 41.3666 19.6452 41.3781 20.4307C41.3781 20.6618 41.4474 20.7888 41.6669 20.9159C43.1801 21.7591 43.9656 23.0528 43.9771 24.7971C43.9887 26.3911 44.0002 27.9736 43.9771 29.5677C43.954 31.2657 43.1917 32.5479 41.7131 33.3911C41.4705 33.5297 41.4128 33.6799 41.4012 33.9456C41.3897 34.9852 41.4821 36.0363 41.2973 37.0759C40.8699 39.5363 38.6636 41.6386 36.2148 41.939C35.025 42.0891 33.8237 41.9852 32.6223 42.0083C32.3798 42.0083 32.2758 42.0891 32.1603 42.3086C31.6058 43.406 30.7164 44.0182 29.4689 44.0297C28.3715 44.0528 27.2626 44.0528 26.1652 44.0297C24.5943 43.9951 23.3583 42.7245 23.2544 41.0957C23.1619 39.6172 24.3286 38.1849 25.8534 38.0116C27.1818 37.8614 28.5217 37.873 29.8616 38.0116C30.9474 38.1155 31.6983 38.7393 32.1719 39.7096C32.2758 39.9291 32.3913 40.0099 32.6339 39.9984C33.6966 39.9637 34.7478 40.0446 35.8105 39.9406C37.7395 39.7443 39.3451 38.0231 39.3798 36.0941C39.3913 35.4588 39.3798 34.8119 39.3798 34.165C39.3798 33.9918 39.3567 33.9225 39.1487 33.8763C37.6471 33.5297 36.827 32.5017 36.8154 30.9538C36.8154 28.4357 36.8154 25.906 36.8154 23.3878C36.8154 21.8631 37.5778 20.8812 39.0679 20.4885C39.2874 20.4307 39.322 20.3499 39.3105 20.1304C38.756 12.703 33.0728 6.48848 25.7379 5.28716C17.5596 3.93568 9.77416 8.72941 7.32532 16.6188C6.96723 17.774 6.73621 18.9637 6.65535 20.1766C6.6438 20.3961 6.72466 20.4192 6.88637 20.4654C8.43423 20.9043 9.16195 21.8631 9.16195 23.4802C9.16195 25.8598 9.09264 28.2509 9.18505 30.6304C9.28901 33.2294 7.09429 34.6617 4.6339 33.5644C2.95898 32.802 2.09264 31.4621 2.02334 29.6254C1.98868 28.8053 2.02334 27.9852 2.02334 26.9571H2.01179ZM7.11739 27.1535C7.11739 25.8598 7.11739 24.566 7.11739 23.2608C7.11739 22.7063 6.80551 22.4175 6.25106 22.4175C5.06129 22.4175 4.04479 23.4456 4.03324 24.7278C4.01013 26.3449 4.01013 27.9621 4.03324 29.5792C4.05634 30.8152 5.00353 31.8202 6.13555 31.8779C6.81707 31.9126 7.11739 31.6353 7.11739 30.9538C7.11739 29.6832 7.11739 28.4126 7.11739 27.1535ZM38.8831 27.1419C38.8831 28.4472 38.8831 29.7641 38.8831 31.0693C38.8831 31.6007 39.195 31.8895 39.7148 31.8895C40.9161 31.8895 41.9326 30.8961 41.9557 29.6023C41.9903 27.9736 41.9903 26.3449 41.9557 24.7047C41.9326 23.5495 41.1933 22.7063 40.0844 22.4522C39.3105 22.2789 38.8369 22.6717 38.86 23.4109C38.9062 24.6469 38.8715 25.8944 38.8715 27.1304L38.8831 27.1419ZM27.8633 41.9967C28.36 41.9967 28.8682 41.9967 29.3649 41.9967C30.0118 41.9967 30.4507 41.5693 30.4507 40.9802C30.4507 40.368 30.0349 39.9753 29.3765 39.9753C28.3831 39.9753 27.4012 39.9753 26.4078 39.9753C25.7379 39.9753 25.322 40.368 25.322 40.9802C25.322 41.5809 25.761 41.9967 26.3963 41.9967C26.8814 41.9967 27.3666 41.9967 27.8633 41.9967Z" fill="#AEBAA9"/>
<path d="M23.0233 12.7491C25.1141 12.7491 27.2048 12.7491 29.2956 12.7491C31.9061 12.7491 33.7659 14.5973 33.7659 17.2079C33.7659 19.9686 33.7659 22.7293 33.7659 25.4901C33.7659 28.1122 31.9061 29.9488 29.2956 29.9604C27.6322 29.9604 25.9804 29.9604 24.317 29.9604C23.9821 29.9604 23.751 30.0643 23.52 30.2953C22.3995 31.4389 21.2675 32.5709 20.1124 33.6798C19.0728 34.6848 17.4441 34.4076 16.7972 33.1485C16.6355 32.8366 16.5547 32.5016 16.5547 32.1435C16.5547 31.5198 16.5547 30.8845 16.5547 30.2607C16.5547 30.0297 16.5085 29.9604 16.2659 29.9488C14.2791 29.7987 12.789 28.528 12.3269 26.6105C12.2345 26.2409 12.2114 25.8713 12.2114 25.4901C12.2114 22.7293 12.2114 19.9686 12.2114 17.2079C12.2114 14.5973 14.0712 12.7491 16.6933 12.7491C18.7956 12.7491 20.8979 12.7491 23.0118 12.7491H23.0233ZM18.5992 32.2244C18.8187 32.1551 18.8995 32.028 19.0035 31.9125C20.1702 30.7574 21.3484 29.6023 22.492 28.4241C22.8616 28.0429 23.2659 27.8927 23.7857 27.8927C25.1603 27.9158 26.5464 27.9043 27.921 27.8927C28.5448 27.8927 29.1801 27.9389 29.8038 27.8581C30.855 27.7194 31.6867 26.8647 31.6982 25.802C31.7213 22.8218 31.7213 19.8416 31.6982 16.8498C31.6982 15.7062 30.751 14.8168 29.6075 14.7706C29.5382 14.7706 29.4689 14.7706 29.3995 14.7706C25.1372 14.7706 20.8748 14.7937 16.6124 14.7706C15.1454 14.7706 14.2791 15.9373 14.2791 16.8845C14.2791 19.8531 14.2791 22.8218 14.2791 25.7904C14.2791 26.8762 15.1223 27.7425 16.1966 27.8581C16.5662 27.9043 16.9474 27.8927 17.317 27.8927C18.2411 27.8927 18.5761 28.2277 18.5761 29.1518C18.5761 30.1567 18.5761 31.1501 18.5761 32.2013L18.5992 32.2244Z" fill="#AEBAA9"/>
<path d="M7.11711 27.1535C7.11711 28.4241 7.11711 29.6947 7.11711 30.9538C7.11711 31.6353 6.81678 31.9125 6.13526 31.8779C5.00325 31.8201 4.05605 30.8152 4.03295 29.5792C4.00985 27.962 4.00985 26.3449 4.03295 24.7277C4.05605 23.4455 5.061 22.4175 6.25077 22.4175C6.79368 22.4175 7.10556 22.7063 7.11711 23.2607C7.11711 24.5544 7.11711 25.8482 7.11711 27.1535Z" fill="#FDEE0E"/>
<path d="M38.883 27.1419C38.883 25.9059 38.9176 24.6584 38.8714 23.4224C38.8483 22.6832 39.3104 22.2904 40.0959 22.4637C41.2048 22.7063 41.944 23.5611 41.9671 24.7162C42.0018 26.3449 42.0018 27.9736 41.9671 29.6139C41.944 30.9076 40.9275 31.901 39.7262 31.901C39.1949 31.901 38.8945 31.6122 38.8945 31.0809C38.8945 29.7756 38.8945 28.4587 38.8945 27.1535L38.883 27.1419Z" fill="#FDEE0E"/>
<path d="M27.863 41.9967C27.3779 41.9967 26.8927 41.9967 26.396 41.9967C25.7492 41.9967 25.3218 41.5693 25.3218 40.9802C25.3218 40.368 25.7376 39.9868 26.4076 39.9752C27.401 39.9752 28.3828 39.9752 29.3762 39.9752C30.0346 39.9752 30.4505 40.3795 30.4505 40.9802C30.4505 41.5693 30.0115 41.9851 29.3647 41.9967C28.868 41.9967 28.3597 41.9967 27.863 41.9967Z" fill="#FDEE0E"/>
<path d="M22.9883 20.0149C23.7853 20.0149 24.49 20.6733 24.5015 21.4819C24.5246 22.302 23.82 23.0066 22.9999 23.0066C22.2028 23.0066 21.5098 22.3136 21.5098 21.5165C21.5098 20.7195 22.1797 20.0264 22.9883 20.0149Z" fill="#638162"/>
<path d="M16.647 21.5165C16.647 20.6964 17.2938 20.0264 18.1024 20.0033C18.9225 19.9918 19.6272 20.6848 19.6272 21.505C19.6272 22.3135 18.9341 22.9951 18.1371 22.9951C17.3285 22.9951 16.6585 22.3251 16.6585 21.5165H16.647Z" fill="#638162"/>
<path d="M29.3529 21.5396C29.3529 22.3482 28.6598 23.0182 27.8512 23.0066C27.0427 23.0066 26.3612 22.302 26.3727 21.505C26.3727 20.6964 27.0658 20.0149 27.8628 20.0149C28.6945 20.0149 29.3529 20.6964 29.3529 21.5396Z" fill="#638162"/>
</g>
<defs>
<clipPath id="clip0_1598_873">
<rect width="42" height="41.0182" fill="white" transform="translate(2 3)"/>
</clipPath>
</defs>
</svg>
