<svg width="62" height="50" viewBox="0 0 62 50" fill="none" xmlns="http://www.w3.org/2000/svg">
<rect width="62" height="50" fill="white"/>
<rect x="12.8535" y="37.0244" width="35.8537" height="5.12195" fill="#FFEE05"/>
<path d="M30.7764 29.3415C27.1942 29.3415 23.6109 29.3415 20.0287 29.3396C19.8487 29.3396 19.6649 29.334 19.4908 29.2977C19.0845 29.2129 18.831 28.8923 18.8291 28.4943C18.8272 28.0955 19.0748 27.7767 19.4802 27.6817C19.6301 27.6463 19.7897 27.636 19.9455 27.636C27.1709 27.6342 34.3964 27.6342 41.6219 27.6342C42.3397 27.6342 42.7373 27.9473 42.7315 28.4999C42.7276 28.8969 42.4703 29.2138 42.063 29.2986C41.9005 29.3322 41.7283 29.3387 41.5609 29.3387C37.9661 29.3405 34.3713 29.3405 30.7774 29.3405L30.7764 29.3415Z" fill="#AEBAA9"/>
<path d="M30.7949 31.9036C34.3657 31.9036 37.9365 31.9036 41.5063 31.9036C41.663 31.9036 41.8207 31.9017 41.9755 31.9205C42.3896 31.9692 42.6924 32.2693 42.7272 32.6519C42.7659 33.0766 42.5443 33.4264 42.1371 33.5473C41.99 33.5914 41.8294 33.6073 41.6756 33.6073C34.414 33.6101 27.1525 33.6101 19.8899 33.6092C19.1973 33.6092 18.8016 33.2623 18.8306 32.6922C18.849 32.3143 19.1237 31.9964 19.5068 31.9317C19.6723 31.9045 19.8425 31.9036 20.0109 31.9036C23.6059 31.9017 27.1999 31.9027 30.7949 31.9027V31.9036Z" fill="#AEBAA9"/>
<path d="M49.5588 37.3791C49.5588 36.6814 49.2393 36.3703 48.5121 36.358C48.2622 36.3533 48.0113 36.358 47.7349 36.358C47.7349 36.143 47.7349 35.9913 47.7349 35.8404C47.732 31.2452 47.7525 26.6491 47.7153 22.0539C47.6967 19.7695 45.6082 17.6322 43.2482 17.4615C42.078 17.3776 40.9 17.4031 39.7239 17.3983C39.7553 17.6897 39.7709 17.9857 39.7709 18.2855C39.7709 18.5674 39.7562 18.8465 39.7288 19.1218C40.6481 19.1199 41.5664 19.118 42.4857 19.1227C44.5272 19.1331 45.9669 20.5237 45.9678 22.4866C45.9698 26.9762 45.9678 31.4668 45.9678 35.9564V36.3316H15.5909V35.9847C15.5909 31.4715 15.589 26.9574 15.5919 22.4442C15.5929 20.815 16.6788 19.5112 18.3194 19.1812C18.6262 19.1199 18.9516 19.1255 19.2681 19.1237C20.1227 19.118 20.9773 19.1255 21.831 19.1189C21.8035 18.8446 21.7888 18.5665 21.7888 18.2855C21.7888 17.9857 21.8045 17.6887 21.8359 17.3965C20.9078 17.387 19.9806 17.3889 19.0525 17.3983C18.7124 17.4021 18.3655 17.4238 18.0332 17.4889C15.5096 17.9829 13.8317 19.9496 13.8278 22.4329C13.82 26.9102 13.8258 31.3885 13.8258 35.8659C13.8258 36.0158 13.8258 36.1657 13.8258 36.3797C13.4436 36.3797 13.1045 36.3684 12.7664 36.3825C12.3754 36.3995 12.1823 36.6786 12 36.9633V40.2159C12.1382 40.5638 12.2323 40.9353 12.4214 41.2549C13.1486 42.4881 14.2806 43.0019 15.7389 43C25.7639 42.9887 35.789 42.9944 45.813 42.9934C45.9835 42.9934 46.155 42.9878 46.3256 42.9783C48.1308 42.884 49.5451 41.4566 49.5578 39.7125C49.5637 38.9347 49.5598 38.1569 49.5588 37.3791ZM47.7222 40.0443C47.6202 40.775 46.9263 41.2624 46.157 41.2813C46.0472 41.2841 45.9375 41.2832 45.8267 41.2832C35.7929 41.2832 25.759 41.2719 15.7262 41.2973C14.4766 41.3001 13.67 40.5063 13.7543 39.374C13.7847 38.9648 13.7592 38.5519 13.7592 38.0993H47.7408C47.7408 38.7612 47.8104 39.4127 47.7222 40.0443Z" fill="#AEBAA9"/>
<path d="M35.0465 14.7305C35.0364 14.5142 34.936 14.3186 34.7842 14.1746C34.6324 14.0307 34.4316 13.9584 34.2199 13.979C34.0082 13.9894 33.8168 14.0919 33.6861 14.247L29.6561 18.8797L27.8124 17.1709C27.6614 17.027 27.4598 16.9546 27.2481 16.9649C27.0364 16.9753 26.845 17.0675 26.7143 17.2226C26.5734 17.3768 26.5025 17.5828 26.5127 17.7991C26.5228 18.0154 26.613 18.211 26.7649 18.3446L29.1931 20.5989C29.3339 20.7324 29.5254 20.8048 29.7169 20.8048H29.7675C29.9691 20.7945 30.1605 20.7023 30.3115 20.5368L34.866 15.2966C34.9866 15.1424 35.0575 14.9364 35.0473 14.7305H35.0465Z" fill="#638161"/>
<path d="M30.7809 26.7805C25.6029 26.7805 21.3906 22.5685 21.3906 17.3907C21.3906 12.213 25.6029 8 30.7809 8C35.9589 8 40.1711 12.212 40.1711 17.3897C40.1711 22.5675 35.9589 26.7795 30.7809 26.7795V26.7805ZM30.7809 9.79574C26.5926 9.79574 23.1865 13.2027 23.1865 17.3897C23.1865 21.5768 26.5936 24.9837 30.7809 24.9837C34.9682 24.9837 38.3753 21.5768 38.3753 17.3897C38.3753 13.2027 34.9682 9.79574 30.7809 9.79574Z" fill="#638161"/>
</svg>
