<svg width="62" height="50" viewBox="0 0 62 50" fill="none" xmlns="http://www.w3.org/2000/svg">
<rect width="62" height="50" fill="white"/>
<path d="M43 17.5H19L17.5 21.5H45L43 17.5Z" fill="#FFEE05"/>
<path d="M45.5243 43H16.4785C16.1107 42.7763 16 42.4512 16 42.0248C16.0082 35.3599 16.0037 28.6941 16.0055 22.0293C16.0055 21.8859 16.0293 21.7316 16.0833 21.6001C16.6697 20.182 17.2707 18.7703 17.8508 17.3504C17.9422 17.1258 17.9962 16.8692 17.998 16.6272C18.0109 15.0548 17.9981 13.4824 18.0063 11.9101C18.0191 9.61355 19.6448 8.00098 21.9383 8.00098C27.9782 8.00007 34.0172 7.99733 40.0571 8.00829C40.4953 8.00829 40.9509 8.06216 41.3672 8.19C42.9846 8.68673 43.98 10.1313 43.9882 11.9429C43.9955 13.4806 43.9818 15.0192 43.9974 16.5569C44.0001 16.8327 44.0541 17.1249 44.1584 17.3806C44.7329 18.7913 45.3321 20.1921 45.9158 21.5992C45.9707 21.7307 45.9954 21.885 45.9954 22.0283C45.9973 28.6932 45.9927 35.359 46 42.0239C46 42.4485 45.8893 42.7754 45.5234 43H45.5243ZM17.4418 41.581H44.55V22.6474H17.4418V41.581ZM19.4207 16.3853H42.5766C42.5766 14.7681 42.6077 13.1738 42.5556 11.5813C42.5418 11.1677 42.3296 10.7193 42.0945 10.3623C41.6087 9.62542 40.8503 9.39075 39.9876 9.39166C33.9943 9.39714 28.002 9.3944 22.0088 9.39532C21.8606 9.39532 21.7124 9.40354 21.5642 9.41632C20.8908 9.47293 20.3502 9.78065 19.9302 10.3011C19.5067 10.8262 19.4079 11.4398 19.4152 12.0963C19.4307 13.5181 19.4197 14.9407 19.4197 16.3843L19.4207 16.3853ZM17.7913 21.1801H44.2005C44.1456 21.0376 44.1044 20.9216 44.0578 20.8084C43.6964 19.9373 43.3213 19.0717 42.9782 18.1932C42.8703 17.9184 42.7358 17.8307 42.4357 17.8307C34.9824 17.8408 27.529 17.8389 20.0757 17.8389C19.478 17.8389 19.0636 18.1165 18.8324 18.6717C18.4884 19.4981 18.1463 20.3254 17.7913 21.181V21.1801Z" fill="#AEBAA9"/>
<path d="M33.7025 32.9235C35.0036 34.2129 36.3065 35.4998 37.6042 36.7926C38.1475 37.3339 38.3472 37.9764 38.1091 38.7186C37.6844 40.04 36.0449 40.4349 35.0228 39.4503C34.0853 38.548 33.167 37.6266 32.2548 36.6991C32.0542 36.4956 31.8554 36.3908 31.5711 36.4307C31.4211 36.4515 31.2632 36.4627 31.115 36.4376C30.3519 36.3094 29.8173 36.6255 29.3168 37.1858C28.6173 37.9678 27.8403 38.6822 27.0877 39.4174C26.5366 39.956 25.879 40.1344 25.1412 39.8867C24.4017 39.6391 23.9848 39.0987 23.8872 38.3375C23.8095 37.7314 24.0354 37.217 24.468 36.7875C25.4456 35.8176 26.4223 34.8477 27.399 33.8769C27.4819 33.7947 27.5613 33.7089 27.6528 33.6137C26.7031 32.3329 25.7639 31.0634 24.822 29.7965C24.3642 29.18 23.9116 28.5582 23.4398 27.952C22.7979 27.1268 22.8616 26.0633 23.6116 25.3818C24.3485 24.7124 25.4613 24.7428 26.2017 25.4728C27.7226 26.9726 29.2348 28.4803 30.7496 29.987C30.8333 30.071 30.8996 30.1724 30.9694 30.2598C31.2406 30.1316 31.3269 29.9749 31.3042 29.7246C31.2092 28.6517 31.599 27.7693 32.3708 27.0228C33.3214 26.1032 34.2466 25.1576 35.192 24.2327C35.6167 23.817 36.2376 23.9833 36.3606 24.5323C36.4242 24.819 36.2803 25.0303 36.0876 25.2208C35.1868 26.1136 34.299 27.0202 33.3824 27.8975C32.758 28.4958 32.4903 29.1635 32.7039 30.0269C32.751 30.2165 32.6272 30.4841 32.5068 30.6677C32.3813 30.8599 32.165 30.9942 31.9723 31.1682C32.2627 31.4176 32.5147 31.6332 32.8382 31.9103C32.9315 31.7986 33.0807 31.615 33.2359 31.4367C33.4356 31.208 33.6946 31.1578 33.9781 31.228C34.7429 31.4176 35.3865 31.2219 35.9385 30.666C36.8629 29.735 37.7891 28.8059 38.7379 27.9001C38.9071 27.7381 39.1922 27.6013 39.4129 27.616C39.5978 27.6281 39.8175 27.8481 39.9309 28.0308C40.0713 28.2577 39.9841 28.5158 39.7922 28.7106C39.4739 29.0362 39.1495 29.3557 38.8268 29.6762C38.1963 30.3031 37.5553 30.9197 36.937 31.5579C36.1897 32.3286 35.294 32.6914 34.2144 32.6343C34.0417 32.6256 33.8629 32.7339 33.6876 32.7884C33.6929 32.8335 33.6981 32.8785 33.7042 32.9235H33.7025ZM31.4324 35.0954C31.5632 35.0954 31.6958 35.1118 31.824 35.0928C32.3263 35.0157 32.683 35.2227 33.0257 35.5786C33.9292 36.5147 34.865 37.4196 35.7876 38.3358C36.16 38.7056 36.4591 38.7619 36.7103 38.5125C36.9571 38.2674 36.896 37.9643 36.5263 37.5971C33.0179 34.1134 29.5086 30.6304 26.0002 27.1467C25.7543 26.9025 25.5127 26.6522 25.2589 26.4158C25.0182 26.1906 24.7026 26.1837 24.4959 26.3812C24.2988 26.5699 24.2962 26.8574 24.4872 27.1146C26.2627 29.5038 28.054 31.8818 29.8016 34.2909C30.229 34.8806 30.6371 35.3274 31.4324 35.0954ZM28.4525 34.6936C27.9764 35.1724 27.5281 35.6271 27.0755 36.0791C26.5156 36.6376 25.9514 37.1927 25.3924 37.7521C25.2153 37.9288 25.1316 38.1591 25.2851 38.3652C25.3871 38.5021 25.586 38.6346 25.7473 38.6415C25.8999 38.6484 26.0892 38.5185 26.213 38.3981C27.1217 37.5131 28.0182 36.6169 28.9165 35.7223C28.9749 35.6643 29.0229 35.5959 29.0761 35.5327C28.8694 35.2547 28.6758 34.994 28.4525 34.6936Z" fill="#638161"/>
<path d="M37.9992 26.708C37.9568 26.7808 37.898 26.9532 37.7826 27.0699C36.8899 27.9755 35.9885 28.8733 35.0856 29.768C34.7867 30.0641 34.4305 30.0743 34.1764 29.8127C33.9269 29.5557 33.9402 29.218 34.2281 28.929C35.1319 28.021 36.0411 27.1177 36.9472 26.2105C37.148 26.0092 37.3825 25.9426 37.643 26.053C37.8783 26.1533 38.0031 26.346 37.9999 26.708H37.9992Z" fill="#638161"/>
<path d="M31.0005 11.0027C31.9543 11.0027 32.9088 10.9954 33.8626 11.0048C34.7935 11.0143 35.556 11.5127 35.8643 12.2908C36.1694 13.0617 35.9499 13.9241 35.3074 14.4749C34.8914 14.8323 34.3927 14.9922 33.8412 14.9936C31.9428 14.9987 30.0437 15.006 28.1453 14.9914C27.0362 14.9827 26.136 14.2467 26.0174 13.2986C25.8851 12.2393 26.5154 11.3296 27.5732 11.0739C27.7827 11.023 28.0069 11.007 28.2241 11.0048C29.1496 10.9976 30.075 11.0027 31.0005 11.0027ZM30.999 13.8704C31.9336 13.8704 32.8683 13.8711 33.803 13.8704C34.4057 13.8696 34.8279 13.5115 34.8325 13.0014C34.8371 12.4943 34.4095 12.1252 33.8129 12.1245C31.9344 12.1237 30.0559 12.1237 28.1766 12.1245C27.5831 12.1245 27.1533 12.5001 27.1609 13.005C27.1686 13.5049 27.5885 13.8682 28.1667 13.8696C29.1105 13.8718 30.0551 13.8704 30.999 13.8704Z" fill="#AEBAA9"/>
</svg>
