<svg width="56" height="56" viewBox="0 0 56 56" fill="none" xmlns="http://www.w3.org/2000/svg">
<path fill-rule="evenodd" clip-rule="evenodd" d="M44.2399 9.79888C47.6001 11.1989 49.5598 14.2785 50.12 17.6387L50.1199 17.6388C53.7602 19.3189 56 22.6791 56 26.5991C56 31.919 51.5199 36.3991 46.2 36.3991H44.8V30.7991H46.2C48.4398 30.7991 50.4 28.8389 50.4 26.5991C50.4 24.6389 49 22.9592 47.0398 22.399C45.6398 22.1189 44.8 20.999 44.8 19.599C44.8 17.6388 43.6801 15.6791 42 14.8388C40.0403 13.7185 37.2403 13.9986 35.5602 15.6787C34.7204 16.2388 33.8801 16.5189 32.7602 16.2388C31.6398 15.9592 31.08 15.1189 30.7999 13.999C30.2397 11.199 28.8397 8.95922 26.5999 7.55922C24.3596 5.87911 21.8397 5.31895 19.3198 5.87911C16.7999 6.15921 14.5601 7.55922 12.88 9.79902C11.2 12.319 10.6398 15.6791 11.7601 18.7592C12.0398 19.599 12.0398 20.4389 11.7597 20.999C11.2 21.8389 10.3598 22.399 9.51992 22.399C7.28011 22.6791 5.60001 24.3592 5.60001 26.5991C5.60001 28.8389 7.56022 30.7991 9.80002 30.7991H11.2V36.3991H9.80002C4.48011 36.3991 0 31.919 0 26.5991C0 22.679 2.2399 19.3189 5.88011 17.6388C5.31991 13.7189 6.16021 9.79902 8.40002 6.43881C10.6398 3.07901 14.28 0.838773 18.48 0.279002C22.4 -0.5613 26.6001 0.559103 29.4001 2.79891C31.92 4.47851 33.6001 6.71881 34.72 9.23872C37.8001 8.11878 41.1598 8.11878 44.2399 9.79888ZM39.2 55.9988H16.7999V27.9987H39.2V55.9988ZM22.3999 44.7988V50.3988H33.6V44.7988H22.3999ZM33.6 39.1987V33.5987H22.3999V39.1987H33.6Z" fill="#00582E"/>
</svg>
