<svg width="47" height="47" viewBox="0 0 47 47" fill="none" xmlns="http://www.w3.org/2000/svg">
<path d="M44.1574 30.5184H2.84717V33.8016H44.1574V30.5184Z" fill="#FFEE05"/>
<path fill-rule="evenodd" clip-rule="evenodd" d="M33.4548 8.48533C33.3343 8.36485 33.1636 8.28955 32.9779 8.28955C32.7921 8.28955 32.6214 8.36485 32.501 8.48533C32.3805 8.60582 32.3052 8.7765 32.3052 8.96224C32.3052 9.14798 32.3805 9.31867 32.501 9.43915C32.6214 9.55963 32.7921 9.63493 32.9779 9.63493C33.1636 9.63493 33.3343 9.55963 33.4548 9.43915C33.5753 9.31867 33.6506 9.14798 33.6506 8.96224C33.6506 8.7765 33.5753 8.60582 33.4548 8.48533Z" fill="black"/>
<path fill-rule="evenodd" clip-rule="evenodd" d="M32.9783 6.42712C33.6761 6.42712 34.3136 6.71327 34.7704 7.1701C35.2273 7.62692 35.5134 8.26447 35.5134 8.96226C35.5134 9.66006 35.2273 10.2976 34.7704 10.7544C34.3136 11.2113 33.6761 11.4974 32.9783 11.4974C32.2805 11.4974 31.6429 11.2113 31.1861 10.7544C30.9 10.4683 30.6841 10.1169 30.5586 9.7203H26.668H22.9632L21.3367 12.5366C21.1861 12.8478 20.8648 13.0586 20.4983 13.0586H12.416C11.904 13.0586 11.4873 12.642 11.4873 12.1299C11.4873 11.6179 11.904 11.2012 12.416 11.2012H19.9662L21.6279 8.32973C21.7985 8.03355 22.1098 7.86789 22.4311 7.86789H26.668H30.6941C30.8196 7.61186 30.9853 7.37592 31.1861 7.17512C31.6429 6.71829 32.2805 6.43214 32.9783 6.43214V6.42712Z" fill="#638161"/>
<path fill-rule="evenodd" clip-rule="evenodd" d="M33.4548 22.9935C33.3343 22.873 33.1636 22.7977 32.9779 22.7977C32.7921 22.7977 32.6214 22.873 32.501 22.9935C32.3805 23.114 32.3052 23.2847 32.3052 23.4704C32.3052 23.6562 32.3805 23.8268 32.501 23.9473C32.6214 24.0678 32.7921 24.1431 32.9779 24.1431C33.1636 24.1431 33.3343 24.0678 33.4548 23.9473C33.5753 23.8268 33.6506 23.6562 33.6506 23.4704C33.6506 23.2847 33.5753 23.114 33.4548 22.9935Z" fill="black"/>
<path fill-rule="evenodd" clip-rule="evenodd" d="M32.9783 20.9352C33.6761 20.9352 34.3136 21.2163 34.7704 21.6781C35.2273 22.14 35.5134 22.7725 35.5134 23.4703C35.5134 24.1681 35.2273 24.8056 34.7704 25.2625C34.3136 25.7193 33.6761 26.0054 32.9783 26.0054C32.2805 26.0054 31.6429 25.7243 31.1861 25.2625C30.9401 25.0165 30.7494 24.7253 30.6188 24.399H26.668H22.4311C22.0897 24.399 21.7885 24.2133 21.6279 23.9372L19.9662 21.0657H12.416C11.904 21.0657 11.4873 20.649 11.4873 20.137C11.4873 19.6249 11.904 19.2083 12.416 19.2083H20.4983C20.8648 19.2083 21.1861 19.4241 21.3367 19.7303L22.9632 22.5466H26.663H30.6138C30.7443 22.2203 30.9351 21.9291 31.1811 21.6832C31.6379 21.2263 32.2755 20.9402 32.9732 20.9402L32.9783 20.9352Z" fill="#638161"/>
<path fill-rule="evenodd" clip-rule="evenodd" d="M31.1257 15.654C31.0052 15.5336 30.8345 15.4583 30.6488 15.4583C30.463 15.4583 30.2923 15.5336 30.1719 15.654C30.0514 15.7745 29.9761 15.9452 29.9761 16.1309C29.9761 16.3167 30.0514 16.4874 30.1719 16.6078C30.2923 16.7283 30.463 16.8036 30.6488 16.8036C30.8345 16.8036 31.0052 16.7283 31.1257 16.6078C31.2462 16.4874 31.3215 16.3167 31.3215 16.1309C31.3215 15.9452 31.2462 15.7745 31.1257 15.654Z" fill="black"/>
<path fill-rule="evenodd" clip-rule="evenodd" d="M30.6538 13.5958C31.3516 13.5958 31.9892 13.882 32.446 14.3388C32.9028 14.7956 33.189 15.4332 33.189 16.131C33.189 16.8288 32.9028 17.4663 32.446 17.9231C31.9892 18.38 31.3516 18.6661 30.6538 18.6661C29.956 18.6661 29.3185 18.385 28.8617 17.9231C28.6157 17.6772 28.4249 17.386 28.2944 17.0597H12.4209C11.9089 17.0597 11.4922 16.643 11.4922 16.131C11.4922 15.6189 11.9089 15.2023 12.4209 15.2023H28.2944C28.4249 14.8759 28.6157 14.5848 28.8617 14.3388C29.3185 13.882 29.956 13.5958 30.6538 13.5958Z" fill="#638161"/>
<path d="M9.7048 46.0406C9.14758 46.0406 8.62549 45.8247 8.2289 45.4282C7.83231 45.0316 7.61645 44.5095 7.61645 43.9523V42.1752C7.61645 41.6179 7.83231 41.0958 8.2289 40.6992C8.62549 40.3027 9.14758 40.0868 9.7048 40.0868H15.995V35.5737H3.1787C2.64155 35.5737 2.13452 35.3729 1.74798 35.0015C1.34637 34.6199 1.12549 34.1129 1.12549 33.5707V3.13399C1.12549 2.59182 1.34637 2.0848 1.74798 1.70327C2.13452 1.3368 2.64155 1.13098 3.1787 1.13098H43.8263C44.3634 1.13098 44.8705 1.33178 45.257 1.70327C45.6586 2.0848 45.8795 2.59182 45.8795 3.13399V33.5707C45.8795 34.1129 45.6586 34.6199 45.257 35.0015C44.8705 35.3679 44.3634 35.5737 43.8263 35.5737H30.3223V40.0868H36.6124C37.1697 40.0868 37.6917 40.3027 38.0883 40.6992C38.4849 41.0958 38.7008 41.6179 38.7008 42.1752V43.9523C38.7008 44.5095 38.4849 45.0316 38.0883 45.4282C37.6917 45.8247 37.1697 46.0406 36.6124 46.0406H9.7048ZM9.7299 43.9523L36.6074 43.9272L36.5823 42.1752L9.72488 42.2003V43.9523H9.7299ZM28.2088 40.0868V35.5737H18.1084V40.0868H28.2088ZM43.766 33.4603V30.8599H3.23894V33.4603H43.766ZM43.766 28.7515V3.22937L3.23894 3.24443V28.7515H43.766Z" fill="#AEBAA9"/>
<path d="M43.8263 1.25602C44.3434 1.25602 44.8203 1.46185 45.1717 1.79317C45.5331 2.13454 45.754 2.61145 45.754 3.13353V33.5703C45.754 34.0924 45.5281 34.5693 45.1717 34.9106C44.8253 35.242 44.3484 35.4478 43.8263 35.4478H30.1968V40.2118H36.6125C37.1546 40.2118 37.6416 40.4327 37.998 40.7892C38.3544 41.1456 38.5753 41.6325 38.5753 42.1747V43.9518C38.5753 44.494 38.3544 44.9809 37.998 45.3373C37.6416 45.6938 37.1546 45.9147 36.6125 45.9147H9.70482C9.16265 45.9147 8.6757 45.6938 8.31928 45.3373C7.96285 44.9809 7.74197 44.494 7.74197 43.9518V42.1747C7.74197 41.6325 7.96285 41.1456 8.31928 40.7892C8.6757 40.4327 9.16265 40.2118 9.70482 40.2118H16.1205V35.4478H3.17871C2.66165 35.4478 2.18474 35.242 1.83333 34.9106C1.47189 34.5693 1.251 34.0924 1.251 33.5703V3.13353C1.251 2.61145 1.47189 2.13454 1.83333 1.79317C2.17972 1.46185 2.65663 1.25602 3.17871 1.25602H43.8263ZM3.11345 3.13855V28.8765H43.8916V3.13353C43.8765 3.11847 43.8564 3.11345 43.8263 3.11345H3.17871C3.14859 3.11345 3.12851 3.12349 3.11345 3.13353M3.11345 33.5703C3.12851 33.5803 3.14859 33.5904 3.17871 33.5904H43.8263C43.8564 33.5904 43.8765 33.5803 43.8916 33.5703V30.739H3.11345V33.5753M17.9829 40.2118H28.3343V35.4478H17.9829V40.2118ZM9.70482 44.0522H36.6074C36.6325 44.0522 36.6576 44.0422 36.6777 44.0221C36.6978 44.002 36.7078 43.9769 36.7078 43.9518V42.1747C36.7078 42.1496 36.6978 42.1245 36.6777 42.1044C36.6576 42.0843 36.6325 42.0743 36.6074 42.0743H9.70482C9.67972 42.0743 9.65462 42.0843 9.63454 42.1044C9.61446 42.1245 9.60442 42.1496 9.60442 42.1747V43.9518C9.60442 43.9769 9.61446 44.002 9.63454 44.0221C9.65462 44.0422 9.67972 44.0522 9.70482 44.0522ZM43.8263 1.00502H3.17871C2.61145 1.00502 2.0743 1.22088 1.66265 1.61245C1.23594 2.01908 1 2.56124 1 3.13855V33.5753C1 34.1526 1.23594 34.6948 1.66265 35.1014C2.0743 35.493 2.61145 35.7088 3.17871 35.7088H15.8695V39.9709H9.70482C9.11747 39.9709 8.56024 40.2018 8.14357 40.6185C7.72691 41.0351 7.49598 41.5924 7.49598 42.1797V43.9568C7.49598 44.5442 7.72691 45.1014 8.14357 45.5181C8.56024 45.9347 9.11747 46.1657 9.70482 46.1657H36.6074C37.1948 46.1657 37.752 45.9347 38.1687 45.5181C38.5853 45.1014 38.8163 44.5442 38.8163 43.9568V42.1797C38.8163 41.5924 38.5853 41.0351 38.1687 40.6185C37.752 40.2018 37.1948 39.9709 36.6074 39.9709H30.4428V35.7088H43.8213C44.3886 35.7088 44.9257 35.493 45.3373 35.1014C45.7641 34.6948 46 34.1526 46 33.5753V3.13353C46 2.55622 45.7641 2.01406 45.3373 1.60743C44.9257 1.21586 44.3886 1 43.8213 1L43.8263 1.00502ZM3.36446 3.36948H43.6406V28.6255H3.36446V3.36948ZM3.36446 30.9849H43.6406V33.3343H3.36446V30.9849ZM18.2339 35.6988H28.0833V39.9608H18.2339V35.6988ZM9.85542 42.3253H36.4568V43.8012H9.85542V42.3253Z" fill="#AEBAA9"/>
</svg>
