<svg width="62" height="50" viewBox="0 0 62 50" fill="none" xmlns="http://www.w3.org/2000/svg">
<rect width="62" height="50" fill="white"/>
<path d="M41 35.2999V36.2999H22V35.2999H41Z" fill="#AEBAA9"/>
<circle cx="31" cy="21" r="9" fill="#FFEE05"/>
<path d="M30.9985 38.9964C26.665 38.9964 22.3316 38.9964 17.9981 38.9964C16.1591 38.9964 15.0007 37.8407 15.0007 36.0091C15.0007 31.1512 14.9991 26.2934 15.0007 21.4371C15.0007 19.646 16.1717 18.4872 17.9745 18.4841C18.817 18.4825 19.6627 18.4592 20.5036 18.495C20.9138 18.5121 21.0631 18.3673 21.2014 17.9966C22.7261 13.9206 25.6952 11.561 30.0318 11.0641C34.7236 10.5252 39.1985 13.4331 40.7531 17.8875C40.9181 18.3579 41.1209 18.5183 41.6128 18.495C42.4742 18.4545 43.3387 18.4778 44.2 18.4856C45.7687 18.4996 46.9931 19.7036 46.9947 21.2627C47.0025 26.2373 47.001 31.2104 46.9947 36.1851C46.9931 37.808 45.7734 38.9964 44.1167 38.9979C39.744 39.0026 35.3712 38.9979 30.9985 38.9979V38.9964ZM20.6403 20.4123C20.5633 20.3811 20.5287 20.3546 20.4941 20.3531C19.7098 20.3468 18.9271 20.3406 18.1427 20.3422C17.2059 20.3437 16.8806 20.6708 16.879 21.6115C16.8774 26.3697 16.8774 31.1279 16.879 35.8845C16.879 36.8096 17.2138 37.132 18.1647 37.132C26.7295 37.132 35.2942 37.132 43.8574 37.132C44.7894 37.132 45.1164 36.7987 45.1179 35.858C45.1195 33.0997 45.1179 30.3429 45.1179 27.5846C45.1179 25.5645 45.1211 23.546 45.1179 21.5259C45.1179 20.8406 44.8507 20.4014 44.2959 20.3718C43.3261 20.3188 42.3516 20.3577 41.3755 20.3577C41.9586 26.4974 36.756 31.8661 30.4263 31.5328C25.0146 31.2478 20.2065 26.5971 20.6403 20.4107V20.4123ZM22.528 21.2751C22.5469 25.9149 26.3727 29.6856 31.0409 29.6669C35.6793 29.6482 39.4752 25.8557 39.4673 21.2486C39.4595 16.6384 35.5976 12.8553 30.9262 12.8833C26.3287 12.9098 22.5092 16.7272 22.5265 21.2767L22.528 21.2751Z" fill="#AEBAA9"/>
<path d="M15 17.447C14.9866 17.9527 14.7211 18.2671 14.2585 18.3854C11.6299 19.056 9.98494 20.6635 9.10818 23.0195C9.0681 23.1284 9.01967 23.2358 8.96957 23.3431C8.77919 23.7493 8.47858 24.0076 7.9709 23.9998C7.49327 23.992 7.20269 23.7446 7.02734 23.3587C6.85699 22.9852 6.70836 22.6024 6.53468 22.2305C5.66293 20.3663 4.19165 19.1152 2.10747 18.4958C1.98889 18.46 1.86865 18.432 1.75008 18.3931C1.29751 18.2453 1.00859 17.9714 1.00024 17.4999C0.990223 17.0035 1.29083 16.7327 1.76344 16.5554C2.47153 16.2877 3.20634 16.0496 3.85931 15.6886C5.07175 15.0179 5.92512 14.022 6.4946 12.8207C6.69667 12.3958 6.80856 11.9212 7.08412 11.5462C7.27951 11.2817 7.67864 11.0016 7.98927 11C8.29989 10.9985 8.67397 11.2832 8.90611 11.5353C9.12488 11.7718 9.19836 12.1266 9.32695 12.4332C10.1987 14.5246 11.7969 15.8847 14.0949 16.5273C14.6326 16.6783 14.9766 16.9366 15 17.4486V17.447ZM7.99428 20.4067C8.99295 19.4513 10.0768 18.4134 11.0504 17.4828C10.0467 16.518 8.97625 15.4879 7.99929 14.548C7.00396 15.5003 5.92012 16.5398 4.9465 17.4735C5.95018 18.4398 7.02233 19.4715 7.99428 20.4067Z" fill="#AEBAA9"/>
<path d="M53.7358 24C53.5816 23.8667 53.2396 23.659 53.0351 23.3692C52.8021 23.0359 52.6998 22.6252 52.5255 22.2547C51.6454 20.3746 50.1567 19.116 48.0377 18.4991C47.8784 18.4526 47.6655 18.4464 47.575 18.3456C47.3386 18.0821 46.9983 17.7768 47 17.49C47.0017 17.2033 47.3085 16.8421 47.5901 16.6515C47.8935 16.4453 48.3344 16.4205 48.6965 16.2779C50.4434 15.5882 51.7124 14.4427 52.4802 12.8307C52.6562 12.4603 52.8205 12.0852 52.9798 11.7085C53.1642 11.2761 53.4609 10.9924 54.0007 11.0002C54.5103 11.0079 54.797 11.2807 54.973 11.6899C55.1273 12.048 55.2781 12.4076 55.4441 12.761C56.3192 14.6194 57.7995 15.8625 59.8883 16.481C60.0073 16.5166 60.128 16.5461 60.247 16.5833C60.703 16.7305 60.9914 17.0018 60.9997 17.4714C61.0098 17.9674 60.7231 18.2774 60.232 18.4045C59.1289 18.6882 58.1415 19.1625 57.2731 19.8538C56.1432 20.7543 55.5078 21.9385 55.0066 23.2002C54.8272 23.6528 54.5489 23.9768 53.7308 24H53.7358ZM57.0417 17.5009C56.0275 16.5306 54.9546 15.5029 53.9856 14.576C52.9764 15.5339 51.8884 16.5662 50.9178 17.4869C51.9337 18.4603 53.0083 19.488 53.9722 20.4118C54.973 19.4616 56.0526 18.4386 57.0417 17.5009Z" fill="#AEBAA9"/>
<path d="M26.9588 24.8293C27.0627 24.1802 27.1701 23.424 27.3076 22.6739C27.3781 22.2866 27.3076 21.9927 26.9554 21.7202C26.3969 21.2901 25.8434 20.8416 25.3771 20.3333C25.1406 20.0746 24.931 19.62 25.0215 19.3368C25.1104 19.0566 25.5566 18.778 25.9071 18.677C26.6585 18.4612 27.4603 18.3877 28.2217 18.1963C28.4817 18.132 28.7752 17.9315 28.901 17.7187C29.2985 17.0513 29.6239 16.3471 29.9744 15.6567C30.1723 15.2649 30.4608 14.997 30.9724 15C31.4839 15.0031 31.7657 15.2771 31.9636 15.6675C32.2957 16.3242 32.6513 16.9717 32.965 17.6361C33.1293 17.9836 33.344 18.1703 33.7801 18.2285C34.5617 18.3326 35.3366 18.4964 36.1064 18.6678C37.049 18.8791 37.2939 19.6827 36.6096 20.3134C36.0662 20.8155 35.464 21.2656 34.9441 21.7861C34.7512 21.9789 34.6154 22.3111 34.6338 22.5698C34.6791 23.2327 34.825 23.8894 34.9323 24.5492C35.0112 25.0329 35.0716 25.5151 34.5449 25.8396C34.0484 26.1458 33.5973 25.9621 33.1461 25.7172C32.5909 25.4141 32.0039 25.1569 31.4672 24.8278C31.0948 24.5997 30.8063 24.6379 30.4508 24.84C29.8319 25.1921 29.1928 25.5197 28.5505 25.8335C27.6867 26.256 26.9219 25.8167 26.9571 24.8278L26.9588 24.8293ZM32.6412 23.2847C32.1884 21.9529 32.5155 20.9288 33.8304 20.142C32.3276 20.0823 31.3431 19.5297 30.964 18.1428C30.6 19.5572 29.5501 20.0593 28.0942 20.1726C29.4998 20.915 29.6725 21.9881 29.3052 23.2985C30.4424 22.4321 31.499 22.4198 32.6429 23.2847H32.6412Z" fill="#638161"/>
</svg>
