<svg width="62" height="50" viewBox="0 0 62 50" fill="none" xmlns="http://www.w3.org/2000/svg">
<path d="M50.3213 30.8947H12.6831V33.886H50.3213V30.8947Z" fill="#FFEE05"/>
<path fill-rule="evenodd" clip-rule="evenodd" d="M40.5699 10.82C40.4601 10.7102 40.3046 10.6416 40.1354 10.6416C39.9661 10.6416 39.8106 10.7102 39.7008 10.82C39.5911 10.9298 39.5225 11.0853 39.5225 11.2545C39.5225 11.4237 39.5911 11.5792 39.7008 11.689C39.8106 11.7988 39.9661 11.8674 40.1354 11.8674C40.3046 11.8674 40.4601 11.7988 40.5699 11.689C40.6796 11.5792 40.7483 11.4237 40.7483 11.2545C40.7483 11.0853 40.6796 10.9298 40.5699 10.82Z" fill="black"/>
<path fill-rule="evenodd" clip-rule="evenodd" d="M40.1358 8.9447C40.7716 8.9447 41.3525 9.20541 41.7687 9.62163C42.1849 10.0379 42.4456 10.6187 42.4456 11.2545C42.4456 11.8903 42.1849 12.4711 41.7687 12.8874C41.3525 13.3036 40.7716 13.5643 40.1358 13.5643C39.5001 13.5643 38.9192 13.3036 38.503 12.8874C38.2423 12.6267 38.0456 12.3065 37.9312 11.9451H34.3865H31.011L29.5291 14.5111C29.3919 14.7947 29.0991 14.9868 28.7652 14.9868H21.4013C20.9348 14.9868 20.5552 14.6071 20.5552 14.1406C20.5552 13.6741 20.9348 13.2944 21.4013 13.2944H28.2804L29.7944 10.6782C29.9499 10.4083 30.2334 10.2574 30.5262 10.2574H34.3865H38.0547C38.1691 10.0241 38.32 9.80916 38.503 9.62621C38.9192 9.20999 39.5001 8.94928 40.1358 8.94928V8.9447Z" fill="#638161"/>
<path fill-rule="evenodd" clip-rule="evenodd" d="M40.5699 24.0385C40.4601 23.9287 40.3046 23.8601 40.1354 23.8601C39.9661 23.8601 39.8106 23.9287 39.7008 24.0385C39.5911 24.1483 39.5225 24.3038 39.5225 24.473C39.5225 24.6422 39.5911 24.7977 39.7008 24.9075C39.8106 25.0173 39.9661 25.0859 40.1354 25.0859C40.3046 25.0859 40.4601 25.0173 40.5699 24.9075C40.6796 24.7977 40.7483 24.6422 40.7483 24.473C40.7483 24.3038 40.6796 24.1483 40.5699 24.0385Z" fill="black"/>
<path fill-rule="evenodd" clip-rule="evenodd" d="M40.1358 22.1631C40.7716 22.1631 41.3525 22.4193 41.7687 22.8401C42.1849 23.2609 42.4456 23.8372 42.4456 24.4729C42.4456 25.1087 42.1849 25.6896 41.7687 26.1058C41.3525 26.522 40.7716 26.7827 40.1358 26.7827C39.5001 26.7827 38.9192 26.5266 38.503 26.1058C38.2788 25.8817 38.105 25.6164 37.9861 25.3191H34.3865H30.5262C30.2151 25.3191 29.9407 25.1499 29.7944 24.8983L28.2804 22.282H21.4013C20.9348 22.282 20.5552 21.9024 20.5552 21.4359C20.5552 20.9694 20.9348 20.5897 21.4013 20.5897H28.7652C29.0991 20.5897 29.3919 20.7864 29.5291 21.0654L31.011 23.6313H34.3819H37.9815C38.1005 23.334 38.2743 23.0687 38.4984 22.8446C38.9146 22.4284 39.4955 22.1677 40.1313 22.1677L40.1358 22.1631Z" fill="#638161"/>
<path fill-rule="evenodd" clip-rule="evenodd" d="M38.4478 17.3515C38.338 17.2417 38.1825 17.1731 38.0133 17.1731C37.8441 17.1731 37.6885 17.2417 37.5788 17.3515C37.469 17.4612 37.4004 17.6168 37.4004 17.786C37.4004 17.9552 37.469 18.1107 37.5788 18.2205C37.6885 18.3303 37.8441 18.3989 38.0133 18.3989C38.1825 18.3989 38.338 18.3303 38.4478 18.2205C38.5576 18.1107 38.6262 17.9552 38.6262 17.786C38.6262 17.6168 38.5576 17.4612 38.4478 17.3515Z" fill="black"/>
<path fill-rule="evenodd" clip-rule="evenodd" d="M38.018 15.4762C38.6537 15.4762 39.2346 15.7369 39.6508 16.1531C40.067 16.5693 40.3278 17.1502 40.3278 17.786C40.3278 18.4218 40.067 19.0026 39.6508 19.4189C39.2346 19.8351 38.6537 20.0958 38.018 20.0958C37.3822 20.0958 36.8013 19.8396 36.3851 19.4189C36.161 19.1947 35.9872 18.9295 35.8682 18.6322H21.4057C20.9392 18.6322 20.5596 18.2525 20.5596 17.786C20.5596 17.3195 20.9392 16.9398 21.4057 16.9398H35.8682C35.9872 16.6425 36.161 16.3772 36.3851 16.1531C36.8013 15.7369 37.3822 15.4762 38.018 15.4762Z" fill="#638161"/>
<path d="M18.931 45.0371C18.4233 45.0371 17.9476 44.8404 17.5863 44.479C17.2249 44.1177 17.0282 43.642 17.0282 43.1343V41.5152C17.0282 41.0075 17.2249 40.5318 17.5863 40.1705C17.9476 39.8091 18.4233 39.6125 18.931 39.6125H24.662V35.5006H12.985C12.4956 35.5006 12.0336 35.3176 11.6814 34.9792C11.3155 34.6315 11.1143 34.1696 11.1143 33.6756V5.94435C11.1143 5.45038 11.3155 4.98842 11.6814 4.6408C12.0336 4.30691 12.4956 4.11938 12.985 4.11938H50.0194C50.5088 4.11938 50.9708 4.30234 51.323 4.6408C51.6889 4.98842 51.8901 5.45038 51.8901 5.94435V33.6756C51.8901 34.1696 51.6889 34.6315 51.323 34.9792C50.9708 35.313 50.5088 35.5006 50.0194 35.5006H37.7158V39.6125H43.4468C43.9545 39.6125 44.4302 39.8091 44.7915 40.1705C45.1529 40.5318 45.3495 41.0075 45.3495 41.5152V43.1343C45.3495 43.642 45.1529 44.1177 44.7915 44.479C44.4302 44.8404 43.9545 45.0371 43.4468 45.0371H18.931ZM18.9538 43.1343L43.4422 43.1115L43.4194 41.5152L18.9493 41.5381V43.1343H18.9538ZM35.7902 39.6125V35.5006H26.5876V39.6125H35.7902ZM49.9645 33.575V31.2057H13.0398V33.575H49.9645ZM49.9645 29.2847V6.03125L13.0398 6.04498V29.2847H49.9645Z" fill="#AEBAA9"/>
<path d="M50.0195 4.23327C50.4906 4.23327 50.9251 4.42079 51.2453 4.72267C51.5746 5.03369 51.7759 5.46821 51.7759 5.94389V33.6751C51.7759 34.1508 51.5701 34.5853 51.2453 34.8964C50.9297 35.1982 50.4952 35.3858 50.0195 35.3858H37.6015V39.7263H43.4469C43.9409 39.7263 44.3845 39.9276 44.7093 40.2523C45.034 40.5771 45.2353 41.0207 45.2353 41.5147V43.1339C45.2353 43.6278 45.034 44.0715 44.7093 44.3962C44.3845 44.721 43.9409 44.9222 43.4469 44.9222H18.9311C18.4371 44.9222 17.9934 44.721 17.6687 44.3962C17.3439 44.0715 17.1427 43.6278 17.1427 43.1339V41.5147C17.1427 41.0207 17.3439 40.5771 17.6687 40.2523C17.9934 39.9276 18.4371 39.7263 18.9311 39.7263H24.7764V35.3858H12.9851C12.5139 35.3858 12.0794 35.1982 11.7593 34.8964C11.4299 34.5853 11.2287 34.1508 11.2287 33.6751V5.94389C11.2287 5.46821 11.4299 5.03369 11.7593 4.72267C12.0749 4.42079 12.5094 4.23327 12.9851 4.23327H50.0195ZM12.9256 5.94846V29.3986H50.079V5.94389C50.0653 5.93016 50.047 5.92559 50.0195 5.92559H12.9851C12.9576 5.92559 12.9393 5.93474 12.9256 5.94389M12.9256 33.6751C12.9393 33.6843 12.9576 33.6934 12.9851 33.6934H50.0195C50.047 33.6934 50.0653 33.6843 50.079 33.6751V31.0955H12.9256V33.6797M26.4733 39.7263H35.9046V35.3858H26.4733V39.7263ZM18.9311 43.2253H43.4423C43.4652 43.2253 43.4881 43.2162 43.5064 43.1979C43.5247 43.1796 43.5338 43.1567 43.5338 43.1339V41.5147C43.5338 41.4919 43.5247 41.469 43.5064 41.4507C43.4881 41.4324 43.4652 41.4232 43.4423 41.4232H18.9311C18.9082 41.4232 18.8853 41.4324 18.867 41.4507C18.8487 41.469 18.8396 41.4919 18.8396 41.5147V43.1339C18.8396 43.1567 18.8487 43.1796 18.867 43.1979C18.8853 43.2162 18.9082 43.2253 18.9311 43.2253ZM50.0195 4.00457H12.9851C12.4682 4.00457 11.9788 4.20125 11.6037 4.55801C11.215 4.92849 11 5.42247 11 5.94846V33.6797C11 34.2057 11.215 34.6997 11.6037 35.0702C11.9788 35.4269 12.4682 35.6236 12.9851 35.6236H24.5477V39.5068H18.9311C18.3959 39.5068 17.8882 39.7172 17.5086 40.0968C17.129 40.4765 16.9186 40.9842 16.9186 41.5193V43.1384C16.9186 43.6736 17.129 44.1813 17.5086 44.5609C17.8882 44.9405 18.3959 45.1509 18.9311 45.1509H43.4423C43.9775 45.1509 44.4852 44.9405 44.8648 44.5609C45.2444 44.1813 45.4548 43.6736 45.4548 43.1384V41.5193C45.4548 40.9842 45.2444 40.4765 44.8648 40.0968C44.4852 39.7172 43.9775 39.5068 43.4423 39.5068H37.8256V35.6236H50.0149C50.5318 35.6236 51.0212 35.4269 51.3963 35.0702C51.785 34.6997 52 34.2057 52 33.6797V5.94389C52 5.41789 51.785 4.92392 51.3963 4.55344C51.0212 4.19668 50.5318 4 50.0149 4L50.0195 4.00457ZM13.1543 6.15886H49.8503V29.1699H13.1543V6.15886ZM13.1543 31.3196H49.8503V33.4602H13.1543V31.3196ZM26.702 35.6145H35.6759V39.4977H26.702V35.6145ZM19.0683 41.6519H43.3051V42.9967H19.0683V41.6519Z" fill="#AEBAA9"/>
</svg>
