<svg xmlns="http://www.w3.org/2000/svg" width="53" height="54" viewBox="0 0 53 54">
  <g id="Group_138" data-name="Group 138" transform="translate(-271 -3342)">
    <ellipse id="Ellipse_27" data-name="Ellipse 27" cx="26.5" cy="27" rx="26.5" ry="27" transform="translate(271 3342)" fill="#606060"/>
    <g id="Group_137" data-name="Group 137" transform="translate(407.215 -11111.637)">
      <path id="Path_355" data-name="Path 355" d="M298.785,225.68a3.1,3.1,0,1,0,3.1,3.1,3.137,3.137,0,0,0-3.1-3.1Zm0,4.289a1.184,1.184,0,1,1,1.184-1.184,1.216,1.216,0,0,1-1.184,1.184Z" transform="translate(-408.499 14251.853)" fill="#fff"/>
      <path id="Path_356" data-name="Path 356" d="M121.988,30.61a.993.993,0,0,0-.96-.96h-3.585V26.321h-1.921V29.65h-1.857V26.321h-1.921V29.65h-1.856V26.321h-1.921V29.65h-1.857V26.321h-1.921V29.65h-3.585a.993.993,0,0,0-.96.96v3.585H96.317v1.921h3.329v1.857H96.317v1.921h3.329v1.857H96.317V43.67h3.329v1.857H96.317v1.921h3.329v3.585a.993.993,0,0,0,.96.96h3.585v3.329h1.921V51.992h1.857v3.329h1.921V51.992h1.857v3.329h1.921V51.992h1.857v3.329h1.921V51.992h3.585a.993.993,0,0,0,.96-.96V47.447h3.329V45.526h-3.329V43.67h3.329V41.749h-3.329V39.893h3.329V37.972h-3.329V36.116h3.329V34.195h-3.329Zm-3.681,11.107a.928.928,0,0,1-.8.928l-.7.128a7.418,7.418,0,0,1-.352.9l.416.608a.929.929,0,0,1-.128,1.216l-1.248,1.248a.929.929,0,0,1-1.216.128l-.608-.416-.9.352-.128.7a.928.928,0,0,1-.928.8h-1.792a.928.928,0,0,1-.928-.8l-.128-.7-.9-.352-.608.416a.929.929,0,0,1-1.216-.128L104.9,45.494a.929.929,0,0,1-.128-1.216l.416-.608a7.416,7.416,0,0,1-.352-.9l-.7-.128a.928.928,0,0,1-.8-.928V39.925a.928.928,0,0,1,.8-.928l.7-.128a7.416,7.416,0,0,1,.352-.9l-.416-.608a.929.929,0,0,1,.128-1.216l1.248-1.248a.929.929,0,0,1,1.216-.128l.608.416.9-.352.128-.7a.928.928,0,0,1,.928-.8h1.792a.928.928,0,0,1,.928.8l.128.7.9.352.608-.416a.929.929,0,0,1,1.216.128l1.248,1.248a.929.929,0,0,1,.128,1.216l-.416.608a7.415,7.415,0,0,1,.352.9l.7.128a.928.928,0,0,1,.8.928Z" transform="translate(-220.531 14439.816)" fill="#fff"/>
    </g>
  </g>
</svg>
