<svg width="62" height="50" viewBox="0 0 62 50" fill="none" xmlns="http://www.w3.org/2000/svg">
<rect width="62" height="50" fill="white"/>
<path d="M34.5 10L16 21.5H42.5L36 10H34.5Z" fill="#FFEE05"/>
<path d="M30.9524 41.9999C25.7855 41.9999 20.6291 41.9999 15.4622 41.9999C14.2827 41.9999 13.3642 41.3046 13.0823 40.1983C13.0197 39.9349 13.0093 39.661 13.0093 39.3976C13.0093 38.0385 13.0093 36.69 13.0093 35.3309C13.0093 34.3721 13.1763 34.193 14.1053 34.1087C15.2117 34.0139 16.2347 33.1816 16.5478 32.107C16.9966 30.5793 15.9841 28.9252 14.3975 28.6197C14.2097 28.5776 14.0113 28.5565 13.813 28.5459C13.312 28.5143 13.0197 28.2404 13.0093 27.7242C12.9884 27.071 13.0093 26.4177 13.0093 25.7645C13.0093 24.9533 13.0302 24.1421 13.0093 23.3203C12.9675 22.1824 13.479 21.3923 14.4184 20.8339C19.8254 17.6205 25.2323 14.3966 30.6393 11.1727C31.6413 10.5827 32.633 9.9822 33.635 9.39221C34.8563 8.66525 36.1506 8.96025 36.9021 10.1824C38.7079 13.1113 40.4929 16.0507 42.2882 18.9796C42.5805 19.4643 42.8832 19.9384 43.165 20.423C43.2798 20.6126 43.4051 20.6864 43.6347 20.6864C44.5637 20.6758 45.4927 20.7285 46.4217 20.6653C47.81 20.581 49.0104 21.6662 48.9999 23.2781C48.9686 27.4292 48.9895 31.5802 48.9895 35.7418C48.9895 36.9323 48.9582 38.1333 48.9895 39.3239C49.0521 41.0833 47.7265 42.0104 46.3591 41.9999C41.234 41.9578 36.1088 41.9788 30.9733 41.9788L30.9524 41.9999ZM22.4036 40.3985C22.581 40.3985 22.6959 40.3985 22.8211 40.3985C30.6706 40.3985 38.5201 40.3985 46.3695 40.3985C47.1733 40.3985 47.4029 40.1667 47.4029 39.3344C47.4029 34.0139 47.4029 28.6829 47.4029 23.3624C47.4029 22.5301 47.1628 22.2773 46.3382 22.2773C38.4992 22.2773 30.6601 22.2773 22.8211 22.2773H22.4453C22.4245 22.351 22.4036 22.3721 22.4036 22.4037C22.4036 22.7408 22.4036 23.0674 22.4036 23.4046C22.4036 23.984 22.08 24.3528 21.5894 24.3317C21.1197 24.3212 20.817 23.963 20.817 23.4046C20.817 23.0358 20.817 22.6776 20.817 22.3299C20.7335 22.2983 20.7126 22.2878 20.6917 22.2878C18.9381 22.2878 17.1741 22.2773 15.4205 22.2878C14.8673 22.2878 14.5854 22.6039 14.5854 23.1833C14.5854 24.4476 14.5854 25.7224 14.5854 26.9867C14.5854 27.2395 14.6794 27.3027 14.8986 27.3765C15.3579 27.5451 15.8171 27.7136 16.2347 27.9665C17.7377 28.8936 18.4475 30.5793 18.0405 32.2439C17.6334 33.8875 16.506 34.8146 14.9508 35.2887C14.6898 35.373 14.5854 35.4678 14.5854 35.7523C14.6063 36.9744 14.5854 38.1966 14.5854 39.4082C14.5854 40.1246 14.8464 40.388 15.5562 40.388C17.1845 40.388 18.8024 40.388 20.4308 40.388C20.5456 40.388 20.6709 40.3774 20.8274 40.3669C20.8274 40.0298 20.8274 39.7137 20.8274 39.3976C20.8274 38.8603 21.1406 38.5232 21.6103 38.5232C22.08 38.5232 22.3932 38.8498 22.414 39.3871C22.414 39.7031 22.414 40.0192 22.414 40.3985H22.4036ZM17.8317 20.6758H41.4323C41.3801 20.5705 41.3383 20.4757 41.2966 20.4019C39.3969 17.2939 37.4971 14.1754 35.5974 11.0674C35.2947 10.5722 34.9085 10.4879 34.3866 10.804C28.99 14.0173 23.5935 17.2307 18.197 20.4441C18.0926 20.5073 17.9987 20.5705 17.8421 20.6758H17.8317Z" fill="#AEBAA9"/>
<path d="M28.8165 33.8769C29.1236 32.9394 28.6894 32.1531 27.9693 31.4474C27.7046 31.1853 27.4928 30.8728 27.2598 30.5906C26.7833 30.0059 26.9739 29.4615 27.7363 29.2498C28.4776 29.0381 29.2295 28.8365 29.9707 28.6046C30.1401 28.5542 30.3202 28.4232 30.4261 28.2821C30.8814 27.6772 31.305 27.0623 31.7498 26.4473C32.1733 25.8526 32.7875 25.8526 33.2217 26.4373C33.677 27.0522 34.1218 27.6772 34.5877 28.2921C34.6831 28.4232 34.8525 28.5341 35.0113 28.5845C35.742 28.7962 36.4833 28.9877 37.2139 29.1893C38.0399 29.4111 38.2305 29.9454 37.7117 30.6006C37.2669 31.1652 36.801 31.7196 36.3668 32.2942C36.2397 32.4555 36.155 32.6975 36.155 32.8991C36.155 33.6451 36.1974 34.381 36.2185 35.1269C36.2291 35.8024 35.742 36.135 35.0643 35.9132C34.3124 35.6713 33.5712 35.4092 32.8193 35.1773C32.6499 35.1269 32.4275 35.1269 32.2581 35.1773C31.5062 35.4092 30.7649 35.6814 30.0237 35.9233C29.293 36.1653 28.8059 35.8225 28.827 35.0665C28.827 34.7035 28.827 34.3406 28.827 33.887L28.8165 33.8769ZM32.4804 28.1006C32.131 28.5946 31.8345 29.0583 31.4744 29.4817C31.305 29.6833 31.0614 29.8547 30.8073 29.9353C30.2884 30.1268 29.7377 30.2478 29.1447 30.4192C29.5154 30.8728 29.886 31.2761 30.1825 31.7196C30.3308 31.9414 30.4367 32.2237 30.4578 32.4858C30.5002 33.02 30.4684 33.5644 30.4684 34.1289C31.0085 33.9475 31.5274 33.7862 32.0463 33.5947C32.3639 33.4737 32.6605 33.4737 32.9781 33.5947C33.497 33.7761 34.0159 33.9374 34.5772 34.1289C34.556 33.5644 34.4924 33.0402 34.5136 32.5261C34.5242 32.2539 34.6301 31.9515 34.7889 31.7196C35.096 31.266 35.4667 30.8527 35.8267 30.399C35.2443 30.2377 34.6936 30.1168 34.1642 29.9252C33.8994 29.8345 33.6453 29.653 33.4758 29.4514C33.1264 29.0482 32.8299 28.5946 32.4698 28.1006H32.4804Z" fill="#638161"/>
<path d="M22.5996 27.9224C22.5996 28.4335 22.5996 28.9335 22.5996 29.4446C22.5996 30.0335 22.1917 30.4001 21.5996 30.4001C20.9943 30.4001 20.6128 30.0335 20.5996 29.4446C20.5996 28.4224 20.5996 27.389 20.5996 26.3668C20.5996 25.789 21.0207 25.4001 21.5996 25.4001C22.1917 25.4001 22.5865 25.789 22.5996 26.3668C22.5996 26.889 22.5996 27.4001 22.5996 27.9224Z" fill="#AEBAA9"/>
<path d="M20.5996 34.4268C20.5996 33.7868 20.5996 33.1468 20.5996 32.5201C20.5996 31.8535 21.0075 31.4135 21.5865 31.4001C22.1786 31.4001 22.5996 31.8401 22.5996 32.5335C22.5996 33.7735 22.5996 35.0268 22.5996 36.2668C22.5996 36.9335 22.1786 37.3868 21.6128 37.4001C21.0338 37.4001 20.5996 36.9335 20.5996 36.2535C20.5996 35.6535 20.5996 35.0401 20.5996 34.4401V34.4268Z" fill="#AEBAA9"/>
</svg>
