<svg xmlns="http://www.w3.org/2000/svg" xmlns:xlink="http://www.w3.org/1999/xlink" width="54" height="54" viewBox="0 0 54 54">
  <defs>
    <linearGradient id="linear-gradient" x1="0.145" y1="0.112" x2="0.922" y2="0.876" gradientUnits="objectBoundingBox">
      <stop offset="0" stop-color="#fde159"/>
      <stop offset="1" stop-color="#fe0817"/>
    </linearGradient>
  </defs>
  <g id="Group_141" data-name="Group 141" transform="translate(-738 -3342)">
    <g id="Group_647" data-name="Group 647">
      <circle id="Ellipse_8698" data-name="Ellipse 8698" cx="27" cy="27" r="27" transform="translate(738 3342)" fill="url(#linear-gradient)"/>
      <g id="Group_140" data-name="Group 140" transform="translate(1138.546 -10823.35)">
        <path id="Path_357" data-name="Path 357" d="M411.153,330.75a4.281,4.281,0,1,0,4.281,4.281A4.288,4.288,0,0,0,411.153,330.75Zm0,6.925a2.645,2.645,0,1,1,2.645-2.645A2.647,2.647,0,0,1,411.153,337.675Z" transform="translate(-776.787 13864.495)" fill="#fff"/>
        <path id="Path_358" data-name="Path 358" d="M127.384,324.3h-3.136v-5.371h3.136Z" transform="translate(-511.776 13875.575)" fill="#fff"/>
        <path id="Path_359" data-name="Path 359" d="M302.383,240.6h-3.136V229.69h3.136Z" transform="translate(-675.87 13959.256)" fill="#fff"/>
        <path id="Path_360" data-name="Path 360" d="M214.123,283.673h-3.245V275.63h3.245Z" transform="translate(-593.008 13916.18)" fill="#fff"/>
        <path id="Path_361" data-name="Path 361" d="M128.426,235.422a1.554,1.554,0,1,1,1.554-1.554A1.571,1.571,0,0,1,128.426,235.422Z" transform="translate(-514.237 13956.795)" fill="#fff"/>
        <path id="Path_362" data-name="Path 362" d="M214.176,171.542a1.554,1.554,0,1,1,1.554-1.554A1.553,1.553,0,0,1,214.176,171.542Z" transform="translate(-594.643 14016.694)" fill="#fff"/>
        <path id="Path_363" data-name="Path 363" d="M301.676,166.732a1.554,1.554,0,1,1,1.554-1.554A1.571,1.571,0,0,1,301.676,166.732Z" transform="translate(-676.69 14021.205)" fill="#fff"/>
        <path id="Path_364" data-name="Path 364" d="M386.116,100.672a1.554,1.554,0,1,1,1.554-1.554A1.571,1.571,0,0,1,386.116,100.672Z" transform="translate(-755.867 14083.147)" fill="#fff"/>
        <path id="Path_365" data-name="Path 365" d="M157.83,190.81l3.6-3.611.888.885-3.6,3.611Z" transform="translate(-543.266 13999.1)" fill="#fff"/>
        <path id="Path_366" data-name="Path 366" d="M252.88,180.25h3.435V181.5H252.88Z" transform="translate(-632.392 14005.615)" fill="#fff"/>
        <path id="Path_367" data-name="Path 367" d="M334.95,127.009l3.2-3.085.871.9-3.2,3.085Z" transform="translate(-709.347 14058.432)" fill="#fff"/>
        <path id="Path_368" data-name="Path 368" d="M512.46,434.87l-3.49-3.49a4.961,4.961,0,0,1-2.345,2.318l3.49,3.49a1.7,1.7,0,0,0,1.172.491,1.63,1.63,0,0,0,1.172-.491,1.613,1.613,0,0,0,0-2.318Z" transform="translate(-870.323 13770.136)" fill="#fff"/>
        <path id="Path_369" data-name="Path 369" d="M110.989,51.725H93.13V28.2a.627.627,0,0,0-1.254,0V52.98h19.576a4.94,4.94,0,0,1-.464-1.254Z" transform="translate(-481.422 14148.781)" fill="#fff"/>
        <path id="Path_370" data-name="Path 370" d="M385.353,195.556a4.936,4.936,0,0,1,2.372-4.2V182h-3.163v13.96h.791v-.409Z" transform="translate(-755.867 14003.969)" fill="#fff"/>
      </g>
    </g>
  </g>
</svg>
