<svg xmlns="http://www.w3.org/2000/svg" width="54" height="54" viewBox="0 0 54 54">
  <g id="Group_182" data-name="Group 182" transform="translate(-271 -4395)">
    <g id="Group_145" data-name="Group 145" transform="translate(0 187)">
      <g id="Group_142" data-name="Group 142" transform="translate(271 4208)">
        <ellipse id="Ellipse_27" data-name="Ellipse 27" cx="27" cy="27" rx="27" ry="27" fill="#606060"/>
      </g>
      <g id="Group_143" data-name="Group 143" transform="translate(284.518 4221)">
        <path id="Path_372" data-name="Path 372" d="M109.734,174.745h23.742c.322,0,.644,0,.965,0h.041a1.642,1.642,0,0,0,1.117-.461,1.584,1.584,0,0,0,0-2.234,1.636,1.636,0,0,0-1.117-.461H110.741c-.322,0-.644,0-.965,0h-.041a1.642,1.642,0,0,0-1.117.461,1.584,1.584,0,0,0,0,2.234A1.651,1.651,0,0,0,109.734,174.745Z" transform="translate(-108.148 -163.888)" fill="#fff" stroke="#606060" stroke-width="1.4"/>
        <path id="Path_371" data-name="Path 371" d="M132.978,62.854H111.032q-.1,0-.2-.009l.42.057a1.651,1.651,0,0,1-.366-.1c.126.054.252.107.375.158a1.545,1.545,0,0,1-.319-.189l.319.246a1.589,1.589,0,0,1-.23-.23c.082.107.164.211.246.319a1.544,1.544,0,0,1-.189-.319c.054.126.107.252.158.375a1.5,1.5,0,0,1-.1-.366c.019.139.038.281.057.42a7.011,7.011,0,0,1-.009-.729V41.093q0-.1.009-.2c-.019.139-.038.281-.057.42a1.653,1.653,0,0,1,.1-.366c-.054.126-.107.252-.158.375a1.543,1.543,0,0,1,.189-.319c-.082.107-.164.211-.246.319a1.588,1.588,0,0,1,.23-.23l-.319.246a1.545,1.545,0,0,1,.319-.189c-.126.054-.252.107-.375.158a1.5,1.5,0,0,1,.366-.1l-.42.057a7.01,7.01,0,0,1,.729-.009h21.395q.1,0,.2.009l-.42-.057a1.651,1.651,0,0,1,.366.1c-.126-.054-.252-.107-.375-.158a1.544,1.544,0,0,1,.319.189l-.319-.246a1.587,1.587,0,0,1,.23.23c-.082-.107-.164-.211-.246-.319a1.545,1.545,0,0,1,.189.319c-.054-.126-.107-.252-.158-.375a1.5,1.5,0,0,1,.1.366c-.019-.139-.038-.281-.057-.42a7.007,7.007,0,0,1,.009.729V63.018q0,.1-.009.2c.019-.139.038-.281.057-.42a1.652,1.652,0,0,1-.1.366c.054-.126.107-.252.158-.375a1.545,1.545,0,0,1-.189.319c.082-.107.164-.211.246-.319a1.588,1.588,0,0,1-.23.23l.319-.246a1.544,1.544,0,0,1-.319.189c.126-.054.252-.107.375-.158a1.5,1.5,0,0,1-.366.1l.42-.057a1.655,1.655,0,0,1-.177.009,1.648,1.648,0,0,0-1.117.461,1.578,1.578,0,0,0,1.117,2.694,3.078,3.078,0,0,0,2.035-.814,2.5,2.5,0,0,0,.293-.338,2.473,2.473,0,0,0,.268-.385,3.265,3.265,0,0,0,.36-1.256,2.688,2.688,0,0,0,.009-.319V41.109A3.066,3.066,0,0,0,135.1,39a3.466,3.466,0,0,0-.486-.4,1.772,1.772,0,0,0-.246-.151,3.2,3.2,0,0,0-1.262-.344c-.054,0-.11-.006-.164-.006h-21.78c-.082,0-.164,0-.246,0a2.967,2.967,0,0,0-2.877,2.877c-.016.237,0,.476,0,.713V63.011c0,.054,0,.11.006.164a3.259,3.259,0,0,0,.344,1.262,1.537,1.537,0,0,0,.139.23,3.308,3.308,0,0,0,.41.5,3.059,3.059,0,0,0,2.1.842h21.934a1.642,1.642,0,0,0,1.117-.461,1.584,1.584,0,0,0,0-2.234,1.626,1.626,0,0,0-1.114-.464Z" transform="translate(-108.033 -38.101)" fill="#fff" stroke="#606060" stroke-width="1.4"/>
        <path id="Path_373" data-name="Path 373" d="M468.2,108.3h.316a1.762,1.762,0,0,0,1.117-.461,1.164,1.164,0,0,0,.325-.508,1.192,1.192,0,0,0,.136-.609c-.019-.139-.038-.281-.057-.42a1.594,1.594,0,0,0-.407-.7l-.319-.246a1.566,1.566,0,0,0-.8-.215H468.2a1.761,1.761,0,0,0-1.117.461,1.163,1.163,0,0,0-.325.508,1.192,1.192,0,0,0-.136.609c.019.139.038.281.057.42a1.6,1.6,0,0,0,.407.7l.319.246A1.6,1.6,0,0,0,468.2,108.3Z" transform="translate(-445.938 -101.274)" fill="#fff" stroke="#606060" stroke-width="1.4"/>
        <path id="Path_374" data-name="Path 374" d="M397,108.3h.315a1.762,1.762,0,0,0,1.117-.461,1.162,1.162,0,0,0,.325-.508,1.19,1.19,0,0,0,.136-.609c-.019-.139-.038-.281-.057-.42a1.594,1.594,0,0,0-.407-.7l-.319-.246a1.566,1.566,0,0,0-.8-.215H397a1.762,1.762,0,0,0-1.117.461,1.164,1.164,0,0,0-.325.508,1.191,1.191,0,0,0-.136.609c.019.139.038.281.057.42a1.594,1.594,0,0,0,.407.7l.319.246A1.6,1.6,0,0,0,397,108.3Z" transform="translate(-378.845 -101.274)" fill="#fff" stroke="#606060" stroke-width="1.4"/>
        <path id="Path_375" data-name="Path 375" d="M325.745,108.3h.316a1.762,1.762,0,0,0,1.117-.461,1.164,1.164,0,0,0,.325-.508,1.192,1.192,0,0,0,.136-.609c-.019-.139-.038-.281-.057-.42a1.6,1.6,0,0,0-.407-.7l-.319-.246a1.566,1.566,0,0,0-.8-.215h-.315a1.762,1.762,0,0,0-1.117.461,1.164,1.164,0,0,0-.325.508,1.191,1.191,0,0,0-.136.609c.019.139.038.281.057.42a1.594,1.594,0,0,0,.407.7l.319.246A1.6,1.6,0,0,0,325.745,108.3Z" transform="translate(-311.697 -101.274)" fill="#fff" stroke="#606060" stroke-width="1.4"/>
        <path id="Path_376" data-name="Path 376" d="M206.972,262.76c-.467-.42-.934-.836-1.4-1.256q-1.112-.994-2.221-1.991l-.517-.464v2.231c.467-.42.934-.836,1.4-1.256q1.112-.994,2.221-1.991l.517-.464a1.578,1.578,0,0,0-1.117-2.694,1.738,1.738,0,0,0-1.117.461c-.467.42-.934.836-1.4,1.256q-1.112.994-2.221,1.991l-.517.464a1.575,1.575,0,0,0-.461,1.117,1.6,1.6,0,0,0,.461,1.117c.467.42.934.836,1.4,1.256q1.112.994,2.221,1.991l.517.464a1.657,1.657,0,0,0,1.117.461,1.608,1.608,0,0,0,1.117-.461,1.589,1.589,0,0,0,.461-1.117A1.563,1.563,0,0,0,206.972,262.76Z" transform="translate(-194.823 -242.368)" fill="#fff"/>
        <path id="Path_377" data-name="Path 377" d="M373.846,257.753c.467.42.934.836,1.4,1.256q1.112.994,2.221,1.991l.517.464v-2.231c-.467.42-.934.836-1.4,1.256q-1.112.994-2.221,1.991l-.517.464a1.578,1.578,0,0,0,1.117,2.694,1.739,1.739,0,0,0,1.117-.461c.467-.42.934-.836,1.4-1.256q1.112-.994,2.221-1.991l.517-.464a1.575,1.575,0,0,0,.461-1.117,1.6,1.6,0,0,0-.461-1.117c-.467-.42-.934-.836-1.4-1.256q-1.112-.994-2.221-1.991l-.517-.464a1.657,1.657,0,0,0-1.117-.461,1.608,1.608,0,0,0-1.117.461,1.581,1.581,0,0,0,0,2.231Z" transform="translate(-358.076 -242.545)" fill="#fff"/>
      </g>
    </g>
  </g>
</svg>
