<svg width="47" height="47" viewBox="0 0 47 47" fill="none" xmlns="http://www.w3.org/2000/svg">
<g clip-path="url(#clip0_1575_1461)">
<path d="M29.9511 36.3927V41.7686C30.1257 41.7686 30.3023 41.7686 30.4789 41.7686C31.8585 41.7686 33.238 41.7646 34.6176 41.7696C35.6419 41.7737 36.3786 42.4518 36.3806 43.3803C36.3826 44.3107 35.6469 44.997 34.6246 44.997C27.5422 45 20.4608 45 13.3784 44.997C12.3531 44.997 11.6164 44.3188 11.6113 43.3904C11.6053 42.4559 12.3359 41.7726 13.3602 41.7686C14.9053 41.7636 16.4503 41.7676 18.0307 41.7676V36.3917C17.8319 36.3917 17.6371 36.3917 17.4424 36.3917C13.9597 36.3917 10.478 36.3978 6.99534 36.3897C4.91138 36.3846 3.37642 35.1191 3.04743 33.1462C3.00303 32.8828 3.00303 32.6103 3.00303 32.3419C3 23.9142 3 15.4845 3 7.05487C3.00101 4.59853 4.58744 3.001 7.03167 3.001C18.3365 2.99999 29.6403 2.99999 40.9451 3.001C43.3974 3.001 44.9899 4.59147 44.9899 7.03973C44.9919 15.4694 44.9909 23.8991 44.9899 32.3287C44.9899 34.7992 43.3944 36.3897 40.9088 36.3917C37.4776 36.3957 34.0454 36.3917 30.6142 36.3917H29.9511V36.3927ZM23.9738 6.23138C18.3557 6.23138 12.7376 6.23138 7.12048 6.23138C6.35552 6.23138 6.23038 6.35248 6.23038 7.09625C6.23038 15.4916 6.23038 23.886 6.23038 32.2813C6.23038 33.022 6.36864 33.1623 7.1124 33.1623C18.3647 33.1623 29.6181 33.1623 40.8704 33.1623C41.6203 33.1623 41.7605 33.0231 41.7605 32.2894C41.7605 23.894 41.7605 15.4997 41.7605 7.10432C41.7605 6.35854 41.6324 6.23138 40.8785 6.23138C35.2443 6.23138 29.609 6.23138 23.9748 6.23138H23.9738ZM21.3307 36.425V41.7444H26.6662V36.425H21.3307Z" fill="#AEBAA8"/>
<path d="M22.8061 23.5703C23.5714 22.4258 24.304 21.3338 25.0332 20.2383C26.6677 17.7883 28.2998 15.336 29.9355 12.8872C30.0638 12.6947 30.1887 12.487 30.3602 12.3388C30.7207 12.0273 31.1383 11.99 31.5397 12.2595C31.9352 12.5255 32.0868 12.9105 31.9293 13.3713C31.8617 13.5685 31.7427 13.7528 31.626 13.9278C29.113 17.702 26.5989 21.4749 24.0824 25.2468C23.4839 26.1428 23.0324 26.2209 22.1749 25.5793C20.9802 24.6856 19.7821 23.7943 18.5956 22.8901C18.0367 22.4643 17.9317 21.9066 18.2852 21.4271C18.6364 20.9523 19.2151 20.8893 19.7739 21.2999C20.7737 22.0338 21.7607 22.7839 22.8072 23.5679L22.8061 23.5703Z" fill="#618260"/>
<path d="M21.3306 36.4249H26.6661V41.7443H21.3306V36.4249Z" fill="#FFF000"/>
</g>
<defs>
<clipPath id="clip0_1575_1461">
<rect width="41.9909" height="42" fill="white" transform="translate(3 3)"/>
</clipPath>
</defs>
</svg>
