<svg width="16" height="15" viewBox="0 0 16 15" fill="none" xmlns="http://www.w3.org/2000/svg">
    <path d="M8.857 6.655a47.68 47.68 0 0 0-2.24 2.964 38.142 38.142 0 0 0-1.031 1.558L2.776 7.71c-.33-.395-.9-.483-1.34-.198a.99.99 0 0 0-.263 1.383l3.535 5.247c.088.132.22.264.373.351.197.132.417.198.637.198.417 0 .878-.22 1.075-.593.198-.351 1.186-2.173 1.844-3.161a42.813 42.813 0 0 1 2.02-2.898 38.148 38.148 0 0 1 2.24-2.744c.768-.878 1.602-1.778 2.436-2.547l.022-.022a.996.996 0 0 0 .066-1.383.983.983 0 0 0-1.405-.087 43.167 43.167 0 0 0-2.678 2.612 36.92 36.92 0 0 0-2.481 2.788z" fill="#00582E" stroke="#00582E" stroke-width=".25"/>
</svg>
