<svg id="Layer_1" data-name="Layer 1" xmlns="http://www.w3.org/2000/svg" viewBox="0 0 228.61 144"><defs><style>.cls-1,.cls-2{fill:#231f20;}.cls-1{fill-rule:evenodd;}</style></defs><path class="cls-1" d="M195.13,87.4h-5l2.47-6.32h0Zm7,5.57-6-14.8h-3.26L187,92.86l-1.84.68V94h4.67v-.43L188,93l1.86-4.74h5.64l1.88,4.88-2.51.45V94h9.38v-.43ZM184,89.17l-.23-.09-2.13,2.76a2.48,2.48,0,0,1-2.47,1.29h-4.67v-14l2.43-.43v-.43h-9.3v.43l2.45.43V93.09l-2.45.45V94h15.73ZM161.32,78.31h-15v.43l2.42.43V93.09l-2.42.45V94h16l.68-4.8-.25-.09-2.15,2.76a2.48,2.48,0,0,1-2.47,1.29h-5V86.4h.66c2.7,0,3.85,3.13,3.85,3.13h.12s-.39-2.9-1.45-3.49c1-.47,1.45-3.42,1.45-3.42h-.12s-1.22,3.1-3.85,3.1h-.66V79.13h3.72a3.11,3.11,0,0,1,2.88,1.45l1.9,2.1.21-.18Zm-21.33,0H125v.43l2.42.43V93.09l-2.42.45V94h16l.69-4.8-.25-.09-2.16,2.76a2.48,2.48,0,0,1-2.47,1.29h-5V86.4h.65c2.7,0,3.86,3.13,3.86,3.13h.11s-.39-2.9-1.45-3.49c1-.47,1.45-3.42,1.45-3.42h-.11s-1.23,3.1-3.86,3.1h-.65V79.13h3.71a3.11,3.11,0,0,1,2.88,1.45l1.91,2.1.2-.18ZM121.76,89.17l-.22-.09-2.13,2.76a2.48,2.48,0,0,1-2.47,1.29h-4.67v-14l2.42-.43v-.43H105.4v.43l2.45.43V93.09l-2.45.45V94h15.73ZM88.63,78.31h-15v.43l2.43.43V93.09l-2.43.45V94h16l.67-4.8-.24-.09L88,91.84a2.47,2.47,0,0,1-2.47,1.29h-5V86.4h.65c2.7,0,3.86,3.13,3.86,3.13h.11s-.38-2.9-1.45-3.49c1-.47,1.45-3.42,1.45-3.42H85s-1.23,3.1-3.86,3.1h-.65V79.13h3.71a3.11,3.11,0,0,1,2.88,1.45L89,82.68l.2-.18ZM62.15,85.42H53.27V79.17l2.44-.43v-.43H46.44v.43l2.43.43V93.09l-2.43.45V94h9.27v-.43l-2.44-.45V86.24h8.88v6.85l-2.43.45V94H69v-.43l-2.43-.45V79.17L69,78.74v-.43H59.72v.43l2.43.43ZM43.09,82.73l-.86-4.42h-17l-.88,4.42.27.14L26.14,81c1.17-1.48,1.63-1.86,2.9-1.86h2.58v14L29,93.54V94h9.64v-.43L36,93.09v-14h2.4c1.27,0,1.7.38,2.88,1.86l1.5,1.86Z"/><path class="cls-1" d="M149.19,47.16c-1.32-3.79-5-6.78-10.75-6.78-5.31,0-10.24,3.14-15.42,7a104.84,104.84,0,0,1-14.13-4.31,22,22,0,0,0,1.76-2,24.29,24.29,0,0,0,4.29-9.32C125,30.91,135,25.1,137,14.18a23,23,0,0,0,.34-4,13.11,13.11,0,0,0-.07-1.42,10.07,10.07,0,0,0-.17-1.26,12.18,12.18,0,0,0-.3-1.29l-.06-.2c-1.19-3.69-4.1-5.82-8.36-5.82-8.94,0-12.67,12.79-13.81,18.32L112,30.72c-.14.69-.29,1.34-.43,2-1.35,5.81-2.93,9.51-5.28,12.39-.11.14-.22.28-.34.41l.12,0a26.56,26.56,0,0,0,2.09-1.75,120.18,120.18,0,0,0,13.91,4.32c-2.16,1.63-4.37,3.36-6.67,5A81.13,81.13,0,0,0,100,49.28a15.34,15.34,0,0,0,5.09-4c2.57-3.06,4.36-7.58,5.83-14.61l2.52-12.19c2.68-12.93,7.46-17,11.17-18.47h0l-.1-.06c-4.12.82-8,3.21-10.92,8.69l-.87-.35-.08,0-.22-.07a18.87,18.87,0,0,0-6.35-1.07,15.51,15.51,0,0,0-3.35.35c-5.63,1.21-9,5.5-9,10.79,0,7.42,6.22,11.84,13.87,13.13a63.52,63.52,0,0,1-2.82,10.22,39.16,39.16,0,0,0-12.37-2.32,15.42,15.42,0,0,0-8.76,2.44,10.63,10.63,0,0,0-4.79,9.08c0,6.11,4.61,11.46,15.2,11.46,8.43,0,15.28-3.73,21.38-8.05,6.61,2.27,13,5.1,21,5.1,7,0,10.74-3.63,11.52-7.46h0l-.1,0c-1.23,2.47-5.26,5.15-12.27,5.15-7.2,0-13.21-1.71-19.08-3.56,2.34-1.7,4.58-3.46,6.76-5.1a60.43,60.43,0,0,0,10.33,1.23l.36-.94h0a59.3,59.3,0,0,1-9.7-1c4.77-3.52,9.31-6.29,14.13-6.29,5.14,0,8.39,2.61,9.69,5.91a9.23,9.23,0,0,1,.65,3.45c0,6-5,9.69-12.18,9.69-8.54,0-14.5-3.1-18.56-4.31l0,.09c5,2.26,12.63,6.48,19.8,6.48,7.88,0,11.94-5.21,11.94-12.16a10.12,10.12,0,0,0-.56-3.33m-12.86-37c0,10.86-7.61,17.41-16.45,19.73a30.17,30.17,0,0,1-4.71.83s0,0,0,0l2.53-12.19c.37-1.76.75-3.36,1.15-4.79a17.58,17.58,0,0,1,3.51,6.06h0l.13-.37.35-.95a17.8,17.8,0,0,0-3.16-5.24l-.52-.57C122,3.18,125.64,1.3,129.29,1.3a6.42,6.42,0,0,1,4.44,1.77C135.28,4.53,136.33,6.91,136.33,10.2ZM92.4,40.29a38.88,38.88,0,0,1,12,2.2,13.94,13.94,0,0,1-4.21,5.74,9.51,9.51,0,0,1-1.5.91c-1.28-.12-2.59-.19-4-.19-2.52,0-3.73.12-3.73.12h0l-1.81,5a32.17,32.17,0,0,1,12.1-2.62,40.35,40.35,0,0,1,12.94,2.4c-5.86,4.06-12.36,7.47-20.22,7.47-9.93,0-14.23-4.94-14.23-10.5a9.69,9.69,0,0,1,4-8A14.3,14.3,0,0,1,92.4,40.29ZM113.16,9.58a39.06,39.06,0,0,0-2.89,9l-2.48,12c-7.22-1.24-13.1-5.37-13.1-12.2,0-5.72,4.39-10.17,11.4-10.17A17.27,17.27,0,0,1,113.16,9.58Z"/><path class="cls-2" d="M224.61,121.4q3,0,3-3v-7.86h1v7.76a4.09,4.09,0,0,1-1.06,3,4.14,4.14,0,0,1-3,1.06,3.61,3.61,0,0,1-4-4v-7.86h1v7.75a3.11,3.11,0,0,0,.82,2.37,3.16,3.16,0,0,0,2.26.77m-14.48-10v4.85h1.65c1.91,0,2.87-.81,2.87-2.42a2.2,2.2,0,0,0-.74-1.86,3.69,3.69,0,0,0-2.25-.57Zm-1-.93h2.7q3.85,0,3.85,3.25a3.13,3.13,0,0,1-.78,2.2,2.81,2.81,0,0,1-1.9,1V117a3.28,3.28,0,0,1,1.38,1.43l2.25,3.77h-1.2l-2.17-3.72a2.27,2.27,0,0,0-2-1.26h-1.12v5h-1Zm-9,10.89q3,0,3-3v-7.86h1v7.76a4.09,4.09,0,0,1-1.06,3,4.14,4.14,0,0,1-3,1.06,3.61,3.61,0,0,1-4-4v-7.86h1v7.75a3.11,3.11,0,0,0,.82,2.37A3.16,3.16,0,0,0,200.13,121.4Zm-13.41-10.89h1v10.75h5.21v.93h-6.21Zm-8.87,2.58-1.5,4.57h4.3l-1.48-4.54-.64-1.93h-.06Zm-.18-2.58h1.68l3.85,11.68h-1.07l-1.18-3.6h-4.9l-1.18,3.6h-1.05Zm-10.27-.17a4.43,4.43,0,0,1,3.09.92l-.65.8a3.62,3.62,0,0,0-2.52-.77,3.81,3.81,0,0,0-1.34.22,3.49,3.49,0,0,0-1.19.74,3.54,3.54,0,0,0-.9,1.56,7.91,7.91,0,0,0-.34,2.5,6.43,6.43,0,0,0,.94,3.9,3.26,3.26,0,0,0,2.76,1.21,4.19,4.19,0,0,0,2.32-.53v-4.62h1v5a5.23,5.23,0,0,1-3.52,1,4,4,0,0,1-3.38-1.49,7.32,7.32,0,0,1-1.15-4.49,6.53,6.53,0,0,1,1.36-4.52A4.5,4.5,0,0,1,167.4,110.34Zm-16.53,1.33h-.13v10.52h-1V110.51h1.55l4.35,8.15L157,121h.14V110.51H158v11.68h-1.53l-4.34-8.12Zm-5.25,10.52h-6.25V110.51h6v.93h-5v4.37h4.42v.93h-4.42v4.52h5.25Zm-14.43-.92a3.27,3.27,0,0,0,2-.51,2.09,2.09,0,0,0,.64-1.72c0-1.51-.91-2.27-2.72-2.27h-2.47v4.5Zm2.1-7.71c0-1.43-.8-2.14-2.42-2.14h-2.2v4.44H131a2.45,2.45,0,0,0,1.75-.54A2.31,2.31,0,0,0,133.29,113.56Zm-.55,2.66a2.31,2.31,0,0,1,1.57.82,2.9,2.9,0,0,1,.58,1.92,3,3,0,0,1-.94,2.38,4,4,0,0,1-2.79.85h-3.47V110.51h3.42a3.58,3.58,0,0,1,2.31.72,2.73,2.73,0,0,1,.89,2.24,3.43,3.43,0,0,1-.43,1.8,1.79,1.79,0,0,1-1.14.89Zm-12.51-5.71h1.1l-3.85,7.35v4.33h-1v-4.33l-3.85-7.35h1.17l3.18,6.28h.07Zm-13.75,11.68V111.44H103.3v-.93h7.35v.93h-3.17v10.75Zm-8,0V110.51h1v11.68ZM86.6,116.42a7.28,7.28,0,0,1,1.21-4.5,4.12,4.12,0,0,1,3.47-1.58,4.46,4.46,0,0,1,3,.85l-.61.8a3.88,3.88,0,0,0-2.45-.7,3.07,3.07,0,0,0-2.61,1.25,6.3,6.3,0,0,0-.93,3.78,6.43,6.43,0,0,0,.93,3.8,3.12,3.12,0,0,0,2.71,1.28,3.35,3.35,0,0,0,2.33-.65l.57.72a4.43,4.43,0,0,1-3.07.88,3.87,3.87,0,0,1-3.38-1.55A7.39,7.39,0,0,1,86.6,116.42Zm-11.29-3.33-1.5,4.57h4.3l-1.49-4.54L76,111.19h-.07Zm-.19-2.58h1.69l3.85,11.68H79.59l-1.18-3.6h-4.9l-1.19,3.6h-1Zm-6,0h1.1l-3.85,7.35v4.33h-1v-4.33l-3.85-7.35h1.16l3.19,6.28H66ZM57,122.19V110.51h1v11.68Zm-8,0V111.44H45.84v-.93h7.35v.93H50v10.75Zm-11.9-10.75v4.85h1.65c1.91,0,2.86-.81,2.86-2.42A2.17,2.17,0,0,0,40.9,112a3.64,3.64,0,0,0-2.24-.57Zm-1-.93h2.7c2.56,0,3.85,1.08,3.85,3.25a3.09,3.09,0,0,1-.79,2.2,2.77,2.77,0,0,1-1.9,1V117a3.29,3.29,0,0,1,1.39,1.43l2.25,3.77h-1.2l-2.17-3.72a2.27,2.27,0,0,0-2-1.26H37.13v5h-1Zm-8.87,2.58-1.5,4.57h4.3l-1.48-4.54L28,111.19h-.07Zm-.18-2.58h1.68l3.85,11.68H31.55l-1.19-3.6h-4.9l-1.18,3.6H23.23Zm-8.37,0h1v11.68h-1v-5.47h-6v5.47h-1V110.51h1v5.28h6ZM3.5,121.27a3.22,3.22,0,0,0,2-.51A2.06,2.06,0,0,0,6.17,119c0-1.51-.91-2.27-2.72-2.27H1v4.5Zm2.1-7.71c0-1.43-.81-2.14-2.42-2.14H1v4.44h2.3A2.45,2.45,0,0,0,5,115.32,2.31,2.31,0,0,0,5.6,113.56Zm-.55,2.66a2.31,2.31,0,0,1,1.57.82A2.9,2.9,0,0,1,7.2,119a3,3,0,0,1-.94,2.38,4,4,0,0,1-2.79.85H0V110.51H3.42a3.54,3.54,0,0,1,2.3.72,2.7,2.7,0,0,1,.9,2.24,3.53,3.53,0,0,1-.43,1.8,1.79,1.79,0,0,1-1.14.89Z"/><path class="cls-2" d="M225.57,143.23a2.36,2.36,0,0,0,1.6-.49,1.6,1.6,0,0,0,.57-1.26,1.4,1.4,0,0,0-.25-.83,2,2,0,0,0-.65-.6c-.27-.16-.56-.31-.88-.46l-1-.45a8.23,8.23,0,0,1-.88-.54,2.35,2.35,0,0,1-.66-.77,2.39,2.39,0,0,1-.25-1.08A2.26,2.26,0,0,1,224,135a2.93,2.93,0,0,1,2-.71,3.69,3.69,0,0,1,2.32.71l-.5.66a3,3,0,0,0-1.86-.6,2.13,2.13,0,0,0-1.43.46,1.59,1.59,0,0,0-.06,2.31,4,4,0,0,0,1.13.75c.45.2.89.4,1.34.62a3.21,3.21,0,0,1,1.14.89,2.08,2.08,0,0,1,.47,1.36,2.33,2.33,0,0,1-.83,1.83,3.2,3.2,0,0,1-2.22.73,4.29,4.29,0,0,1-2.87-.94l.5-.65a3.81,3.81,0,0,0,2.42.82m-5.75.64h-5.06v-9.45h4.86v.75h-4.05v3.53h3.57v.76h-3.57v3.65h4.25Zm-14.88-4.67a5.86,5.86,0,0,1,1-3.64,3.32,3.32,0,0,1,2.81-1.28,3.61,3.61,0,0,1,2.38.69l-.5.65a3.11,3.11,0,0,0-2-.57,2.48,2.48,0,0,0-2.11,1,5.15,5.15,0,0,0-.75,3.06,5.21,5.21,0,0,0,.75,3.07,2.51,2.51,0,0,0,2.19,1,2.76,2.76,0,0,0,1.89-.52l.46.58a3.62,3.62,0,0,1-2.48.71,3.15,3.15,0,0,1-2.74-1.26A6,6,0,0,1,204.94,139.2Zm-9.77-3.84h-.11v8.51h-.77v-9.45h1.25l3.52,6.59,1,1.91h.11v-8.5H201v9.45h-1.24l-3.51-6.57Zm-4.6,8.51h-5v-9.45h4.85v.75h-4.05v3.53h3.58v.76h-3.58v3.65h4.25ZM176,135.19v7.91h1.55a3,3,0,0,0,2.41-.89,4.54,4.54,0,0,0,.78-3,4.66,4.66,0,0,0-.81-3.08,3.12,3.12,0,0,0-2.46-.92Zm-.81,8.68v-9.45h2.36a3.83,3.83,0,0,1,3.05,1.12,5.33,5.33,0,0,1,1,3.54,5.44,5.44,0,0,1-1,3.61,3.82,3.82,0,0,1-3.06,1.18Zm-5.38,0v-9.45h.81v9.45Zm-6.93-.64a2.39,2.39,0,0,0,1.6-.49,1.6,1.6,0,0,0,.57-1.26,1.4,1.4,0,0,0-.25-.83,2.08,2.08,0,0,0-.65-.6c-.27-.16-.57-.31-.89-.46s-.64-.29-1-.45a8.4,8.4,0,0,1-.89-.54,2.21,2.21,0,0,1-.65-.77,2.39,2.39,0,0,1,.54-2.84,3,3,0,0,1,2-.71,3.65,3.65,0,0,1,2.32.71l-.5.66a3,3,0,0,0-1.86-.6,2.11,2.11,0,0,0-1.42.46,1.59,1.59,0,0,0-.06,2.31,3.84,3.84,0,0,0,1.13.75c.44.2.89.4,1.34.62a3.21,3.21,0,0,1,1.14.89,2.07,2.07,0,0,1,.46,1.36,2.32,2.32,0,0,1-.82,1.83,3.21,3.21,0,0,1-2.22.73,4.28,4.28,0,0,1-2.87-.94l.49-.65A3.84,3.84,0,0,0,162.83,143.23Zm-5.76.64h-5v-9.45h4.85v.75h-4v3.53h3.57v.76h-3.57v3.65h4.24Zm-14-8.7v3.93h1.34c1.54,0,2.32-.66,2.32-2a1.79,1.79,0,0,0-.6-1.51,3,3,0,0,0-1.82-.46Zm-.8-.75h2.18c2.07,0,3.11.88,3.11,2.63a2.55,2.55,0,0,1-.63,1.78,2.35,2.35,0,0,1-1.54.78v0a2.61,2.61,0,0,1,1.12,1.16l1.82,3.05h-1l-1.75-3a1.84,1.84,0,0,0-1.63-1h-.91v4h-.8Zm-8.84,8.81a2.36,2.36,0,0,0,1.6-.49,1.6,1.6,0,0,0,.57-1.26,1.4,1.4,0,0,0-.25-.83,2,2,0,0,0-.65-.6c-.27-.16-.56-.31-.88-.46l-1-.45a8.4,8.4,0,0,1-.89-.54,2.45,2.45,0,0,1-.65-.77,2.39,2.39,0,0,1-.25-1.08,2.26,2.26,0,0,1,.8-1.76,2.93,2.93,0,0,1,2-.71,3.69,3.69,0,0,1,2.32.71l-.5.66a3,3,0,0,0-1.86-.6,2.13,2.13,0,0,0-1.43.46,1.59,1.59,0,0,0-.06,2.31,4,4,0,0,0,1.13.75c.45.2.89.4,1.34.62a3.21,3.21,0,0,1,1.14.89,2.07,2.07,0,0,1,.46,1.36,2.32,2.32,0,0,1-.82,1.83,3.2,3.2,0,0,1-2.22.73,4.29,4.29,0,0,1-2.87-.94l.5-.65A3.81,3.81,0,0,0,133.44,143.23Zm-11.32-7.87H122v8.51h-.77v-9.45h1.26L126,141l1,1.91h.1v-8.5h.76v9.45h-1.24l-3.5-6.57Zm-3.94,3.74c0,3.26-1.22,4.9-3.65,4.9s-3.55-1.6-3.55-4.81,1.22-4.91,3.65-4.91S118.18,135.89,118.18,139.1Zm-6.36,0a5.49,5.49,0,0,0,.71,3.18,2.74,2.74,0,0,0,4.11,0,5.3,5.3,0,0,0,.7-3.13,5.49,5.49,0,0,0-.71-3.18,2.7,2.7,0,0,0-4.1,0A5.16,5.16,0,0,0,111.82,139.1ZM107,143.87v-9.45h.81v9.45Zm-5.88,0v-8.7H98.52v-.75h5.94v.75H101.9v8.7Zm-10.73-8.51h-.11v8.51h-.76v-9.45h1.25L94.26,141l1,1.91h.11v-8.5h.75v9.45H94.9l-3.5-6.57Zm-3.67,8.51h-5v-9.45h4.85v.75h-4v3.53H86v.76H82.45v3.65h4.24Zm-11.85,0-3.11-9.45h.87L75,141.66l.54,1.63h.06l.54-1.63,2.37-7.24h.83l-3.11,9.45Zm-11.22-8.51h-.11v8.51h-.76v-9.45H64L67.52,141l1,1.91h.11v-8.5h.75v9.45H68.16l-3.5-6.57Zm-3.94,3.74c0,3.26-1.22,4.9-3.65,4.9s-3.54-1.6-3.54-4.81,1.21-4.91,3.65-4.91S59.68,135.89,59.68,139.1Zm-6.36,0a5.4,5.4,0,0,0,.72,3.18,2.74,2.74,0,0,0,4.11,0,7.37,7.37,0,0,0,0-6.31,2.7,2.7,0,0,0-4.1,0A5.23,5.23,0,0,0,53.32,139.1Zm-9,.1a5.93,5.93,0,0,1,1-3.64,3.33,3.33,0,0,1,2.81-1.28,3.61,3.61,0,0,1,2.38.69l-.5.65a3.11,3.11,0,0,0-2-.57,2.49,2.49,0,0,0-2.11,1,5.23,5.23,0,0,0-.74,3.06,5.29,5.29,0,0,0,.74,3.07,2.51,2.51,0,0,0,2.19,1,2.76,2.76,0,0,0,1.89-.52l.46.58a3.6,3.6,0,0,1-2.48.71,3.16,3.16,0,0,1-2.74-1.26A6,6,0,0,1,44.3,139.2Zm-9.94-4.78h.81v8.69h4.22v.76h-5Zm-2.79,9.45H26.52v-9.45h4.85v.75H27.32v3.53h3.57v.76H27.32v3.65h4.25Zm-10.8,0v-8.7H18.2v-.75h5.94v.75H21.58v8.7Zm-4-4.77c0,3.26-1.22,4.9-3.65,4.9s-3.54-1.6-3.54-4.81,1.21-4.91,3.65-4.91S16.8,135.89,16.8,139.1Zm-6.36,0a5.4,5.4,0,0,0,.72,3.18,2.42,2.42,0,0,0,2.06.95,2.39,2.39,0,0,0,2-.91,5.29,5.29,0,0,0,.71-3.13,5.4,5.4,0,0,0-.72-3.18,2.4,2.4,0,0,0-2.06-1,2.4,2.4,0,0,0-2,.93A5.23,5.23,0,0,0,10.44,139.1Zm-4.71-4.68h.81v9.45H5.73v-4.42H.85v4.42H.05v-9.45h.8v4.27H5.73Z"/></svg>