<svg id="Page-1" xmlns="http://www.w3.org/2000/svg" width="12.528" height="12.528" viewBox="0 0 12.528 12.528">
  <g id="activate-mobile-1" transform="translate(0 0)">
    <g id="icon">
      <path id="Shape" d="M6.264,0a6.264,6.264,0,1,0,6.264,6.264A6.264,6.264,0,0,0,6.264,0Zm1.3,9.708Q7.084,9.9,6.8,10a2.035,2.035,0,0,1-.669.1,1.334,1.334,0,0,1-.911-.286.922.922,0,0,1-.324-.725,2.633,2.633,0,0,1,.024-.349c.016-.119.042-.252.078-.4l.4-1.425c.036-.137.066-.267.091-.388a1.719,1.719,0,0,0,.036-.336.517.517,0,0,0-.112-.38A.639.639,0,0,0,4.981,5.7a1.131,1.131,0,0,0-.321.048c-.109.033-.2.064-.281.093L4.486,5.4q.4-.161.758-.276a2.24,2.24,0,0,1,.684-.116,1.309,1.309,0,0,1,.9.281.934.934,0,0,1,.315.73q0,.093-.022.327a2.19,2.19,0,0,1-.081.43L6.637,8.2c-.033.114-.062.244-.089.39a2.064,2.064,0,0,0-.039.332.477.477,0,0,0,.127.386.71.71,0,0,0,.439.1,1.272,1.272,0,0,0,.332-.051,1.886,1.886,0,0,0,.268-.09ZM7.5,3.94a.958.958,0,0,1-.676.261.968.968,0,0,1-.679-.261.833.833,0,0,1-.283-.633.841.841,0,0,1,.283-.634.961.961,0,0,1,.679-.264.95.95,0,0,1,.676.264.854.854,0,0,1,0,1.267Z" transform="translate(0 0)" fill="#c4b67e"/>
    </g>
  </g>
</svg>
