<?xml version="1.0" encoding="UTF-8"?>
<!DOCTYPE svg PUBLIC "-//W3C//DTD SVG 1.1//EN" "http://www.w3.org/Graphics/SVG/1.1/DTD/svg11.dtd">
<!-- Creator: CorelDRAW 2021.5 -->
<svg xmlns="http://www.w3.org/2000/svg" xml:space="preserve" width="210mm" height="297mm" version="1.1" style="shape-rendering:geometricPrecision; text-rendering:geometricPrecision; image-rendering:optimizeQuality; fill-rule:evenodd; clip-rule:evenodd"
viewBox="0 0 21000 29700"
 xmlns:xlink="http://www.w3.org/1999/xlink"
 xmlns:xodm="http://www.corel.com/coreldraw/odm/2003">
 <defs>
  <style type="text/css">
   <![CDATA[
    .fil0 {fill:#FFEE05}
    .fil1 {fill:#00582E}
    .fil2 {fill:white;fill-rule:nonzero}
    .fil4 {fill:#2B2B2A;fill-rule:nonzero}
    .fil3 {fill:#00582E;fill-rule:nonzero}
   ]]>
  </style>
 </defs>
 <g id="Layer_x0020_1">
  <metadata id="CorelCorpID_0Corel-Layer"/>
  <polygon class="fil0" points="460.65,8298.19 12841.54,8298.19 12841.54,21270.88 460.65,21270.88 "/>
  <polygon class="fil1" points="12843.44,8298.19 18376.82,8298.19 18376.82,21270.31 12843.44,21270.31 "/>
  <path class="fil2" d="M17283.65 18803.78c-333.42,367.95 -670.13,639.39 -1010.12,811.3 -339.99,171.92 -699.69,257.87 -1077.46,257.87 -454.96,0 -811.38,-117.62 -1065.96,-352.87 -254.59,-235.25 -382.7,-551.93 -382.7,-950.05 0,-450.89 137.97,-894.24 412.26,-1330.06 274.29,-435.81 642.21,-790.19 1105.38,-1061.63 464.82,-272.95 918.15,-408.67 1364.9,-408.67 349.85,0 611,66.35 783.46,200.56 174.1,134.21 261.15,298.59 261.15,493.12 0,182.47 -62.97,394.75 -183.96,526.49 -90.93,99.03 -200.38,150.8 -331.78,150.8 -98.54,0 -182.31,-30.16 -248.01,-88.97 -65.7,-58.81 -98.55,-132.7 -98.55,-220.17 0,-55.79 12.49,-167.91 36.14,-214.33 23.98,-47.09 73.91,-104.06 149.46,-170.41 75.56,-66.35 121.54,-113.1 137.97,-143.26 14.78,-28.65 22.99,-60.32 22.99,-91.99 0,-61.83 -29.56,-114.61 -90.33,-155.32 -93.62,-58.82 -225.02,-88.97 -395.84,-88.97 -313.71,0 -625.78,102.54 -932.92,306.12 -308.78,202.07 -571.58,491.61 -790.03,865.6 -262.8,453.91 -394.19,906.31 -394.19,1360.22 0,300.09 93.62,538.36 279.22,713.29 185.6,176.43 440.18,263.9 760.46,263.9 246.37,0 491.1,-57.31 734.18,-170.41 241.45,-113.1 514.1,-319.7 814.67,-616.77l139.61 114.61z"/>
  <path class="fil3" d="M4682.15 10840.06l0 2205.02 1824.26 0 0 513.1 -1824.26 0 0 4357.55c0,435.53 72.7,728.33 218.24,878.54 142.49,152.65 328.7,227.73 555.71,227.73 189.07,0 369.46,-50.05 546.94,-150.16 174.57,-100.12 311.35,-247.8 410.27,-443.02l331.65 0c-200.7,478.05 -480.06,838.5 -843.75,1081.25 -363.64,242.79 -739.01,362.92 -1125.96,362.92 -261.86,0 -517.86,-62.54 -768.14,-187.73 -250.18,-125.14 -433.53,-302.81 -552.76,-535.59 -119.32,-230.26 -180.39,-588.18 -180.39,-1073.77l0 -4517.72 -1233.65 0 0 -240.27c311.3,-107.64 631.37,-290.32 957.2,-545.61 325.89,-257.81 619.74,-563.19 872.88,-913.58 130.9,-185.21 314.2,-525.59 546.99,-1018.66l264.77 0z"/>
  <path class="fil3" d="M10065.07 9013.23l0 9280.06c0,437.96 33.95,727.28 96.59,870.68 62.68,140.77 161.89,250.23 294.99,323.21 133.15,72.99 378.56,112.08 741.44,112.08l0 273.73 -3433 0 0 -273.73c321.12,0 540.41,-33.85 655.25,-101.64 117.51,-65.16 211.48,-174.67 276.74,-328.45 65.26,-151.17 99.2,-443.16 99.2,-875.88l0 -6355.25c0,-789.87 -18.3,-1274.74 -52.25,-1454.61 -36.51,-179.87 -93.96,-304.96 -172.28,-370.13 -80.95,-67.79 -180.15,-99.06 -302.86,-99.06 -133.1,0 -300.19,39.09 -503.8,122.52l-130.52 -268.49 2088.5 -855.04 342 0z"/>
  <path class="fil4" d="M19569.19 8298.19c162.95,0 321.93,41.76 477.39,125.19 155.03,83.9 276.26,203.37 362.78,359.26 86.53,155.45 130.01,317.97 130.01,487.06 0,167.33 -42.62,328.08 -128.24,482.25 -85.24,154.6 -205.13,274.5 -358.83,359.69 -154.17,85.66 -314.92,128.23 -483.11,128.23 -168.23,0 -329.41,-42.57 -483.1,-128.23 -154.18,-85.19 -274.07,-205.09 -359.74,-359.69 -86.05,-154.17 -128.66,-314.92 -128.66,-482.25 0,-169.09 43.47,-331.61 130.43,-487.06 86.95,-155.89 208.18,-275.36 363.64,-359.26 155.03,-83.43 314.49,-125.19 477.43,-125.19zm0 160.75c-136.58,0 -269.25,35.14 -398.34,104.98 -129.15,69.84 -230.16,169.95 -303.05,299.52 -72.94,130 -109.36,265.3 -109.36,406.26 0,139.68 35.99,273.64 107.59,401.88 71.6,128.23 171.72,228.39 300.43,299.95 128.67,71.6 262.63,107.59 402.73,107.59 139.63,0 274.07,-35.99 402.74,-107.59 128.66,-71.56 228.39,-171.72 299.52,-299.95 71.17,-128.24 106.74,-262.2 106.74,-401.88 0,-140.96 -36.04,-276.26 -108.51,-406.26 -72.46,-129.57 -173.47,-229.68 -303.05,-299.52 -129.52,-69.84 -262.19,-104.98 -397.44,-104.98zm-426.04 1347.02l0 -1044.39 358.83 0c122.99,0 211.71,9.2 266.58,28.55 54.92,19.31 98.39,53.11 131.33,101.02 32.52,48.29 48.77,99.25 48.77,153.26 0,76.42 -27.27,142.73 -81.71,199.42 -54.44,56.63 -126.95,88.24 -216.95,95.29 36.9,15.35 66.74,33.8 88.71,55.35 42.15,41.28 93.54,110.22 154.6,207.28l127.34 204.22 -205.95 0 -92.67 -164.7c-72.94,-129.1 -131.34,-210.38 -176.15,-242.89 -30.7,-24.12 -75.94,-35.99 -135.24,-35.99l-98.83 0 0 443.58 -168.66 0zm168.66 -587.65l204.66 0c97.49,0 164.28,-14.92 199.84,-43.91 35.56,-28.98 53.58,-67.64 53.58,-115.93 0,-30.75 -8.77,-58.45 -25.93,-83 -17.12,-24.17 -40.81,-42.62 -71.13,-54.49 -30.75,-12.3 -86.95,-18.02 -169.52,-18.02l-191.5 0 0 315.35z"/>
 </g>
</svg>
