<?xml version="1.0" standalone="no"?>
<!DOCTYPE svg PUBLIC "-//W3C//DTD SVG 20010904//EN"
 "http://www.w3.org/TR/2001/REC-SVG-20010904/DTD/svg10.dtd">
<svg version="1.0" xmlns="http://www.w3.org/2000/svg"
 width="131.000000pt" height="86.000000pt" viewBox="0 0 131.000000 86.000000"
 preserveAspectRatio="xMidYMid meet">

<g transform="translate(0.000000,86.000000) scale(0.100000,-0.100000)"
fill="#000000" stroke="none">
<path d="M800 435 l0 -425 180 0 180 0 0 425 0 425 -180 0 -180 0 0 -425z
m308 -77 c18 -18 14 -56 -7 -67 -26 -14 -50 12 -31 34 6 8 9 19 5 25 -18 30
-98 -9 -130 -65 -31 -53 -34 -119 -6 -135 33 -17 76 -11 115 15 47 32 47 14 0
-21 -25 -20 -51 -29 -89 -32 -47 -4 -57 -1 -79 21 -58 58 -14 168 89 221 36
19 116 21 133 4z"/>
<path d="M535 773 c-76 -31 -89 -43 -47 -43 21 0 35 -6 42 -19 14 -26 14 -556
0 -582 -6 -11 -21 -19 -35 -19 -14 0 -25 -4 -25 -10 0 -6 45 -10 115 -10 70 0
115 4 115 10 0 6 -11 10 -24 10 -54 0 -56 16 -56 367 0 252 -3 323 -12 322 -7
0 -40 -12 -73 -26z"/>
<path d="M241 673 c-21 -45 -68 -98 -105 -118 -47 -25 -45 -35 4 -35 l40 0 0
-174 c0 -159 2 -175 20 -199 42 -53 134 -41 179 22 18 25 20 31 7 31 -9 0 -16
-4 -16 -8 0 -5 -12 -14 -26 -21 -22 -10 -31 -9 -50 4 -24 15 -24 18 -24 180
l0 165 55 0 c42 0 55 3 55 15 0 12 -13 15 -55 15 l-55 0 0 69 c0 76 -10 95
-29 54z"/>
</g>
</svg>
