<?xml version="1.0" encoding="utf-8"?>
<!-- Generator: Adobe Illustrator 25.4.1, SVG Export Plug-In . SVG Version: 6.00 Build 0)  -->
<svg version="1.1" id="Layer_1" xmlns:xodm="http://www.corel.com/coreldraw/odm/2003"
	 xmlns="http://www.w3.org/2000/svg" xmlns:xlink="http://www.w3.org/1999/xlink" x="0px" y="0px" viewBox="0 0 595.3 415.9"
	 style="enable-background:new 0 0 595.3 415.9;" xml:space="preserve">
<style type="text/css">
	.st0{fill-rule:evenodd;clip-rule:evenodd;fill:#FFEE05;}
	.st1{fill-rule:evenodd;clip-rule:evenodd;fill:#00582E;}
	.st2{fill:#FFFFFF;}
	.st3{fill:#00582E;}
</style>
<g id="Layer_x0020_1">
	<polygon class="st0" points="13.1,22.2 364,22.2 364,390 13.1,390 	"/>
	<polygon class="st1" points="364.1,22.2 520.9,22.2 520.9,389.9 364.1,389.9 	"/>
	<path class="st2" d="M489.9,320c-9.5,10.4-19,18.1-28.6,23s-19.8,7.3-30.5,7.3c-12.9,0-23-3.3-30.2-10s-10.8-15.6-10.8-26.9
		c0-12.8,3.9-25.3,11.7-37.7c7.8-12.4,18.2-22.4,31.3-30.1c13.2-7.7,26-11.6,38.7-11.6c9.9,0,17.3,1.9,22.2,5.7
		c4.9,3.8,7.4,8.5,7.4,14c0,5.2-1.8,11.2-5.2,14.9c-2.6,2.8-5.7,4.3-9.4,4.3c-2.8,0-5.2-0.9-7-2.5c-1.9-1.7-2.8-3.8-2.8-6.2
		c0-1.6,0.4-4.8,1-6.1c0.7-1.3,2.1-2.9,4.2-4.8s3.4-3.2,3.9-4.1c0.4-0.8,0.7-1.7,0.7-2.6c0-1.8-0.8-3.2-2.6-4.4
		c-2.7-1.7-6.4-2.5-11.2-2.5c-8.9,0-17.7,2.9-26.4,8.7c-8.8,5.7-16.2,13.9-22.4,24.5c-7.4,12.9-11.2,25.7-11.2,38.6
		c0,8.5,2.7,15.3,7.9,20.2c5.3,5,12.5,7.5,21.6,7.5c7,0,13.9-1.6,20.8-4.8c6.8-3.2,14.6-9.1,23.1-17.5L489.9,320L489.9,320z"/>
	<path class="st3" d="M132.7,94.3v62.5h51.7v14.5h-51.7v123.5c0,12.3,2.1,20.6,6.2,24.9c4,4.3,9.3,6.5,15.8,6.5
		c5.4,0,10.5-1.4,15.5-4.3c4.9-2.8,8.8-7,11.6-12.6h9.4c-5.7,13.6-13.6,23.8-23.9,30.6c-10.3,6.9-20.9,10.3-31.9,10.3
		c-7.4,0-14.7-1.8-21.8-5.3c-7.1-3.5-12.3-8.6-15.7-15.2c-3.4-6.5-5.1-16.7-5.1-30.4v-128h-35v-6.8c8.8-3.1,17.9-8.2,27.1-15.5
		s17.6-16,24.7-25.9c3.7-5.3,8.9-14.9,15.5-28.9L132.7,94.3L132.7,94.3z"/>
	<path class="st3" d="M285.3,42.5v263.1c0,12.4,1,20.6,2.7,24.7c1.8,4,4.6,7.1,8.4,9.2c3.8,2.1,10.7,3.2,21,3.2v7.8h-97.3v-7.8
		c9.1,0,15.3-1,18.6-2.9c3.3-1.8,6-5,7.8-9.3s2.8-12.6,2.8-24.8V125.4c0-22.4-0.5-36.1-1.5-41.2s-2.7-8.6-4.9-10.5
		c-2.3-1.9-5.1-2.8-8.6-2.8c-3.8,0-8.5,1.1-14.3,3.5l-3.7-7.6l59.2-24.2L285.3,42.5L285.3,42.5z"/>
	<path class="st2" d="M554.7,22.2c4.6,0,9.1,1.2,13.5,3.5c4.4,2.4,7.8,5.8,10.3,10.2s3.7,9,3.7,13.8c0,4.7-1.2,9.3-3.6,13.7
		c-2.4,4.4-5.8,7.8-10.2,10.2c-4.4,2.4-8.9,3.6-13.7,3.6s-9.3-1.2-13.7-3.6s-7.8-5.8-10.2-10.2c-2.4-4.4-3.6-8.9-3.6-13.7
		c0-4.8,1.2-9.4,3.7-13.8c2.5-4.4,5.9-7.8,10.3-10.2C545.6,23.4,550.1,22.2,554.7,22.2z M554.7,26.8c-3.9,0-7.6,1-11.3,3
		s-6.5,4.8-8.6,8.5s-3.1,7.5-3.1,11.5s1,7.8,3,11.4s4.9,6.5,8.5,8.5s7.4,3,11.4,3s7.8-1,11.4-3c3.6-2,6.5-4.9,8.5-8.5s3-7.4,3-11.4
		s-1-7.8-3.1-11.5s-4.9-6.5-8.6-8.5C562.3,27.8,558.6,26.8,554.7,26.8z M542.6,65V35.4h10.2c3.5,0,6,0.3,7.6,0.8s2.8,1.5,3.7,2.9
		s1.4,2.8,1.4,4.3c0,2.2-0.8,4-2.3,5.7c-1.5,1.6-3.6,2.5-6.1,2.7c1,0.4,1.9,1,2.5,1.6c1.2,1.2,2.7,3.1,4.4,5.9l3.6,5.8h-5.8
		l-2.6-4.7c-2.1-3.7-3.7-6-5-6.9c-0.9-0.7-2.2-1-3.8-1h-2.8V65H542.6L542.6,65z M547.4,48.3h5.8c2.8,0,4.7-0.4,5.7-1.2
		c1-0.8,1.5-1.9,1.5-3.3c0-0.9-0.2-1.7-0.7-2.4s-1.2-1.2-2-1.5c-0.9-0.3-2.5-0.5-4.8-0.5h-5.4L547.4,48.3L547.4,48.3z"/>
</g>
</svg>
