<?xml version="1.0" encoding="utf-8"?>
<!-- Generator: Adobe Illustrator 25.1.0, SVG Export Plug-In . SVG Version: 6.00 Build 0)  -->
<svg version="1.1" id="Layer_1" xmlns="http://www.w3.org/2000/svg" xmlns:xlink="http://www.w3.org/1999/xlink" x="0px" y="0px"
	 viewBox="0 0 271.6 38.7" style="enable-background:new 0 0 271.6 38.7;" xml:space="preserve">
<style type="text/css">
	.st0{fill-rule:evenodd;clip-rule:evenodd;fill:#DF4E0C;}
	.st1{fill-rule:evenodd;clip-rule:evenodd;fill:#777674;}
</style>
<g id="Layer_2_1_">
	<g id="Layer_1-2">
		<path class="st0" d="M9,25.1V8.3h2.3c5.5,0,7.8,2.9,7.8,8.2v0.3c0,5.4-2.5,8.3-7.7,8.3L9,25.1z M3.1,29.6h8.5
			c9.1,0,13.7-5.2,13.7-13v-0.3c0-7.8-4.5-12.7-13.6-12.7H3.1V29.6L3.1,29.6z M29.1,29.6h5.2v-19h-5.2V29.6z M31.7,8.1
			c1.6-0.1,2.8-1.4,2.8-3c-0.1-1.6-1.4-2.8-3-2.8c-1.5,0.1-2.8,1.3-2.8,2.9C28.8,6.8,30.1,8.1,31.7,8.1C31.7,8.1,31.7,8.1,31.7,8.1z
			 M39.2,29.6h5.2v-11c0-2.8,1.7-4.2,4-4.2c2.3,0,3.3,1.2,3.3,3.8v11.3H57V17.5c0-5.1-2.7-7.3-6.4-7.3c-3.2,0-5.2,1.6-6.2,3.5v-3
			h-5.3L39.2,29.6L39.2,29.6z M61.7,29.6h5.2v-19h-5.3L61.7,29.6L61.7,29.6z M64.3,8.1c1.6,0.1,2.9-1.2,3-2.8c0,0,0-0.1,0-0.1
			c0.1-1.7-1.2-3.1-2.9-3.1c-1.7-0.1-3.1,1.2-3.1,2.9c-0.1,1.7,1.2,3.1,2.9,3.1C64.2,8.1,64.3,8.1,64.3,8.1z M71.8,29.6h5.3v-11
			c0-2.8,1.7-4.2,4-4.2c2.3,0,3.3,1.2,3.3,3.8v11.3h5.3V17.5c0-5.1-2.7-7.3-6.4-7.3c-3.2,0-5.2,1.6-6.2,3.5v-3h-5.3L71.8,29.6
			L71.8,29.6z M102.6,36.7c6.2,0,10-2.9,10-8.5V10.6h-5.3v2.8c-1.1-1.9-2.9-3.3-6-3.3c-4.7,0-8.4,3.8-8.4,9.3v0.3
			c0,5.6,3.7,9.1,8.3,9.1c2.5,0,4.8-1.4,6.1-3.5v2.9c0,3-1.6,4.7-4.8,4.7c-2.7,0-3.9-1.1-4.2-2.8h-5.2C93.6,34,96.4,36.7,102.6,36.7
			L102.6,36.7z M102.8,24.9c-2.6,0-4.5-2-4.5-5.1v-0.3c0-3.1,1.6-5.2,4.6-5.2c2.9,0,4.6,2,4.6,5.2v0.3
			C107.5,22.9,105.5,24.9,102.8,24.9L102.8,24.9z"/>
		<path class="st1" d="M117.7,29.6h5.8v-9.4h3.3c5.9,0,9.7-2.6,9.7-8.1V12c0-5.5-3.6-8.3-9.9-8.3h-9V29.6L117.7,29.6z M123.5,16.1
			v-8h3c2.8,0,4.4,1.1,4.4,3.9v0.1c0,2.6-1.5,4-4.4,4H123.5z M139.9,29.6h5.3v-9.5c0-3.6,2.3-4.9,6.1-4.9v-4.9
			c-3.1,0-4.9,1.4-6.1,3.9v-3.6h-5.3V29.6z M155,29.6h5.2v-19H155V29.6z M157.6,8.1c1.6,0.1,2.9-1.2,3-2.8c0,0,0-0.1,0-0.1
			c0.1-1.7-1.2-3.1-2.9-3.1c-1.7-0.1-3.1,1.2-3.1,2.9c-0.1,1.7,1.2,3.1,2.9,3.1C157.5,8.1,157.5,8.1,157.6,8.1L157.6,8.1z
			 M170.2,29.6h5.9l6.9-19h-5.1l-4.5,13.6l-4.5-13.6h-5.7L170.2,29.6L170.2,29.6z M186,29.6h5.2v-19H186L186,29.6L186,29.6z
			 M188.6,8.1c1.6-0.1,2.8-1.4,2.8-3c-0.1-1.6-1.4-2.8-3-2.8c-1.5,0.1-2.8,1.3-2.8,2.9C185.6,6.8,186.9,8.1,188.6,8.1
			C188.5,8.1,188.5,8.1,188.6,8.1z M196.2,29.6h5.2V2h-5.3L196.2,29.6L196.2,29.6z M215,30c5.2,0,8.5-2.3,9.1-6.4h-5
			c-0.3,1.6-1.5,2.7-4,2.7c-2.9,0-4.6-1.8-4.7-5h13.7v-1.5c0-6.8-4.4-9.7-9.3-9.7c-5.5,0-9.8,3.9-9.8,9.9v0.3
			C205.1,26.4,209.2,30,215,30L215,30z M210.4,18.1c0.4-2.7,2-4.3,4.4-4.3c2.5,0,4,1.4,4.2,4.3H210.4z M236,36.7
			c6.2,0,10-2.9,10-8.5V10.6h-5.2v2.8c-1.1-1.9-2.9-3.3-6-3.3c-4.7,0-8.4,3.8-8.4,9.3v0.3c0,5.6,3.7,9.1,8.3,9.1
			c2.5,0,4.8-1.4,6.1-3.5v2.9c0,3-1.6,4.7-4.8,4.7c-2.7,0-3.9-1.1-4.2-2.8h-5.2C227,34,229.8,36.7,236,36.7L236,36.7z M236.2,24.9
			c-2.6,0-4.5-2-4.5-5.1v-0.3c0-3.1,1.6-5.2,4.6-5.2s4.6,2,4.6,5.2v0.3C240.9,22.9,239,24.9,236.2,24.9L236.2,24.9z M259.4,30.1
			c5.2,0,8.5-2.3,9.1-6.4h-5c-0.3,1.6-1.5,2.7-4,2.7c-2.9,0-4.6-1.8-4.7-5h13.7v-1.5c0-6.8-4.4-9.7-9.3-9.7c-5.5,0-9.8,3.9-9.8,9.9
			v0.3C249.5,26.4,253.6,30,259.4,30.1L259.4,30.1z M254.9,18.1c0.4-2.7,2-4.3,4.4-4.3c2.5,0,4,1.4,4.2,4.3H254.9z"/>
	</g>
</g>
</svg>
